%TF.GenerationSoftware,KiCad,Pcbnew,(6.0.2-0)*%
%TF.CreationDate,2022-03-29T15:10:37+01:00*%
%TF.ProjectId,controller,636f6e74-726f-46c6-9c65-722e6b696361,V1.2*%
%TF.SameCoordinates,Original*%
%TF.FileFunction,Legend,Bot*%
%TF.FilePolarity,Positive*%
%FSLAX46Y46*%
G04 Gerber Fmt 4.6, Leading zero omitted, Abs format (unit mm)*
G04 Created by KiCad (PCBNEW (6.0.2-0)) date 2022-03-29 15:10:37*
%MOMM*%
%LPD*%
G01*
G04 APERTURE LIST*
%ADD10C,0.150000*%
%ADD11C,0.500000*%
G04 APERTURE END LIST*
D10*
%TO.C,BT1*%
X139628571Y-102814285D02*
X139676190Y-102957142D01*
X139723809Y-103004761D01*
X139819047Y-103052380D01*
X139961904Y-103052380D01*
X140057142Y-103004761D01*
X140104761Y-102957142D01*
X140152380Y-102861904D01*
X140152380Y-102480952D01*
X139152380Y-102480952D01*
X139152380Y-102814285D01*
X139200000Y-102909523D01*
X139247619Y-102957142D01*
X139342857Y-103004761D01*
X139438095Y-103004761D01*
X139533333Y-102957142D01*
X139580952Y-102909523D01*
X139628571Y-102814285D01*
X139628571Y-102480952D01*
X139152380Y-103338095D02*
X139152380Y-103909523D01*
X140152380Y-103623809D02*
X139152380Y-103623809D01*
X140152380Y-104766666D02*
X140152380Y-104195238D01*
X140152380Y-104480952D02*
X139152380Y-104480952D01*
X139295238Y-104385714D01*
X139390476Y-104290476D01*
X139438095Y-104195238D01*
%TO.C,BT2*%
X170108571Y-102849285D02*
X170156190Y-102992142D01*
X170203809Y-103039761D01*
X170299047Y-103087380D01*
X170441904Y-103087380D01*
X170537142Y-103039761D01*
X170584761Y-102992142D01*
X170632380Y-102896904D01*
X170632380Y-102515952D01*
X169632380Y-102515952D01*
X169632380Y-102849285D01*
X169680000Y-102944523D01*
X169727619Y-102992142D01*
X169822857Y-103039761D01*
X169918095Y-103039761D01*
X170013333Y-102992142D01*
X170060952Y-102944523D01*
X170108571Y-102849285D01*
X170108571Y-102515952D01*
X169632380Y-103373095D02*
X169632380Y-103944523D01*
X170632380Y-103658809D02*
X169632380Y-103658809D01*
X169727619Y-104230238D02*
X169680000Y-104277857D01*
X169632380Y-104373095D01*
X169632380Y-104611190D01*
X169680000Y-104706428D01*
X169727619Y-104754047D01*
X169822857Y-104801666D01*
X169918095Y-104801666D01*
X170060952Y-104754047D01*
X170632380Y-104182619D01*
X170632380Y-104801666D01*
D11*
%TO.C,BT1*%
X125730000Y-63595000D02*
X136525000Y-63595000D01*
X125730000Y-143605000D02*
X136525000Y-143605000D01*
X142875000Y-63595000D02*
X153670000Y-63595000D01*
X153670000Y-63595000D02*
X153670000Y-143605000D01*
X142899398Y-143605000D02*
X153670000Y-143605000D01*
X125730000Y-63595000D02*
X125730000Y-143605000D01*
%TO.C,BT2*%
X156210000Y-63630000D02*
X156210000Y-143640000D01*
X173355000Y-63630000D02*
X184150000Y-63630000D01*
X184150000Y-63630000D02*
X184150000Y-143640000D01*
X156210000Y-143640000D02*
X167005000Y-143640000D01*
X173379398Y-143640000D02*
X184150000Y-143640000D01*
X156210000Y-63630000D02*
X167005000Y-63630000D01*
%TD*%
M02*
