%TF.GenerationSoftware,KiCad,Pcbnew,(6.0.2-0)*%
%TF.CreationDate,2022-03-25T12:04:45+00:00*%
%TF.ProjectId,controller,636f6e74-726f-46c6-9c65-722e6b696361,V1.2*%
%TF.SameCoordinates,Original*%
%TF.FileFunction,Soldermask,Bot*%
%TF.FilePolarity,Negative*%
%FSLAX46Y46*%
G04 Gerber Fmt 4.6, Leading zero omitted, Abs format (unit mm)*
G04 Created by KiCad (PCBNEW (6.0.2-0)) date 2022-03-25 12:04:45*
%MOMM*%
%LPD*%
G01*
G04 APERTURE LIST*
G04 Aperture macros list*
%AMRoundRect*
0 Rectangle with rounded corners*
0 $1 Rounding radius*
0 $2 $3 $4 $5 $6 $7 $8 $9 X,Y pos of 4 corners*
0 Add a 4 corners polygon primitive as box body*
4,1,4,$2,$3,$4,$5,$6,$7,$8,$9,$2,$3,0*
0 Add four circle primitives for the rounded corners*
1,1,$1+$1,$2,$3*
1,1,$1+$1,$4,$5*
1,1,$1+$1,$6,$7*
1,1,$1+$1,$8,$9*
0 Add four rect primitives between the rounded corners*
20,1,$1+$1,$2,$3,$4,$5,0*
20,1,$1+$1,$4,$5,$6,$7,0*
20,1,$1+$1,$6,$7,$8,$9,0*
20,1,$1+$1,$8,$9,$2,$3,0*%
G04 Aperture macros list end*
%ADD10RoundRect,0.500000X-1.000000X0.500000X-1.000000X-0.500000X1.000000X-0.500000X1.000000X0.500000X0*%
%ADD11C,1.524000*%
%ADD12RoundRect,0.500000X1.000000X-0.500000X1.000000X0.500000X-1.000000X0.500000X-1.000000X-0.500000X0*%
%ADD13C,3.000000*%
%ADD14C,4.000000*%
%ADD15R,5.120000X5.300000*%
G04 APERTURE END LIST*
D10*
%TO.C,PWR_SW1*%
X198120000Y-57040000D03*
X198120000Y-61540000D03*
X198120000Y-66040000D03*
%TD*%
D11*
%TO.C,U1*%
X109245000Y-119300000D03*
X109245000Y-109300000D03*
X121895000Y-109300000D03*
X121895000Y-119300000D03*
X118820000Y-120050000D03*
X112320000Y-120050000D03*
X118820000Y-124550000D03*
X112320000Y-124550000D03*
X113070000Y-105570000D03*
X115570000Y-105570000D03*
X118070000Y-105570000D03*
X124300000Y-111800000D03*
X124300000Y-114300000D03*
X124300000Y-116800000D03*
%TD*%
%TO.C,BZ1*%
X200830000Y-137138466D03*
X190330000Y-137138466D03*
%TD*%
%TO.C,U2*%
X200635000Y-119300000D03*
X200635000Y-109300000D03*
X187985000Y-119300000D03*
X187985000Y-109300000D03*
X197560000Y-120050000D03*
X191060000Y-120050000D03*
X197560000Y-124550000D03*
X191060000Y-124550000D03*
X191810000Y-105570000D03*
X194310000Y-105570000D03*
X196810000Y-105570000D03*
X203040000Y-111800000D03*
X203040000Y-114300000D03*
X203040000Y-116800000D03*
%TD*%
D12*
%TO.C,SW1*%
X111760000Y-65460000D03*
X111760000Y-60960000D03*
X111760000Y-56460000D03*
%TD*%
D13*
%TO.C,BT1*%
X129950000Y-69350000D03*
D14*
X139700000Y-130600000D03*
X139700000Y-76600000D03*
D15*
X139700000Y-63500000D03*
X139700000Y-143700000D03*
%TD*%
D14*
%TO.C,BT2*%
X170180000Y-76635000D03*
X170180000Y-130635000D03*
D13*
X160430000Y-69385000D03*
D15*
X170180000Y-63535000D03*
X170180000Y-143735000D03*
%TD*%
M02*
