%TF.GenerationSoftware,KiCad,Pcbnew,(6.0.2)*%
%TF.CreationDate,2022-03-26T13:40:34+00:00*%
%TF.ProjectId,controller,636f6e74-726f-46c6-9c65-722e6b696361,V1.2*%
%TF.SameCoordinates,Original*%
%TF.FileFunction,Legend,Top*%
%TF.FilePolarity,Positive*%
%FSLAX46Y46*%
G04 Gerber Fmt 4.6, Leading zero omitted, Abs format (unit mm)*
G04 Created by KiCad (PCBNEW (6.0.2)) date 2022-03-26 13:40:34*
%MOMM*%
%LPD*%
G01*
G04 APERTURE LIST*
%ADD10C,0.150000*%
%ADD11C,0.200000*%
%ADD12C,0.300000*%
%ADD13C,0.120000*%
G04 APERTURE END LIST*
D10*
X158750000Y-52070000D02*
X160020000Y-52070000D01*
X160020000Y-52070000D02*
X160020000Y-67310000D01*
X160020000Y-67310000D02*
X158750000Y-67310000D01*
X158750000Y-67310000D02*
X158750000Y-52070000D01*
G36*
X158750000Y-52070000D02*
G01*
X160020000Y-52070000D01*
X160020000Y-67310000D01*
X158750000Y-67310000D01*
X158750000Y-52070000D01*
G37*
X158750000Y-71120000D02*
X160020000Y-71120000D01*
X160020000Y-71120000D02*
X160020000Y-92710000D01*
X160020000Y-92710000D02*
X158750000Y-92710000D01*
X158750000Y-92710000D02*
X158750000Y-71120000D01*
G36*
X158750000Y-71120000D02*
G01*
X160020000Y-71120000D01*
X160020000Y-92710000D01*
X158750000Y-92710000D01*
X158750000Y-71120000D01*
G37*
D11*
X149860000Y-92710000D02*
X158750000Y-92710000D01*
X158750000Y-92710000D02*
X158750000Y-52070000D01*
X158750000Y-52070000D02*
X149860000Y-52070000D01*
X149860000Y-52070000D02*
X149860000Y-92710000D01*
G36*
X149860000Y-92710000D02*
G01*
X158750000Y-92710000D01*
X158750000Y-52070000D01*
X149860000Y-52070000D01*
X149860000Y-92710000D01*
G37*
D12*
X142922857Y-80458571D02*
X143851428Y-80458571D01*
X143351428Y-81030000D01*
X143565714Y-81030000D01*
X143708571Y-81101428D01*
X143780000Y-81172857D01*
X143851428Y-81315714D01*
X143851428Y-81672857D01*
X143780000Y-81815714D01*
X143708571Y-81887142D01*
X143565714Y-81958571D01*
X143137142Y-81958571D01*
X142994285Y-81887142D01*
X142922857Y-81815714D01*
X144280000Y-80458571D02*
X144780000Y-81958571D01*
X145280000Y-80458571D01*
X145637142Y-80458571D02*
X146565714Y-80458571D01*
X146065714Y-81030000D01*
X146280000Y-81030000D01*
X146422857Y-81101428D01*
X146494285Y-81172857D01*
X146565714Y-81315714D01*
X146565714Y-81672857D01*
X146494285Y-81815714D01*
X146422857Y-81887142D01*
X146280000Y-81958571D01*
X145851428Y-81958571D01*
X145708571Y-81887142D01*
X145637142Y-81815714D01*
X155618571Y-140024285D02*
X154118571Y-140024285D01*
X155618571Y-139167142D01*
X154118571Y-139167142D01*
X154118571Y-138452857D02*
X155332857Y-138452857D01*
X155475714Y-138381428D01*
X155547142Y-138310000D01*
X155618571Y-138167142D01*
X155618571Y-137881428D01*
X155547142Y-137738571D01*
X155475714Y-137667142D01*
X155332857Y-137595714D01*
X154118571Y-137595714D01*
X155475714Y-136024285D02*
X155547142Y-136095714D01*
X155618571Y-136310000D01*
X155618571Y-136452857D01*
X155547142Y-136667142D01*
X155404285Y-136810000D01*
X155261428Y-136881428D01*
X154975714Y-136952857D01*
X154761428Y-136952857D01*
X154475714Y-136881428D01*
X154332857Y-136810000D01*
X154190000Y-136667142D01*
X154118571Y-136452857D01*
X154118571Y-136310000D01*
X154190000Y-136095714D01*
X154261428Y-136024285D01*
X155618571Y-134667142D02*
X155618571Y-135381428D01*
X154118571Y-135381428D01*
X154832857Y-134167142D02*
X154832857Y-133667142D01*
X155618571Y-133452857D02*
X155618571Y-134167142D01*
X154118571Y-134167142D01*
X154118571Y-133452857D01*
X154118571Y-132524285D02*
X154118571Y-132238571D01*
X154190000Y-132095714D01*
X154332857Y-131952857D01*
X154618571Y-131881428D01*
X155118571Y-131881428D01*
X155404285Y-131952857D01*
X155547142Y-132095714D01*
X155618571Y-132238571D01*
X155618571Y-132524285D01*
X155547142Y-132667142D01*
X155404285Y-132810000D01*
X155118571Y-132881428D01*
X154618571Y-132881428D01*
X154332857Y-132810000D01*
X154190000Y-132667142D01*
X154118571Y-132524285D01*
X155047142Y-131238571D02*
X155047142Y-130095714D01*
X155618571Y-128667142D02*
X155618571Y-129381428D01*
X154118571Y-129381428D01*
X154618571Y-127524285D02*
X155618571Y-127524285D01*
X154047142Y-127881428D02*
X155118571Y-128238571D01*
X155118571Y-127310000D01*
X154118571Y-126881428D02*
X154118571Y-125952857D01*
X154690000Y-126452857D01*
X154690000Y-126238571D01*
X154761428Y-126095714D01*
X154832857Y-126024285D01*
X154975714Y-125952857D01*
X155332857Y-125952857D01*
X155475714Y-126024285D01*
X155547142Y-126095714D01*
X155618571Y-126238571D01*
X155618571Y-126667142D01*
X155547142Y-126810000D01*
X155475714Y-126881428D01*
X154261428Y-125381428D02*
X154190000Y-125310000D01*
X154118571Y-125167142D01*
X154118571Y-124810000D01*
X154190000Y-124667142D01*
X154261428Y-124595714D01*
X154404285Y-124524285D01*
X154547142Y-124524285D01*
X154761428Y-124595714D01*
X155618571Y-125452857D01*
X155618571Y-124524285D01*
X155618571Y-123881428D02*
X154118571Y-123881428D01*
X155618571Y-123024285D02*
X154761428Y-123667142D01*
X154118571Y-123024285D02*
X154975714Y-123881428D01*
X155475714Y-121524285D02*
X155547142Y-121595714D01*
X155618571Y-121810000D01*
X155618571Y-121952857D01*
X155547142Y-122167142D01*
X155404285Y-122310000D01*
X155261428Y-122381428D01*
X154975714Y-122452857D01*
X154761428Y-122452857D01*
X154475714Y-122381428D01*
X154332857Y-122310000D01*
X154190000Y-122167142D01*
X154118571Y-121952857D01*
X154118571Y-121810000D01*
X154190000Y-121595714D01*
X154261428Y-121524285D01*
X189202857Y-126178571D02*
X189202857Y-127250000D01*
X189131428Y-127464285D01*
X188988571Y-127607142D01*
X188774285Y-127678571D01*
X188631428Y-127678571D01*
X190131428Y-127678571D02*
X189988571Y-127607142D01*
X189917142Y-127535714D01*
X189845714Y-127392857D01*
X189845714Y-126964285D01*
X189917142Y-126821428D01*
X189988571Y-126750000D01*
X190131428Y-126678571D01*
X190345714Y-126678571D01*
X190488571Y-126750000D01*
X190560000Y-126821428D01*
X190631428Y-126964285D01*
X190631428Y-127392857D01*
X190560000Y-127535714D01*
X190488571Y-127607142D01*
X190345714Y-127678571D01*
X190131428Y-127678571D01*
X191131428Y-126678571D02*
X191488571Y-127678571D01*
X191845714Y-126678571D02*
X191488571Y-127678571D01*
X191345714Y-128035714D01*
X191274285Y-128107142D01*
X191131428Y-128178571D01*
X192345714Y-127607142D02*
X192560000Y-127678571D01*
X192917142Y-127678571D01*
X193060000Y-127607142D01*
X193131428Y-127535714D01*
X193202857Y-127392857D01*
X193202857Y-127250000D01*
X193131428Y-127107142D01*
X193060000Y-127035714D01*
X192917142Y-126964285D01*
X192631428Y-126892857D01*
X192488571Y-126821428D01*
X192417142Y-126750000D01*
X192345714Y-126607142D01*
X192345714Y-126464285D01*
X192417142Y-126321428D01*
X192488571Y-126250000D01*
X192631428Y-126178571D01*
X192988571Y-126178571D01*
X193202857Y-126250000D01*
X193631428Y-126678571D02*
X194202857Y-126678571D01*
X193845714Y-126178571D02*
X193845714Y-127464285D01*
X193917142Y-127607142D01*
X194060000Y-127678571D01*
X194202857Y-127678571D01*
X194702857Y-127678571D02*
X194702857Y-126678571D01*
X194702857Y-126178571D02*
X194631428Y-126250000D01*
X194702857Y-126321428D01*
X194774285Y-126250000D01*
X194702857Y-126178571D01*
X194702857Y-126321428D01*
X196060000Y-127607142D02*
X195917142Y-127678571D01*
X195631428Y-127678571D01*
X195488571Y-127607142D01*
X195417142Y-127535714D01*
X195345714Y-127392857D01*
X195345714Y-126964285D01*
X195417142Y-126821428D01*
X195488571Y-126750000D01*
X195631428Y-126678571D01*
X195917142Y-126678571D01*
X196060000Y-126750000D01*
X196702857Y-127678571D02*
X196702857Y-126178571D01*
X196845714Y-127107142D02*
X197274285Y-127678571D01*
X197274285Y-126678571D02*
X196702857Y-127250000D01*
X197560000Y-127821428D02*
X198702857Y-127821428D01*
X199917142Y-127678571D02*
X199417142Y-126964285D01*
X199060000Y-127678571D02*
X199060000Y-126178571D01*
X199631428Y-126178571D01*
X199774285Y-126250000D01*
X199845714Y-126321428D01*
X199917142Y-126464285D01*
X199917142Y-126678571D01*
X199845714Y-126821428D01*
X199774285Y-126892857D01*
X199631428Y-126964285D01*
X199060000Y-126964285D01*
X129254285Y-82998571D02*
X128540000Y-82998571D01*
X128468571Y-83712857D01*
X128540000Y-83641428D01*
X128682857Y-83570000D01*
X129040000Y-83570000D01*
X129182857Y-83641428D01*
X129254285Y-83712857D01*
X129325714Y-83855714D01*
X129325714Y-84212857D01*
X129254285Y-84355714D01*
X129182857Y-84427142D01*
X129040000Y-84498571D01*
X128682857Y-84498571D01*
X128540000Y-84427142D01*
X128468571Y-84355714D01*
X129754285Y-82998571D02*
X130254285Y-84498571D01*
X130754285Y-82998571D01*
X110741080Y-126360194D02*
X110741080Y-127431623D01*
X110669651Y-127645908D01*
X110526794Y-127788765D01*
X110312508Y-127860194D01*
X110169651Y-127860194D01*
X111669651Y-127860194D02*
X111526794Y-127788765D01*
X111455366Y-127717337D01*
X111383937Y-127574480D01*
X111383937Y-127145908D01*
X111455366Y-127003051D01*
X111526794Y-126931623D01*
X111669651Y-126860194D01*
X111883937Y-126860194D01*
X112026794Y-126931623D01*
X112098223Y-127003051D01*
X112169651Y-127145908D01*
X112169651Y-127574480D01*
X112098223Y-127717337D01*
X112026794Y-127788765D01*
X111883937Y-127860194D01*
X111669651Y-127860194D01*
X112669651Y-126860194D02*
X113026794Y-127860194D01*
X113383937Y-126860194D02*
X113026794Y-127860194D01*
X112883937Y-128217337D01*
X112812508Y-128288765D01*
X112669651Y-128360194D01*
X113883937Y-127788765D02*
X114098223Y-127860194D01*
X114455366Y-127860194D01*
X114598223Y-127788765D01*
X114669651Y-127717337D01*
X114741080Y-127574480D01*
X114741080Y-127431623D01*
X114669651Y-127288765D01*
X114598223Y-127217337D01*
X114455366Y-127145908D01*
X114169651Y-127074480D01*
X114026794Y-127003051D01*
X113955366Y-126931623D01*
X113883937Y-126788765D01*
X113883937Y-126645908D01*
X113955366Y-126503051D01*
X114026794Y-126431623D01*
X114169651Y-126360194D01*
X114526794Y-126360194D01*
X114741080Y-126431623D01*
X115169651Y-126860194D02*
X115741080Y-126860194D01*
X115383937Y-126360194D02*
X115383937Y-127645908D01*
X115455366Y-127788765D01*
X115598223Y-127860194D01*
X115741080Y-127860194D01*
X116241080Y-127860194D02*
X116241080Y-126860194D01*
X116241080Y-126360194D02*
X116169651Y-126431623D01*
X116241080Y-126503051D01*
X116312508Y-126431623D01*
X116241080Y-126360194D01*
X116241080Y-126503051D01*
X117598223Y-127788765D02*
X117455366Y-127860194D01*
X117169651Y-127860194D01*
X117026794Y-127788765D01*
X116955366Y-127717337D01*
X116883937Y-127574480D01*
X116883937Y-127145908D01*
X116955366Y-127003051D01*
X117026794Y-126931623D01*
X117169651Y-126860194D01*
X117455366Y-126860194D01*
X117598223Y-126931623D01*
X118241080Y-127860194D02*
X118241080Y-126360194D01*
X118383937Y-127288765D02*
X118812508Y-127860194D01*
X118812508Y-126860194D02*
X118241080Y-127431623D01*
X119098223Y-128003051D02*
X120241080Y-128003051D01*
X121312508Y-127860194D02*
X120598223Y-127860194D01*
X120598223Y-126360194D01*
X162238571Y-63598571D02*
X163238571Y-63598571D01*
X162381428Y-63598571D02*
X162310000Y-63527142D01*
X162238571Y-63384285D01*
X162238571Y-63170000D01*
X162310000Y-63027142D01*
X162452857Y-62955714D01*
X163238571Y-62955714D01*
X163238571Y-61384285D02*
X162524285Y-61884285D01*
X163238571Y-62241428D02*
X161738571Y-62241428D01*
X161738571Y-61670000D01*
X161810000Y-61527142D01*
X161881428Y-61455714D01*
X162024285Y-61384285D01*
X162238571Y-61384285D01*
X162381428Y-61455714D01*
X162452857Y-61527142D01*
X162524285Y-61670000D01*
X162524285Y-62241428D01*
X162452857Y-60241428D02*
X162452857Y-60741428D01*
X163238571Y-60741428D02*
X161738571Y-60741428D01*
X161738571Y-60027142D01*
X161881428Y-59527142D02*
X161810000Y-59455714D01*
X161738571Y-59312857D01*
X161738571Y-58955714D01*
X161810000Y-58812857D01*
X161881428Y-58741428D01*
X162024285Y-58670000D01*
X162167142Y-58670000D01*
X162381428Y-58741428D01*
X163238571Y-59598571D01*
X163238571Y-58670000D01*
X162238571Y-57384285D02*
X163238571Y-57384285D01*
X161667142Y-57741428D02*
X162738571Y-58098571D01*
X162738571Y-57170000D01*
X163238571Y-55884285D02*
X163238571Y-56598571D01*
X161738571Y-56598571D01*
X161738571Y-55098571D02*
X161738571Y-54955714D01*
X161810000Y-54812857D01*
X161881428Y-54741428D01*
X162024285Y-54670000D01*
X162310000Y-54598571D01*
X162667142Y-54598571D01*
X162952857Y-54670000D01*
X163095714Y-54741428D01*
X163167142Y-54812857D01*
X163238571Y-54955714D01*
X163238571Y-55098571D01*
X163167142Y-55241428D01*
X163095714Y-55312857D01*
X162952857Y-55384285D01*
X162667142Y-55455714D01*
X162310000Y-55455714D01*
X162024285Y-55384285D01*
X161881428Y-55312857D01*
X161810000Y-55241428D01*
X161738571Y-55098571D01*
X163238571Y-53170000D02*
X163238571Y-54027142D01*
X163238571Y-53598571D02*
X161738571Y-53598571D01*
X161952857Y-53741428D01*
X162095714Y-53884285D01*
X162167142Y-54027142D01*
X160968571Y-87728571D02*
X161968571Y-87728571D01*
X161111428Y-87728571D02*
X161040000Y-87657142D01*
X160968571Y-87514285D01*
X160968571Y-87300000D01*
X161040000Y-87157142D01*
X161182857Y-87085714D01*
X161968571Y-87085714D01*
X161968571Y-85514285D02*
X161254285Y-86014285D01*
X161968571Y-86371428D02*
X160468571Y-86371428D01*
X160468571Y-85800000D01*
X160540000Y-85657142D01*
X160611428Y-85585714D01*
X160754285Y-85514285D01*
X160968571Y-85514285D01*
X161111428Y-85585714D01*
X161182857Y-85657142D01*
X161254285Y-85800000D01*
X161254285Y-86371428D01*
X161182857Y-84371428D02*
X161182857Y-84871428D01*
X161968571Y-84871428D02*
X160468571Y-84871428D01*
X160468571Y-84157142D01*
X160611428Y-83657142D02*
X160540000Y-83585714D01*
X160468571Y-83442857D01*
X160468571Y-83085714D01*
X160540000Y-82942857D01*
X160611428Y-82871428D01*
X160754285Y-82800000D01*
X160897142Y-82800000D01*
X161111428Y-82871428D01*
X161968571Y-83728571D01*
X161968571Y-82800000D01*
X160968571Y-81514285D02*
X161968571Y-81514285D01*
X160397142Y-81871428D02*
X161468571Y-82228571D01*
X161468571Y-81300000D01*
X161968571Y-80014285D02*
X161968571Y-80728571D01*
X160468571Y-80728571D01*
X160468571Y-79228571D02*
X160468571Y-79085714D01*
X160540000Y-78942857D01*
X160611428Y-78871428D01*
X160754285Y-78800000D01*
X161040000Y-78728571D01*
X161397142Y-78728571D01*
X161682857Y-78800000D01*
X161825714Y-78871428D01*
X161897142Y-78942857D01*
X161968571Y-79085714D01*
X161968571Y-79228571D01*
X161897142Y-79371428D01*
X161825714Y-79442857D01*
X161682857Y-79514285D01*
X161397142Y-79585714D01*
X161040000Y-79585714D01*
X160754285Y-79514285D01*
X160611428Y-79442857D01*
X160540000Y-79371428D01*
X160468571Y-79228571D01*
X161968571Y-77300000D02*
X161968571Y-78157142D01*
X161968571Y-77728571D02*
X160468571Y-77728571D01*
X160682857Y-77871428D01*
X160825714Y-78014285D01*
X160897142Y-78157142D01*
X109868571Y-145228571D02*
X110154285Y-145228571D01*
X110297142Y-145300000D01*
X110440000Y-145442857D01*
X110511428Y-145728571D01*
X110511428Y-146228571D01*
X110440000Y-146514285D01*
X110297142Y-146657142D01*
X110154285Y-146728571D01*
X109868571Y-146728571D01*
X109725714Y-146657142D01*
X109582857Y-146514285D01*
X109511428Y-146228571D01*
X109511428Y-145728571D01*
X109582857Y-145442857D01*
X109725714Y-145300000D01*
X109868571Y-145228571D01*
X111154285Y-146585714D02*
X111225714Y-146657142D01*
X111154285Y-146728571D01*
X111082857Y-146657142D01*
X111154285Y-146585714D01*
X111154285Y-146728571D01*
X112725714Y-146728571D02*
X112225714Y-146014285D01*
X111868571Y-146728571D02*
X111868571Y-145228571D01*
X112440000Y-145228571D01*
X112582857Y-145300000D01*
X112654285Y-145371428D01*
X112725714Y-145514285D01*
X112725714Y-145728571D01*
X112654285Y-145871428D01*
X112582857Y-145942857D01*
X112440000Y-146014285D01*
X111868571Y-146014285D01*
X113368571Y-146585714D02*
X113440000Y-146657142D01*
X113368571Y-146728571D01*
X113297142Y-146657142D01*
X113368571Y-146585714D01*
X113368571Y-146728571D01*
X114940000Y-146585714D02*
X114868571Y-146657142D01*
X114654285Y-146728571D01*
X114511428Y-146728571D01*
X114297142Y-146657142D01*
X114154285Y-146514285D01*
X114082857Y-146371428D01*
X114011428Y-146085714D01*
X114011428Y-145871428D01*
X114082857Y-145585714D01*
X114154285Y-145442857D01*
X114297142Y-145300000D01*
X114511428Y-145228571D01*
X114654285Y-145228571D01*
X114868571Y-145300000D01*
X114940000Y-145371428D01*
X115582857Y-146585714D02*
X115654285Y-146657142D01*
X115582857Y-146728571D01*
X115511428Y-146657142D01*
X115582857Y-146585714D01*
X115582857Y-146728571D01*
X116225714Y-146300000D02*
X116940000Y-146300000D01*
X116082857Y-146728571D02*
X116582857Y-145228571D01*
X117082857Y-146728571D01*
X118725714Y-146157142D02*
X119868571Y-146157142D01*
X122582857Y-146585714D02*
X122511428Y-146657142D01*
X122297142Y-146728571D01*
X122154285Y-146728571D01*
X121940000Y-146657142D01*
X121797142Y-146514285D01*
X121725714Y-146371428D01*
X121654285Y-146085714D01*
X121654285Y-145871428D01*
X121725714Y-145585714D01*
X121797142Y-145442857D01*
X121940000Y-145300000D01*
X122154285Y-145228571D01*
X122297142Y-145228571D01*
X122511428Y-145300000D01*
X122582857Y-145371428D01*
X123440000Y-146728571D02*
X123297142Y-146657142D01*
X123225714Y-146585714D01*
X123154285Y-146442857D01*
X123154285Y-146014285D01*
X123225714Y-145871428D01*
X123297142Y-145800000D01*
X123440000Y-145728571D01*
X123654285Y-145728571D01*
X123797142Y-145800000D01*
X123868571Y-145871428D01*
X123940000Y-146014285D01*
X123940000Y-146442857D01*
X123868571Y-146585714D01*
X123797142Y-146657142D01*
X123654285Y-146728571D01*
X123440000Y-146728571D01*
X124582857Y-145728571D02*
X124582857Y-146728571D01*
X124582857Y-145871428D02*
X124654285Y-145800000D01*
X124797142Y-145728571D01*
X125011428Y-145728571D01*
X125154285Y-145800000D01*
X125225714Y-145942857D01*
X125225714Y-146728571D01*
X125725714Y-145728571D02*
X126297142Y-145728571D01*
X125940000Y-145228571D02*
X125940000Y-146514285D01*
X126011428Y-146657142D01*
X126154285Y-146728571D01*
X126297142Y-146728571D01*
X126797142Y-146728571D02*
X126797142Y-145728571D01*
X126797142Y-146014285D02*
X126868571Y-145871428D01*
X126940000Y-145800000D01*
X127082857Y-145728571D01*
X127225714Y-145728571D01*
X127940000Y-146728571D02*
X127797142Y-146657142D01*
X127725714Y-146585714D01*
X127654285Y-146442857D01*
X127654285Y-146014285D01*
X127725714Y-145871428D01*
X127797142Y-145800000D01*
X127940000Y-145728571D01*
X128154285Y-145728571D01*
X128297142Y-145800000D01*
X128368571Y-145871428D01*
X128440000Y-146014285D01*
X128440000Y-146442857D01*
X128368571Y-146585714D01*
X128297142Y-146657142D01*
X128154285Y-146728571D01*
X127940000Y-146728571D01*
X129297142Y-146728571D02*
X129154285Y-146657142D01*
X129082857Y-146514285D01*
X129082857Y-145228571D01*
X131511428Y-145942857D02*
X131725714Y-146014285D01*
X131797142Y-146085714D01*
X131868571Y-146228571D01*
X131868571Y-146442857D01*
X131797142Y-146585714D01*
X131725714Y-146657142D01*
X131582857Y-146728571D01*
X131011428Y-146728571D01*
X131011428Y-145228571D01*
X131511428Y-145228571D01*
X131654285Y-145300000D01*
X131725714Y-145371428D01*
X131797142Y-145514285D01*
X131797142Y-145657142D01*
X131725714Y-145800000D01*
X131654285Y-145871428D01*
X131511428Y-145942857D01*
X131011428Y-145942857D01*
X132725714Y-146728571D02*
X132582857Y-146657142D01*
X132511428Y-146585714D01*
X132440000Y-146442857D01*
X132440000Y-146014285D01*
X132511428Y-145871428D01*
X132582857Y-145800000D01*
X132725714Y-145728571D01*
X132940000Y-145728571D01*
X133082857Y-145800000D01*
X133154285Y-145871428D01*
X133225714Y-146014285D01*
X133225714Y-146442857D01*
X133154285Y-146585714D01*
X133082857Y-146657142D01*
X132940000Y-146728571D01*
X132725714Y-146728571D01*
X134511428Y-146728571D02*
X134511428Y-145942857D01*
X134440000Y-145800000D01*
X134297142Y-145728571D01*
X134011428Y-145728571D01*
X133868571Y-145800000D01*
X134511428Y-146657142D02*
X134368571Y-146728571D01*
X134011428Y-146728571D01*
X133868571Y-146657142D01*
X133797142Y-146514285D01*
X133797142Y-146371428D01*
X133868571Y-146228571D01*
X134011428Y-146157142D01*
X134368571Y-146157142D01*
X134511428Y-146085714D01*
X135225714Y-146728571D02*
X135225714Y-145728571D01*
X135225714Y-146014285D02*
X135297142Y-145871428D01*
X135368571Y-145800000D01*
X135511428Y-145728571D01*
X135654285Y-145728571D01*
X136797142Y-146728571D02*
X136797142Y-145228571D01*
X136797142Y-146657142D02*
X136654285Y-146728571D01*
X136368571Y-146728571D01*
X136225714Y-146657142D01*
X136154285Y-146585714D01*
X136082857Y-146442857D01*
X136082857Y-146014285D01*
X136154285Y-145871428D01*
X136225714Y-145800000D01*
X136368571Y-145728571D01*
X136654285Y-145728571D01*
X136797142Y-145800000D01*
D10*
%TO.C,RV1*%
X119800761Y-131008380D02*
X119467428Y-130532190D01*
X119229333Y-131008380D02*
X119229333Y-130008380D01*
X119610285Y-130008380D01*
X119705523Y-130056000D01*
X119753142Y-130103619D01*
X119800761Y-130198857D01*
X119800761Y-130341714D01*
X119753142Y-130436952D01*
X119705523Y-130484571D01*
X119610285Y-130532190D01*
X119229333Y-130532190D01*
X120086476Y-130008380D02*
X120419809Y-131008380D01*
X120753142Y-130008380D01*
X121610285Y-131008380D02*
X121038857Y-131008380D01*
X121324571Y-131008380D02*
X121324571Y-130008380D01*
X121229333Y-130151238D01*
X121134095Y-130246476D01*
X121038857Y-130294095D01*
%TO.C,D3*%
X141040544Y-138767961D02*
X140040544Y-138767961D01*
X140040544Y-138529866D01*
X140088164Y-138387008D01*
X140183402Y-138291770D01*
X140278640Y-138244151D01*
X140469116Y-138196532D01*
X140611973Y-138196532D01*
X140802449Y-138244151D01*
X140897687Y-138291770D01*
X140992925Y-138387008D01*
X141040544Y-138529866D01*
X141040544Y-138767961D01*
X140040544Y-137863199D02*
X140040544Y-137244151D01*
X140421497Y-137577485D01*
X140421497Y-137434627D01*
X140469116Y-137339389D01*
X140516735Y-137291770D01*
X140611973Y-137244151D01*
X140850068Y-137244151D01*
X140945306Y-137291770D01*
X140992925Y-137339389D01*
X141040544Y-137434627D01*
X141040544Y-137720342D01*
X140992925Y-137815580D01*
X140945306Y-137863199D01*
%TO.C,D6*%
X128801904Y-78652380D02*
X128801904Y-77652380D01*
X129040000Y-77652380D01*
X129182857Y-77700000D01*
X129278095Y-77795238D01*
X129325714Y-77890476D01*
X129373333Y-78080952D01*
X129373333Y-78223809D01*
X129325714Y-78414285D01*
X129278095Y-78509523D01*
X129182857Y-78604761D01*
X129040000Y-78652380D01*
X128801904Y-78652380D01*
X130230476Y-77652380D02*
X130040000Y-77652380D01*
X129944761Y-77700000D01*
X129897142Y-77747619D01*
X129801904Y-77890476D01*
X129754285Y-78080952D01*
X129754285Y-78461904D01*
X129801904Y-78557142D01*
X129849523Y-78604761D01*
X129944761Y-78652380D01*
X130135238Y-78652380D01*
X130230476Y-78604761D01*
X130278095Y-78557142D01*
X130325714Y-78461904D01*
X130325714Y-78223809D01*
X130278095Y-78128571D01*
X130230476Y-78080952D01*
X130135238Y-78033333D01*
X129944761Y-78033333D01*
X129849523Y-78080952D01*
X129801904Y-78128571D01*
X129754285Y-78223809D01*
%TO.C,C4*%
X114934202Y-101766666D02*
X114981821Y-101814285D01*
X115029440Y-101957142D01*
X115029440Y-102052380D01*
X114981821Y-102195238D01*
X114886583Y-102290476D01*
X114791345Y-102338095D01*
X114600869Y-102385714D01*
X114458012Y-102385714D01*
X114267536Y-102338095D01*
X114172298Y-102290476D01*
X114077060Y-102195238D01*
X114029440Y-102052380D01*
X114029440Y-101957142D01*
X114077060Y-101814285D01*
X114124679Y-101766666D01*
X114362774Y-100909523D02*
X115029440Y-100909523D01*
X113981821Y-101147619D02*
X114696107Y-101385714D01*
X114696107Y-100766666D01*
%TO.C,C3*%
X130057142Y-115252183D02*
X130104761Y-115299802D01*
X130152380Y-115442659D01*
X130152380Y-115537897D01*
X130104761Y-115680755D01*
X130009523Y-115775993D01*
X129914285Y-115823612D01*
X129723809Y-115871231D01*
X129580952Y-115871231D01*
X129390476Y-115823612D01*
X129295238Y-115775993D01*
X129200000Y-115680755D01*
X129152380Y-115537897D01*
X129152380Y-115442659D01*
X129200000Y-115299802D01*
X129247619Y-115252183D01*
X129152380Y-114918850D02*
X129152380Y-114299802D01*
X129533333Y-114633136D01*
X129533333Y-114490278D01*
X129580952Y-114395040D01*
X129628571Y-114347421D01*
X129723809Y-114299802D01*
X129961904Y-114299802D01*
X130057142Y-114347421D01*
X130104761Y-114395040D01*
X130152380Y-114490278D01*
X130152380Y-114775993D01*
X130104761Y-114871231D01*
X130057142Y-114918850D01*
%TO.C,RESET1*%
X180899754Y-53663982D02*
X180566421Y-53187792D01*
X180328326Y-53663982D02*
X180328326Y-52663982D01*
X180709278Y-52663982D01*
X180804516Y-52711602D01*
X180852135Y-52759221D01*
X180899754Y-52854459D01*
X180899754Y-52997316D01*
X180852135Y-53092554D01*
X180804516Y-53140173D01*
X180709278Y-53187792D01*
X180328326Y-53187792D01*
X181328326Y-53140173D02*
X181661659Y-53140173D01*
X181804516Y-53663982D02*
X181328326Y-53663982D01*
X181328326Y-52663982D01*
X181804516Y-52663982D01*
X182185468Y-53616363D02*
X182328326Y-53663982D01*
X182566421Y-53663982D01*
X182661659Y-53616363D01*
X182709278Y-53568744D01*
X182756897Y-53473506D01*
X182756897Y-53378268D01*
X182709278Y-53283030D01*
X182661659Y-53235411D01*
X182566421Y-53187792D01*
X182375945Y-53140173D01*
X182280706Y-53092554D01*
X182233087Y-53044935D01*
X182185468Y-52949697D01*
X182185468Y-52854459D01*
X182233087Y-52759221D01*
X182280706Y-52711602D01*
X182375945Y-52663982D01*
X182614040Y-52663982D01*
X182756897Y-52711602D01*
X183185468Y-53140173D02*
X183518802Y-53140173D01*
X183661659Y-53663982D02*
X183185468Y-53663982D01*
X183185468Y-52663982D01*
X183661659Y-52663982D01*
X183947373Y-52663982D02*
X184518802Y-52663982D01*
X184233087Y-53663982D02*
X184233087Y-52663982D01*
X185375945Y-53663982D02*
X184804516Y-53663982D01*
X185090230Y-53663982D02*
X185090230Y-52663982D01*
X184994992Y-52806840D01*
X184899754Y-52902078D01*
X184804516Y-52949697D01*
%TO.C,R1*%
X181827970Y-141038380D02*
X181494637Y-140562190D01*
X181256541Y-141038380D02*
X181256541Y-140038380D01*
X181637494Y-140038380D01*
X181732732Y-140086000D01*
X181780351Y-140133619D01*
X181827970Y-140228857D01*
X181827970Y-140371714D01*
X181780351Y-140466952D01*
X181732732Y-140514571D01*
X181637494Y-140562190D01*
X181256541Y-140562190D01*
X182780351Y-141038380D02*
X182208922Y-141038380D01*
X182494637Y-141038380D02*
X182494637Y-140038380D01*
X182399398Y-140181238D01*
X182304160Y-140276476D01*
X182208922Y-140324095D01*
%TO.C,C1*%
X116398625Y-132416994D02*
X116446244Y-132464613D01*
X116493863Y-132607470D01*
X116493863Y-132702708D01*
X116446244Y-132845566D01*
X116351006Y-132940804D01*
X116255768Y-132988423D01*
X116065292Y-133036042D01*
X115922435Y-133036042D01*
X115731959Y-132988423D01*
X115636721Y-132940804D01*
X115541483Y-132845566D01*
X115493863Y-132702708D01*
X115493863Y-132607470D01*
X115541483Y-132464613D01*
X115589102Y-132416994D01*
X116493863Y-131464613D02*
X116493863Y-132036042D01*
X116493863Y-131750328D02*
X115493863Y-131750328D01*
X115636721Y-131845566D01*
X115731959Y-131940804D01*
X115779578Y-132036042D01*
%TO.C,PWR_SW1*%
X201707619Y-58301904D02*
X202707619Y-58301904D01*
X202707619Y-58682857D01*
X202660000Y-58778095D01*
X202612380Y-58825714D01*
X202517142Y-58873333D01*
X202374285Y-58873333D01*
X202279047Y-58825714D01*
X202231428Y-58778095D01*
X202183809Y-58682857D01*
X202183809Y-58301904D01*
X202707619Y-59206666D02*
X201707619Y-59444761D01*
X202421904Y-59635238D01*
X201707619Y-59825714D01*
X202707619Y-60063809D01*
X201707619Y-61016190D02*
X202183809Y-60682857D01*
X201707619Y-60444761D02*
X202707619Y-60444761D01*
X202707619Y-60825714D01*
X202660000Y-60920952D01*
X202612380Y-60968571D01*
X202517142Y-61016190D01*
X202374285Y-61016190D01*
X202279047Y-60968571D01*
X202231428Y-60920952D01*
X202183809Y-60825714D01*
X202183809Y-60444761D01*
X201612380Y-61206666D02*
X201612380Y-61968571D01*
X201755238Y-62159047D02*
X201707619Y-62301904D01*
X201707619Y-62540000D01*
X201755238Y-62635238D01*
X201802857Y-62682857D01*
X201898095Y-62730476D01*
X201993333Y-62730476D01*
X202088571Y-62682857D01*
X202136190Y-62635238D01*
X202183809Y-62540000D01*
X202231428Y-62349523D01*
X202279047Y-62254285D01*
X202326666Y-62206666D01*
X202421904Y-62159047D01*
X202517142Y-62159047D01*
X202612380Y-62206666D01*
X202660000Y-62254285D01*
X202707619Y-62349523D01*
X202707619Y-62587619D01*
X202660000Y-62730476D01*
X202707619Y-63063809D02*
X201707619Y-63301904D01*
X202421904Y-63492380D01*
X201707619Y-63682857D01*
X202707619Y-63920952D01*
X201707619Y-64825714D02*
X201707619Y-64254285D01*
X201707619Y-64540000D02*
X202707619Y-64540000D01*
X202564761Y-64444761D01*
X202469523Y-64349523D01*
X202421904Y-64254285D01*
%TO.C,R2*%
X131173324Y-115877404D02*
X130839991Y-115401214D01*
X130601895Y-115877404D02*
X130601895Y-114877404D01*
X130982848Y-114877404D01*
X131078086Y-114925024D01*
X131125705Y-114972643D01*
X131173324Y-115067881D01*
X131173324Y-115210738D01*
X131125705Y-115305976D01*
X131078086Y-115353595D01*
X130982848Y-115401214D01*
X130601895Y-115401214D01*
X131554276Y-114972643D02*
X131601895Y-114925024D01*
X131697133Y-114877404D01*
X131935229Y-114877404D01*
X132030467Y-114925024D01*
X132078086Y-114972643D01*
X132125705Y-115067881D01*
X132125705Y-115163119D01*
X132078086Y-115305976D01*
X131506657Y-115877404D01*
X132125705Y-115877404D01*
%TO.C,R17*%
X126121887Y-133932183D02*
X125645697Y-134265516D01*
X126121887Y-134503611D02*
X125121887Y-134503611D01*
X125121887Y-134122659D01*
X125169507Y-134027421D01*
X125217126Y-133979802D01*
X125312364Y-133932183D01*
X125455221Y-133932183D01*
X125550459Y-133979802D01*
X125598078Y-134027421D01*
X125645697Y-134122659D01*
X125645697Y-134503611D01*
X126121887Y-132979802D02*
X126121887Y-133551230D01*
X126121887Y-133265516D02*
X125121887Y-133265516D01*
X125264745Y-133360754D01*
X125359983Y-133455992D01*
X125407602Y-133551230D01*
X125121887Y-132646468D02*
X125121887Y-131979802D01*
X126121887Y-132408373D01*
%TO.C,R10*%
X184777142Y-141262380D02*
X184443809Y-140786190D01*
X184205714Y-141262380D02*
X184205714Y-140262380D01*
X184586666Y-140262380D01*
X184681904Y-140310000D01*
X184729523Y-140357619D01*
X184777142Y-140452857D01*
X184777142Y-140595714D01*
X184729523Y-140690952D01*
X184681904Y-140738571D01*
X184586666Y-140786190D01*
X184205714Y-140786190D01*
X185729523Y-141262380D02*
X185158095Y-141262380D01*
X185443809Y-141262380D02*
X185443809Y-140262380D01*
X185348571Y-140405238D01*
X185253333Y-140500476D01*
X185158095Y-140548095D01*
X186348571Y-140262380D02*
X186443809Y-140262380D01*
X186539047Y-140310000D01*
X186586666Y-140357619D01*
X186634285Y-140452857D01*
X186681904Y-140643333D01*
X186681904Y-140881428D01*
X186634285Y-141071904D01*
X186586666Y-141167142D01*
X186539047Y-141214761D01*
X186443809Y-141262380D01*
X186348571Y-141262380D01*
X186253333Y-141214761D01*
X186205714Y-141167142D01*
X186158095Y-141071904D01*
X186110476Y-140881428D01*
X186110476Y-140643333D01*
X186158095Y-140452857D01*
X186205714Y-140357619D01*
X186253333Y-140310000D01*
X186348571Y-140262380D01*
%TO.C,R9*%
X180401277Y-137477093D02*
X179925087Y-137810427D01*
X180401277Y-138048522D02*
X179401277Y-138048522D01*
X179401277Y-137667569D01*
X179448897Y-137572331D01*
X179496516Y-137524712D01*
X179591754Y-137477093D01*
X179734611Y-137477093D01*
X179829849Y-137524712D01*
X179877468Y-137572331D01*
X179925087Y-137667569D01*
X179925087Y-138048522D01*
X180401277Y-137000903D02*
X180401277Y-136810427D01*
X180353658Y-136715188D01*
X180306039Y-136667569D01*
X180163182Y-136572331D01*
X179972706Y-136524712D01*
X179591754Y-136524712D01*
X179496516Y-136572331D01*
X179448897Y-136619950D01*
X179401277Y-136715188D01*
X179401277Y-136905665D01*
X179448897Y-137000903D01*
X179496516Y-137048522D01*
X179591754Y-137096141D01*
X179829849Y-137096141D01*
X179925087Y-137048522D01*
X179972706Y-137000903D01*
X180020325Y-136905665D01*
X180020325Y-136715188D01*
X179972706Y-136619950D01*
X179925087Y-136572331D01*
X179829849Y-136524712D01*
%TO.C,R16*%
X189857142Y-77762380D02*
X189523809Y-77286190D01*
X189285714Y-77762380D02*
X189285714Y-76762380D01*
X189666666Y-76762380D01*
X189761904Y-76810000D01*
X189809523Y-76857619D01*
X189857142Y-76952857D01*
X189857142Y-77095714D01*
X189809523Y-77190952D01*
X189761904Y-77238571D01*
X189666666Y-77286190D01*
X189285714Y-77286190D01*
X190809523Y-77762380D02*
X190238095Y-77762380D01*
X190523809Y-77762380D02*
X190523809Y-76762380D01*
X190428571Y-76905238D01*
X190333333Y-77000476D01*
X190238095Y-77048095D01*
X191666666Y-76762380D02*
X191476190Y-76762380D01*
X191380952Y-76810000D01*
X191333333Y-76857619D01*
X191238095Y-77000476D01*
X191190476Y-77190952D01*
X191190476Y-77571904D01*
X191238095Y-77667142D01*
X191285714Y-77714761D01*
X191380952Y-77762380D01*
X191571428Y-77762380D01*
X191666666Y-77714761D01*
X191714285Y-77667142D01*
X191761904Y-77571904D01*
X191761904Y-77333809D01*
X191714285Y-77238571D01*
X191666666Y-77190952D01*
X191571428Y-77143333D01*
X191380952Y-77143333D01*
X191285714Y-77190952D01*
X191238095Y-77238571D01*
X191190476Y-77333809D01*
%TO.C,R3*%
X121262380Y-101766666D02*
X120786190Y-102100000D01*
X121262380Y-102338095D02*
X120262380Y-102338095D01*
X120262380Y-101957142D01*
X120310000Y-101861904D01*
X120357619Y-101814285D01*
X120452857Y-101766666D01*
X120595714Y-101766666D01*
X120690952Y-101814285D01*
X120738571Y-101861904D01*
X120786190Y-101957142D01*
X120786190Y-102338095D01*
X120262380Y-101433333D02*
X120262380Y-100814285D01*
X120643333Y-101147619D01*
X120643333Y-101004761D01*
X120690952Y-100909523D01*
X120738571Y-100861904D01*
X120833809Y-100814285D01*
X121071904Y-100814285D01*
X121167142Y-100861904D01*
X121214761Y-100909523D01*
X121262380Y-101004761D01*
X121262380Y-101290476D01*
X121214761Y-101385714D01*
X121167142Y-101433333D01*
%TO.C,R29*%
X128562380Y-59062857D02*
X128086190Y-59396190D01*
X128562380Y-59634285D02*
X127562380Y-59634285D01*
X127562380Y-59253333D01*
X127610000Y-59158095D01*
X127657619Y-59110476D01*
X127752857Y-59062857D01*
X127895714Y-59062857D01*
X127990952Y-59110476D01*
X128038571Y-59158095D01*
X128086190Y-59253333D01*
X128086190Y-59634285D01*
X127657619Y-58681904D02*
X127610000Y-58634285D01*
X127562380Y-58539047D01*
X127562380Y-58300952D01*
X127610000Y-58205714D01*
X127657619Y-58158095D01*
X127752857Y-58110476D01*
X127848095Y-58110476D01*
X127990952Y-58158095D01*
X128562380Y-58729523D01*
X128562380Y-58110476D01*
X128562380Y-57634285D02*
X128562380Y-57443809D01*
X128514761Y-57348571D01*
X128467142Y-57300952D01*
X128324285Y-57205714D01*
X128133809Y-57158095D01*
X127752857Y-57158095D01*
X127657619Y-57205714D01*
X127610000Y-57253333D01*
X127562380Y-57348571D01*
X127562380Y-57539047D01*
X127610000Y-57634285D01*
X127657619Y-57681904D01*
X127752857Y-57729523D01*
X127990952Y-57729523D01*
X128086190Y-57681904D01*
X128133809Y-57634285D01*
X128181428Y-57539047D01*
X128181428Y-57348571D01*
X128133809Y-57253333D01*
X128086190Y-57205714D01*
X127990952Y-57158095D01*
%TO.C,U1*%
X119888095Y-113117380D02*
X119888095Y-113926904D01*
X119935714Y-114022142D01*
X119983333Y-114069761D01*
X120078571Y-114117380D01*
X120269047Y-114117380D01*
X120364285Y-114069761D01*
X120411904Y-114022142D01*
X120459523Y-113926904D01*
X120459523Y-113117380D01*
X121459523Y-114117380D02*
X120888095Y-114117380D01*
X121173809Y-114117380D02*
X121173809Y-113117380D01*
X121078571Y-113260238D01*
X120983333Y-113355476D01*
X120888095Y-113403095D01*
%TO.C,R8*%
X119672380Y-136056666D02*
X119196190Y-136390000D01*
X119672380Y-136628095D02*
X118672380Y-136628095D01*
X118672380Y-136247142D01*
X118720000Y-136151904D01*
X118767619Y-136104285D01*
X118862857Y-136056666D01*
X119005714Y-136056666D01*
X119100952Y-136104285D01*
X119148571Y-136151904D01*
X119196190Y-136247142D01*
X119196190Y-136628095D01*
X119100952Y-135485238D02*
X119053333Y-135580476D01*
X119005714Y-135628095D01*
X118910476Y-135675714D01*
X118862857Y-135675714D01*
X118767619Y-135628095D01*
X118720000Y-135580476D01*
X118672380Y-135485238D01*
X118672380Y-135294761D01*
X118720000Y-135199523D01*
X118767619Y-135151904D01*
X118862857Y-135104285D01*
X118910476Y-135104285D01*
X119005714Y-135151904D01*
X119053333Y-135199523D01*
X119100952Y-135294761D01*
X119100952Y-135485238D01*
X119148571Y-135580476D01*
X119196190Y-135628095D01*
X119291428Y-135675714D01*
X119481904Y-135675714D01*
X119577142Y-135628095D01*
X119624761Y-135580476D01*
X119672380Y-135485238D01*
X119672380Y-135294761D01*
X119624761Y-135199523D01*
X119577142Y-135151904D01*
X119481904Y-135104285D01*
X119291428Y-135104285D01*
X119196190Y-135151904D01*
X119148571Y-135199523D01*
X119100952Y-135294761D01*
%TO.C,A1*%
X154225714Y-110656666D02*
X154701904Y-110656666D01*
X154130476Y-110942380D02*
X154463809Y-109942380D01*
X154797142Y-110942380D01*
X155654285Y-110942380D02*
X155082857Y-110942380D01*
X155368571Y-110942380D02*
X155368571Y-109942380D01*
X155273333Y-110085238D01*
X155178095Y-110180476D01*
X155082857Y-110228095D01*
X156245257Y-148779431D02*
X156245257Y-147969907D01*
X156197638Y-147874669D01*
X156150019Y-147827050D01*
X156054781Y-147779431D01*
X155864305Y-147779431D01*
X155769067Y-147827050D01*
X155721448Y-147874669D01*
X155673829Y-147969907D01*
X155673829Y-148779431D01*
X155245257Y-147827050D02*
X155102400Y-147779431D01*
X154864305Y-147779431D01*
X154769067Y-147827050D01*
X154721448Y-147874669D01*
X154673829Y-147969907D01*
X154673829Y-148065145D01*
X154721448Y-148160383D01*
X154769067Y-148208002D01*
X154864305Y-148255621D01*
X155054781Y-148303240D01*
X155150019Y-148350859D01*
X155197638Y-148398478D01*
X155245257Y-148493716D01*
X155245257Y-148588954D01*
X155197638Y-148684192D01*
X155150019Y-148731812D01*
X155054781Y-148779431D01*
X154816686Y-148779431D01*
X154673829Y-148731812D01*
X153911924Y-148303240D02*
X153769067Y-148255621D01*
X153721448Y-148208002D01*
X153673829Y-148112764D01*
X153673829Y-147969907D01*
X153721448Y-147874669D01*
X153769067Y-147827050D01*
X153864305Y-147779431D01*
X154245257Y-147779431D01*
X154245257Y-148779431D01*
X153911924Y-148779431D01*
X153816686Y-148731812D01*
X153769067Y-148684192D01*
X153721448Y-148588954D01*
X153721448Y-148493716D01*
X153769067Y-148398478D01*
X153816686Y-148350859D01*
X153911924Y-148303240D01*
X154245257Y-148303240D01*
%TO.C,U5*%
X124492380Y-84581904D02*
X125301904Y-84581904D01*
X125397142Y-84534285D01*
X125444761Y-84486666D01*
X125492380Y-84391428D01*
X125492380Y-84200952D01*
X125444761Y-84105714D01*
X125397142Y-84058095D01*
X125301904Y-84010476D01*
X124492380Y-84010476D01*
X124492380Y-83058095D02*
X124492380Y-83534285D01*
X124968571Y-83581904D01*
X124920952Y-83534285D01*
X124873333Y-83439047D01*
X124873333Y-83200952D01*
X124920952Y-83105714D01*
X124968571Y-83058095D01*
X125063809Y-83010476D01*
X125301904Y-83010476D01*
X125397142Y-83058095D01*
X125444761Y-83105714D01*
X125492380Y-83200952D01*
X125492380Y-83439047D01*
X125444761Y-83534285D01*
X125397142Y-83581904D01*
%TO.C,C2*%
X149107142Y-89066666D02*
X149154761Y-89114285D01*
X149202380Y-89257142D01*
X149202380Y-89352380D01*
X149154761Y-89495238D01*
X149059523Y-89590476D01*
X148964285Y-89638095D01*
X148773809Y-89685714D01*
X148630952Y-89685714D01*
X148440476Y-89638095D01*
X148345238Y-89590476D01*
X148250000Y-89495238D01*
X148202380Y-89352380D01*
X148202380Y-89257142D01*
X148250000Y-89114285D01*
X148297619Y-89066666D01*
X148297619Y-88685714D02*
X148250000Y-88638095D01*
X148202380Y-88542857D01*
X148202380Y-88304761D01*
X148250000Y-88209523D01*
X148297619Y-88161904D01*
X148392857Y-88114285D01*
X148488095Y-88114285D01*
X148630952Y-88161904D01*
X149202380Y-88733333D01*
X149202380Y-88114285D01*
%TO.C,R31*%
X110782764Y-75420528D02*
X110306574Y-75753861D01*
X110782764Y-75991956D02*
X109782764Y-75991956D01*
X109782764Y-75611004D01*
X109830384Y-75515766D01*
X109878003Y-75468147D01*
X109973241Y-75420528D01*
X110116098Y-75420528D01*
X110211336Y-75468147D01*
X110258955Y-75515766D01*
X110306574Y-75611004D01*
X110306574Y-75991956D01*
X109782764Y-75087194D02*
X109782764Y-74468147D01*
X110163717Y-74801480D01*
X110163717Y-74658623D01*
X110211336Y-74563385D01*
X110258955Y-74515766D01*
X110354193Y-74468147D01*
X110592288Y-74468147D01*
X110687526Y-74515766D01*
X110735145Y-74563385D01*
X110782764Y-74658623D01*
X110782764Y-74944337D01*
X110735145Y-75039575D01*
X110687526Y-75087194D01*
X110782764Y-73515766D02*
X110782764Y-74087194D01*
X110782764Y-73801480D02*
X109782764Y-73801480D01*
X109925622Y-73896718D01*
X110020860Y-73991956D01*
X110068479Y-74087194D01*
%TO.C,Q3*%
X112934761Y-82322619D02*
X112839523Y-82275000D01*
X112744285Y-82179761D01*
X112601428Y-82036904D01*
X112506190Y-81989285D01*
X112410952Y-81989285D01*
X112458571Y-82227380D02*
X112363333Y-82179761D01*
X112268095Y-82084523D01*
X112220476Y-81894047D01*
X112220476Y-81560714D01*
X112268095Y-81370238D01*
X112363333Y-81275000D01*
X112458571Y-81227380D01*
X112649047Y-81227380D01*
X112744285Y-81275000D01*
X112839523Y-81370238D01*
X112887142Y-81560714D01*
X112887142Y-81894047D01*
X112839523Y-82084523D01*
X112744285Y-82179761D01*
X112649047Y-82227380D01*
X112458571Y-82227380D01*
X113220476Y-81227380D02*
X113839523Y-81227380D01*
X113506190Y-81608333D01*
X113649047Y-81608333D01*
X113744285Y-81655952D01*
X113791904Y-81703571D01*
X113839523Y-81798809D01*
X113839523Y-82036904D01*
X113791904Y-82132142D01*
X113744285Y-82179761D01*
X113649047Y-82227380D01*
X113363333Y-82227380D01*
X113268095Y-82179761D01*
X113220476Y-82132142D01*
%TO.C,U3*%
X139732380Y-82041904D02*
X140541904Y-82041904D01*
X140637142Y-81994285D01*
X140684761Y-81946666D01*
X140732380Y-81851428D01*
X140732380Y-81660952D01*
X140684761Y-81565714D01*
X140637142Y-81518095D01*
X140541904Y-81470476D01*
X139732380Y-81470476D01*
X139732380Y-81089523D02*
X139732380Y-80470476D01*
X140113333Y-80803809D01*
X140113333Y-80660952D01*
X140160952Y-80565714D01*
X140208571Y-80518095D01*
X140303809Y-80470476D01*
X140541904Y-80470476D01*
X140637142Y-80518095D01*
X140684761Y-80565714D01*
X140732380Y-80660952D01*
X140732380Y-80946666D01*
X140684761Y-81041904D01*
X140637142Y-81089523D01*
%TO.C,R13*%
X189857142Y-85702380D02*
X189523809Y-85226190D01*
X189285714Y-85702380D02*
X189285714Y-84702380D01*
X189666666Y-84702380D01*
X189761904Y-84750000D01*
X189809523Y-84797619D01*
X189857142Y-84892857D01*
X189857142Y-85035714D01*
X189809523Y-85130952D01*
X189761904Y-85178571D01*
X189666666Y-85226190D01*
X189285714Y-85226190D01*
X190809523Y-85702380D02*
X190238095Y-85702380D01*
X190523809Y-85702380D02*
X190523809Y-84702380D01*
X190428571Y-84845238D01*
X190333333Y-84940476D01*
X190238095Y-84988095D01*
X191142857Y-84702380D02*
X191761904Y-84702380D01*
X191428571Y-85083333D01*
X191571428Y-85083333D01*
X191666666Y-85130952D01*
X191714285Y-85178571D01*
X191761904Y-85273809D01*
X191761904Y-85511904D01*
X191714285Y-85607142D01*
X191666666Y-85654761D01*
X191571428Y-85702380D01*
X191285714Y-85702380D01*
X191190476Y-85654761D01*
X191142857Y-85607142D01*
%TO.C,R15*%
X189857142Y-87922380D02*
X189523809Y-87446190D01*
X189285714Y-87922380D02*
X189285714Y-86922380D01*
X189666666Y-86922380D01*
X189761904Y-86970000D01*
X189809523Y-87017619D01*
X189857142Y-87112857D01*
X189857142Y-87255714D01*
X189809523Y-87350952D01*
X189761904Y-87398571D01*
X189666666Y-87446190D01*
X189285714Y-87446190D01*
X190809523Y-87922380D02*
X190238095Y-87922380D01*
X190523809Y-87922380D02*
X190523809Y-86922380D01*
X190428571Y-87065238D01*
X190333333Y-87160476D01*
X190238095Y-87208095D01*
X191714285Y-86922380D02*
X191238095Y-86922380D01*
X191190476Y-87398571D01*
X191238095Y-87350952D01*
X191333333Y-87303333D01*
X191571428Y-87303333D01*
X191666666Y-87350952D01*
X191714285Y-87398571D01*
X191761904Y-87493809D01*
X191761904Y-87731904D01*
X191714285Y-87827142D01*
X191666666Y-87874761D01*
X191571428Y-87922380D01*
X191333333Y-87922380D01*
X191238095Y-87874761D01*
X191190476Y-87827142D01*
%TO.C,R19*%
X116197142Y-57442380D02*
X115863809Y-56966190D01*
X115625714Y-57442380D02*
X115625714Y-56442380D01*
X116006666Y-56442380D01*
X116101904Y-56490000D01*
X116149523Y-56537619D01*
X116197142Y-56632857D01*
X116197142Y-56775714D01*
X116149523Y-56870952D01*
X116101904Y-56918571D01*
X116006666Y-56966190D01*
X115625714Y-56966190D01*
X117149523Y-57442380D02*
X116578095Y-57442380D01*
X116863809Y-57442380D02*
X116863809Y-56442380D01*
X116768571Y-56585238D01*
X116673333Y-56680476D01*
X116578095Y-56728095D01*
X117625714Y-57442380D02*
X117816190Y-57442380D01*
X117911428Y-57394761D01*
X117959047Y-57347142D01*
X118054285Y-57204285D01*
X118101904Y-57013809D01*
X118101904Y-56632857D01*
X118054285Y-56537619D01*
X118006666Y-56490000D01*
X117911428Y-56442380D01*
X117720952Y-56442380D01*
X117625714Y-56490000D01*
X117578095Y-56537619D01*
X117530476Y-56632857D01*
X117530476Y-56870952D01*
X117578095Y-56966190D01*
X117625714Y-57013809D01*
X117720952Y-57061428D01*
X117911428Y-57061428D01*
X118006666Y-57013809D01*
X118054285Y-56966190D01*
X118101904Y-56870952D01*
%TO.C,R6*%
X179105532Y-137534414D02*
X178629342Y-137867748D01*
X179105532Y-138105843D02*
X178105532Y-138105843D01*
X178105532Y-137724890D01*
X178153152Y-137629652D01*
X178200771Y-137582033D01*
X178296009Y-137534414D01*
X178438866Y-137534414D01*
X178534104Y-137582033D01*
X178581723Y-137629652D01*
X178629342Y-137724890D01*
X178629342Y-138105843D01*
X178105532Y-136677271D02*
X178105532Y-136867748D01*
X178153152Y-136962986D01*
X178200771Y-137010605D01*
X178343628Y-137105843D01*
X178534104Y-137153462D01*
X178915056Y-137153462D01*
X179010294Y-137105843D01*
X179057913Y-137058224D01*
X179105532Y-136962986D01*
X179105532Y-136772509D01*
X179057913Y-136677271D01*
X179010294Y-136629652D01*
X178915056Y-136582033D01*
X178676961Y-136582033D01*
X178581723Y-136629652D01*
X178534104Y-136677271D01*
X178486485Y-136772509D01*
X178486485Y-136962986D01*
X178534104Y-137058224D01*
X178581723Y-137105843D01*
X178676961Y-137153462D01*
%TO.C,D4*%
X123482380Y-55830595D02*
X122482380Y-55830595D01*
X122482380Y-55592500D01*
X122530000Y-55449642D01*
X122625238Y-55354404D01*
X122720476Y-55306785D01*
X122910952Y-55259166D01*
X123053809Y-55259166D01*
X123244285Y-55306785D01*
X123339523Y-55354404D01*
X123434761Y-55449642D01*
X123482380Y-55592500D01*
X123482380Y-55830595D01*
X122815714Y-54402023D02*
X123482380Y-54402023D01*
X122434761Y-54640119D02*
X123149047Y-54878214D01*
X123149047Y-54259166D01*
%TO.C,BZ1*%
X194699047Y-137067037D02*
X194841904Y-137114656D01*
X194889523Y-137162275D01*
X194937142Y-137257513D01*
X194937142Y-137400370D01*
X194889523Y-137495608D01*
X194841904Y-137543227D01*
X194746666Y-137590846D01*
X194365714Y-137590846D01*
X194365714Y-136590846D01*
X194699047Y-136590846D01*
X194794285Y-136638466D01*
X194841904Y-136686085D01*
X194889523Y-136781323D01*
X194889523Y-136876561D01*
X194841904Y-136971799D01*
X194794285Y-137019418D01*
X194699047Y-137067037D01*
X194365714Y-137067037D01*
X195270476Y-136590846D02*
X195937142Y-136590846D01*
X195270476Y-137590846D01*
X195937142Y-137590846D01*
X196841904Y-137590846D02*
X196270476Y-137590846D01*
X196556190Y-137590846D02*
X196556190Y-136590846D01*
X196460952Y-136733704D01*
X196365714Y-136828942D01*
X196270476Y-136876561D01*
%TO.C,R5*%
X185253333Y-102709763D02*
X184920000Y-102233573D01*
X184681904Y-102709763D02*
X184681904Y-101709763D01*
X185062857Y-101709763D01*
X185158095Y-101757383D01*
X185205714Y-101805002D01*
X185253333Y-101900240D01*
X185253333Y-102043097D01*
X185205714Y-102138335D01*
X185158095Y-102185954D01*
X185062857Y-102233573D01*
X184681904Y-102233573D01*
X186158095Y-101709763D02*
X185681904Y-101709763D01*
X185634285Y-102185954D01*
X185681904Y-102138335D01*
X185777142Y-102090716D01*
X186015238Y-102090716D01*
X186110476Y-102138335D01*
X186158095Y-102185954D01*
X186205714Y-102281192D01*
X186205714Y-102519287D01*
X186158095Y-102614525D01*
X186110476Y-102662144D01*
X186015238Y-102709763D01*
X185777142Y-102709763D01*
X185681904Y-102662144D01*
X185634285Y-102614525D01*
%TO.C,R30*%
X119055158Y-79993858D02*
X118578968Y-80327191D01*
X119055158Y-80565286D02*
X118055158Y-80565286D01*
X118055158Y-80184334D01*
X118102778Y-80089096D01*
X118150397Y-80041477D01*
X118245635Y-79993858D01*
X118388492Y-79993858D01*
X118483730Y-80041477D01*
X118531349Y-80089096D01*
X118578968Y-80184334D01*
X118578968Y-80565286D01*
X118055158Y-79660524D02*
X118055158Y-79041477D01*
X118436111Y-79374810D01*
X118436111Y-79231953D01*
X118483730Y-79136715D01*
X118531349Y-79089096D01*
X118626587Y-79041477D01*
X118864682Y-79041477D01*
X118959920Y-79089096D01*
X119007539Y-79136715D01*
X119055158Y-79231953D01*
X119055158Y-79517667D01*
X119007539Y-79612905D01*
X118959920Y-79660524D01*
X118055158Y-78422429D02*
X118055158Y-78327191D01*
X118102778Y-78231953D01*
X118150397Y-78184334D01*
X118245635Y-78136715D01*
X118436111Y-78089096D01*
X118674206Y-78089096D01*
X118864682Y-78136715D01*
X118959920Y-78184334D01*
X119007539Y-78231953D01*
X119055158Y-78327191D01*
X119055158Y-78422429D01*
X119007539Y-78517667D01*
X118959920Y-78565286D01*
X118864682Y-78612905D01*
X118674206Y-78660524D01*
X118436111Y-78660524D01*
X118245635Y-78612905D01*
X118150397Y-78565286D01*
X118102778Y-78517667D01*
X118055158Y-78422429D01*
%TO.C,C8*%
X128467142Y-91606666D02*
X128514761Y-91654285D01*
X128562380Y-91797142D01*
X128562380Y-91892380D01*
X128514761Y-92035238D01*
X128419523Y-92130476D01*
X128324285Y-92178095D01*
X128133809Y-92225714D01*
X127990952Y-92225714D01*
X127800476Y-92178095D01*
X127705238Y-92130476D01*
X127610000Y-92035238D01*
X127562380Y-91892380D01*
X127562380Y-91797142D01*
X127610000Y-91654285D01*
X127657619Y-91606666D01*
X127990952Y-91035238D02*
X127943333Y-91130476D01*
X127895714Y-91178095D01*
X127800476Y-91225714D01*
X127752857Y-91225714D01*
X127657619Y-91178095D01*
X127610000Y-91130476D01*
X127562380Y-91035238D01*
X127562380Y-90844761D01*
X127610000Y-90749523D01*
X127657619Y-90701904D01*
X127752857Y-90654285D01*
X127800476Y-90654285D01*
X127895714Y-90701904D01*
X127943333Y-90749523D01*
X127990952Y-90844761D01*
X127990952Y-91035238D01*
X128038571Y-91130476D01*
X128086190Y-91178095D01*
X128181428Y-91225714D01*
X128371904Y-91225714D01*
X128467142Y-91178095D01*
X128514761Y-91130476D01*
X128562380Y-91035238D01*
X128562380Y-90844761D01*
X128514761Y-90749523D01*
X128467142Y-90701904D01*
X128371904Y-90654285D01*
X128181428Y-90654285D01*
X128086190Y-90701904D01*
X128038571Y-90749523D01*
X127990952Y-90844761D01*
%TO.C,D7*%
X110782380Y-71858095D02*
X109782380Y-71858095D01*
X109782380Y-71620000D01*
X109830000Y-71477142D01*
X109925238Y-71381904D01*
X110020476Y-71334285D01*
X110210952Y-71286666D01*
X110353809Y-71286666D01*
X110544285Y-71334285D01*
X110639523Y-71381904D01*
X110734761Y-71477142D01*
X110782380Y-71620000D01*
X110782380Y-71858095D01*
X109782380Y-70953333D02*
X109782380Y-70286666D01*
X110782380Y-70715238D01*
%TO.C,R12*%
X189857142Y-98082380D02*
X189523809Y-97606190D01*
X189285714Y-98082380D02*
X189285714Y-97082380D01*
X189666666Y-97082380D01*
X189761904Y-97130000D01*
X189809523Y-97177619D01*
X189857142Y-97272857D01*
X189857142Y-97415714D01*
X189809523Y-97510952D01*
X189761904Y-97558571D01*
X189666666Y-97606190D01*
X189285714Y-97606190D01*
X190809523Y-98082380D02*
X190238095Y-98082380D01*
X190523809Y-98082380D02*
X190523809Y-97082380D01*
X190428571Y-97225238D01*
X190333333Y-97320476D01*
X190238095Y-97368095D01*
X191190476Y-97177619D02*
X191238095Y-97130000D01*
X191333333Y-97082380D01*
X191571428Y-97082380D01*
X191666666Y-97130000D01*
X191714285Y-97177619D01*
X191761904Y-97272857D01*
X191761904Y-97368095D01*
X191714285Y-97510952D01*
X191142857Y-98082380D01*
X191761904Y-98082380D01*
%TO.C,R24*%
X177142380Y-57878464D02*
X176666190Y-58211797D01*
X177142380Y-58449892D02*
X176142380Y-58449892D01*
X176142380Y-58068940D01*
X176190000Y-57973702D01*
X176237619Y-57926083D01*
X176332857Y-57878464D01*
X176475714Y-57878464D01*
X176570952Y-57926083D01*
X176618571Y-57973702D01*
X176666190Y-58068940D01*
X176666190Y-58449892D01*
X176237619Y-57497511D02*
X176190000Y-57449892D01*
X176142380Y-57354654D01*
X176142380Y-57116559D01*
X176190000Y-57021321D01*
X176237619Y-56973702D01*
X176332857Y-56926083D01*
X176428095Y-56926083D01*
X176570952Y-56973702D01*
X177142380Y-57545130D01*
X177142380Y-56926083D01*
X176475714Y-56068940D02*
X177142380Y-56068940D01*
X176094761Y-56307035D02*
X176809047Y-56545130D01*
X176809047Y-55926083D01*
%TO.C,R26*%
X169202380Y-57818726D02*
X168726190Y-58152059D01*
X169202380Y-58390154D02*
X168202380Y-58390154D01*
X168202380Y-58009202D01*
X168250000Y-57913964D01*
X168297619Y-57866345D01*
X168392857Y-57818726D01*
X168535714Y-57818726D01*
X168630952Y-57866345D01*
X168678571Y-57913964D01*
X168726190Y-58009202D01*
X168726190Y-58390154D01*
X168297619Y-57437773D02*
X168250000Y-57390154D01*
X168202380Y-57294916D01*
X168202380Y-57056821D01*
X168250000Y-56961583D01*
X168297619Y-56913964D01*
X168392857Y-56866345D01*
X168488095Y-56866345D01*
X168630952Y-56913964D01*
X169202380Y-57485392D01*
X169202380Y-56866345D01*
X168202380Y-56009202D02*
X168202380Y-56199678D01*
X168250000Y-56294916D01*
X168297619Y-56342535D01*
X168440476Y-56437773D01*
X168630952Y-56485392D01*
X169011904Y-56485392D01*
X169107142Y-56437773D01*
X169154761Y-56390154D01*
X169202380Y-56294916D01*
X169202380Y-56104440D01*
X169154761Y-56009202D01*
X169107142Y-55961583D01*
X169011904Y-55913964D01*
X168773809Y-55913964D01*
X168678571Y-55961583D01*
X168630952Y-56009202D01*
X168583333Y-56104440D01*
X168583333Y-56294916D01*
X168630952Y-56390154D01*
X168678571Y-56437773D01*
X168773809Y-56485392D01*
%TO.C,C7*%
X133867142Y-91606666D02*
X133914761Y-91654285D01*
X133962380Y-91797142D01*
X133962380Y-91892380D01*
X133914761Y-92035238D01*
X133819523Y-92130476D01*
X133724285Y-92178095D01*
X133533809Y-92225714D01*
X133390952Y-92225714D01*
X133200476Y-92178095D01*
X133105238Y-92130476D01*
X133010000Y-92035238D01*
X132962380Y-91892380D01*
X132962380Y-91797142D01*
X133010000Y-91654285D01*
X133057619Y-91606666D01*
X132962380Y-91273333D02*
X132962380Y-90606666D01*
X133962380Y-91035238D01*
%TO.C,D5*%
X128562380Y-55740595D02*
X127562380Y-55740595D01*
X127562380Y-55502500D01*
X127610000Y-55359642D01*
X127705238Y-55264404D01*
X127800476Y-55216785D01*
X127990952Y-55169166D01*
X128133809Y-55169166D01*
X128324285Y-55216785D01*
X128419523Y-55264404D01*
X128514761Y-55359642D01*
X128562380Y-55502500D01*
X128562380Y-55740595D01*
X127562380Y-54264404D02*
X127562380Y-54740595D01*
X128038571Y-54788214D01*
X127990952Y-54740595D01*
X127943333Y-54645357D01*
X127943333Y-54407261D01*
X127990952Y-54312023D01*
X128038571Y-54264404D01*
X128133809Y-54216785D01*
X128371904Y-54216785D01*
X128467142Y-54264404D01*
X128514761Y-54312023D01*
X128562380Y-54407261D01*
X128562380Y-54645357D01*
X128514761Y-54740595D01*
X128467142Y-54788214D01*
%TO.C,D1*%
X181317381Y-145170924D02*
X181317381Y-144170924D01*
X181555477Y-144170924D01*
X181698334Y-144218544D01*
X181793572Y-144313782D01*
X181841191Y-144409020D01*
X181888810Y-144599496D01*
X181888810Y-144742353D01*
X181841191Y-144932829D01*
X181793572Y-145028067D01*
X181698334Y-145123305D01*
X181555477Y-145170924D01*
X181317381Y-145170924D01*
X182841191Y-145170924D02*
X182269762Y-145170924D01*
X182555477Y-145170924D02*
X182555477Y-144170924D01*
X182460238Y-144313782D01*
X182365000Y-144409020D01*
X182269762Y-144456639D01*
%TO.C,U2*%
X193230595Y-108672380D02*
X193230595Y-109481904D01*
X193278214Y-109577142D01*
X193325833Y-109624761D01*
X193421071Y-109672380D01*
X193611547Y-109672380D01*
X193706785Y-109624761D01*
X193754404Y-109577142D01*
X193802023Y-109481904D01*
X193802023Y-108672380D01*
X194230595Y-108767619D02*
X194278214Y-108720000D01*
X194373452Y-108672380D01*
X194611547Y-108672380D01*
X194706785Y-108720000D01*
X194754404Y-108767619D01*
X194802023Y-108862857D01*
X194802023Y-108958095D01*
X194754404Y-109100952D01*
X194182976Y-109672380D01*
X194802023Y-109672380D01*
%TO.C,U4*%
X131953095Y-133437380D02*
X131953095Y-134246904D01*
X132000714Y-134342142D01*
X132048333Y-134389761D01*
X132143571Y-134437380D01*
X132334047Y-134437380D01*
X132429285Y-134389761D01*
X132476904Y-134342142D01*
X132524523Y-134246904D01*
X132524523Y-133437380D01*
X133429285Y-133770714D02*
X133429285Y-134437380D01*
X133191190Y-133389761D02*
X132953095Y-134104047D01*
X133572142Y-134104047D01*
%TO.C,R20*%
X138087380Y-141612857D02*
X137611190Y-141946190D01*
X138087380Y-142184285D02*
X137087380Y-142184285D01*
X137087380Y-141803333D01*
X137135000Y-141708095D01*
X137182619Y-141660476D01*
X137277857Y-141612857D01*
X137420714Y-141612857D01*
X137515952Y-141660476D01*
X137563571Y-141708095D01*
X137611190Y-141803333D01*
X137611190Y-142184285D01*
X137182619Y-141231904D02*
X137135000Y-141184285D01*
X137087380Y-141089047D01*
X137087380Y-140850952D01*
X137135000Y-140755714D01*
X137182619Y-140708095D01*
X137277857Y-140660476D01*
X137373095Y-140660476D01*
X137515952Y-140708095D01*
X138087380Y-141279523D01*
X138087380Y-140660476D01*
X137087380Y-140041428D02*
X137087380Y-139946190D01*
X137135000Y-139850952D01*
X137182619Y-139803333D01*
X137277857Y-139755714D01*
X137468333Y-139708095D01*
X137706428Y-139708095D01*
X137896904Y-139755714D01*
X137992142Y-139803333D01*
X138039761Y-139850952D01*
X138087380Y-139946190D01*
X138087380Y-140041428D01*
X138039761Y-140136666D01*
X137992142Y-140184285D01*
X137896904Y-140231904D01*
X137706428Y-140279523D01*
X137468333Y-140279523D01*
X137277857Y-140231904D01*
X137182619Y-140184285D01*
X137135000Y-140136666D01*
X137087380Y-140041428D01*
%TO.C,R14*%
X189857142Y-75542380D02*
X189523809Y-75066190D01*
X189285714Y-75542380D02*
X189285714Y-74542380D01*
X189666666Y-74542380D01*
X189761904Y-74590000D01*
X189809523Y-74637619D01*
X189857142Y-74732857D01*
X189857142Y-74875714D01*
X189809523Y-74970952D01*
X189761904Y-75018571D01*
X189666666Y-75066190D01*
X189285714Y-75066190D01*
X190809523Y-75542380D02*
X190238095Y-75542380D01*
X190523809Y-75542380D02*
X190523809Y-74542380D01*
X190428571Y-74685238D01*
X190333333Y-74780476D01*
X190238095Y-74828095D01*
X191666666Y-74875714D02*
X191666666Y-75542380D01*
X191428571Y-74494761D02*
X191190476Y-75209047D01*
X191809523Y-75209047D01*
%TO.C,C12*%
X147097279Y-92959116D02*
X147049660Y-93006735D01*
X146906803Y-93054354D01*
X146811565Y-93054354D01*
X146668708Y-93006735D01*
X146573470Y-92911497D01*
X146525851Y-92816259D01*
X146478232Y-92625783D01*
X146478232Y-92482926D01*
X146525851Y-92292450D01*
X146573470Y-92197212D01*
X146668708Y-92101974D01*
X146811565Y-92054354D01*
X146906803Y-92054354D01*
X147049660Y-92101974D01*
X147097279Y-92149593D01*
X148049660Y-93054354D02*
X147478232Y-93054354D01*
X147763946Y-93054354D02*
X147763946Y-92054354D01*
X147668708Y-92197212D01*
X147573470Y-92292450D01*
X147478232Y-92340069D01*
X148430613Y-92149593D02*
X148478232Y-92101974D01*
X148573470Y-92054354D01*
X148811565Y-92054354D01*
X148906803Y-92101974D01*
X148954422Y-92149593D01*
X149002041Y-92244831D01*
X149002041Y-92340069D01*
X148954422Y-92482926D01*
X148382994Y-93054354D01*
X149002041Y-93054354D01*
%TO.C,Q2*%
X185324761Y-130227619D02*
X185229523Y-130180000D01*
X185134285Y-130084761D01*
X184991428Y-129941904D01*
X184896190Y-129894285D01*
X184800952Y-129894285D01*
X184848571Y-130132380D02*
X184753333Y-130084761D01*
X184658095Y-129989523D01*
X184610476Y-129799047D01*
X184610476Y-129465714D01*
X184658095Y-129275238D01*
X184753333Y-129180000D01*
X184848571Y-129132380D01*
X185039047Y-129132380D01*
X185134285Y-129180000D01*
X185229523Y-129275238D01*
X185277142Y-129465714D01*
X185277142Y-129799047D01*
X185229523Y-129989523D01*
X185134285Y-130084761D01*
X185039047Y-130132380D01*
X184848571Y-130132380D01*
X185658095Y-129227619D02*
X185705714Y-129180000D01*
X185800952Y-129132380D01*
X186039047Y-129132380D01*
X186134285Y-129180000D01*
X186181904Y-129227619D01*
X186229523Y-129322857D01*
X186229523Y-129418095D01*
X186181904Y-129560952D01*
X185610476Y-130132380D01*
X186229523Y-130132380D01*
%TO.C,R18*%
X126182380Y-137802857D02*
X125706190Y-138136190D01*
X126182380Y-138374285D02*
X125182380Y-138374285D01*
X125182380Y-137993333D01*
X125230000Y-137898095D01*
X125277619Y-137850476D01*
X125372857Y-137802857D01*
X125515714Y-137802857D01*
X125610952Y-137850476D01*
X125658571Y-137898095D01*
X125706190Y-137993333D01*
X125706190Y-138374285D01*
X126182380Y-136850476D02*
X126182380Y-137421904D01*
X126182380Y-137136190D02*
X125182380Y-137136190D01*
X125325238Y-137231428D01*
X125420476Y-137326666D01*
X125468095Y-137421904D01*
X125610952Y-136279047D02*
X125563333Y-136374285D01*
X125515714Y-136421904D01*
X125420476Y-136469523D01*
X125372857Y-136469523D01*
X125277619Y-136421904D01*
X125230000Y-136374285D01*
X125182380Y-136279047D01*
X125182380Y-136088571D01*
X125230000Y-135993333D01*
X125277619Y-135945714D01*
X125372857Y-135898095D01*
X125420476Y-135898095D01*
X125515714Y-135945714D01*
X125563333Y-135993333D01*
X125610952Y-136088571D01*
X125610952Y-136279047D01*
X125658571Y-136374285D01*
X125706190Y-136421904D01*
X125801428Y-136469523D01*
X125991904Y-136469523D01*
X126087142Y-136421904D01*
X126134761Y-136374285D01*
X126182380Y-136279047D01*
X126182380Y-136088571D01*
X126134761Y-135993333D01*
X126087142Y-135945714D01*
X125991904Y-135898095D01*
X125801428Y-135898095D01*
X125706190Y-135945714D01*
X125658571Y-135993333D01*
X125610952Y-136088571D01*
%TO.C,C6*%
X186525419Y-104306666D02*
X186573038Y-104354285D01*
X186620657Y-104497142D01*
X186620657Y-104592380D01*
X186573038Y-104735238D01*
X186477800Y-104830476D01*
X186382562Y-104878095D01*
X186192086Y-104925714D01*
X186049229Y-104925714D01*
X185858753Y-104878095D01*
X185763515Y-104830476D01*
X185668277Y-104735238D01*
X185620657Y-104592380D01*
X185620657Y-104497142D01*
X185668277Y-104354285D01*
X185715896Y-104306666D01*
X185620657Y-103449523D02*
X185620657Y-103640000D01*
X185668277Y-103735238D01*
X185715896Y-103782857D01*
X185858753Y-103878095D01*
X186049229Y-103925714D01*
X186430181Y-103925714D01*
X186525419Y-103878095D01*
X186573038Y-103830476D01*
X186620657Y-103735238D01*
X186620657Y-103544761D01*
X186573038Y-103449523D01*
X186525419Y-103401904D01*
X186430181Y-103354285D01*
X186192086Y-103354285D01*
X186096848Y-103401904D01*
X186049229Y-103449523D01*
X186001610Y-103544761D01*
X186001610Y-103735238D01*
X186049229Y-103830476D01*
X186096848Y-103878095D01*
X186192086Y-103925714D01*
%TO.C,R21*%
X116197142Y-62522380D02*
X115863809Y-62046190D01*
X115625714Y-62522380D02*
X115625714Y-61522380D01*
X116006666Y-61522380D01*
X116101904Y-61570000D01*
X116149523Y-61617619D01*
X116197142Y-61712857D01*
X116197142Y-61855714D01*
X116149523Y-61950952D01*
X116101904Y-61998571D01*
X116006666Y-62046190D01*
X115625714Y-62046190D01*
X116578095Y-61617619D02*
X116625714Y-61570000D01*
X116720952Y-61522380D01*
X116959047Y-61522380D01*
X117054285Y-61570000D01*
X117101904Y-61617619D01*
X117149523Y-61712857D01*
X117149523Y-61808095D01*
X117101904Y-61950952D01*
X116530476Y-62522380D01*
X117149523Y-62522380D01*
X118101904Y-62522380D02*
X117530476Y-62522380D01*
X117816190Y-62522380D02*
X117816190Y-61522380D01*
X117720952Y-61665238D01*
X117625714Y-61760476D01*
X117530476Y-61808095D01*
%TO.C,C5*%
X181825984Y-114758674D02*
X181873603Y-114806293D01*
X181921222Y-114949150D01*
X181921222Y-115044388D01*
X181873603Y-115187246D01*
X181778365Y-115282484D01*
X181683127Y-115330103D01*
X181492651Y-115377722D01*
X181349794Y-115377722D01*
X181159318Y-115330103D01*
X181064080Y-115282484D01*
X180968842Y-115187246D01*
X180921222Y-115044388D01*
X180921222Y-114949150D01*
X180968842Y-114806293D01*
X181016461Y-114758674D01*
X180921222Y-113853912D02*
X180921222Y-114330103D01*
X181397413Y-114377722D01*
X181349794Y-114330103D01*
X181302175Y-114234865D01*
X181302175Y-113996769D01*
X181349794Y-113901531D01*
X181397413Y-113853912D01*
X181492651Y-113806293D01*
X181730746Y-113806293D01*
X181825984Y-113853912D01*
X181873603Y-113901531D01*
X181921222Y-113996769D01*
X181921222Y-114234865D01*
X181873603Y-114330103D01*
X181825984Y-114377722D01*
%TO.C,Q1*%
X177704761Y-145187619D02*
X177609523Y-145140000D01*
X177514285Y-145044761D01*
X177371428Y-144901904D01*
X177276190Y-144854285D01*
X177180952Y-144854285D01*
X177228571Y-145092380D02*
X177133333Y-145044761D01*
X177038095Y-144949523D01*
X176990476Y-144759047D01*
X176990476Y-144425714D01*
X177038095Y-144235238D01*
X177133333Y-144140000D01*
X177228571Y-144092380D01*
X177419047Y-144092380D01*
X177514285Y-144140000D01*
X177609523Y-144235238D01*
X177657142Y-144425714D01*
X177657142Y-144759047D01*
X177609523Y-144949523D01*
X177514285Y-145044761D01*
X177419047Y-145092380D01*
X177228571Y-145092380D01*
X178609523Y-145092380D02*
X178038095Y-145092380D01*
X178323809Y-145092380D02*
X178323809Y-144092380D01*
X178228571Y-144235238D01*
X178133333Y-144330476D01*
X178038095Y-144378095D01*
%TO.C,Btn_2*%
X196596190Y-82238571D02*
X196739047Y-82286190D01*
X196786666Y-82333809D01*
X196834285Y-82429047D01*
X196834285Y-82571904D01*
X196786666Y-82667142D01*
X196739047Y-82714761D01*
X196643809Y-82762380D01*
X196262857Y-82762380D01*
X196262857Y-81762380D01*
X196596190Y-81762380D01*
X196691428Y-81810000D01*
X196739047Y-81857619D01*
X196786666Y-81952857D01*
X196786666Y-82048095D01*
X196739047Y-82143333D01*
X196691428Y-82190952D01*
X196596190Y-82238571D01*
X196262857Y-82238571D01*
X197120000Y-82095714D02*
X197500952Y-82095714D01*
X197262857Y-81762380D02*
X197262857Y-82619523D01*
X197310476Y-82714761D01*
X197405714Y-82762380D01*
X197500952Y-82762380D01*
X197834285Y-82095714D02*
X197834285Y-82762380D01*
X197834285Y-82190952D02*
X197881904Y-82143333D01*
X197977142Y-82095714D01*
X198120000Y-82095714D01*
X198215238Y-82143333D01*
X198262857Y-82238571D01*
X198262857Y-82762380D01*
X198500952Y-82857619D02*
X199262857Y-82857619D01*
X199453333Y-81857619D02*
X199500952Y-81810000D01*
X199596190Y-81762380D01*
X199834285Y-81762380D01*
X199929523Y-81810000D01*
X199977142Y-81857619D01*
X200024761Y-81952857D01*
X200024761Y-82048095D01*
X199977142Y-82190952D01*
X199405714Y-82762380D01*
X200024761Y-82762380D01*
%TO.C,R11*%
X189857142Y-95862380D02*
X189523809Y-95386190D01*
X189285714Y-95862380D02*
X189285714Y-94862380D01*
X189666666Y-94862380D01*
X189761904Y-94910000D01*
X189809523Y-94957619D01*
X189857142Y-95052857D01*
X189857142Y-95195714D01*
X189809523Y-95290952D01*
X189761904Y-95338571D01*
X189666666Y-95386190D01*
X189285714Y-95386190D01*
X190809523Y-95862380D02*
X190238095Y-95862380D01*
X190523809Y-95862380D02*
X190523809Y-94862380D01*
X190428571Y-95005238D01*
X190333333Y-95100476D01*
X190238095Y-95148095D01*
X191761904Y-95862380D02*
X191190476Y-95862380D01*
X191476190Y-95862380D02*
X191476190Y-94862380D01*
X191380952Y-95005238D01*
X191285714Y-95100476D01*
X191190476Y-95148095D01*
%TO.C,Btn_3*%
X196596190Y-72078571D02*
X196739047Y-72126190D01*
X196786666Y-72173809D01*
X196834285Y-72269047D01*
X196834285Y-72411904D01*
X196786666Y-72507142D01*
X196739047Y-72554761D01*
X196643809Y-72602380D01*
X196262857Y-72602380D01*
X196262857Y-71602380D01*
X196596190Y-71602380D01*
X196691428Y-71650000D01*
X196739047Y-71697619D01*
X196786666Y-71792857D01*
X196786666Y-71888095D01*
X196739047Y-71983333D01*
X196691428Y-72030952D01*
X196596190Y-72078571D01*
X196262857Y-72078571D01*
X197120000Y-71935714D02*
X197500952Y-71935714D01*
X197262857Y-71602380D02*
X197262857Y-72459523D01*
X197310476Y-72554761D01*
X197405714Y-72602380D01*
X197500952Y-72602380D01*
X197834285Y-71935714D02*
X197834285Y-72602380D01*
X197834285Y-72030952D02*
X197881904Y-71983333D01*
X197977142Y-71935714D01*
X198120000Y-71935714D01*
X198215238Y-71983333D01*
X198262857Y-72078571D01*
X198262857Y-72602380D01*
X198500952Y-72697619D02*
X199262857Y-72697619D01*
X199405714Y-71602380D02*
X200024761Y-71602380D01*
X199691428Y-71983333D01*
X199834285Y-71983333D01*
X199929523Y-72030952D01*
X199977142Y-72078571D01*
X200024761Y-72173809D01*
X200024761Y-72411904D01*
X199977142Y-72507142D01*
X199929523Y-72554761D01*
X199834285Y-72602380D01*
X199548571Y-72602380D01*
X199453333Y-72554761D01*
X199405714Y-72507142D01*
%TO.C,R4*%
X180826873Y-113479852D02*
X180493540Y-113003662D01*
X180255444Y-113479852D02*
X180255444Y-112479852D01*
X180636397Y-112479852D01*
X180731635Y-112527472D01*
X180779254Y-112575091D01*
X180826873Y-112670329D01*
X180826873Y-112813186D01*
X180779254Y-112908424D01*
X180731635Y-112956043D01*
X180636397Y-113003662D01*
X180255444Y-113003662D01*
X181684016Y-112813186D02*
X181684016Y-113479852D01*
X181445920Y-112432233D02*
X181207825Y-113146519D01*
X181826873Y-113146519D01*
%TO.C,C13*%
X143707142Y-89542857D02*
X143754761Y-89590476D01*
X143802380Y-89733333D01*
X143802380Y-89828571D01*
X143754761Y-89971428D01*
X143659523Y-90066666D01*
X143564285Y-90114285D01*
X143373809Y-90161904D01*
X143230952Y-90161904D01*
X143040476Y-90114285D01*
X142945238Y-90066666D01*
X142850000Y-89971428D01*
X142802380Y-89828571D01*
X142802380Y-89733333D01*
X142850000Y-89590476D01*
X142897619Y-89542857D01*
X143802380Y-88590476D02*
X143802380Y-89161904D01*
X143802380Y-88876190D02*
X142802380Y-88876190D01*
X142945238Y-88971428D01*
X143040476Y-89066666D01*
X143088095Y-89161904D01*
X142802380Y-88257142D02*
X142802380Y-87638095D01*
X143183333Y-87971428D01*
X143183333Y-87828571D01*
X143230952Y-87733333D01*
X143278571Y-87685714D01*
X143373809Y-87638095D01*
X143611904Y-87638095D01*
X143707142Y-87685714D01*
X143754761Y-87733333D01*
X143802380Y-87828571D01*
X143802380Y-88114285D01*
X143754761Y-88209523D01*
X143707142Y-88257142D01*
%TO.C,Btn_1*%
X196596190Y-92398571D02*
X196739047Y-92446190D01*
X196786666Y-92493809D01*
X196834285Y-92589047D01*
X196834285Y-92731904D01*
X196786666Y-92827142D01*
X196739047Y-92874761D01*
X196643809Y-92922380D01*
X196262857Y-92922380D01*
X196262857Y-91922380D01*
X196596190Y-91922380D01*
X196691428Y-91970000D01*
X196739047Y-92017619D01*
X196786666Y-92112857D01*
X196786666Y-92208095D01*
X196739047Y-92303333D01*
X196691428Y-92350952D01*
X196596190Y-92398571D01*
X196262857Y-92398571D01*
X197120000Y-92255714D02*
X197500952Y-92255714D01*
X197262857Y-91922380D02*
X197262857Y-92779523D01*
X197310476Y-92874761D01*
X197405714Y-92922380D01*
X197500952Y-92922380D01*
X197834285Y-92255714D02*
X197834285Y-92922380D01*
X197834285Y-92350952D02*
X197881904Y-92303333D01*
X197977142Y-92255714D01*
X198120000Y-92255714D01*
X198215238Y-92303333D01*
X198262857Y-92398571D01*
X198262857Y-92922380D01*
X198500952Y-93017619D02*
X199262857Y-93017619D01*
X200024761Y-92922380D02*
X199453333Y-92922380D01*
X199739047Y-92922380D02*
X199739047Y-91922380D01*
X199643809Y-92065238D01*
X199548571Y-92160476D01*
X199453333Y-92208095D01*
%TO.C,R28*%
X123482380Y-59062857D02*
X123006190Y-59396190D01*
X123482380Y-59634285D02*
X122482380Y-59634285D01*
X122482380Y-59253333D01*
X122530000Y-59158095D01*
X122577619Y-59110476D01*
X122672857Y-59062857D01*
X122815714Y-59062857D01*
X122910952Y-59110476D01*
X122958571Y-59158095D01*
X123006190Y-59253333D01*
X123006190Y-59634285D01*
X122577619Y-58681904D02*
X122530000Y-58634285D01*
X122482380Y-58539047D01*
X122482380Y-58300952D01*
X122530000Y-58205714D01*
X122577619Y-58158095D01*
X122672857Y-58110476D01*
X122768095Y-58110476D01*
X122910952Y-58158095D01*
X123482380Y-58729523D01*
X123482380Y-58110476D01*
X122910952Y-57539047D02*
X122863333Y-57634285D01*
X122815714Y-57681904D01*
X122720476Y-57729523D01*
X122672857Y-57729523D01*
X122577619Y-57681904D01*
X122530000Y-57634285D01*
X122482380Y-57539047D01*
X122482380Y-57348571D01*
X122530000Y-57253333D01*
X122577619Y-57205714D01*
X122672857Y-57158095D01*
X122720476Y-57158095D01*
X122815714Y-57205714D01*
X122863333Y-57253333D01*
X122910952Y-57348571D01*
X122910952Y-57539047D01*
X122958571Y-57634285D01*
X123006190Y-57681904D01*
X123101428Y-57729523D01*
X123291904Y-57729523D01*
X123387142Y-57681904D01*
X123434761Y-57634285D01*
X123482380Y-57539047D01*
X123482380Y-57348571D01*
X123434761Y-57253333D01*
X123387142Y-57205714D01*
X123291904Y-57158095D01*
X123101428Y-57158095D01*
X123006190Y-57205714D01*
X122958571Y-57253333D01*
X122910952Y-57348571D01*
%TO.C,J1*%
X154606666Y-98007380D02*
X154606666Y-98721666D01*
X154559047Y-98864523D01*
X154463809Y-98959761D01*
X154320952Y-99007380D01*
X154225714Y-99007380D01*
X155606666Y-99007380D02*
X155035238Y-99007380D01*
X155320952Y-99007380D02*
X155320952Y-98007380D01*
X155225714Y-98150238D01*
X155130476Y-98245476D01*
X155035238Y-98293095D01*
%TO.C,C9*%
X123547142Y-137326666D02*
X123594761Y-137374285D01*
X123642380Y-137517142D01*
X123642380Y-137612380D01*
X123594761Y-137755238D01*
X123499523Y-137850476D01*
X123404285Y-137898095D01*
X123213809Y-137945714D01*
X123070952Y-137945714D01*
X122880476Y-137898095D01*
X122785238Y-137850476D01*
X122690000Y-137755238D01*
X122642380Y-137612380D01*
X122642380Y-137517142D01*
X122690000Y-137374285D01*
X122737619Y-137326666D01*
X123642380Y-136850476D02*
X123642380Y-136660000D01*
X123594761Y-136564761D01*
X123547142Y-136517142D01*
X123404285Y-136421904D01*
X123213809Y-136374285D01*
X122832857Y-136374285D01*
X122737619Y-136421904D01*
X122690000Y-136469523D01*
X122642380Y-136564761D01*
X122642380Y-136755238D01*
X122690000Y-136850476D01*
X122737619Y-136898095D01*
X122832857Y-136945714D01*
X123070952Y-136945714D01*
X123166190Y-136898095D01*
X123213809Y-136850476D01*
X123261428Y-136755238D01*
X123261428Y-136564761D01*
X123213809Y-136469523D01*
X123166190Y-136421904D01*
X123070952Y-136374285D01*
%TO.C,D2*%
X144041904Y-72112380D02*
X144041904Y-71112380D01*
X144280000Y-71112380D01*
X144422857Y-71160000D01*
X144518095Y-71255238D01*
X144565714Y-71350476D01*
X144613333Y-71540952D01*
X144613333Y-71683809D01*
X144565714Y-71874285D01*
X144518095Y-71969523D01*
X144422857Y-72064761D01*
X144280000Y-72112380D01*
X144041904Y-72112380D01*
X144994285Y-71207619D02*
X145041904Y-71160000D01*
X145137142Y-71112380D01*
X145375238Y-71112380D01*
X145470476Y-71160000D01*
X145518095Y-71207619D01*
X145565714Y-71302857D01*
X145565714Y-71398095D01*
X145518095Y-71540952D01*
X144946666Y-72112380D01*
X145565714Y-72112380D01*
%TO.C,SW1*%
X110426666Y-53744761D02*
X110569523Y-53792380D01*
X110807619Y-53792380D01*
X110902857Y-53744761D01*
X110950476Y-53697142D01*
X110998095Y-53601904D01*
X110998095Y-53506666D01*
X110950476Y-53411428D01*
X110902857Y-53363809D01*
X110807619Y-53316190D01*
X110617142Y-53268571D01*
X110521904Y-53220952D01*
X110474285Y-53173333D01*
X110426666Y-53078095D01*
X110426666Y-52982857D01*
X110474285Y-52887619D01*
X110521904Y-52840000D01*
X110617142Y-52792380D01*
X110855238Y-52792380D01*
X110998095Y-52840000D01*
X111331428Y-52792380D02*
X111569523Y-53792380D01*
X111760000Y-53078095D01*
X111950476Y-53792380D01*
X112188571Y-52792380D01*
X113093333Y-53792380D02*
X112521904Y-53792380D01*
X112807619Y-53792380D02*
X112807619Y-52792380D01*
X112712380Y-52935238D01*
X112617142Y-53030476D01*
X112521904Y-53078095D01*
D13*
%TO.C,RV1*%
X119923906Y-128877391D02*
X120923906Y-128877391D01*
X121923906Y-129877391D02*
X121923906Y-132377391D01*
X119423906Y-132377391D02*
X118923906Y-132377391D01*
X118923906Y-132377391D02*
X118923906Y-129877391D01*
X121923906Y-132377391D02*
X121423906Y-132377391D01*
%TO.C,D3*%
X138330000Y-139280000D02*
X139800000Y-139280000D01*
X138330000Y-136995000D02*
X138330000Y-139280000D01*
X139800000Y-139280000D02*
X139800000Y-136995000D01*
%TO.C,D6*%
X131790000Y-77200000D02*
X127890000Y-77200000D01*
X131790000Y-75200000D02*
X127890000Y-75200000D01*
X131790000Y-77200000D02*
X131790000Y-75200000D01*
%TO.C,C4*%
X115497060Y-101740580D02*
X115497060Y-101459420D01*
X116517060Y-101740580D02*
X116517060Y-101459420D01*
%TO.C,C3*%
X128780000Y-114944937D02*
X128780000Y-115226097D01*
X127760000Y-114944937D02*
X127760000Y-115226097D01*
%TO.C,RESET1*%
X186058326Y-55961602D02*
X186058326Y-58561602D01*
X186058326Y-60491602D02*
X186058326Y-60461602D01*
X179598326Y-54031602D02*
X186058326Y-54031602D01*
X179598326Y-55961602D02*
X179598326Y-58561602D01*
X179598326Y-60491602D02*
X186058326Y-60491602D01*
X179598326Y-54061602D02*
X179598326Y-54031602D01*
X179598326Y-60491602D02*
X179598326Y-60461602D01*
X186058326Y-54031602D02*
X186058326Y-54061602D01*
%TO.C,R1*%
X181757379Y-142538500D02*
X182231895Y-142538500D01*
X181757379Y-141493500D02*
X182231895Y-141493500D01*
%TO.C,C1*%
X117821483Y-131969168D02*
X117821483Y-132250328D01*
X116801483Y-131969168D02*
X116801483Y-132250328D01*
%TO.C,PWR_SW1*%
X200025000Y-56460000D02*
X200660000Y-56460000D01*
X196215000Y-56460000D02*
X195580000Y-56460000D01*
X196215000Y-66620000D02*
X195580000Y-66620000D01*
X200660000Y-56460000D02*
X200342500Y-56460000D01*
X198120000Y-62810000D02*
X198120000Y-64715000D01*
X198120000Y-58365000D02*
X198120000Y-60270000D01*
X200660000Y-56460000D02*
X200501250Y-56460000D01*
X195580000Y-56460000D02*
X195897500Y-56460000D01*
X195580000Y-56460000D02*
X195580000Y-66620000D01*
X200660000Y-66620000D02*
X200660000Y-56460000D01*
X200660000Y-66620000D02*
X200025000Y-66620000D01*
%TO.C,R2*%
X130572742Y-117362500D02*
X131047258Y-117362500D01*
X130572742Y-116317500D02*
X131047258Y-116317500D01*
%TO.C,R17*%
X126477500Y-133587258D02*
X126477500Y-133112742D01*
X127522500Y-133587258D02*
X127522500Y-133112742D01*
%TO.C,R10*%
X185182742Y-141717500D02*
X185657258Y-141717500D01*
X185182742Y-142762500D02*
X185657258Y-142762500D01*
%TO.C,R9*%
X181901397Y-137547685D02*
X181901397Y-137073169D01*
X180856397Y-137547685D02*
X180856397Y-137073169D01*
%TO.C,R16*%
X190262742Y-78217500D02*
X190737258Y-78217500D01*
X190262742Y-79262500D02*
X190737258Y-79262500D01*
%TO.C,R3*%
X119902500Y-101362742D02*
X119902500Y-101837258D01*
X118857500Y-101362742D02*
X118857500Y-101837258D01*
%TO.C,R29*%
X129017500Y-58657258D02*
X129017500Y-58182742D01*
X130062500Y-58657258D02*
X130062500Y-58182742D01*
%TO.C,U1*%
X115570000Y-114300000D02*
X115570000Y-116840000D01*
X125730000Y-110490000D02*
X123190000Y-110490000D01*
X115570000Y-114300000D02*
X118110000Y-114300000D01*
X115570000Y-111760000D02*
X115570000Y-114300000D01*
X125730000Y-118745000D02*
X125730000Y-110490000D01*
X120015000Y-107315000D02*
X120015000Y-104140000D01*
X118110000Y-114300000D02*
X117475000Y-113665000D01*
X118110000Y-114300000D02*
X117475000Y-114935000D01*
X115570000Y-116840000D02*
X114935000Y-116205000D01*
X113030000Y-114300000D02*
X113665000Y-113665000D01*
X113030000Y-114300000D02*
X113665000Y-114935000D01*
X115570000Y-114300000D02*
X115570000Y-111760000D01*
X115570000Y-116840000D02*
X116205000Y-116205000D01*
X115570000Y-116840000D02*
X115570000Y-114300000D01*
X107315000Y-107315000D02*
X123190000Y-107315000D01*
X111125000Y-104140000D02*
X111125000Y-107315000D01*
X120015000Y-104140000D02*
X111760000Y-104140000D01*
X123190000Y-118745000D02*
X125730000Y-118745000D01*
X118110000Y-114300000D02*
X115570000Y-114300000D01*
X115570000Y-114300000D02*
X113030000Y-114300000D01*
X107315000Y-121285000D02*
X107315000Y-107315000D01*
X123190000Y-121285000D02*
X120650000Y-121285000D01*
X123190000Y-107315000D02*
X123190000Y-121285000D01*
X111125000Y-104140000D02*
X111760000Y-104140000D01*
X115570000Y-111760000D02*
X116205000Y-112395000D01*
X115570000Y-111760000D02*
X114935000Y-112395000D01*
X110490000Y-121285000D02*
X107315000Y-121285000D01*
X110490000Y-118745000D02*
X120650000Y-118745000D01*
X120650000Y-118745000D02*
X120650000Y-125730000D01*
X120650000Y-125730000D02*
X110490000Y-125730000D01*
X110490000Y-125730000D02*
X110490000Y-118745000D01*
X116570000Y-122300000D02*
G75*
G03*
X116570000Y-122300000I-1000000J0D01*
G01*
X119380000Y-114300000D02*
G75*
G03*
X119380000Y-114300000I-3810000J0D01*
G01*
%TO.C,R8*%
X120127500Y-135537258D02*
X120127500Y-135062742D01*
X121172500Y-135537258D02*
X121172500Y-135062742D01*
%TO.C,A1*%
X161290000Y-109855000D02*
X161290000Y-109220000D01*
X161290000Y-135255000D02*
X161290000Y-133985000D01*
X161290000Y-112395000D02*
X161290000Y-111125000D01*
X161290000Y-145415000D02*
X161290000Y-144145000D01*
X161290000Y-132715000D02*
X161290000Y-131445000D01*
X148590000Y-146685000D02*
X148590000Y-148590000D01*
X148590000Y-123825000D02*
X148590000Y-125095000D01*
X161290000Y-140335000D02*
X161290000Y-139065000D01*
X148590000Y-136525000D02*
X148590000Y-137795000D01*
X148590000Y-144145000D02*
X148590000Y-145415000D01*
X148590000Y-118745000D02*
X148590000Y-120015000D01*
X157480000Y-149225000D02*
X152400000Y-149225000D01*
X161290000Y-142875000D02*
X161290000Y-141605000D01*
X161290000Y-127635000D02*
X161290000Y-126365000D01*
X148590000Y-121285000D02*
X148590000Y-122555000D01*
X148590000Y-131445000D02*
X148590000Y-132715000D01*
X148590000Y-111125000D02*
X148590000Y-112395000D01*
X161290000Y-122555000D02*
X161290000Y-121285000D01*
X148590000Y-113665000D02*
X148590000Y-114935000D01*
X152400000Y-147320000D02*
X152400000Y-148590000D01*
X161290000Y-109220000D02*
X148590000Y-109220000D01*
X161290000Y-117475000D02*
X161290000Y-116205000D01*
X148590000Y-109220000D02*
X148590000Y-109855000D01*
X157480000Y-148590000D02*
X157480000Y-149225000D01*
X148590000Y-126365000D02*
X148590000Y-127635000D01*
X148590000Y-133985000D02*
X148590000Y-135255000D01*
X152400000Y-148590000D02*
X148590000Y-148590000D01*
X148590000Y-141605000D02*
X148590000Y-142875000D01*
X161290000Y-148590000D02*
X157480000Y-148590000D01*
X152400000Y-149225000D02*
X152400000Y-148590000D01*
X157480000Y-148590000D02*
X157480000Y-147320000D01*
X161290000Y-130175000D02*
X161290000Y-128905000D01*
X161290000Y-120015000D02*
X161290000Y-118745000D01*
X161290000Y-137795000D02*
X161290000Y-136525000D01*
X157480000Y-147320000D02*
X152400000Y-147320000D01*
X148590000Y-139065000D02*
X148590000Y-140335000D01*
X161290000Y-125095000D02*
X161290000Y-123825000D01*
X161290000Y-114935000D02*
X161290000Y-113665000D01*
X161290000Y-148590000D02*
X161290000Y-146685000D01*
X148590000Y-116205000D02*
X148590000Y-117475000D01*
X148590000Y-128905000D02*
X148590000Y-130175000D01*
%TO.C,U5*%
X126130000Y-81910000D02*
X127390000Y-81910000D01*
X126130000Y-87920000D02*
X126130000Y-81910000D01*
X132950000Y-81910000D02*
X131690000Y-81910000D01*
X132950000Y-85670000D02*
X132950000Y-81910000D01*
%TO.C,C2*%
X146810000Y-88759420D02*
X146810000Y-89040580D01*
X147830000Y-88759420D02*
X147830000Y-89040580D01*
%TO.C,R31*%
X112282884Y-75014929D02*
X112282884Y-74540413D01*
X111237884Y-75014929D02*
X111237884Y-74540413D01*
%TO.C,Q3*%
X113030000Y-77815000D02*
X113680000Y-77815000D01*
X113030000Y-77815000D02*
X112380000Y-77815000D01*
X113030000Y-80935000D02*
X114705000Y-80935000D01*
X113030000Y-80935000D02*
X112380000Y-80935000D01*
%TO.C,U3*%
X148190000Y-83130000D02*
X148190000Y-79370000D01*
X141370000Y-85380000D02*
X141370000Y-79370000D01*
X148190000Y-79370000D02*
X146930000Y-79370000D01*
X141370000Y-79370000D02*
X142630000Y-79370000D01*
%TO.C,R13*%
X190737258Y-83297500D02*
X190262742Y-83297500D01*
X190737258Y-84342500D02*
X190262742Y-84342500D01*
%TO.C,R15*%
X190262742Y-88377500D02*
X190737258Y-88377500D01*
X190262742Y-89422500D02*
X190737258Y-89422500D01*
%TO.C,R19*%
X116602742Y-57897500D02*
X117077258Y-57897500D01*
X116602742Y-58942500D02*
X117077258Y-58942500D01*
%TO.C,R6*%
X177745652Y-137130490D02*
X177745652Y-137605006D01*
X176700652Y-137130490D02*
X176700652Y-137605006D01*
%TO.C,D4*%
X123725000Y-56577500D02*
X125195000Y-56577500D01*
X125195000Y-56577500D02*
X125195000Y-54292500D01*
X123725000Y-54292500D02*
X123725000Y-56577500D01*
%TO.C,BZ1*%
X203830000Y-137138466D02*
G75*
G03*
X203830000Y-137138466I-8250000J0D01*
G01*
%TO.C,R5*%
X185657258Y-100304883D02*
X185182742Y-100304883D01*
X185657258Y-101349883D02*
X185182742Y-101349883D01*
%TO.C,R30*%
X117695278Y-79113743D02*
X117695278Y-79588259D01*
X116650278Y-79113743D02*
X116650278Y-79588259D01*
%TO.C,C8*%
X129030000Y-91580580D02*
X129030000Y-91299420D01*
X130050000Y-91580580D02*
X130050000Y-91299420D01*
%TO.C,D7*%
X111025000Y-72605000D02*
X112495000Y-72605000D01*
X112495000Y-72605000D02*
X112495000Y-70320000D01*
X111025000Y-70320000D02*
X111025000Y-72605000D01*
%TO.C,R12*%
X190262742Y-98537500D02*
X190737258Y-98537500D01*
X190262742Y-99582500D02*
X190737258Y-99582500D01*
%TO.C,R24*%
X175782500Y-56998349D02*
X175782500Y-57472865D01*
X174737500Y-56998349D02*
X174737500Y-57472865D01*
%TO.C,R26*%
X169657500Y-57413127D02*
X169657500Y-56938611D01*
X170702500Y-57413127D02*
X170702500Y-56938611D01*
%TO.C,C7*%
X131570000Y-91299420D02*
X131570000Y-91580580D01*
X132590000Y-91299420D02*
X132590000Y-91580580D01*
%TO.C,D5*%
X128805000Y-56487500D02*
X130275000Y-56487500D01*
X128805000Y-54202500D02*
X128805000Y-56487500D01*
X130275000Y-56487500D02*
X130275000Y-54202500D01*
%TO.C,D1*%
X180570477Y-146883544D02*
X182855477Y-146883544D01*
X180570477Y-145413544D02*
X180570477Y-146883544D01*
X182855477Y-145413544D02*
X180570477Y-145413544D01*
%TO.C,U2*%
X194310000Y-114300000D02*
X191770000Y-114300000D01*
X194310000Y-116840000D02*
X194945000Y-116205000D01*
X194310000Y-116840000D02*
X194310000Y-114300000D01*
X196850000Y-114300000D02*
X196215000Y-114935000D01*
X191770000Y-114300000D02*
X192405000Y-114935000D01*
X189865000Y-104140000D02*
X190500000Y-104140000D01*
X194310000Y-114300000D02*
X196850000Y-114300000D01*
X201930000Y-121285000D02*
X199390000Y-121285000D01*
X186055000Y-107315000D02*
X201930000Y-107315000D01*
X201930000Y-107315000D02*
X201930000Y-121285000D01*
X186055000Y-121285000D02*
X186055000Y-107315000D01*
X189230000Y-121285000D02*
X186055000Y-121285000D01*
X204470000Y-110490000D02*
X201930000Y-110490000D01*
X196850000Y-114300000D02*
X194310000Y-114300000D01*
X198755000Y-107315000D02*
X198755000Y-104140000D01*
X194310000Y-116840000D02*
X193675000Y-116205000D01*
X194310000Y-111760000D02*
X193675000Y-112395000D01*
X201930000Y-118745000D02*
X204470000Y-118745000D01*
X204470000Y-118745000D02*
X204470000Y-110490000D01*
X196850000Y-114300000D02*
X196215000Y-113665000D01*
X189865000Y-104140000D02*
X189865000Y-107315000D01*
X191770000Y-114300000D02*
X192405000Y-113665000D01*
X194310000Y-114300000D02*
X194310000Y-116840000D01*
X194310000Y-114300000D02*
X194310000Y-111760000D01*
X198755000Y-104140000D02*
X190500000Y-104140000D01*
X194310000Y-111760000D02*
X194310000Y-114300000D01*
X194310000Y-111760000D02*
X194945000Y-112395000D01*
X189230000Y-118745000D02*
X199390000Y-118745000D01*
X199390000Y-118745000D02*
X199390000Y-125730000D01*
X199390000Y-125730000D02*
X189230000Y-125730000D01*
X189230000Y-125730000D02*
X189230000Y-118745000D01*
X198120000Y-114300000D02*
G75*
G03*
X198120000Y-114300000I-3810000J0D01*
G01*
X195310000Y-122300000D02*
G75*
G03*
X195310000Y-122300000I-1000000J0D01*
G01*
%TO.C,U4*%
X132715000Y-131395000D02*
X129190000Y-131395000D01*
X132715000Y-131395000D02*
X134595000Y-131395000D01*
X132715000Y-136575000D02*
X134595000Y-136575000D01*
X132715000Y-136575000D02*
X130835000Y-136575000D01*
%TO.C,R20*%
X139587500Y-141207258D02*
X139587500Y-140732742D01*
X138542500Y-141207258D02*
X138542500Y-140732742D01*
%TO.C,R14*%
X190737258Y-74182500D02*
X190262742Y-74182500D01*
X190737258Y-73137500D02*
X190262742Y-73137500D01*
%TO.C,C12*%
X147599557Y-94541974D02*
X147880717Y-94541974D01*
X147599557Y-93521974D02*
X147880717Y-93521974D01*
%TO.C,Q2*%
X185420000Y-130520000D02*
X183745000Y-130520000D01*
X185420000Y-133640000D02*
X184770000Y-133640000D01*
X185420000Y-133640000D02*
X186070000Y-133640000D01*
X185420000Y-130520000D02*
X186070000Y-130520000D01*
%TO.C,R18*%
X126477500Y-137397258D02*
X126477500Y-136922742D01*
X127522500Y-137397258D02*
X127522500Y-136922742D01*
%TO.C,C6*%
X188108277Y-104280580D02*
X188108277Y-103999420D01*
X187088277Y-104280580D02*
X187088277Y-103999420D01*
%TO.C,R21*%
X116602742Y-62977500D02*
X117077258Y-62977500D01*
X116602742Y-64022500D02*
X117077258Y-64022500D01*
%TO.C,C5*%
X183390000Y-114440580D02*
X183390000Y-114159420D01*
X182370000Y-114440580D02*
X182370000Y-114159420D01*
%TO.C,Q1*%
X177800000Y-140680000D02*
X177150000Y-140680000D01*
X177800000Y-143800000D02*
X177150000Y-143800000D01*
X177800000Y-143800000D02*
X179475000Y-143800000D01*
X177800000Y-140680000D02*
X178450000Y-140680000D01*
%TO.C,Btn_2*%
X194890000Y-85060000D02*
X194890000Y-87660000D01*
X194890000Y-89590000D02*
X194890000Y-89560000D01*
X201350000Y-89590000D02*
X201350000Y-89560000D01*
X201350000Y-83130000D02*
X201350000Y-83160000D01*
X201350000Y-85060000D02*
X201350000Y-87660000D01*
X194890000Y-89590000D02*
X201350000Y-89590000D01*
X194890000Y-83160000D02*
X194890000Y-83130000D01*
X194890000Y-83130000D02*
X201350000Y-83130000D01*
%TO.C,R11*%
X190737258Y-94502500D02*
X190262742Y-94502500D01*
X190737258Y-93457500D02*
X190262742Y-93457500D01*
%TO.C,Btn_3*%
X194890000Y-72970000D02*
X201350000Y-72970000D01*
X201350000Y-79430000D02*
X201350000Y-79400000D01*
X194890000Y-79430000D02*
X194890000Y-79400000D01*
X194890000Y-74900000D02*
X194890000Y-77500000D01*
X201350000Y-74900000D02*
X201350000Y-77500000D01*
X201350000Y-72970000D02*
X201350000Y-73000000D01*
X194890000Y-79430000D02*
X201350000Y-79430000D01*
X194890000Y-73000000D02*
X194890000Y-72970000D01*
%TO.C,R4*%
X181402258Y-112127067D02*
X180927742Y-112127067D01*
X181402258Y-111082067D02*
X180927742Y-111082067D01*
%TO.C,C13*%
X144270000Y-89040580D02*
X144270000Y-88759420D01*
X145290000Y-89040580D02*
X145290000Y-88759420D01*
%TO.C,Btn_1*%
X201350000Y-95220000D02*
X201350000Y-97820000D01*
X201350000Y-93290000D02*
X201350000Y-93320000D01*
X194890000Y-95220000D02*
X194890000Y-97820000D01*
X194890000Y-93320000D02*
X194890000Y-93290000D01*
X201350000Y-99750000D02*
X201350000Y-99720000D01*
X194890000Y-93290000D02*
X201350000Y-93290000D01*
X194890000Y-99750000D02*
X201350000Y-99750000D01*
X194890000Y-99750000D02*
X194890000Y-99720000D01*
%TO.C,R28*%
X123937500Y-58657258D02*
X123937500Y-58182742D01*
X124982500Y-58657258D02*
X124982500Y-58182742D01*
%TO.C,J1*%
X159510000Y-95955000D02*
X160080000Y-95955000D01*
X150370000Y-102595000D02*
X150370000Y-101155000D01*
X154430000Y-95955000D02*
X155450000Y-95955000D01*
X149800000Y-101155000D02*
X149800000Y-95955000D01*
X156970000Y-101155000D02*
X157990000Y-101155000D01*
X154430000Y-101155000D02*
X155450000Y-101155000D01*
X149800000Y-95955000D02*
X150370000Y-95955000D01*
X156970000Y-95955000D02*
X157990000Y-95955000D01*
X151890000Y-95955000D02*
X152910000Y-95955000D01*
X159510000Y-101155000D02*
X160080000Y-101155000D01*
X151890000Y-101155000D02*
X152910000Y-101155000D01*
X149800000Y-101155000D02*
X150370000Y-101155000D01*
X160080000Y-101155000D02*
X160080000Y-95955000D01*
%TO.C,C9*%
X123750000Y-134479420D02*
X123750000Y-134760580D01*
X124770000Y-134479420D02*
X124770000Y-134760580D01*
%TO.C,D2*%
X142530000Y-72660000D02*
X146430000Y-72660000D01*
X142530000Y-72660000D02*
X142530000Y-74660000D01*
X142530000Y-74660000D02*
X146430000Y-74660000D01*
%TO.C,SW1*%
X111760000Y-59690000D02*
X111760000Y-57785000D01*
X109855000Y-66040000D02*
X109220000Y-66040000D01*
X109220000Y-55880000D02*
X109855000Y-55880000D01*
X109220000Y-66040000D02*
X109537500Y-66040000D01*
X114300000Y-66040000D02*
X114300000Y-55880000D01*
X113665000Y-55880000D02*
X114300000Y-55880000D01*
X113665000Y-66040000D02*
X114300000Y-66040000D01*
X111760000Y-64135000D02*
X111760000Y-62230000D01*
X109220000Y-66040000D02*
X109378750Y-66040000D01*
X109220000Y-55880000D02*
X109220000Y-66040000D01*
X114300000Y-66040000D02*
X113982500Y-66040000D01*
%TD*%
M02*
