M48
; DRILL file {KiCad (6.0.2-0)} date Tuesday, 29 March 2022 at 15:10:43
; FORMAT={-:-/ absolute / inch / decimal}
; #@! TF.CreationDate,2022-03-29T15:10:43+01:00
; #@! TF.GenerationSoftware,Kicad,Pcbnew,(6.0.2-0)
; #@! TF.FileFunction,Plated,1,2,PTH
FMAT,2
INCH
; #@! TA.AperFunction,Plated,PTH,ViaDrill
T1C0.0157
; #@! TA.AperFunction,Plated,PTH,ComponentDrill
T2C0.0300
; #@! TA.AperFunction,Plated,PTH,ComponentDrill
T3C0.0472
%
G90
G05
T1
X4.3Y-2.1
X4.3Y-5.8
X4.8Y-2.7
X4.8Y-3.3
X4.85Y-5.05
X4.85Y-5.15
X5.0Y-4.1
X5.05Y-5.15
X5.2Y-4.5
X5.2Y-5.1
X5.65Y-5.1
X5.7Y-5.55
X5.7997Y-4.7821
X6.1Y-5.6
X6.2Y-4.4
X6.3952Y-3.8939
X6.3953Y-3.6929
X6.45Y-3.15
X6.5Y-5.3
X6.5316Y-4.7761
X6.6Y-5.3
X6.7Y-5.5
X6.8Y-3.6
X6.9Y-4.1
X7.0Y-2.7
X7.1Y-4.8
X7.2Y-3.8
X7.2Y-4.2
X7.3Y-3.5
X7.5551Y-2.6677
X8.0Y-2.1
X8.0Y-5.8
T2
X4.301Y-4.3031
X4.301Y-4.6969
X4.422Y-4.7264
X4.422Y-4.9035
X4.4516Y-4.1563
X4.55Y-4.1563
X4.6484Y-4.1563
X4.678Y-4.7264
X4.678Y-4.9035
X4.799Y-4.3031
X4.799Y-4.6969
X4.8937Y-4.4016
X4.8937Y-4.5
X4.8937Y-4.5984
X7.401Y-4.3031
X7.401Y-4.6969
X7.4933Y-5.3992
X7.522Y-4.7264
X7.522Y-4.9035
X7.5516Y-4.1563
X7.65Y-4.1563
X7.7484Y-4.1563
X7.778Y-4.7264
X7.778Y-4.9035
X7.899Y-4.3031
X7.899Y-4.6969
X7.9067Y-5.3992
X7.9937Y-4.4016
X7.9937Y-4.5
X7.9937Y-4.5984
T3
G00X4.3803Y-2.2228
M15
G01X4.4197Y-2.2228
M16
G05
G00X4.3803Y-2.4
M15
G01X4.4197Y-2.4
M16
G05
G00X4.3803Y-2.5772
M15
G01X4.4197Y-2.5772
M16
G05
G00X7.8197Y-2.2457
M15
G01X7.7803Y-2.2457
M16
G05
G00X7.8197Y-2.4228
M15
G01X7.7803Y-2.4228
M16
G05
G00X7.8197Y-2.6
M15
G01X7.7803Y-2.6
M16
G05
T0
M30
