%TF.GenerationSoftware,KiCad,Pcbnew,7.0.1*%
%TF.CreationDate,2023-04-25T20:00:12+01:00*%
%TF.ProjectId,BreakawayConnector,42726561-6b61-4776-9179-436f6e6e6563,rev?*%
%TF.SameCoordinates,Original*%
%TF.FileFunction,Legend,Top*%
%TF.FilePolarity,Positive*%
%FSLAX46Y46*%
G04 Gerber Fmt 4.6, Leading zero omitted, Abs format (unit mm)*
G04 Created by KiCad (PCBNEW 7.0.1) date 2023-04-25 20:00:12*
%MOMM*%
%LPD*%
G01*
G04 APERTURE LIST*
%ADD10C,0.100000*%
G04 APERTURE END LIST*
D10*
X94938095Y-119077619D02*
X94938095Y-118077619D01*
X94938095Y-118077619D02*
X95176190Y-118077619D01*
X95176190Y-118077619D02*
X95319047Y-118125238D01*
X95319047Y-118125238D02*
X95414285Y-118220476D01*
X95414285Y-118220476D02*
X95461904Y-118315714D01*
X95461904Y-118315714D02*
X95509523Y-118506190D01*
X95509523Y-118506190D02*
X95509523Y-118649047D01*
X95509523Y-118649047D02*
X95461904Y-118839523D01*
X95461904Y-118839523D02*
X95414285Y-118934761D01*
X95414285Y-118934761D02*
X95319047Y-119030000D01*
X95319047Y-119030000D02*
X95176190Y-119077619D01*
X95176190Y-119077619D02*
X94938095Y-119077619D01*
X96509523Y-118982380D02*
X96461904Y-119030000D01*
X96461904Y-119030000D02*
X96319047Y-119077619D01*
X96319047Y-119077619D02*
X96223809Y-119077619D01*
X96223809Y-119077619D02*
X96080952Y-119030000D01*
X96080952Y-119030000D02*
X95985714Y-118934761D01*
X95985714Y-118934761D02*
X95938095Y-118839523D01*
X95938095Y-118839523D02*
X95890476Y-118649047D01*
X95890476Y-118649047D02*
X95890476Y-118506190D01*
X95890476Y-118506190D02*
X95938095Y-118315714D01*
X95938095Y-118315714D02*
X95985714Y-118220476D01*
X95985714Y-118220476D02*
X96080952Y-118125238D01*
X96080952Y-118125238D02*
X96223809Y-118077619D01*
X96223809Y-118077619D02*
X96319047Y-118077619D01*
X96319047Y-118077619D02*
X96461904Y-118125238D01*
X96461904Y-118125238D02*
X96509523Y-118172857D01*
X96985714Y-119030000D02*
X96985714Y-119077619D01*
X96985714Y-119077619D02*
X96938095Y-119172857D01*
X96938095Y-119172857D02*
X96890476Y-119220476D01*
X98461904Y-118077619D02*
X98461904Y-118791904D01*
X98461904Y-118791904D02*
X98414285Y-118934761D01*
X98414285Y-118934761D02*
X98319047Y-119030000D01*
X98319047Y-119030000D02*
X98176190Y-119077619D01*
X98176190Y-119077619D02*
X98080952Y-119077619D01*
X98938095Y-119077619D02*
X98938095Y-118077619D01*
X98938095Y-118077619D02*
X99319047Y-118077619D01*
X99319047Y-118077619D02*
X99414285Y-118125238D01*
X99414285Y-118125238D02*
X99461904Y-118172857D01*
X99461904Y-118172857D02*
X99509523Y-118268095D01*
X99509523Y-118268095D02*
X99509523Y-118410952D01*
X99509523Y-118410952D02*
X99461904Y-118506190D01*
X99461904Y-118506190D02*
X99414285Y-118553809D01*
X99414285Y-118553809D02*
X99319047Y-118601428D01*
X99319047Y-118601428D02*
X98938095Y-118601428D01*
X99985714Y-119030000D02*
X99985714Y-119077619D01*
X99985714Y-119077619D02*
X99938095Y-119172857D01*
X99938095Y-119172857D02*
X99890476Y-119220476D01*
X101652380Y-119077619D02*
X101176190Y-119077619D01*
X101176190Y-119077619D02*
X101176190Y-118077619D01*
X101890476Y-118077619D02*
X102128571Y-119077619D01*
X102128571Y-119077619D02*
X102319047Y-118363333D01*
X102319047Y-118363333D02*
X102509523Y-119077619D01*
X102509523Y-119077619D02*
X102747619Y-118077619D01*
X103176190Y-119030000D02*
X103176190Y-119077619D01*
X103176190Y-119077619D02*
X103128571Y-119172857D01*
X103128571Y-119172857D02*
X103080952Y-119220476D01*
X104366666Y-119077619D02*
X104366666Y-118077619D01*
X104366666Y-118077619D02*
X104938094Y-119077619D01*
X104938094Y-119077619D02*
X104938094Y-118077619D01*
X105414285Y-119077619D02*
X105414285Y-118077619D01*
X105414285Y-118553809D02*
X105985713Y-118553809D01*
X105985713Y-119077619D02*
X105985713Y-118077619D01*
X98038095Y-117777619D02*
X98038095Y-116777619D01*
X98038095Y-117253809D02*
X98609523Y-117253809D01*
X98609523Y-117777619D02*
X98609523Y-116777619D01*
X99085714Y-117253809D02*
X99419047Y-117253809D01*
X99561904Y-117777619D02*
X99085714Y-117777619D01*
X99085714Y-117777619D02*
X99085714Y-116777619D01*
X99085714Y-116777619D02*
X99561904Y-116777619D01*
X99847619Y-116777619D02*
X100180952Y-117777619D01*
X100180952Y-117777619D02*
X100514285Y-116777619D01*
X101419047Y-117682380D02*
X101371428Y-117730000D01*
X101371428Y-117730000D02*
X101228571Y-117777619D01*
X101228571Y-117777619D02*
X101133333Y-117777619D01*
X101133333Y-117777619D02*
X100990476Y-117730000D01*
X100990476Y-117730000D02*
X100895238Y-117634761D01*
X100895238Y-117634761D02*
X100847619Y-117539523D01*
X100847619Y-117539523D02*
X100800000Y-117349047D01*
X100800000Y-117349047D02*
X100800000Y-117206190D01*
X100800000Y-117206190D02*
X100847619Y-117015714D01*
X100847619Y-117015714D02*
X100895238Y-116920476D01*
X100895238Y-116920476D02*
X100990476Y-116825238D01*
X100990476Y-116825238D02*
X101133333Y-116777619D01*
X101133333Y-116777619D02*
X101228571Y-116777619D01*
X101228571Y-116777619D02*
X101371428Y-116825238D01*
X101371428Y-116825238D02*
X101419047Y-116872857D01*
X101800000Y-117730000D02*
X101942857Y-117777619D01*
X101942857Y-117777619D02*
X102180952Y-117777619D01*
X102180952Y-117777619D02*
X102276190Y-117730000D01*
X102276190Y-117730000D02*
X102323809Y-117682380D01*
X102323809Y-117682380D02*
X102371428Y-117587142D01*
X102371428Y-117587142D02*
X102371428Y-117491904D01*
X102371428Y-117491904D02*
X102323809Y-117396666D01*
X102323809Y-117396666D02*
X102276190Y-117349047D01*
X102276190Y-117349047D02*
X102180952Y-117301428D01*
X102180952Y-117301428D02*
X101990476Y-117253809D01*
X101990476Y-117253809D02*
X101895238Y-117206190D01*
X101895238Y-117206190D02*
X101847619Y-117158571D01*
X101847619Y-117158571D02*
X101800000Y-117063333D01*
X101800000Y-117063333D02*
X101800000Y-116968095D01*
X101800000Y-116968095D02*
X101847619Y-116872857D01*
X101847619Y-116872857D02*
X101895238Y-116825238D01*
X101895238Y-116825238D02*
X101990476Y-116777619D01*
X101990476Y-116777619D02*
X102228571Y-116777619D01*
X102228571Y-116777619D02*
X102371428Y-116825238D01*
M02*
