%TF.GenerationSoftware,KiCad,Pcbnew,7.0.1*%
%TF.CreationDate,2023-04-25T20:00:12+01:00*%
%TF.ProjectId,BreakawayConnector,42726561-6b61-4776-9179-436f6e6e6563,rev?*%
%TF.SameCoordinates,Original*%
%TF.FileFunction,Copper,L1,Top*%
%TF.FilePolarity,Positive*%
%FSLAX46Y46*%
G04 Gerber Fmt 4.6, Leading zero omitted, Abs format (unit mm)*
G04 Created by KiCad (PCBNEW 7.0.1) date 2023-04-25 20:00:12*
%MOMM*%
%LPD*%
G01*
G04 APERTURE LIST*
%TA.AperFunction,ComponentPad*%
%ADD10C,1.500000*%
%TD*%
%TA.AperFunction,ComponentPad*%
%ADD11C,2.000000*%
%TD*%
%TA.AperFunction,ViaPad*%
%ADD12C,15.500000*%
%TD*%
%TA.AperFunction,Conductor*%
%ADD13C,0.500000*%
%TD*%
G04 APERTURE END LIST*
D10*
%TO.P,J2,10,Pin_10*%
%TO.N,Vin*%
X107347300Y-89887300D03*
%TO.P,J2,9,Pin_9*%
%TO.N,MOSI_1*%
X111888200Y-96137300D03*
%TO.P,J2,8,Pin_8*%
%TO.N,MISO_1*%
X111888200Y-103862700D03*
%TO.P,J2,7,Pin_7*%
%TO.N,CLK_1*%
X107347300Y-110112700D03*
%TO.P,J2,6,Pin_6*%
%TO.N,MOSI_2*%
X100000000Y-112500000D03*
%TO.P,J2,5,Pin_5*%
%TO.N,MISO_2*%
X92652700Y-110112700D03*
%TO.P,J2,4,Pin_4*%
%TO.N,CLK_2*%
X88111800Y-103862700D03*
%TO.P,J2,3,Pin_3*%
%TO.N,DET_in*%
X88111800Y-96137300D03*
%TO.P,J2,2,Pin_2*%
%TO.N,DET_out*%
X92652700Y-89887300D03*
%TO.P,J2,1,Pin_1*%
%TO.N,GND*%
X100000000Y-87500000D03*
%TD*%
D11*
%TO.P,J1,1,Pin_1*%
%TO.N,GND*%
X100000000Y-85000000D03*
%TO.P,J1,2,Pin_2*%
%TO.N,DET_out*%
X91183200Y-87864700D03*
%TO.P,J1,3,Pin_3*%
%TO.N,DET_in*%
X85734200Y-95364700D03*
%TO.P,J1,4,Pin_4*%
%TO.N,CLK_2*%
X85734200Y-104635300D03*
%TO.P,J1,5,Pin_5*%
%TO.N,MISO_2*%
X91183200Y-112135300D03*
%TO.P,J1,6,Pin_6*%
%TO.N,MOSI_2*%
X100000000Y-115000000D03*
%TO.P,J1,7,Pin_7*%
%TO.N,CLK_1*%
X108816800Y-112135300D03*
%TO.P,J1,8,Pin_8*%
%TO.N,MISO_1*%
X114265800Y-104635300D03*
%TO.P,J1,9,Pin_9*%
%TO.N,MOSI_1*%
X114265800Y-95364700D03*
%TO.P,J1,10,Pin_10*%
%TO.N,Vin*%
X108816800Y-87864700D03*
%TD*%
D12*
%TO.N,*%
X100076000Y-99949000D03*
%TD*%
D13*
%TO.N,GND*%
X100000000Y-85000000D02*
X100000000Y-87500000D01*
%TO.N,DET_out*%
X92652700Y-89334200D02*
X92652700Y-89887300D01*
X91183200Y-87864700D02*
X92652700Y-89334200D01*
%TO.N,DET_in*%
X85734200Y-95364700D02*
X87339200Y-95364700D01*
X87339200Y-95364700D02*
X88111800Y-96137300D01*
%TO.N,CLK_2*%
X85734200Y-104635300D02*
X87339200Y-104635300D01*
X87339200Y-104635300D02*
X88111800Y-103862700D01*
%TO.N,MISO_2*%
X92652700Y-110665800D02*
X92652700Y-110112700D01*
X91183200Y-112135300D02*
X92652700Y-110665800D01*
%TO.N,MOSI_2*%
X100000000Y-115000000D02*
X100000000Y-112500000D01*
%TO.N,CLK_1*%
X108816800Y-112135300D02*
X107347300Y-110665800D01*
X107347300Y-110665800D02*
X107347300Y-110112700D01*
%TO.N,MISO_1*%
X114265800Y-104635300D02*
X112660800Y-104635300D01*
X112660800Y-104635300D02*
X111888200Y-103862700D01*
%TO.N,MOSI_1*%
X112660800Y-95364700D02*
X111888200Y-96137300D01*
X114265800Y-95364700D02*
X112660800Y-95364700D01*
%TO.N,Vin*%
X107347300Y-89334200D02*
X107347300Y-89887300D01*
X108816800Y-87864700D02*
X107347300Y-89334200D01*
%TD*%
M02*
