%TF.GenerationSoftware,KiCad,Pcbnew,(7.0.0)*%
%TF.CreationDate,2023-04-25T18:42:43+01:00*%
%TF.ProjectId,controller,636f6e74-726f-46c6-9c65-722e6b696361,V1.2*%
%TF.SameCoordinates,Original*%
%TF.FileFunction,Legend,Bot*%
%TF.FilePolarity,Positive*%
%FSLAX46Y46*%
G04 Gerber Fmt 4.6, Leading zero omitted, Abs format (unit mm)*
G04 Created by KiCad (PCBNEW (7.0.0)) date 2023-04-25 18:42:43*
%MOMM*%
%LPD*%
G01*
G04 APERTURE LIST*
%ADD10C,0.150000*%
%ADD11C,0.120000*%
G04 APERTURE END LIST*
D10*
%TO.C,R25*%
X226367857Y-48437380D02*
X226701190Y-47961190D01*
X226939285Y-48437380D02*
X226939285Y-47437380D01*
X226939285Y-47437380D02*
X226558333Y-47437380D01*
X226558333Y-47437380D02*
X226463095Y-47485000D01*
X226463095Y-47485000D02*
X226415476Y-47532619D01*
X226415476Y-47532619D02*
X226367857Y-47627857D01*
X226367857Y-47627857D02*
X226367857Y-47770714D01*
X226367857Y-47770714D02*
X226415476Y-47865952D01*
X226415476Y-47865952D02*
X226463095Y-47913571D01*
X226463095Y-47913571D02*
X226558333Y-47961190D01*
X226558333Y-47961190D02*
X226939285Y-47961190D01*
X225986904Y-47532619D02*
X225939285Y-47485000D01*
X225939285Y-47485000D02*
X225844047Y-47437380D01*
X225844047Y-47437380D02*
X225605952Y-47437380D01*
X225605952Y-47437380D02*
X225510714Y-47485000D01*
X225510714Y-47485000D02*
X225463095Y-47532619D01*
X225463095Y-47532619D02*
X225415476Y-47627857D01*
X225415476Y-47627857D02*
X225415476Y-47723095D01*
X225415476Y-47723095D02*
X225463095Y-47865952D01*
X225463095Y-47865952D02*
X226034523Y-48437380D01*
X226034523Y-48437380D02*
X225415476Y-48437380D01*
X224510714Y-47437380D02*
X224986904Y-47437380D01*
X224986904Y-47437380D02*
X225034523Y-47913571D01*
X225034523Y-47913571D02*
X224986904Y-47865952D01*
X224986904Y-47865952D02*
X224891666Y-47818333D01*
X224891666Y-47818333D02*
X224653571Y-47818333D01*
X224653571Y-47818333D02*
X224558333Y-47865952D01*
X224558333Y-47865952D02*
X224510714Y-47913571D01*
X224510714Y-47913571D02*
X224463095Y-48008809D01*
X224463095Y-48008809D02*
X224463095Y-48246904D01*
X224463095Y-48246904D02*
X224510714Y-48342142D01*
X224510714Y-48342142D02*
X224558333Y-48389761D01*
X224558333Y-48389761D02*
X224653571Y-48437380D01*
X224653571Y-48437380D02*
X224891666Y-48437380D01*
X224891666Y-48437380D02*
X224986904Y-48389761D01*
X224986904Y-48389761D02*
X225034523Y-48342142D01*
%TO.C,R43*%
X221117857Y-36037380D02*
X221451190Y-35561190D01*
X221689285Y-36037380D02*
X221689285Y-35037380D01*
X221689285Y-35037380D02*
X221308333Y-35037380D01*
X221308333Y-35037380D02*
X221213095Y-35085000D01*
X221213095Y-35085000D02*
X221165476Y-35132619D01*
X221165476Y-35132619D02*
X221117857Y-35227857D01*
X221117857Y-35227857D02*
X221117857Y-35370714D01*
X221117857Y-35370714D02*
X221165476Y-35465952D01*
X221165476Y-35465952D02*
X221213095Y-35513571D01*
X221213095Y-35513571D02*
X221308333Y-35561190D01*
X221308333Y-35561190D02*
X221689285Y-35561190D01*
X220260714Y-35370714D02*
X220260714Y-36037380D01*
X220498809Y-34989761D02*
X220736904Y-35704047D01*
X220736904Y-35704047D02*
X220117857Y-35704047D01*
X219832142Y-35037380D02*
X219213095Y-35037380D01*
X219213095Y-35037380D02*
X219546428Y-35418333D01*
X219546428Y-35418333D02*
X219403571Y-35418333D01*
X219403571Y-35418333D02*
X219308333Y-35465952D01*
X219308333Y-35465952D02*
X219260714Y-35513571D01*
X219260714Y-35513571D02*
X219213095Y-35608809D01*
X219213095Y-35608809D02*
X219213095Y-35846904D01*
X219213095Y-35846904D02*
X219260714Y-35942142D01*
X219260714Y-35942142D02*
X219308333Y-35989761D01*
X219308333Y-35989761D02*
X219403571Y-36037380D01*
X219403571Y-36037380D02*
X219689285Y-36037380D01*
X219689285Y-36037380D02*
X219784523Y-35989761D01*
X219784523Y-35989761D02*
X219832142Y-35942142D01*
%TO.C,U5*%
X107297380Y-61298095D02*
X108106904Y-61298095D01*
X108106904Y-61298095D02*
X108202142Y-61345714D01*
X108202142Y-61345714D02*
X108249761Y-61393333D01*
X108249761Y-61393333D02*
X108297380Y-61488571D01*
X108297380Y-61488571D02*
X108297380Y-61679047D01*
X108297380Y-61679047D02*
X108249761Y-61774285D01*
X108249761Y-61774285D02*
X108202142Y-61821904D01*
X108202142Y-61821904D02*
X108106904Y-61869523D01*
X108106904Y-61869523D02*
X107297380Y-61869523D01*
X107297380Y-62821904D02*
X107297380Y-62345714D01*
X107297380Y-62345714D02*
X107773571Y-62298095D01*
X107773571Y-62298095D02*
X107725952Y-62345714D01*
X107725952Y-62345714D02*
X107678333Y-62440952D01*
X107678333Y-62440952D02*
X107678333Y-62679047D01*
X107678333Y-62679047D02*
X107725952Y-62774285D01*
X107725952Y-62774285D02*
X107773571Y-62821904D01*
X107773571Y-62821904D02*
X107868809Y-62869523D01*
X107868809Y-62869523D02*
X108106904Y-62869523D01*
X108106904Y-62869523D02*
X108202142Y-62821904D01*
X108202142Y-62821904D02*
X108249761Y-62774285D01*
X108249761Y-62774285D02*
X108297380Y-62679047D01*
X108297380Y-62679047D02*
X108297380Y-62440952D01*
X108297380Y-62440952D02*
X108249761Y-62345714D01*
X108249761Y-62345714D02*
X108202142Y-62298095D01*
%TO.C,R39*%
X227797380Y-26382142D02*
X227321190Y-26048809D01*
X227797380Y-25810714D02*
X226797380Y-25810714D01*
X226797380Y-25810714D02*
X226797380Y-26191666D01*
X226797380Y-26191666D02*
X226845000Y-26286904D01*
X226845000Y-26286904D02*
X226892619Y-26334523D01*
X226892619Y-26334523D02*
X226987857Y-26382142D01*
X226987857Y-26382142D02*
X227130714Y-26382142D01*
X227130714Y-26382142D02*
X227225952Y-26334523D01*
X227225952Y-26334523D02*
X227273571Y-26286904D01*
X227273571Y-26286904D02*
X227321190Y-26191666D01*
X227321190Y-26191666D02*
X227321190Y-25810714D01*
X226797380Y-26715476D02*
X226797380Y-27334523D01*
X226797380Y-27334523D02*
X227178333Y-27001190D01*
X227178333Y-27001190D02*
X227178333Y-27144047D01*
X227178333Y-27144047D02*
X227225952Y-27239285D01*
X227225952Y-27239285D02*
X227273571Y-27286904D01*
X227273571Y-27286904D02*
X227368809Y-27334523D01*
X227368809Y-27334523D02*
X227606904Y-27334523D01*
X227606904Y-27334523D02*
X227702142Y-27286904D01*
X227702142Y-27286904D02*
X227749761Y-27239285D01*
X227749761Y-27239285D02*
X227797380Y-27144047D01*
X227797380Y-27144047D02*
X227797380Y-26858333D01*
X227797380Y-26858333D02*
X227749761Y-26763095D01*
X227749761Y-26763095D02*
X227702142Y-26715476D01*
X227797380Y-27810714D02*
X227797380Y-28001190D01*
X227797380Y-28001190D02*
X227749761Y-28096428D01*
X227749761Y-28096428D02*
X227702142Y-28144047D01*
X227702142Y-28144047D02*
X227559285Y-28239285D01*
X227559285Y-28239285D02*
X227368809Y-28286904D01*
X227368809Y-28286904D02*
X226987857Y-28286904D01*
X226987857Y-28286904D02*
X226892619Y-28239285D01*
X226892619Y-28239285D02*
X226845000Y-28191666D01*
X226845000Y-28191666D02*
X226797380Y-28096428D01*
X226797380Y-28096428D02*
X226797380Y-27905952D01*
X226797380Y-27905952D02*
X226845000Y-27810714D01*
X226845000Y-27810714D02*
X226892619Y-27763095D01*
X226892619Y-27763095D02*
X226987857Y-27715476D01*
X226987857Y-27715476D02*
X227225952Y-27715476D01*
X227225952Y-27715476D02*
X227321190Y-27763095D01*
X227321190Y-27763095D02*
X227368809Y-27810714D01*
X227368809Y-27810714D02*
X227416428Y-27905952D01*
X227416428Y-27905952D02*
X227416428Y-28096428D01*
X227416428Y-28096428D02*
X227368809Y-28191666D01*
X227368809Y-28191666D02*
X227321190Y-28239285D01*
X227321190Y-28239285D02*
X227225952Y-28286904D01*
%TO.C,Q22*%
X196433928Y-47462619D02*
X196529166Y-47415000D01*
X196529166Y-47415000D02*
X196624404Y-47319761D01*
X196624404Y-47319761D02*
X196767261Y-47176904D01*
X196767261Y-47176904D02*
X196862499Y-47129285D01*
X196862499Y-47129285D02*
X196957737Y-47129285D01*
X196910118Y-47367380D02*
X197005356Y-47319761D01*
X197005356Y-47319761D02*
X197100594Y-47224523D01*
X197100594Y-47224523D02*
X197148213Y-47034047D01*
X197148213Y-47034047D02*
X197148213Y-46700714D01*
X197148213Y-46700714D02*
X197100594Y-46510238D01*
X197100594Y-46510238D02*
X197005356Y-46415000D01*
X197005356Y-46415000D02*
X196910118Y-46367380D01*
X196910118Y-46367380D02*
X196719642Y-46367380D01*
X196719642Y-46367380D02*
X196624404Y-46415000D01*
X196624404Y-46415000D02*
X196529166Y-46510238D01*
X196529166Y-46510238D02*
X196481547Y-46700714D01*
X196481547Y-46700714D02*
X196481547Y-47034047D01*
X196481547Y-47034047D02*
X196529166Y-47224523D01*
X196529166Y-47224523D02*
X196624404Y-47319761D01*
X196624404Y-47319761D02*
X196719642Y-47367380D01*
X196719642Y-47367380D02*
X196910118Y-47367380D01*
X196100594Y-46462619D02*
X196052975Y-46415000D01*
X196052975Y-46415000D02*
X195957737Y-46367380D01*
X195957737Y-46367380D02*
X195719642Y-46367380D01*
X195719642Y-46367380D02*
X195624404Y-46415000D01*
X195624404Y-46415000D02*
X195576785Y-46462619D01*
X195576785Y-46462619D02*
X195529166Y-46557857D01*
X195529166Y-46557857D02*
X195529166Y-46653095D01*
X195529166Y-46653095D02*
X195576785Y-46795952D01*
X195576785Y-46795952D02*
X196148213Y-47367380D01*
X196148213Y-47367380D02*
X195529166Y-47367380D01*
X195148213Y-46462619D02*
X195100594Y-46415000D01*
X195100594Y-46415000D02*
X195005356Y-46367380D01*
X195005356Y-46367380D02*
X194767261Y-46367380D01*
X194767261Y-46367380D02*
X194672023Y-46415000D01*
X194672023Y-46415000D02*
X194624404Y-46462619D01*
X194624404Y-46462619D02*
X194576785Y-46557857D01*
X194576785Y-46557857D02*
X194576785Y-46653095D01*
X194576785Y-46653095D02*
X194624404Y-46795952D01*
X194624404Y-46795952D02*
X195195832Y-47367380D01*
X195195832Y-47367380D02*
X194576785Y-47367380D01*
%TO.C,R9*%
X217241666Y-44537380D02*
X217574999Y-44061190D01*
X217813094Y-44537380D02*
X217813094Y-43537380D01*
X217813094Y-43537380D02*
X217432142Y-43537380D01*
X217432142Y-43537380D02*
X217336904Y-43585000D01*
X217336904Y-43585000D02*
X217289285Y-43632619D01*
X217289285Y-43632619D02*
X217241666Y-43727857D01*
X217241666Y-43727857D02*
X217241666Y-43870714D01*
X217241666Y-43870714D02*
X217289285Y-43965952D01*
X217289285Y-43965952D02*
X217336904Y-44013571D01*
X217336904Y-44013571D02*
X217432142Y-44061190D01*
X217432142Y-44061190D02*
X217813094Y-44061190D01*
X216765475Y-44537380D02*
X216574999Y-44537380D01*
X216574999Y-44537380D02*
X216479761Y-44489761D01*
X216479761Y-44489761D02*
X216432142Y-44442142D01*
X216432142Y-44442142D02*
X216336904Y-44299285D01*
X216336904Y-44299285D02*
X216289285Y-44108809D01*
X216289285Y-44108809D02*
X216289285Y-43727857D01*
X216289285Y-43727857D02*
X216336904Y-43632619D01*
X216336904Y-43632619D02*
X216384523Y-43585000D01*
X216384523Y-43585000D02*
X216479761Y-43537380D01*
X216479761Y-43537380D02*
X216670237Y-43537380D01*
X216670237Y-43537380D02*
X216765475Y-43585000D01*
X216765475Y-43585000D02*
X216813094Y-43632619D01*
X216813094Y-43632619D02*
X216860713Y-43727857D01*
X216860713Y-43727857D02*
X216860713Y-43965952D01*
X216860713Y-43965952D02*
X216813094Y-44061190D01*
X216813094Y-44061190D02*
X216765475Y-44108809D01*
X216765475Y-44108809D02*
X216670237Y-44156428D01*
X216670237Y-44156428D02*
X216479761Y-44156428D01*
X216479761Y-44156428D02*
X216384523Y-44108809D01*
X216384523Y-44108809D02*
X216336904Y-44061190D01*
X216336904Y-44061190D02*
X216289285Y-43965952D01*
%TO.C,R32*%
X201317857Y-46397380D02*
X201651190Y-45921190D01*
X201889285Y-46397380D02*
X201889285Y-45397380D01*
X201889285Y-45397380D02*
X201508333Y-45397380D01*
X201508333Y-45397380D02*
X201413095Y-45445000D01*
X201413095Y-45445000D02*
X201365476Y-45492619D01*
X201365476Y-45492619D02*
X201317857Y-45587857D01*
X201317857Y-45587857D02*
X201317857Y-45730714D01*
X201317857Y-45730714D02*
X201365476Y-45825952D01*
X201365476Y-45825952D02*
X201413095Y-45873571D01*
X201413095Y-45873571D02*
X201508333Y-45921190D01*
X201508333Y-45921190D02*
X201889285Y-45921190D01*
X200984523Y-45397380D02*
X200365476Y-45397380D01*
X200365476Y-45397380D02*
X200698809Y-45778333D01*
X200698809Y-45778333D02*
X200555952Y-45778333D01*
X200555952Y-45778333D02*
X200460714Y-45825952D01*
X200460714Y-45825952D02*
X200413095Y-45873571D01*
X200413095Y-45873571D02*
X200365476Y-45968809D01*
X200365476Y-45968809D02*
X200365476Y-46206904D01*
X200365476Y-46206904D02*
X200413095Y-46302142D01*
X200413095Y-46302142D02*
X200460714Y-46349761D01*
X200460714Y-46349761D02*
X200555952Y-46397380D01*
X200555952Y-46397380D02*
X200841666Y-46397380D01*
X200841666Y-46397380D02*
X200936904Y-46349761D01*
X200936904Y-46349761D02*
X200984523Y-46302142D01*
X199984523Y-45492619D02*
X199936904Y-45445000D01*
X199936904Y-45445000D02*
X199841666Y-45397380D01*
X199841666Y-45397380D02*
X199603571Y-45397380D01*
X199603571Y-45397380D02*
X199508333Y-45445000D01*
X199508333Y-45445000D02*
X199460714Y-45492619D01*
X199460714Y-45492619D02*
X199413095Y-45587857D01*
X199413095Y-45587857D02*
X199413095Y-45683095D01*
X199413095Y-45683095D02*
X199460714Y-45825952D01*
X199460714Y-45825952D02*
X200032142Y-46397380D01*
X200032142Y-46397380D02*
X199413095Y-46397380D01*
%TO.C,R10*%
X203017857Y-48437380D02*
X203351190Y-47961190D01*
X203589285Y-48437380D02*
X203589285Y-47437380D01*
X203589285Y-47437380D02*
X203208333Y-47437380D01*
X203208333Y-47437380D02*
X203113095Y-47485000D01*
X203113095Y-47485000D02*
X203065476Y-47532619D01*
X203065476Y-47532619D02*
X203017857Y-47627857D01*
X203017857Y-47627857D02*
X203017857Y-47770714D01*
X203017857Y-47770714D02*
X203065476Y-47865952D01*
X203065476Y-47865952D02*
X203113095Y-47913571D01*
X203113095Y-47913571D02*
X203208333Y-47961190D01*
X203208333Y-47961190D02*
X203589285Y-47961190D01*
X202065476Y-48437380D02*
X202636904Y-48437380D01*
X202351190Y-48437380D02*
X202351190Y-47437380D01*
X202351190Y-47437380D02*
X202446428Y-47580238D01*
X202446428Y-47580238D02*
X202541666Y-47675476D01*
X202541666Y-47675476D02*
X202636904Y-47723095D01*
X201446428Y-47437380D02*
X201351190Y-47437380D01*
X201351190Y-47437380D02*
X201255952Y-47485000D01*
X201255952Y-47485000D02*
X201208333Y-47532619D01*
X201208333Y-47532619D02*
X201160714Y-47627857D01*
X201160714Y-47627857D02*
X201113095Y-47818333D01*
X201113095Y-47818333D02*
X201113095Y-48056428D01*
X201113095Y-48056428D02*
X201160714Y-48246904D01*
X201160714Y-48246904D02*
X201208333Y-48342142D01*
X201208333Y-48342142D02*
X201255952Y-48389761D01*
X201255952Y-48389761D02*
X201351190Y-48437380D01*
X201351190Y-48437380D02*
X201446428Y-48437380D01*
X201446428Y-48437380D02*
X201541666Y-48389761D01*
X201541666Y-48389761D02*
X201589285Y-48342142D01*
X201589285Y-48342142D02*
X201636904Y-48246904D01*
X201636904Y-48246904D02*
X201684523Y-48056428D01*
X201684523Y-48056428D02*
X201684523Y-47818333D01*
X201684523Y-47818333D02*
X201636904Y-47627857D01*
X201636904Y-47627857D02*
X201589285Y-47532619D01*
X201589285Y-47532619D02*
X201541666Y-47485000D01*
X201541666Y-47485000D02*
X201446428Y-47437380D01*
%TO.C,R40*%
X215667857Y-58097380D02*
X216001190Y-57621190D01*
X216239285Y-58097380D02*
X216239285Y-57097380D01*
X216239285Y-57097380D02*
X215858333Y-57097380D01*
X215858333Y-57097380D02*
X215763095Y-57145000D01*
X215763095Y-57145000D02*
X215715476Y-57192619D01*
X215715476Y-57192619D02*
X215667857Y-57287857D01*
X215667857Y-57287857D02*
X215667857Y-57430714D01*
X215667857Y-57430714D02*
X215715476Y-57525952D01*
X215715476Y-57525952D02*
X215763095Y-57573571D01*
X215763095Y-57573571D02*
X215858333Y-57621190D01*
X215858333Y-57621190D02*
X216239285Y-57621190D01*
X214810714Y-57430714D02*
X214810714Y-58097380D01*
X215048809Y-57049761D02*
X215286904Y-57764047D01*
X215286904Y-57764047D02*
X214667857Y-57764047D01*
X214096428Y-57097380D02*
X214001190Y-57097380D01*
X214001190Y-57097380D02*
X213905952Y-57145000D01*
X213905952Y-57145000D02*
X213858333Y-57192619D01*
X213858333Y-57192619D02*
X213810714Y-57287857D01*
X213810714Y-57287857D02*
X213763095Y-57478333D01*
X213763095Y-57478333D02*
X213763095Y-57716428D01*
X213763095Y-57716428D02*
X213810714Y-57906904D01*
X213810714Y-57906904D02*
X213858333Y-58002142D01*
X213858333Y-58002142D02*
X213905952Y-58049761D01*
X213905952Y-58049761D02*
X214001190Y-58097380D01*
X214001190Y-58097380D02*
X214096428Y-58097380D01*
X214096428Y-58097380D02*
X214191666Y-58049761D01*
X214191666Y-58049761D02*
X214239285Y-58002142D01*
X214239285Y-58002142D02*
X214286904Y-57906904D01*
X214286904Y-57906904D02*
X214334523Y-57716428D01*
X214334523Y-57716428D02*
X214334523Y-57478333D01*
X214334523Y-57478333D02*
X214286904Y-57287857D01*
X214286904Y-57287857D02*
X214239285Y-57192619D01*
X214239285Y-57192619D02*
X214191666Y-57145000D01*
X214191666Y-57145000D02*
X214096428Y-57097380D01*
%TO.C,Q8*%
X229850238Y-51502619D02*
X229945476Y-51455000D01*
X229945476Y-51455000D02*
X230040714Y-51359761D01*
X230040714Y-51359761D02*
X230183571Y-51216904D01*
X230183571Y-51216904D02*
X230278809Y-51169285D01*
X230278809Y-51169285D02*
X230374047Y-51169285D01*
X230326428Y-51407380D02*
X230421666Y-51359761D01*
X230421666Y-51359761D02*
X230516904Y-51264523D01*
X230516904Y-51264523D02*
X230564523Y-51074047D01*
X230564523Y-51074047D02*
X230564523Y-50740714D01*
X230564523Y-50740714D02*
X230516904Y-50550238D01*
X230516904Y-50550238D02*
X230421666Y-50455000D01*
X230421666Y-50455000D02*
X230326428Y-50407380D01*
X230326428Y-50407380D02*
X230135952Y-50407380D01*
X230135952Y-50407380D02*
X230040714Y-50455000D01*
X230040714Y-50455000D02*
X229945476Y-50550238D01*
X229945476Y-50550238D02*
X229897857Y-50740714D01*
X229897857Y-50740714D02*
X229897857Y-51074047D01*
X229897857Y-51074047D02*
X229945476Y-51264523D01*
X229945476Y-51264523D02*
X230040714Y-51359761D01*
X230040714Y-51359761D02*
X230135952Y-51407380D01*
X230135952Y-51407380D02*
X230326428Y-51407380D01*
X229326428Y-50835952D02*
X229421666Y-50788333D01*
X229421666Y-50788333D02*
X229469285Y-50740714D01*
X229469285Y-50740714D02*
X229516904Y-50645476D01*
X229516904Y-50645476D02*
X229516904Y-50597857D01*
X229516904Y-50597857D02*
X229469285Y-50502619D01*
X229469285Y-50502619D02*
X229421666Y-50455000D01*
X229421666Y-50455000D02*
X229326428Y-50407380D01*
X229326428Y-50407380D02*
X229135952Y-50407380D01*
X229135952Y-50407380D02*
X229040714Y-50455000D01*
X229040714Y-50455000D02*
X228993095Y-50502619D01*
X228993095Y-50502619D02*
X228945476Y-50597857D01*
X228945476Y-50597857D02*
X228945476Y-50645476D01*
X228945476Y-50645476D02*
X228993095Y-50740714D01*
X228993095Y-50740714D02*
X229040714Y-50788333D01*
X229040714Y-50788333D02*
X229135952Y-50835952D01*
X229135952Y-50835952D02*
X229326428Y-50835952D01*
X229326428Y-50835952D02*
X229421666Y-50883571D01*
X229421666Y-50883571D02*
X229469285Y-50931190D01*
X229469285Y-50931190D02*
X229516904Y-51026428D01*
X229516904Y-51026428D02*
X229516904Y-51216904D01*
X229516904Y-51216904D02*
X229469285Y-51312142D01*
X229469285Y-51312142D02*
X229421666Y-51359761D01*
X229421666Y-51359761D02*
X229326428Y-51407380D01*
X229326428Y-51407380D02*
X229135952Y-51407380D01*
X229135952Y-51407380D02*
X229040714Y-51359761D01*
X229040714Y-51359761D02*
X228993095Y-51312142D01*
X228993095Y-51312142D02*
X228945476Y-51216904D01*
X228945476Y-51216904D02*
X228945476Y-51026428D01*
X228945476Y-51026428D02*
X228993095Y-50931190D01*
X228993095Y-50931190D02*
X229040714Y-50883571D01*
X229040714Y-50883571D02*
X229135952Y-50835952D01*
%TO.C,U2*%
X148124333Y-93251333D02*
X149257666Y-93251333D01*
X149257666Y-93251333D02*
X149391000Y-93318000D01*
X149391000Y-93318000D02*
X149457666Y-93384666D01*
X149457666Y-93384666D02*
X149524333Y-93518000D01*
X149524333Y-93518000D02*
X149524333Y-93784666D01*
X149524333Y-93784666D02*
X149457666Y-93918000D01*
X149457666Y-93918000D02*
X149391000Y-93984666D01*
X149391000Y-93984666D02*
X149257666Y-94051333D01*
X149257666Y-94051333D02*
X148124333Y-94051333D01*
X148257666Y-94651333D02*
X148191000Y-94718000D01*
X148191000Y-94718000D02*
X148124333Y-94851333D01*
X148124333Y-94851333D02*
X148124333Y-95184667D01*
X148124333Y-95184667D02*
X148191000Y-95318000D01*
X148191000Y-95318000D02*
X148257666Y-95384667D01*
X148257666Y-95384667D02*
X148391000Y-95451333D01*
X148391000Y-95451333D02*
X148524333Y-95451333D01*
X148524333Y-95451333D02*
X148724333Y-95384667D01*
X148724333Y-95384667D02*
X149524333Y-94584667D01*
X149524333Y-94584667D02*
X149524333Y-95451333D01*
%TO.C,R26*%
X193937380Y-48582142D02*
X193461190Y-48248809D01*
X193937380Y-48010714D02*
X192937380Y-48010714D01*
X192937380Y-48010714D02*
X192937380Y-48391666D01*
X192937380Y-48391666D02*
X192985000Y-48486904D01*
X192985000Y-48486904D02*
X193032619Y-48534523D01*
X193032619Y-48534523D02*
X193127857Y-48582142D01*
X193127857Y-48582142D02*
X193270714Y-48582142D01*
X193270714Y-48582142D02*
X193365952Y-48534523D01*
X193365952Y-48534523D02*
X193413571Y-48486904D01*
X193413571Y-48486904D02*
X193461190Y-48391666D01*
X193461190Y-48391666D02*
X193461190Y-48010714D01*
X193032619Y-48963095D02*
X192985000Y-49010714D01*
X192985000Y-49010714D02*
X192937380Y-49105952D01*
X192937380Y-49105952D02*
X192937380Y-49344047D01*
X192937380Y-49344047D02*
X192985000Y-49439285D01*
X192985000Y-49439285D02*
X193032619Y-49486904D01*
X193032619Y-49486904D02*
X193127857Y-49534523D01*
X193127857Y-49534523D02*
X193223095Y-49534523D01*
X193223095Y-49534523D02*
X193365952Y-49486904D01*
X193365952Y-49486904D02*
X193937380Y-48915476D01*
X193937380Y-48915476D02*
X193937380Y-49534523D01*
X192937380Y-50391666D02*
X192937380Y-50201190D01*
X192937380Y-50201190D02*
X192985000Y-50105952D01*
X192985000Y-50105952D02*
X193032619Y-50058333D01*
X193032619Y-50058333D02*
X193175476Y-49963095D01*
X193175476Y-49963095D02*
X193365952Y-49915476D01*
X193365952Y-49915476D02*
X193746904Y-49915476D01*
X193746904Y-49915476D02*
X193842142Y-49963095D01*
X193842142Y-49963095D02*
X193889761Y-50010714D01*
X193889761Y-50010714D02*
X193937380Y-50105952D01*
X193937380Y-50105952D02*
X193937380Y-50296428D01*
X193937380Y-50296428D02*
X193889761Y-50391666D01*
X193889761Y-50391666D02*
X193842142Y-50439285D01*
X193842142Y-50439285D02*
X193746904Y-50486904D01*
X193746904Y-50486904D02*
X193508809Y-50486904D01*
X193508809Y-50486904D02*
X193413571Y-50439285D01*
X193413571Y-50439285D02*
X193365952Y-50391666D01*
X193365952Y-50391666D02*
X193318333Y-50296428D01*
X193318333Y-50296428D02*
X193318333Y-50105952D01*
X193318333Y-50105952D02*
X193365952Y-50010714D01*
X193365952Y-50010714D02*
X193413571Y-49963095D01*
X193413571Y-49963095D02*
X193508809Y-49915476D01*
%TO.C,U1*%
X122337380Y-57488095D02*
X123146904Y-57488095D01*
X123146904Y-57488095D02*
X123242142Y-57535714D01*
X123242142Y-57535714D02*
X123289761Y-57583333D01*
X123289761Y-57583333D02*
X123337380Y-57678571D01*
X123337380Y-57678571D02*
X123337380Y-57869047D01*
X123337380Y-57869047D02*
X123289761Y-57964285D01*
X123289761Y-57964285D02*
X123242142Y-58011904D01*
X123242142Y-58011904D02*
X123146904Y-58059523D01*
X123146904Y-58059523D02*
X122337380Y-58059523D01*
X123337380Y-59059523D02*
X123337380Y-58488095D01*
X123337380Y-58773809D02*
X122337380Y-58773809D01*
X122337380Y-58773809D02*
X122480238Y-58678571D01*
X122480238Y-58678571D02*
X122575476Y-58583333D01*
X122575476Y-58583333D02*
X122623095Y-58488095D01*
X162977380Y-56988095D02*
X163786904Y-56988095D01*
X163786904Y-56988095D02*
X163882142Y-57035714D01*
X163882142Y-57035714D02*
X163929761Y-57083333D01*
X163929761Y-57083333D02*
X163977380Y-57178571D01*
X163977380Y-57178571D02*
X163977380Y-57369047D01*
X163977380Y-57369047D02*
X163929761Y-57464285D01*
X163929761Y-57464285D02*
X163882142Y-57511904D01*
X163882142Y-57511904D02*
X163786904Y-57559523D01*
X163786904Y-57559523D02*
X162977380Y-57559523D01*
X163929761Y-57988095D02*
X163977380Y-58130952D01*
X163977380Y-58130952D02*
X163977380Y-58369047D01*
X163977380Y-58369047D02*
X163929761Y-58464285D01*
X163929761Y-58464285D02*
X163882142Y-58511904D01*
X163882142Y-58511904D02*
X163786904Y-58559523D01*
X163786904Y-58559523D02*
X163691666Y-58559523D01*
X163691666Y-58559523D02*
X163596428Y-58511904D01*
X163596428Y-58511904D02*
X163548809Y-58464285D01*
X163548809Y-58464285D02*
X163501190Y-58369047D01*
X163501190Y-58369047D02*
X163453571Y-58178571D01*
X163453571Y-58178571D02*
X163405952Y-58083333D01*
X163405952Y-58083333D02*
X163358333Y-58035714D01*
X163358333Y-58035714D02*
X163263095Y-57988095D01*
X163263095Y-57988095D02*
X163167857Y-57988095D01*
X163167857Y-57988095D02*
X163072619Y-58035714D01*
X163072619Y-58035714D02*
X163025000Y-58083333D01*
X163025000Y-58083333D02*
X162977380Y-58178571D01*
X162977380Y-58178571D02*
X162977380Y-58416666D01*
X162977380Y-58416666D02*
X163025000Y-58559523D01*
X163453571Y-59321428D02*
X163501190Y-59464285D01*
X163501190Y-59464285D02*
X163548809Y-59511904D01*
X163548809Y-59511904D02*
X163644047Y-59559523D01*
X163644047Y-59559523D02*
X163786904Y-59559523D01*
X163786904Y-59559523D02*
X163882142Y-59511904D01*
X163882142Y-59511904D02*
X163929761Y-59464285D01*
X163929761Y-59464285D02*
X163977380Y-59369047D01*
X163977380Y-59369047D02*
X163977380Y-58988095D01*
X163977380Y-58988095D02*
X162977380Y-58988095D01*
X162977380Y-58988095D02*
X162977380Y-59321428D01*
X162977380Y-59321428D02*
X163025000Y-59416666D01*
X163025000Y-59416666D02*
X163072619Y-59464285D01*
X163072619Y-59464285D02*
X163167857Y-59511904D01*
X163167857Y-59511904D02*
X163263095Y-59511904D01*
X163263095Y-59511904D02*
X163358333Y-59464285D01*
X163358333Y-59464285D02*
X163405952Y-59416666D01*
X163405952Y-59416666D02*
X163453571Y-59321428D01*
X163453571Y-59321428D02*
X163453571Y-58988095D01*
%TO.C,R35*%
X217342857Y-27737380D02*
X217676190Y-27261190D01*
X217914285Y-27737380D02*
X217914285Y-26737380D01*
X217914285Y-26737380D02*
X217533333Y-26737380D01*
X217533333Y-26737380D02*
X217438095Y-26785000D01*
X217438095Y-26785000D02*
X217390476Y-26832619D01*
X217390476Y-26832619D02*
X217342857Y-26927857D01*
X217342857Y-26927857D02*
X217342857Y-27070714D01*
X217342857Y-27070714D02*
X217390476Y-27165952D01*
X217390476Y-27165952D02*
X217438095Y-27213571D01*
X217438095Y-27213571D02*
X217533333Y-27261190D01*
X217533333Y-27261190D02*
X217914285Y-27261190D01*
X217009523Y-26737380D02*
X216390476Y-26737380D01*
X216390476Y-26737380D02*
X216723809Y-27118333D01*
X216723809Y-27118333D02*
X216580952Y-27118333D01*
X216580952Y-27118333D02*
X216485714Y-27165952D01*
X216485714Y-27165952D02*
X216438095Y-27213571D01*
X216438095Y-27213571D02*
X216390476Y-27308809D01*
X216390476Y-27308809D02*
X216390476Y-27546904D01*
X216390476Y-27546904D02*
X216438095Y-27642142D01*
X216438095Y-27642142D02*
X216485714Y-27689761D01*
X216485714Y-27689761D02*
X216580952Y-27737380D01*
X216580952Y-27737380D02*
X216866666Y-27737380D01*
X216866666Y-27737380D02*
X216961904Y-27689761D01*
X216961904Y-27689761D02*
X217009523Y-27642142D01*
X215485714Y-26737380D02*
X215961904Y-26737380D01*
X215961904Y-26737380D02*
X216009523Y-27213571D01*
X216009523Y-27213571D02*
X215961904Y-27165952D01*
X215961904Y-27165952D02*
X215866666Y-27118333D01*
X215866666Y-27118333D02*
X215628571Y-27118333D01*
X215628571Y-27118333D02*
X215533333Y-27165952D01*
X215533333Y-27165952D02*
X215485714Y-27213571D01*
X215485714Y-27213571D02*
X215438095Y-27308809D01*
X215438095Y-27308809D02*
X215438095Y-27546904D01*
X215438095Y-27546904D02*
X215485714Y-27642142D01*
X215485714Y-27642142D02*
X215533333Y-27689761D01*
X215533333Y-27689761D02*
X215628571Y-27737380D01*
X215628571Y-27737380D02*
X215866666Y-27737380D01*
X215866666Y-27737380D02*
X215961904Y-27689761D01*
X215961904Y-27689761D02*
X216009523Y-27642142D01*
%TO.C,Q13*%
X211233928Y-59162619D02*
X211329166Y-59115000D01*
X211329166Y-59115000D02*
X211424404Y-59019761D01*
X211424404Y-59019761D02*
X211567261Y-58876904D01*
X211567261Y-58876904D02*
X211662499Y-58829285D01*
X211662499Y-58829285D02*
X211757737Y-58829285D01*
X211710118Y-59067380D02*
X211805356Y-59019761D01*
X211805356Y-59019761D02*
X211900594Y-58924523D01*
X211900594Y-58924523D02*
X211948213Y-58734047D01*
X211948213Y-58734047D02*
X211948213Y-58400714D01*
X211948213Y-58400714D02*
X211900594Y-58210238D01*
X211900594Y-58210238D02*
X211805356Y-58115000D01*
X211805356Y-58115000D02*
X211710118Y-58067380D01*
X211710118Y-58067380D02*
X211519642Y-58067380D01*
X211519642Y-58067380D02*
X211424404Y-58115000D01*
X211424404Y-58115000D02*
X211329166Y-58210238D01*
X211329166Y-58210238D02*
X211281547Y-58400714D01*
X211281547Y-58400714D02*
X211281547Y-58734047D01*
X211281547Y-58734047D02*
X211329166Y-58924523D01*
X211329166Y-58924523D02*
X211424404Y-59019761D01*
X211424404Y-59019761D02*
X211519642Y-59067380D01*
X211519642Y-59067380D02*
X211710118Y-59067380D01*
X210329166Y-59067380D02*
X210900594Y-59067380D01*
X210614880Y-59067380D02*
X210614880Y-58067380D01*
X210614880Y-58067380D02*
X210710118Y-58210238D01*
X210710118Y-58210238D02*
X210805356Y-58305476D01*
X210805356Y-58305476D02*
X210900594Y-58353095D01*
X209995832Y-58067380D02*
X209376785Y-58067380D01*
X209376785Y-58067380D02*
X209710118Y-58448333D01*
X209710118Y-58448333D02*
X209567261Y-58448333D01*
X209567261Y-58448333D02*
X209472023Y-58495952D01*
X209472023Y-58495952D02*
X209424404Y-58543571D01*
X209424404Y-58543571D02*
X209376785Y-58638809D01*
X209376785Y-58638809D02*
X209376785Y-58876904D01*
X209376785Y-58876904D02*
X209424404Y-58972142D01*
X209424404Y-58972142D02*
X209472023Y-59019761D01*
X209472023Y-59019761D02*
X209567261Y-59067380D01*
X209567261Y-59067380D02*
X209852975Y-59067380D01*
X209852975Y-59067380D02*
X209948213Y-59019761D01*
X209948213Y-59019761D02*
X209995832Y-58972142D01*
%TO.C,Q14*%
X213662619Y-61666071D02*
X213615000Y-61570833D01*
X213615000Y-61570833D02*
X213519761Y-61475595D01*
X213519761Y-61475595D02*
X213376904Y-61332738D01*
X213376904Y-61332738D02*
X213329285Y-61237500D01*
X213329285Y-61237500D02*
X213329285Y-61142262D01*
X213567380Y-61189881D02*
X213519761Y-61094643D01*
X213519761Y-61094643D02*
X213424523Y-60999405D01*
X213424523Y-60999405D02*
X213234047Y-60951786D01*
X213234047Y-60951786D02*
X212900714Y-60951786D01*
X212900714Y-60951786D02*
X212710238Y-60999405D01*
X212710238Y-60999405D02*
X212615000Y-61094643D01*
X212615000Y-61094643D02*
X212567380Y-61189881D01*
X212567380Y-61189881D02*
X212567380Y-61380357D01*
X212567380Y-61380357D02*
X212615000Y-61475595D01*
X212615000Y-61475595D02*
X212710238Y-61570833D01*
X212710238Y-61570833D02*
X212900714Y-61618452D01*
X212900714Y-61618452D02*
X213234047Y-61618452D01*
X213234047Y-61618452D02*
X213424523Y-61570833D01*
X213424523Y-61570833D02*
X213519761Y-61475595D01*
X213519761Y-61475595D02*
X213567380Y-61380357D01*
X213567380Y-61380357D02*
X213567380Y-61189881D01*
X213567380Y-62570833D02*
X213567380Y-61999405D01*
X213567380Y-62285119D02*
X212567380Y-62285119D01*
X212567380Y-62285119D02*
X212710238Y-62189881D01*
X212710238Y-62189881D02*
X212805476Y-62094643D01*
X212805476Y-62094643D02*
X212853095Y-61999405D01*
X212900714Y-63427976D02*
X213567380Y-63427976D01*
X212519761Y-63189881D02*
X213234047Y-62951786D01*
X213234047Y-62951786D02*
X213234047Y-63570833D01*
%TO.C,Q17*%
X221733928Y-30712619D02*
X221829166Y-30665000D01*
X221829166Y-30665000D02*
X221924404Y-30569761D01*
X221924404Y-30569761D02*
X222067261Y-30426904D01*
X222067261Y-30426904D02*
X222162499Y-30379285D01*
X222162499Y-30379285D02*
X222257737Y-30379285D01*
X222210118Y-30617380D02*
X222305356Y-30569761D01*
X222305356Y-30569761D02*
X222400594Y-30474523D01*
X222400594Y-30474523D02*
X222448213Y-30284047D01*
X222448213Y-30284047D02*
X222448213Y-29950714D01*
X222448213Y-29950714D02*
X222400594Y-29760238D01*
X222400594Y-29760238D02*
X222305356Y-29665000D01*
X222305356Y-29665000D02*
X222210118Y-29617380D01*
X222210118Y-29617380D02*
X222019642Y-29617380D01*
X222019642Y-29617380D02*
X221924404Y-29665000D01*
X221924404Y-29665000D02*
X221829166Y-29760238D01*
X221829166Y-29760238D02*
X221781547Y-29950714D01*
X221781547Y-29950714D02*
X221781547Y-30284047D01*
X221781547Y-30284047D02*
X221829166Y-30474523D01*
X221829166Y-30474523D02*
X221924404Y-30569761D01*
X221924404Y-30569761D02*
X222019642Y-30617380D01*
X222019642Y-30617380D02*
X222210118Y-30617380D01*
X220829166Y-30617380D02*
X221400594Y-30617380D01*
X221114880Y-30617380D02*
X221114880Y-29617380D01*
X221114880Y-29617380D02*
X221210118Y-29760238D01*
X221210118Y-29760238D02*
X221305356Y-29855476D01*
X221305356Y-29855476D02*
X221400594Y-29903095D01*
X220495832Y-29617380D02*
X219829166Y-29617380D01*
X219829166Y-29617380D02*
X220257737Y-30617380D01*
%TO.C,Q21*%
X225433928Y-38962619D02*
X225529166Y-38915000D01*
X225529166Y-38915000D02*
X225624404Y-38819761D01*
X225624404Y-38819761D02*
X225767261Y-38676904D01*
X225767261Y-38676904D02*
X225862499Y-38629285D01*
X225862499Y-38629285D02*
X225957737Y-38629285D01*
X225910118Y-38867380D02*
X226005356Y-38819761D01*
X226005356Y-38819761D02*
X226100594Y-38724523D01*
X226100594Y-38724523D02*
X226148213Y-38534047D01*
X226148213Y-38534047D02*
X226148213Y-38200714D01*
X226148213Y-38200714D02*
X226100594Y-38010238D01*
X226100594Y-38010238D02*
X226005356Y-37915000D01*
X226005356Y-37915000D02*
X225910118Y-37867380D01*
X225910118Y-37867380D02*
X225719642Y-37867380D01*
X225719642Y-37867380D02*
X225624404Y-37915000D01*
X225624404Y-37915000D02*
X225529166Y-38010238D01*
X225529166Y-38010238D02*
X225481547Y-38200714D01*
X225481547Y-38200714D02*
X225481547Y-38534047D01*
X225481547Y-38534047D02*
X225529166Y-38724523D01*
X225529166Y-38724523D02*
X225624404Y-38819761D01*
X225624404Y-38819761D02*
X225719642Y-38867380D01*
X225719642Y-38867380D02*
X225910118Y-38867380D01*
X225100594Y-37962619D02*
X225052975Y-37915000D01*
X225052975Y-37915000D02*
X224957737Y-37867380D01*
X224957737Y-37867380D02*
X224719642Y-37867380D01*
X224719642Y-37867380D02*
X224624404Y-37915000D01*
X224624404Y-37915000D02*
X224576785Y-37962619D01*
X224576785Y-37962619D02*
X224529166Y-38057857D01*
X224529166Y-38057857D02*
X224529166Y-38153095D01*
X224529166Y-38153095D02*
X224576785Y-38295952D01*
X224576785Y-38295952D02*
X225148213Y-38867380D01*
X225148213Y-38867380D02*
X224529166Y-38867380D01*
X223576785Y-38867380D02*
X224148213Y-38867380D01*
X223862499Y-38867380D02*
X223862499Y-37867380D01*
X223862499Y-37867380D02*
X223957737Y-38010238D01*
X223957737Y-38010238D02*
X224052975Y-38105476D01*
X224052975Y-38105476D02*
X224148213Y-38153095D01*
%TO.C,R16*%
X212197380Y-47182142D02*
X211721190Y-46848809D01*
X212197380Y-46610714D02*
X211197380Y-46610714D01*
X211197380Y-46610714D02*
X211197380Y-46991666D01*
X211197380Y-46991666D02*
X211245000Y-47086904D01*
X211245000Y-47086904D02*
X211292619Y-47134523D01*
X211292619Y-47134523D02*
X211387857Y-47182142D01*
X211387857Y-47182142D02*
X211530714Y-47182142D01*
X211530714Y-47182142D02*
X211625952Y-47134523D01*
X211625952Y-47134523D02*
X211673571Y-47086904D01*
X211673571Y-47086904D02*
X211721190Y-46991666D01*
X211721190Y-46991666D02*
X211721190Y-46610714D01*
X212197380Y-48134523D02*
X212197380Y-47563095D01*
X212197380Y-47848809D02*
X211197380Y-47848809D01*
X211197380Y-47848809D02*
X211340238Y-47753571D01*
X211340238Y-47753571D02*
X211435476Y-47658333D01*
X211435476Y-47658333D02*
X211483095Y-47563095D01*
X211197380Y-48991666D02*
X211197380Y-48801190D01*
X211197380Y-48801190D02*
X211245000Y-48705952D01*
X211245000Y-48705952D02*
X211292619Y-48658333D01*
X211292619Y-48658333D02*
X211435476Y-48563095D01*
X211435476Y-48563095D02*
X211625952Y-48515476D01*
X211625952Y-48515476D02*
X212006904Y-48515476D01*
X212006904Y-48515476D02*
X212102142Y-48563095D01*
X212102142Y-48563095D02*
X212149761Y-48610714D01*
X212149761Y-48610714D02*
X212197380Y-48705952D01*
X212197380Y-48705952D02*
X212197380Y-48896428D01*
X212197380Y-48896428D02*
X212149761Y-48991666D01*
X212149761Y-48991666D02*
X212102142Y-49039285D01*
X212102142Y-49039285D02*
X212006904Y-49086904D01*
X212006904Y-49086904D02*
X211768809Y-49086904D01*
X211768809Y-49086904D02*
X211673571Y-49039285D01*
X211673571Y-49039285D02*
X211625952Y-48991666D01*
X211625952Y-48991666D02*
X211578333Y-48896428D01*
X211578333Y-48896428D02*
X211578333Y-48705952D01*
X211578333Y-48705952D02*
X211625952Y-48610714D01*
X211625952Y-48610714D02*
X211673571Y-48563095D01*
X211673571Y-48563095D02*
X211768809Y-48515476D01*
%TO.C,R31*%
X235242857Y-50297380D02*
X235576190Y-49821190D01*
X235814285Y-50297380D02*
X235814285Y-49297380D01*
X235814285Y-49297380D02*
X235433333Y-49297380D01*
X235433333Y-49297380D02*
X235338095Y-49345000D01*
X235338095Y-49345000D02*
X235290476Y-49392619D01*
X235290476Y-49392619D02*
X235242857Y-49487857D01*
X235242857Y-49487857D02*
X235242857Y-49630714D01*
X235242857Y-49630714D02*
X235290476Y-49725952D01*
X235290476Y-49725952D02*
X235338095Y-49773571D01*
X235338095Y-49773571D02*
X235433333Y-49821190D01*
X235433333Y-49821190D02*
X235814285Y-49821190D01*
X234909523Y-49297380D02*
X234290476Y-49297380D01*
X234290476Y-49297380D02*
X234623809Y-49678333D01*
X234623809Y-49678333D02*
X234480952Y-49678333D01*
X234480952Y-49678333D02*
X234385714Y-49725952D01*
X234385714Y-49725952D02*
X234338095Y-49773571D01*
X234338095Y-49773571D02*
X234290476Y-49868809D01*
X234290476Y-49868809D02*
X234290476Y-50106904D01*
X234290476Y-50106904D02*
X234338095Y-50202142D01*
X234338095Y-50202142D02*
X234385714Y-50249761D01*
X234385714Y-50249761D02*
X234480952Y-50297380D01*
X234480952Y-50297380D02*
X234766666Y-50297380D01*
X234766666Y-50297380D02*
X234861904Y-50249761D01*
X234861904Y-50249761D02*
X234909523Y-50202142D01*
X233338095Y-50297380D02*
X233909523Y-50297380D01*
X233623809Y-50297380D02*
X233623809Y-49297380D01*
X233623809Y-49297380D02*
X233719047Y-49440238D01*
X233719047Y-49440238D02*
X233814285Y-49535476D01*
X233814285Y-49535476D02*
X233909523Y-49583095D01*
%TO.C,R48*%
X216667857Y-63097380D02*
X217001190Y-62621190D01*
X217239285Y-63097380D02*
X217239285Y-62097380D01*
X217239285Y-62097380D02*
X216858333Y-62097380D01*
X216858333Y-62097380D02*
X216763095Y-62145000D01*
X216763095Y-62145000D02*
X216715476Y-62192619D01*
X216715476Y-62192619D02*
X216667857Y-62287857D01*
X216667857Y-62287857D02*
X216667857Y-62430714D01*
X216667857Y-62430714D02*
X216715476Y-62525952D01*
X216715476Y-62525952D02*
X216763095Y-62573571D01*
X216763095Y-62573571D02*
X216858333Y-62621190D01*
X216858333Y-62621190D02*
X217239285Y-62621190D01*
X215810714Y-62430714D02*
X215810714Y-63097380D01*
X216048809Y-62049761D02*
X216286904Y-62764047D01*
X216286904Y-62764047D02*
X215667857Y-62764047D01*
X215144047Y-62525952D02*
X215239285Y-62478333D01*
X215239285Y-62478333D02*
X215286904Y-62430714D01*
X215286904Y-62430714D02*
X215334523Y-62335476D01*
X215334523Y-62335476D02*
X215334523Y-62287857D01*
X215334523Y-62287857D02*
X215286904Y-62192619D01*
X215286904Y-62192619D02*
X215239285Y-62145000D01*
X215239285Y-62145000D02*
X215144047Y-62097380D01*
X215144047Y-62097380D02*
X214953571Y-62097380D01*
X214953571Y-62097380D02*
X214858333Y-62145000D01*
X214858333Y-62145000D02*
X214810714Y-62192619D01*
X214810714Y-62192619D02*
X214763095Y-62287857D01*
X214763095Y-62287857D02*
X214763095Y-62335476D01*
X214763095Y-62335476D02*
X214810714Y-62430714D01*
X214810714Y-62430714D02*
X214858333Y-62478333D01*
X214858333Y-62478333D02*
X214953571Y-62525952D01*
X214953571Y-62525952D02*
X215144047Y-62525952D01*
X215144047Y-62525952D02*
X215239285Y-62573571D01*
X215239285Y-62573571D02*
X215286904Y-62621190D01*
X215286904Y-62621190D02*
X215334523Y-62716428D01*
X215334523Y-62716428D02*
X215334523Y-62906904D01*
X215334523Y-62906904D02*
X215286904Y-63002142D01*
X215286904Y-63002142D02*
X215239285Y-63049761D01*
X215239285Y-63049761D02*
X215144047Y-63097380D01*
X215144047Y-63097380D02*
X214953571Y-63097380D01*
X214953571Y-63097380D02*
X214858333Y-63049761D01*
X214858333Y-63049761D02*
X214810714Y-63002142D01*
X214810714Y-63002142D02*
X214763095Y-62906904D01*
X214763095Y-62906904D02*
X214763095Y-62716428D01*
X214763095Y-62716428D02*
X214810714Y-62621190D01*
X214810714Y-62621190D02*
X214858333Y-62573571D01*
X214858333Y-62573571D02*
X214953571Y-62525952D01*
%TO.C,Q18*%
X207333928Y-51462619D02*
X207429166Y-51415000D01*
X207429166Y-51415000D02*
X207524404Y-51319761D01*
X207524404Y-51319761D02*
X207667261Y-51176904D01*
X207667261Y-51176904D02*
X207762499Y-51129285D01*
X207762499Y-51129285D02*
X207857737Y-51129285D01*
X207810118Y-51367380D02*
X207905356Y-51319761D01*
X207905356Y-51319761D02*
X208000594Y-51224523D01*
X208000594Y-51224523D02*
X208048213Y-51034047D01*
X208048213Y-51034047D02*
X208048213Y-50700714D01*
X208048213Y-50700714D02*
X208000594Y-50510238D01*
X208000594Y-50510238D02*
X207905356Y-50415000D01*
X207905356Y-50415000D02*
X207810118Y-50367380D01*
X207810118Y-50367380D02*
X207619642Y-50367380D01*
X207619642Y-50367380D02*
X207524404Y-50415000D01*
X207524404Y-50415000D02*
X207429166Y-50510238D01*
X207429166Y-50510238D02*
X207381547Y-50700714D01*
X207381547Y-50700714D02*
X207381547Y-51034047D01*
X207381547Y-51034047D02*
X207429166Y-51224523D01*
X207429166Y-51224523D02*
X207524404Y-51319761D01*
X207524404Y-51319761D02*
X207619642Y-51367380D01*
X207619642Y-51367380D02*
X207810118Y-51367380D01*
X206429166Y-51367380D02*
X207000594Y-51367380D01*
X206714880Y-51367380D02*
X206714880Y-50367380D01*
X206714880Y-50367380D02*
X206810118Y-50510238D01*
X206810118Y-50510238D02*
X206905356Y-50605476D01*
X206905356Y-50605476D02*
X207000594Y-50653095D01*
X205857737Y-50795952D02*
X205952975Y-50748333D01*
X205952975Y-50748333D02*
X206000594Y-50700714D01*
X206000594Y-50700714D02*
X206048213Y-50605476D01*
X206048213Y-50605476D02*
X206048213Y-50557857D01*
X206048213Y-50557857D02*
X206000594Y-50462619D01*
X206000594Y-50462619D02*
X205952975Y-50415000D01*
X205952975Y-50415000D02*
X205857737Y-50367380D01*
X205857737Y-50367380D02*
X205667261Y-50367380D01*
X205667261Y-50367380D02*
X205572023Y-50415000D01*
X205572023Y-50415000D02*
X205524404Y-50462619D01*
X205524404Y-50462619D02*
X205476785Y-50557857D01*
X205476785Y-50557857D02*
X205476785Y-50605476D01*
X205476785Y-50605476D02*
X205524404Y-50700714D01*
X205524404Y-50700714D02*
X205572023Y-50748333D01*
X205572023Y-50748333D02*
X205667261Y-50795952D01*
X205667261Y-50795952D02*
X205857737Y-50795952D01*
X205857737Y-50795952D02*
X205952975Y-50843571D01*
X205952975Y-50843571D02*
X206000594Y-50891190D01*
X206000594Y-50891190D02*
X206048213Y-50986428D01*
X206048213Y-50986428D02*
X206048213Y-51176904D01*
X206048213Y-51176904D02*
X206000594Y-51272142D01*
X206000594Y-51272142D02*
X205952975Y-51319761D01*
X205952975Y-51319761D02*
X205857737Y-51367380D01*
X205857737Y-51367380D02*
X205667261Y-51367380D01*
X205667261Y-51367380D02*
X205572023Y-51319761D01*
X205572023Y-51319761D02*
X205524404Y-51272142D01*
X205524404Y-51272142D02*
X205476785Y-51176904D01*
X205476785Y-51176904D02*
X205476785Y-50986428D01*
X205476785Y-50986428D02*
X205524404Y-50891190D01*
X205524404Y-50891190D02*
X205572023Y-50843571D01*
X205572023Y-50843571D02*
X205667261Y-50795952D01*
%TO.C,R47*%
X227597380Y-31482142D02*
X227121190Y-31148809D01*
X227597380Y-30910714D02*
X226597380Y-30910714D01*
X226597380Y-30910714D02*
X226597380Y-31291666D01*
X226597380Y-31291666D02*
X226645000Y-31386904D01*
X226645000Y-31386904D02*
X226692619Y-31434523D01*
X226692619Y-31434523D02*
X226787857Y-31482142D01*
X226787857Y-31482142D02*
X226930714Y-31482142D01*
X226930714Y-31482142D02*
X227025952Y-31434523D01*
X227025952Y-31434523D02*
X227073571Y-31386904D01*
X227073571Y-31386904D02*
X227121190Y-31291666D01*
X227121190Y-31291666D02*
X227121190Y-30910714D01*
X226930714Y-32339285D02*
X227597380Y-32339285D01*
X226549761Y-32101190D02*
X227264047Y-31863095D01*
X227264047Y-31863095D02*
X227264047Y-32482142D01*
X226597380Y-32767857D02*
X226597380Y-33434523D01*
X226597380Y-33434523D02*
X227597380Y-33005952D01*
%TO.C,R36*%
X206037380Y-57457142D02*
X205561190Y-57123809D01*
X206037380Y-56885714D02*
X205037380Y-56885714D01*
X205037380Y-56885714D02*
X205037380Y-57266666D01*
X205037380Y-57266666D02*
X205085000Y-57361904D01*
X205085000Y-57361904D02*
X205132619Y-57409523D01*
X205132619Y-57409523D02*
X205227857Y-57457142D01*
X205227857Y-57457142D02*
X205370714Y-57457142D01*
X205370714Y-57457142D02*
X205465952Y-57409523D01*
X205465952Y-57409523D02*
X205513571Y-57361904D01*
X205513571Y-57361904D02*
X205561190Y-57266666D01*
X205561190Y-57266666D02*
X205561190Y-56885714D01*
X205037380Y-57790476D02*
X205037380Y-58409523D01*
X205037380Y-58409523D02*
X205418333Y-58076190D01*
X205418333Y-58076190D02*
X205418333Y-58219047D01*
X205418333Y-58219047D02*
X205465952Y-58314285D01*
X205465952Y-58314285D02*
X205513571Y-58361904D01*
X205513571Y-58361904D02*
X205608809Y-58409523D01*
X205608809Y-58409523D02*
X205846904Y-58409523D01*
X205846904Y-58409523D02*
X205942142Y-58361904D01*
X205942142Y-58361904D02*
X205989761Y-58314285D01*
X205989761Y-58314285D02*
X206037380Y-58219047D01*
X206037380Y-58219047D02*
X206037380Y-57933333D01*
X206037380Y-57933333D02*
X205989761Y-57838095D01*
X205989761Y-57838095D02*
X205942142Y-57790476D01*
X205037380Y-59266666D02*
X205037380Y-59076190D01*
X205037380Y-59076190D02*
X205085000Y-58980952D01*
X205085000Y-58980952D02*
X205132619Y-58933333D01*
X205132619Y-58933333D02*
X205275476Y-58838095D01*
X205275476Y-58838095D02*
X205465952Y-58790476D01*
X205465952Y-58790476D02*
X205846904Y-58790476D01*
X205846904Y-58790476D02*
X205942142Y-58838095D01*
X205942142Y-58838095D02*
X205989761Y-58885714D01*
X205989761Y-58885714D02*
X206037380Y-58980952D01*
X206037380Y-58980952D02*
X206037380Y-59171428D01*
X206037380Y-59171428D02*
X205989761Y-59266666D01*
X205989761Y-59266666D02*
X205942142Y-59314285D01*
X205942142Y-59314285D02*
X205846904Y-59361904D01*
X205846904Y-59361904D02*
X205608809Y-59361904D01*
X205608809Y-59361904D02*
X205513571Y-59314285D01*
X205513571Y-59314285D02*
X205465952Y-59266666D01*
X205465952Y-59266666D02*
X205418333Y-59171428D01*
X205418333Y-59171428D02*
X205418333Y-58980952D01*
X205418333Y-58980952D02*
X205465952Y-58885714D01*
X205465952Y-58885714D02*
X205513571Y-58838095D01*
X205513571Y-58838095D02*
X205608809Y-58790476D01*
%TO.C,R15*%
X227017857Y-46397380D02*
X227351190Y-45921190D01*
X227589285Y-46397380D02*
X227589285Y-45397380D01*
X227589285Y-45397380D02*
X227208333Y-45397380D01*
X227208333Y-45397380D02*
X227113095Y-45445000D01*
X227113095Y-45445000D02*
X227065476Y-45492619D01*
X227065476Y-45492619D02*
X227017857Y-45587857D01*
X227017857Y-45587857D02*
X227017857Y-45730714D01*
X227017857Y-45730714D02*
X227065476Y-45825952D01*
X227065476Y-45825952D02*
X227113095Y-45873571D01*
X227113095Y-45873571D02*
X227208333Y-45921190D01*
X227208333Y-45921190D02*
X227589285Y-45921190D01*
X226065476Y-46397380D02*
X226636904Y-46397380D01*
X226351190Y-46397380D02*
X226351190Y-45397380D01*
X226351190Y-45397380D02*
X226446428Y-45540238D01*
X226446428Y-45540238D02*
X226541666Y-45635476D01*
X226541666Y-45635476D02*
X226636904Y-45683095D01*
X225160714Y-45397380D02*
X225636904Y-45397380D01*
X225636904Y-45397380D02*
X225684523Y-45873571D01*
X225684523Y-45873571D02*
X225636904Y-45825952D01*
X225636904Y-45825952D02*
X225541666Y-45778333D01*
X225541666Y-45778333D02*
X225303571Y-45778333D01*
X225303571Y-45778333D02*
X225208333Y-45825952D01*
X225208333Y-45825952D02*
X225160714Y-45873571D01*
X225160714Y-45873571D02*
X225113095Y-45968809D01*
X225113095Y-45968809D02*
X225113095Y-46206904D01*
X225113095Y-46206904D02*
X225160714Y-46302142D01*
X225160714Y-46302142D02*
X225208333Y-46349761D01*
X225208333Y-46349761D02*
X225303571Y-46397380D01*
X225303571Y-46397380D02*
X225541666Y-46397380D01*
X225541666Y-46397380D02*
X225636904Y-46349761D01*
X225636904Y-46349761D02*
X225684523Y-46302142D01*
%TO.C,R44*%
X211567857Y-65537380D02*
X211901190Y-65061190D01*
X212139285Y-65537380D02*
X212139285Y-64537380D01*
X212139285Y-64537380D02*
X211758333Y-64537380D01*
X211758333Y-64537380D02*
X211663095Y-64585000D01*
X211663095Y-64585000D02*
X211615476Y-64632619D01*
X211615476Y-64632619D02*
X211567857Y-64727857D01*
X211567857Y-64727857D02*
X211567857Y-64870714D01*
X211567857Y-64870714D02*
X211615476Y-64965952D01*
X211615476Y-64965952D02*
X211663095Y-65013571D01*
X211663095Y-65013571D02*
X211758333Y-65061190D01*
X211758333Y-65061190D02*
X212139285Y-65061190D01*
X210710714Y-64870714D02*
X210710714Y-65537380D01*
X210948809Y-64489761D02*
X211186904Y-65204047D01*
X211186904Y-65204047D02*
X210567857Y-65204047D01*
X209758333Y-64870714D02*
X209758333Y-65537380D01*
X209996428Y-64489761D02*
X210234523Y-65204047D01*
X210234523Y-65204047D02*
X209615476Y-65204047D01*
%TO.C,Q7*%
X221757738Y-42662619D02*
X221852976Y-42615000D01*
X221852976Y-42615000D02*
X221948214Y-42519761D01*
X221948214Y-42519761D02*
X222091071Y-42376904D01*
X222091071Y-42376904D02*
X222186309Y-42329285D01*
X222186309Y-42329285D02*
X222281547Y-42329285D01*
X222233928Y-42567380D02*
X222329166Y-42519761D01*
X222329166Y-42519761D02*
X222424404Y-42424523D01*
X222424404Y-42424523D02*
X222472023Y-42234047D01*
X222472023Y-42234047D02*
X222472023Y-41900714D01*
X222472023Y-41900714D02*
X222424404Y-41710238D01*
X222424404Y-41710238D02*
X222329166Y-41615000D01*
X222329166Y-41615000D02*
X222233928Y-41567380D01*
X222233928Y-41567380D02*
X222043452Y-41567380D01*
X222043452Y-41567380D02*
X221948214Y-41615000D01*
X221948214Y-41615000D02*
X221852976Y-41710238D01*
X221852976Y-41710238D02*
X221805357Y-41900714D01*
X221805357Y-41900714D02*
X221805357Y-42234047D01*
X221805357Y-42234047D02*
X221852976Y-42424523D01*
X221852976Y-42424523D02*
X221948214Y-42519761D01*
X221948214Y-42519761D02*
X222043452Y-42567380D01*
X222043452Y-42567380D02*
X222233928Y-42567380D01*
X221472023Y-41567380D02*
X220805357Y-41567380D01*
X220805357Y-41567380D02*
X221233928Y-42567380D01*
D11*
%TO.C,R25*%
X225962258Y-50022500D02*
X225487742Y-50022500D01*
X225962258Y-48977500D02*
X225487742Y-48977500D01*
%TO.C,R43*%
X220712258Y-37622500D02*
X220237742Y-37622500D01*
X220712258Y-36577500D02*
X220237742Y-36577500D01*
%TO.C,U5*%
X98215000Y-62060000D02*
X98215000Y-64010000D01*
X98215000Y-62060000D02*
X98215000Y-60110000D01*
X107085000Y-62060000D02*
X107085000Y-65510000D01*
X107085000Y-62060000D02*
X107085000Y-60110000D01*
%TO.C,R39*%
X225477500Y-27262258D02*
X225477500Y-26787742D01*
X226522500Y-27262258D02*
X226522500Y-26787742D01*
%TO.C,Q22*%
X195862500Y-43040000D02*
X195212500Y-43040000D01*
X195862500Y-43040000D02*
X196512500Y-43040000D01*
X195862500Y-46160000D02*
X194187500Y-46160000D01*
X195862500Y-46160000D02*
X196512500Y-46160000D01*
%TO.C,R9*%
X217312258Y-46122500D02*
X216837742Y-46122500D01*
X217312258Y-45077500D02*
X216837742Y-45077500D01*
%TO.C,R32*%
X200437742Y-44077500D02*
X200912258Y-44077500D01*
X200437742Y-45122500D02*
X200912258Y-45122500D01*
%TO.C,R10*%
X202612258Y-50022500D02*
X202137742Y-50022500D01*
X202612258Y-48977500D02*
X202137742Y-48977500D01*
%TO.C,R40*%
X214787742Y-55777500D02*
X215262258Y-55777500D01*
X214787742Y-56822500D02*
X215262258Y-56822500D01*
%TO.C,Q8*%
X230087500Y-46940000D02*
X229437500Y-46940000D01*
X230087500Y-46940000D02*
X230737500Y-46940000D01*
X230087500Y-50060000D02*
X228412500Y-50060000D01*
X230087500Y-50060000D02*
X230737500Y-50060000D01*
%TO.C,R26*%
X195522500Y-48987742D02*
X195522500Y-49462258D01*
X194477500Y-48987742D02*
X194477500Y-49462258D01*
%TO.C,U1*%
X167550000Y-49230000D02*
X167550000Y-54310000D01*
X129320000Y-49230000D02*
X167550000Y-49230000D01*
X124110000Y-49230000D02*
X126780000Y-49230000D01*
X164880000Y-51900000D02*
X164880000Y-49230000D01*
X129320000Y-51900000D02*
X129320000Y-49230000D01*
X129320000Y-51900000D02*
X164880000Y-51900000D01*
X129320000Y-51900000D02*
X126780000Y-51900000D01*
X126780000Y-51900000D02*
X126780000Y-49230000D01*
X170090000Y-54310000D02*
X159670000Y-54310000D01*
X159670000Y-54310000D02*
X159670000Y-62190000D01*
X170090000Y-62190000D02*
X170090000Y-54310000D01*
X159670000Y-62190000D02*
X170090000Y-62190000D01*
X164880000Y-64600000D02*
X164880000Y-67270000D01*
X126780000Y-64600000D02*
X164880000Y-64600000D01*
X126780000Y-64600000D02*
X126780000Y-67270000D01*
X167550000Y-67270000D02*
X167550000Y-62190000D01*
X167550000Y-67270000D02*
X124110000Y-67270000D01*
X124110000Y-67270000D02*
X124110000Y-49230000D01*
%TO.C,R35*%
X216937258Y-29322500D02*
X216462742Y-29322500D01*
X216937258Y-28277500D02*
X216462742Y-28277500D01*
%TO.C,Q13*%
X210662500Y-54740000D02*
X210012500Y-54740000D01*
X210662500Y-54740000D02*
X211312500Y-54740000D01*
X210662500Y-57860000D02*
X208987500Y-57860000D01*
X210662500Y-57860000D02*
X211312500Y-57860000D01*
%TO.C,Q14*%
X209240000Y-62237500D02*
X209240000Y-62887500D01*
X209240000Y-62237500D02*
X209240000Y-61587500D01*
X212360000Y-62237500D02*
X212360000Y-63912500D01*
X212360000Y-62237500D02*
X212360000Y-61587500D01*
%TO.C,Q17*%
X221162500Y-26290000D02*
X220512500Y-26290000D01*
X221162500Y-26290000D02*
X221812500Y-26290000D01*
X221162500Y-29410000D02*
X219487500Y-29410000D01*
X221162500Y-29410000D02*
X221812500Y-29410000D01*
%TO.C,Q21*%
X224862500Y-34540000D02*
X224212500Y-34540000D01*
X224862500Y-34540000D02*
X225512500Y-34540000D01*
X224862500Y-37660000D02*
X223187500Y-37660000D01*
X224862500Y-37660000D02*
X225512500Y-37660000D01*
%TO.C,R16*%
X209877500Y-48062258D02*
X209877500Y-47587742D01*
X210922500Y-48062258D02*
X210922500Y-47587742D01*
%TO.C,R31*%
X234362742Y-47977500D02*
X234837258Y-47977500D01*
X234362742Y-49022500D02*
X234837258Y-49022500D01*
%TO.C,R48*%
X215787742Y-60777500D02*
X216262258Y-60777500D01*
X215787742Y-61822500D02*
X216262258Y-61822500D01*
%TO.C,Q18*%
X206762500Y-47040000D02*
X206112500Y-47040000D01*
X206762500Y-47040000D02*
X207412500Y-47040000D01*
X206762500Y-50160000D02*
X205087500Y-50160000D01*
X206762500Y-50160000D02*
X207412500Y-50160000D01*
%TO.C,R47*%
X225277500Y-32362258D02*
X225277500Y-31887742D01*
X226322500Y-32362258D02*
X226322500Y-31887742D01*
%TO.C,R36*%
X207622500Y-57862742D02*
X207622500Y-58337258D01*
X206577500Y-57862742D02*
X206577500Y-58337258D01*
%TO.C,R15*%
X226137742Y-44077500D02*
X226612258Y-44077500D01*
X226137742Y-45122500D02*
X226612258Y-45122500D01*
%TO.C,R44*%
X211162258Y-67122500D02*
X210687742Y-67122500D01*
X211162258Y-66077500D02*
X210687742Y-66077500D01*
%TO.C,Q7*%
X221662500Y-43040000D02*
X221012500Y-43040000D01*
X221662500Y-43040000D02*
X222312500Y-43040000D01*
X221662500Y-46160000D02*
X219987500Y-46160000D01*
X221662500Y-46160000D02*
X222312500Y-46160000D01*
%TD*%
M02*
