M48
; DRILL file {KiCad (7.0.0)} date Tue Apr 25 18:42:41 2023
; FORMAT={-:-/ absolute / inch / decimal}
; #@! TF.CreationDate,2023-04-25T18:42:41+01:00
; #@! TF.GenerationSoftware,Kicad,Pcbnew,(7.0.0)
; #@! TF.FileFunction,Plated,1,2,PTH
FMAT,2
INCH
; #@! TA.AperFunction,Plated,PTH,ViaDrill
T1C0.0157
; #@! TA.AperFunction,Plated,PTH,ComponentDrill
T2C0.0256
; #@! TA.AperFunction,Plated,PTH,ComponentDrill
T3C0.0300
; #@! TA.AperFunction,Plated,PTH,ComponentDrill
T4C0.0394
; #@! TA.AperFunction,Plated,PTH,ComponentDrill
T5C0.0402
; #@! TA.AperFunction,Plated,PTH,ComponentDrill
T6C0.0472
; #@! TA.AperFunction,Plated,PTH,ComponentDrill
T7C0.0591
%
G90
G05
T1
X1.6913Y-2.5933
X1.8032Y-2.441
X1.8661Y-4.2953
X1.9134Y-4.6965
X1.9413Y-3.7433
X2.0866Y-2.1457
X2.1929Y-2.1457
X2.3799Y-4.7618
X2.6413Y-4.6933
X2.7008Y-2.2874
X2.7913Y-4.5433
X2.9724Y-4.1299
X3.1929Y-5.5827
X3.4016Y-5.9173
X3.4087Y-2.4606
X3.4409Y-4.563
X3.4685Y-2.4213
X3.5388Y-4.4606
X3.6378Y-4.4567
X3.6575Y-2.0276
X3.7598Y-2.6339
X3.8268Y-3.2756
X3.8937Y-4.1929
X3.9094Y-4.4449
X3.9134Y-4.7992
X3.9413Y-2.2433
X3.9449Y-4.8858
X3.9843Y-0.7598
X4.0157Y-4.1024
X4.0194Y-4.6617
X4.0413Y-2.2433
X4.0472Y-4.6902
X4.0768Y-4.1634
X4.2126Y-4.5709
X4.2402Y-2.4252
X4.248Y-2.3465
X4.2598Y-4.5748
X4.3937Y-5.3189
X4.4449Y-5.7165
X4.4882Y-3.126
X4.6299Y-4.6998
X4.6929Y-5.9173
X4.6988Y-4.4065
X4.7244Y-4.4409
X4.811Y-0.7559
X4.8701Y-5.9173
X4.9331Y-2.5551
X4.937Y-5.5079
X4.9409Y-4.815
X4.9409Y-5.2205
X5.4409Y-1.8632
X5.7402Y-5.7047
X5.7815Y-4.7264
X5.7913Y-4.874
X5.8386Y-5.5433
X5.878Y-4.7559
X5.8819Y-4.6969
X5.9882Y-1.8648
X6.0Y-1.7205
X6.0512Y-4.6654
X6.0591Y-4.7204
X6.1299Y-5.9173
X6.1588Y-1.0298
X6.1634Y-1.1083
X6.1634Y-1.0689
X6.1929Y-1.1929
X6.2008Y-5.8701
X6.5Y-4.7677
X6.5433Y-0.8071
X6.8189Y-2.378
X6.8189Y-5.7795
X6.8622Y-2.4016
X6.8937Y-4.875
X6.9567Y-4.7746
X6.9606Y-2.2953
X6.9606Y-4.5866
X7.0413Y-1.8209
X7.2244Y-4.1496
X7.3307Y-5.1299
X7.3425Y-4.0945
X7.4134Y-3.7008
X7.5709Y-2.9528
X7.6063Y-2.9331
X7.6063Y-3.4567
X7.6348Y-3.5315
X7.6378Y-4.4912
X7.6457Y-4.7402
X7.6929Y-2.9016
X7.6929Y-4.0551
X7.7165Y-4.7992
X7.7362Y-4.2795
X7.7874Y-5.6378
X7.8543Y-3.0472
X7.8622Y-2.6614
X7.8937Y-2.9961
X7.8937Y-4.685
X7.9921Y-1.7559
X8.0197Y-4.4921
X8.0423Y-4.4212
X8.0728Y-5.1319
X8.0787Y-4.3465
X8.0945Y-4.5276
X8.1378Y-5.8307
X8.2402Y-4.4213
X8.2835Y-1.8031
X8.2835Y-2.9961
X8.3189Y-4.4606
X8.3898Y-5.0787
X8.5827Y-2.2165
X8.5906Y-2.4134
X8.7953Y-1.2323
X8.811Y-1.0354
X9.0118Y-1.7559
X9.0709Y-3.1102
X9.1142Y-4.3465
X9.2165Y-4.8465
X9.2677Y-1.8268
X9.311Y-4.5945
T2
X5.6181Y-0.8228
X5.6681Y-0.8228
X5.7181Y-0.8228
X5.7681Y-0.8228
X5.8181Y-0.8228
X5.8681Y-0.8228
X5.9181Y-0.8228
X5.9681Y-0.8228
X6.0181Y-0.8228
X6.0681Y-0.8228
T3
X1.4423Y-4.9965
X1.4423Y-5.3902
X1.5634Y-5.4197
X1.5634Y-5.5969
X1.5929Y-4.8496
X1.6913Y-4.8496
X1.7898Y-4.8496
X1.8193Y-5.4197
X1.8193Y-5.5969
X1.9404Y-4.9965
X1.9404Y-5.3902
X2.035Y-5.0949
X2.035Y-5.1933
X2.035Y-5.2917
X9.3486Y-4.898
X9.3486Y-5.2917
X9.4697Y-5.3213
X9.4697Y-5.4984
X9.4992Y-4.7512
X9.5591Y-2.3543
X9.5976Y-4.7512
X9.6961Y-4.7512
X9.7256Y-5.3213
X9.7256Y-5.4984
X9.7559Y-2.3543
X9.8467Y-4.898
X9.8467Y-5.2917
X9.9413Y-4.9965
X9.9413Y-5.0949
X9.9413Y-5.1933
T4
X4.6299Y-3.1134
X4.7299Y-3.1134
X4.8299Y-3.1134
X4.9299Y-3.1134
X5.0299Y-3.1134
X5.0413Y-1.9933
X5.0413Y-2.5933
X5.1299Y-3.1134
X5.1413Y-1.9933
X5.1413Y-2.5933
X5.226Y-3.1134
X5.2413Y-1.9933
X5.2413Y-2.5933
X5.3299Y-3.1134
X5.3413Y-1.9933
X5.3413Y-2.5933
X5.4299Y-3.1134
X5.4413Y-1.9933
X5.4413Y-2.5933
X5.5299Y-3.1134
X5.5413Y-1.9933
X5.5413Y-2.5933
X5.6299Y-3.1134
X5.6413Y-1.9933
X5.6413Y-2.5933
X5.7299Y-3.1134
X5.7413Y-1.9933
X5.7413Y-2.5933
X5.8299Y-3.1134
X5.8413Y-1.9933
X5.8413Y-2.5933
X5.9299Y-3.1134
X5.9413Y-1.9933
X5.9413Y-2.5933
X6.0299Y-3.1134
X6.0413Y-1.9933
X6.0413Y-2.5933
X6.1299Y-3.1134
X6.1413Y-1.9933
X6.1413Y-2.5933
X6.1823Y-0.9567
X6.2413Y-1.9933
X6.2413Y-2.5933
X6.2823Y-0.9567
X6.3413Y-1.9933
X6.3413Y-2.5933
X6.4413Y-1.9933
X6.4413Y-2.5933
T5
X4.5417Y-2.7433
X4.5417Y-2.8433
X4.5417Y-4.5433
X4.5417Y-4.6433
X4.6417Y-2.7433
X4.6417Y-2.8433
X4.6417Y-4.5433
X4.6417Y-4.6433
X4.7417Y-2.7433
X4.7417Y-2.8433
X4.7417Y-4.5433
X4.7417Y-4.6433
X4.8417Y-2.7433
X4.8417Y-2.8433
X4.8417Y-4.5433
X4.8417Y-4.6433
X4.9417Y-2.7433
X4.9417Y-2.8433
X4.9417Y-4.5433
X4.9417Y-4.6433
X5.0417Y-2.7433
X5.0417Y-2.8433
X5.0417Y-4.5433
X5.0417Y-4.6433
X5.1417Y-2.7433
X5.1417Y-2.8433
X5.1417Y-4.5433
X5.1417Y-4.6433
X5.2417Y-2.7433
X5.2417Y-2.8433
X5.2417Y-4.5433
X5.2417Y-4.6433
X5.3417Y-2.7433
X5.3417Y-2.8433
X5.3417Y-4.5433
X5.3417Y-4.6433
X5.4417Y-2.7433
X5.4417Y-2.8433
X5.4417Y-4.5433
X5.4417Y-4.6433
X5.5417Y-2.7433
X5.5417Y-2.8433
X5.5417Y-4.5433
X5.5417Y-4.6433
X5.6417Y-2.7433
X5.6417Y-2.8433
X5.6417Y-4.5433
X5.6417Y-4.6433
X5.7417Y-2.7433
X5.7417Y-2.8433
X5.7417Y-4.5433
X5.7417Y-4.6433
X5.8417Y-2.7433
X5.8417Y-2.8433
X5.8417Y-4.5433
X5.8417Y-4.6433
X5.9417Y-2.7433
X5.9417Y-2.8433
X5.9417Y-4.5433
X5.9417Y-4.6433
X6.0417Y-2.7433
X6.0417Y-2.8433
X6.1417Y-2.7433
X6.1417Y-2.8433
X6.1417Y-4.5433
X6.1417Y-4.6433
X6.2417Y-4.5433
X6.2417Y-4.6433
X6.3017Y-2.7433
X6.3017Y-2.8433
X6.3417Y-4.5433
X6.3417Y-4.6433
X6.4017Y-2.7433
X6.4017Y-2.8433
X6.4417Y-4.5433
X6.4417Y-4.6433
X6.5017Y-2.7433
X6.5017Y-2.8433
X6.5417Y-4.5433
X6.5417Y-4.6433
X6.6017Y-2.7433
X6.6017Y-2.8433
X6.6417Y-4.5433
X6.6417Y-4.6433
X6.7017Y-2.7433
X6.7017Y-2.8433
X6.7417Y-4.5433
X6.7417Y-4.6433
X6.8017Y-2.7433
X6.8017Y-2.8433
X6.8417Y-4.5433
X6.8417Y-4.6433
X6.9017Y-2.7433
X6.9017Y-2.8433
X7.0017Y-2.7433
X7.0017Y-2.8433
X7.1017Y-2.7433
X7.1017Y-2.8433
X7.2017Y-2.7433
X7.2017Y-2.8433
T6
G00X5.6642Y-1.2236
M15
G01X5.6642Y-1.263
M16
G05
G00X5.8413Y-1.2236
M15
G01X5.8413Y-1.263
M16
G05
G00X6.0185Y-1.2236
M15
G01X6.0185Y-1.263
M16
G05
T7
G00X2.7709Y-5.3583
M15
G01X2.7118Y-5.3583
M16
G05
G00X2.7709Y-5.5433
M15
G01X2.7118Y-5.5433
M16
G05
G00X2.7709Y-5.7283
M15
G01X2.7118Y-5.7283
M16
G05
G00X3.8209Y-5.3583
M15
G01X3.7618Y-5.3583
M16
G05
G00X3.8209Y-5.5433
M15
G01X3.7618Y-5.5433
M16
G05
G00X3.8209Y-5.7283
M15
G01X3.7618Y-5.7283
M16
G05
G00X4.1209Y-1.2732
M15
G01X4.0618Y-1.2732
M16
G05
G00X4.1209Y-1.4583
M15
G01X4.0618Y-1.4583
M16
G05
G00X4.1209Y-1.6433
M15
G01X4.0618Y-1.6433
M16
G05
G00X5.1709Y-5.3433
M15
G01X5.1118Y-5.3433
M16
G05
G00X5.1709Y-5.5283
M15
G01X5.1118Y-5.5283
M16
G05
G00X5.1709Y-5.7134
M15
G01X5.1118Y-5.7134
M16
G05
G00X6.4209Y-5.3433
M15
G01X6.3618Y-5.3433
M16
G05
G00X6.4209Y-5.5283
M15
G01X6.3618Y-5.5283
M16
G05
G00X6.4209Y-5.7134
M15
G01X6.3618Y-5.7134
M16
G05
G00X7.5098Y-2.1457
M15
G01X7.4508Y-2.1457
M16
G05
G00X7.5098Y-2.3307
M15
G01X7.4508Y-2.3307
M16
G05
G00X7.5098Y-2.5157
M15
G01X7.4508Y-2.5157
M16
G05
G00X7.5709Y-5.3433
M15
G01X7.5118Y-5.3433
M16
G05
G00X7.5709Y-5.5283
M15
G01X7.5118Y-5.5283
M16
G05
G00X7.5709Y-5.7134
M15
G01X7.5118Y-5.7134
M16
G05
G00X8.6209Y-5.3083
M15
G01X8.5618Y-5.3083
M16
G05
G00X8.6209Y-5.4933
M15
G01X8.5618Y-5.4933
M16
G05
G00X8.6209Y-5.6783
M15
G01X8.5618Y-5.6783
M16
G05
G00X9.6142Y-3.1673
M15
G01X9.6142Y-3.2264
M16
G05
G00X9.7992Y-3.1673
M15
G01X9.7992Y-3.2264
M16
G05
G00X9.9843Y-3.1673
M15
G01X9.9843Y-3.2264
M16
G05
T0
M30
