%TF.GenerationSoftware,KiCad,Pcbnew,(7.0.0)*%
%TF.CreationDate,2023-04-25T18:42:43+01:00*%
%TF.ProjectId,controller,636f6e74-726f-46c6-9c65-722e6b696361,V1.2*%
%TF.SameCoordinates,Original*%
%TF.FileFunction,Soldermask,Top*%
%TF.FilePolarity,Negative*%
%FSLAX46Y46*%
G04 Gerber Fmt 4.6, Leading zero omitted, Abs format (unit mm)*
G04 Created by KiCad (PCBNEW (7.0.0)) date 2023-04-25 18:42:43*
%MOMM*%
%LPD*%
G01*
G04 APERTURE LIST*
G04 Aperture macros list*
%AMRoundRect*
0 Rectangle with rounded corners*
0 $1 Rounding radius*
0 $2 $3 $4 $5 $6 $7 $8 $9 X,Y pos of 4 corners*
0 Add a 4 corners polygon primitive as box body*
4,1,4,$2,$3,$4,$5,$6,$7,$8,$9,$2,$3,0*
0 Add four circle primitives for the rounded corners*
1,1,$1+$1,$2,$3*
1,1,$1+$1,$4,$5*
1,1,$1+$1,$6,$7*
1,1,$1+$1,$8,$9*
0 Add four rect primitives between the rounded corners*
20,1,$1+$1,$2,$3,$4,$5,0*
20,1,$1+$1,$4,$5,$6,$7,0*
20,1,$1+$1,$6,$7,$8,$9,0*
20,1,$1+$1,$8,$9,$2,$3,0*%
%AMFreePoly0*
4,1,19,0.550000,-0.750000,0.000000,-0.750000,0.000000,-0.744911,-0.071157,-0.744911,-0.207708,-0.704816,-0.327430,-0.627875,-0.420627,-0.520320,-0.479746,-0.390866,-0.500000,-0.250000,-0.500000,0.250000,-0.479746,0.390866,-0.420627,0.520320,-0.327430,0.627875,-0.207708,0.704816,-0.071157,0.744911,0.000000,0.744911,0.000000,0.750000,0.550000,0.750000,0.550000,-0.750000,0.550000,-0.750000,
$1*%
%AMFreePoly1*
4,1,19,0.000000,0.744911,0.071157,0.744911,0.207708,0.704816,0.327430,0.627875,0.420627,0.520320,0.479746,0.390866,0.500000,0.250000,0.500000,-0.250000,0.479746,-0.390866,0.420627,-0.520320,0.327430,-0.627875,0.207708,-0.704816,0.071157,-0.744911,0.000000,-0.744911,0.000000,-0.750000,-0.550000,-0.750000,-0.550000,0.750000,0.000000,0.750000,0.000000,0.744911,0.000000,0.744911,
$1*%
%AMFreePoly2*
4,1,19,0.500000,-0.750000,0.000000,-0.750000,0.000000,-0.744911,-0.071157,-0.744911,-0.207708,-0.704816,-0.327430,-0.627875,-0.420627,-0.520320,-0.479746,-0.390866,-0.500000,-0.250000,-0.500000,0.250000,-0.479746,0.390866,-0.420627,0.520320,-0.327430,0.627875,-0.207708,0.704816,-0.071157,0.744911,0.000000,0.744911,0.000000,0.750000,0.500000,0.750000,0.500000,-0.750000,0.500000,-0.750000,
$1*%
%AMFreePoly3*
4,1,19,0.000000,0.744911,0.071157,0.744911,0.207708,0.704816,0.327430,0.627875,0.420627,0.520320,0.479746,0.390866,0.500000,0.250000,0.500000,-0.250000,0.479746,-0.390866,0.420627,-0.520320,0.327430,-0.627875,0.207708,-0.704816,0.071157,-0.744911,0.000000,-0.744911,0.000000,-0.750000,-0.500000,-0.750000,-0.500000,0.750000,0.000000,0.750000,0.000000,0.744911,0.000000,0.744911,
$1*%
G04 Aperture macros list end*
%ADD10RoundRect,0.250000X-1.500000X0.250000X-1.500000X-0.250000X1.500000X-0.250000X1.500000X0.250000X0*%
%ADD11RoundRect,0.250001X-1.449999X0.499999X-1.449999X-0.499999X1.449999X-0.499999X1.449999X0.499999X0*%
%ADD12C,1.524000*%
%ADD13RoundRect,0.200000X0.200000X0.275000X-0.200000X0.275000X-0.200000X-0.275000X0.200000X-0.275000X0*%
%ADD14FreePoly0,270.000000*%
%ADD15R,1.500000X1.000000*%
%ADD16FreePoly1,270.000000*%
%ADD17FreePoly0,0.000000*%
%ADD18R,1.000000X1.500000*%
%ADD19FreePoly1,0.000000*%
%ADD20RoundRect,0.200000X-0.275000X0.200000X-0.275000X-0.200000X0.275000X-0.200000X0.275000X0.200000X0*%
%ADD21FreePoly0,90.000000*%
%ADD22FreePoly1,90.000000*%
%ADD23R,1.550000X1.300000*%
%ADD24RoundRect,0.218750X0.218750X0.256250X-0.218750X0.256250X-0.218750X-0.256250X0.218750X-0.256250X0*%
%ADD25RoundRect,0.225000X-0.250000X0.225000X-0.250000X-0.225000X0.250000X-0.225000X0.250000X0.225000X0*%
%ADD26FreePoly2,270.000000*%
%ADD27FreePoly3,270.000000*%
%ADD28RoundRect,0.150000X0.150000X-0.587500X0.150000X0.587500X-0.150000X0.587500X-0.150000X-0.587500X0*%
%ADD29RoundRect,0.200000X0.275000X-0.200000X0.275000X0.200000X-0.275000X0.200000X-0.275000X-0.200000X0*%
%ADD30RoundRect,0.200000X-0.200000X-0.275000X0.200000X-0.275000X0.200000X0.275000X-0.200000X0.275000X0*%
%ADD31RoundRect,0.218750X0.256250X-0.218750X0.256250X0.218750X-0.256250X0.218750X-0.256250X-0.218750X0*%
%ADD32RoundRect,0.625000X-1.375000X0.625000X-1.375000X-0.625000X1.375000X-0.625000X1.375000X0.625000X0*%
%ADD33RoundRect,0.250000X1.000000X0.650000X-1.000000X0.650000X-1.000000X-0.650000X1.000000X-0.650000X0*%
%ADD34RoundRect,0.225000X0.225000X0.250000X-0.225000X0.250000X-0.225000X-0.250000X0.225000X-0.250000X0*%
%ADD35RoundRect,0.250000X-0.650000X1.000000X-0.650000X-1.000000X0.650000X-1.000000X0.650000X1.000000X0*%
%ADD36RoundRect,0.250000X-1.000000X-0.650000X1.000000X-0.650000X1.000000X0.650000X-1.000000X0.650000X0*%
%ADD37RoundRect,0.218750X-0.218750X-0.256250X0.218750X-0.256250X0.218750X0.256250X-0.218750X0.256250X0*%
%ADD38RoundRect,0.225000X0.250000X-0.225000X0.250000X0.225000X-0.250000X0.225000X-0.250000X-0.225000X0*%
%ADD39RoundRect,0.150000X0.587500X0.150000X-0.587500X0.150000X-0.587500X-0.150000X0.587500X-0.150000X0*%
%ADD40RoundRect,0.500000X-0.500000X-1.000000X0.500000X-1.000000X0.500000X1.000000X-0.500000X1.000000X0*%
%ADD41RoundRect,0.625000X-0.625000X-1.375000X0.625000X-1.375000X0.625000X1.375000X-0.625000X1.375000X0*%
%ADD42RoundRect,0.150000X0.150000X-0.825000X0.150000X0.825000X-0.150000X0.825000X-0.150000X-0.825000X0*%
%ADD43RoundRect,0.225000X-0.225000X-0.250000X0.225000X-0.250000X0.225000X0.250000X-0.225000X0.250000X0*%
%ADD44FreePoly0,180.000000*%
%ADD45FreePoly1,180.000000*%
%ADD46RoundRect,0.300000X-0.300000X0.300000X-0.300000X-0.300000X0.300000X-0.300000X0.300000X0.300000X0*%
%ADD47RoundRect,0.375000X-0.375000X0.425000X-0.375000X-0.425000X0.375000X-0.425000X0.375000X0.425000X0*%
%ADD48R,1.000000X1.000000*%
%ADD49O,1.000000X1.000000*%
%ADD50RoundRect,0.150000X-0.587500X-0.150000X0.587500X-0.150000X0.587500X0.150000X-0.587500X0.150000X0*%
%ADD51R,2.000000X1.500000*%
%ADD52R,2.000000X3.800000*%
%ADD53RoundRect,0.100000X1.400000X0.700000X-1.400000X0.700000X-1.400000X-0.700000X1.400000X-0.700000X0*%
%ADD54RoundRect,0.100000X3.250000X3.250000X-3.250000X3.250000X-3.250000X-3.250000X3.250000X-3.250000X0*%
%ADD55RoundRect,0.218750X-0.256250X0.218750X-0.256250X-0.218750X0.256250X-0.218750X0.256250X0.218750X0*%
%ADD56C,5.000000*%
%ADD57C,1.800000*%
%ADD58C,1.600000*%
%ADD59C,3.200000*%
%ADD60C,1.530000*%
%ADD61R,1.530000X1.530000*%
%ADD62R,1.600000X1.600000*%
%ADD63O,1.600000X1.600000*%
G04 APERTURE END LIST*
D10*
%TO.C,J2*%
X218350000Y-90200000D03*
X218350000Y-92200000D03*
X218350000Y-94200000D03*
X218350000Y-96200000D03*
D11*
X212600000Y-98550000D03*
X212600000Y-87850000D03*
%TD*%
D12*
%TO.C,BZ1*%
X242800000Y-59800000D03*
X247800000Y-59800000D03*
%TD*%
D13*
%TO.C,R23*%
X230400000Y-141300000D03*
X228750000Y-141300000D03*
%TD*%
D14*
%TO.C,JP17*%
X88680000Y-49330000D03*
D15*
X88679999Y-50629999D03*
D16*
X88680000Y-51930000D03*
%TD*%
D17*
%TO.C,JP3*%
X200400000Y-69800000D03*
D18*
X201699999Y-69799999D03*
D19*
X203000000Y-69800000D03*
%TD*%
D20*
%TO.C,R12*%
X139500000Y-131200000D03*
X139500000Y-132850000D03*
%TD*%
D21*
%TO.C,JP5*%
X123100000Y-127400000D03*
D15*
X123099999Y-126099999D03*
D22*
X123100000Y-124800000D03*
%TD*%
D23*
%TO.C,RESET1*%
X174709999Y-23959999D03*
X182659999Y-23959999D03*
X174709999Y-28459999D03*
X182659999Y-28459999D03*
%TD*%
D24*
%TO.C,D1*%
X168055000Y-131785000D03*
X166480000Y-131785000D03*
%TD*%
D25*
%TO.C,C7*%
X98065000Y-42120000D03*
X98065000Y-43670000D03*
%TD*%
D26*
%TO.C,JP20*%
X153550000Y-23650000D03*
D27*
X153550000Y-24950000D03*
%TD*%
D28*
%TO.C,Q5*%
X78350000Y-139637500D03*
X80250000Y-139637500D03*
X79300000Y-137762500D03*
%TD*%
D29*
%TO.C,R28*%
X141073000Y-149436000D03*
X141073000Y-147786000D03*
%TD*%
D30*
%TO.C,R68*%
X94350000Y-149690000D03*
X96000000Y-149690000D03*
%TD*%
D31*
%TO.C,D43*%
X231700000Y-67975000D03*
X231700000Y-66400000D03*
%TD*%
D12*
%TO.C,U7*%
X237455000Y-124410000D03*
X237455000Y-134410000D03*
X250105000Y-124410000D03*
X250105000Y-134410000D03*
X240530000Y-135160000D03*
X247030000Y-135160000D03*
X240530000Y-139660000D03*
X247030000Y-139660000D03*
X241280000Y-120680000D03*
X243780000Y-120680000D03*
X246280000Y-120680000D03*
X252510000Y-126910000D03*
X252510000Y-129410000D03*
X252510000Y-131910000D03*
%TD*%
D20*
%TO.C,R55*%
X135300000Y-127800000D03*
X135300000Y-129450000D03*
%TD*%
D31*
%TO.C,D42*%
X121700000Y-34425000D03*
X121700000Y-32850000D03*
%TD*%
D32*
%TO.C,SW2*%
X218220000Y-134830000D03*
X218220000Y-139530000D03*
X218220000Y-144230000D03*
%TD*%
D33*
%TO.C,D40*%
X46230000Y-97620000D03*
X42230000Y-97620000D03*
%TD*%
D34*
%TO.C,C26*%
X174050000Y-40470000D03*
X172500000Y-40470000D03*
%TD*%
D13*
%TO.C,R61*%
X200600000Y-60000000D03*
X198950000Y-60000000D03*
%TD*%
D35*
%TO.C,D45*%
X158530000Y-33390000D03*
X158530000Y-37390000D03*
%TD*%
D24*
%TO.C,D18*%
X102650000Y-133180000D03*
X101075000Y-133180000D03*
%TD*%
D36*
%TO.C,D29*%
X101190000Y-53550000D03*
X105190000Y-53550000D03*
%TD*%
D37*
%TO.C,D13*%
X223025000Y-131800000D03*
X224600000Y-131800000D03*
%TD*%
D13*
%TO.C,R11*%
X200600000Y-51800000D03*
X198950000Y-51800000D03*
%TD*%
D34*
%TO.C,C27*%
X126780000Y-39200000D03*
X125230000Y-39200000D03*
%TD*%
D24*
%TO.C,D23*%
X221187500Y-31300000D03*
X219612500Y-31300000D03*
%TD*%
D20*
%TO.C,R57*%
X98300000Y-128900000D03*
X98300000Y-130550000D03*
%TD*%
D24*
%TO.C,D21*%
X197900000Y-132800000D03*
X196325000Y-132800000D03*
%TD*%
%TO.C,D19*%
X221187500Y-26300000D03*
X219612500Y-26300000D03*
%TD*%
D38*
%TO.C,C9*%
X124700000Y-131075000D03*
X124700000Y-129525000D03*
%TD*%
D28*
%TO.C,Q24*%
X215050000Y-82875000D03*
X216950000Y-82875000D03*
X216000000Y-81000000D03*
%TD*%
D39*
%TO.C,Q31*%
X231700000Y-76200000D03*
X231700000Y-74300000D03*
X229825000Y-75250000D03*
%TD*%
D24*
%TO.C,D22*%
X102650000Y-148420000D03*
X101075000Y-148420000D03*
%TD*%
D29*
%TO.C,R88*%
X231700000Y-71850000D03*
X231700000Y-70200000D03*
%TD*%
D39*
%TO.C,Q20*%
X107730000Y-154770000D03*
X107730000Y-152870000D03*
X105855000Y-153820000D03*
%TD*%
D37*
%TO.C,D24*%
X219625000Y-61300000D03*
X221200000Y-61300000D03*
%TD*%
D31*
%TO.C,D41*%
X166150000Y-35747500D03*
X166150000Y-34172500D03*
%TD*%
D32*
%TO.C,LIGHTS1*%
X191550000Y-135720000D03*
X191550000Y-140420000D03*
X191550000Y-145120000D03*
%TD*%
D30*
%TO.C,R24*%
X136450000Y-28800000D03*
X138100000Y-28800000D03*
%TD*%
D24*
%TO.C,D3*%
X196600000Y-51800000D03*
X195025000Y-51800000D03*
%TD*%
D36*
%TO.C,D31*%
X127700000Y-127400000D03*
X131700000Y-127400000D03*
%TD*%
D39*
%TO.C,Q19*%
X201600000Y-141400000D03*
X201600000Y-139500000D03*
X199725000Y-140450000D03*
%TD*%
D13*
%TO.C,R86*%
X122970000Y-38412500D03*
X121320000Y-38412500D03*
%TD*%
%TO.C,R79*%
X63725000Y-55700000D03*
X62075000Y-55700000D03*
%TD*%
D30*
%TO.C,R1*%
X174750000Y-127700000D03*
X176400000Y-127700000D03*
%TD*%
D13*
%TO.C,R89*%
X170400000Y-20500000D03*
X168750000Y-20500000D03*
%TD*%
%TO.C,R74*%
X36610000Y-97620000D03*
X34960000Y-97620000D03*
%TD*%
D25*
%TO.C,C15*%
X68700000Y-49025000D03*
X68700000Y-50575000D03*
%TD*%
D40*
%TO.C,PWR_SW1*%
X143870000Y-31580000D03*
X148370000Y-31580000D03*
X152870000Y-31580000D03*
%TD*%
D13*
%TO.C,R41*%
X201600000Y-144900000D03*
X199950000Y-144900000D03*
%TD*%
D30*
%TO.C,R80*%
X66750000Y-103400000D03*
X68400000Y-103400000D03*
%TD*%
D29*
%TO.C,R14*%
X163000000Y-22750000D03*
X163000000Y-21100000D03*
%TD*%
D24*
%TO.C,D11*%
X110270000Y-29420000D03*
X108695000Y-29420000D03*
%TD*%
D30*
%TO.C,R51*%
X198950000Y-57300000D03*
X200600000Y-57300000D03*
%TD*%
D36*
%TO.C,D10*%
X215700000Y-126100000D03*
X219700000Y-126100000D03*
%TD*%
D41*
%TO.C,BUZZER_ON/OFF1*%
X244200000Y-81200000D03*
X248900000Y-81200000D03*
X253600000Y-81200000D03*
%TD*%
D29*
%TO.C,R45*%
X199700000Y-137200000D03*
X199700000Y-135550000D03*
%TD*%
D31*
%TO.C,D14*%
X137200000Y-21675000D03*
X137200000Y-20100000D03*
%TD*%
D36*
%TO.C,D34*%
X93570000Y-156040000D03*
X97570000Y-156040000D03*
%TD*%
D30*
%TO.C,R72*%
X87030000Y-68410000D03*
X88680000Y-68410000D03*
%TD*%
D31*
%TO.C,D15*%
X235400000Y-44587500D03*
X235400000Y-43012500D03*
%TD*%
D30*
%TO.C,R94*%
X234150000Y-80500000D03*
X235800000Y-80500000D03*
%TD*%
D31*
%TO.C,D16*%
X205400000Y-44587500D03*
X205400000Y-43012500D03*
%TD*%
D13*
%TO.C,R83*%
X82330000Y-46820000D03*
X80680000Y-46820000D03*
%TD*%
D20*
%TO.C,R49*%
X166300000Y-126400000D03*
X166300000Y-128050000D03*
%TD*%
D14*
%TO.C,JP11*%
X96300000Y-48470000D03*
D15*
X96299999Y-49769999D03*
D16*
X96300000Y-51070000D03*
%TD*%
D42*
%TO.C,U4*%
X88615000Y-111525000D03*
X89885000Y-111525000D03*
X91155000Y-111525000D03*
X92425000Y-111525000D03*
X93695000Y-111525000D03*
X94965000Y-111525000D03*
X96235000Y-111525000D03*
X96235000Y-106575000D03*
X94965000Y-106575000D03*
X93695000Y-106575000D03*
X92425000Y-106575000D03*
X91155000Y-106575000D03*
X89885000Y-106575000D03*
X88615000Y-106575000D03*
%TD*%
D30*
%TO.C,R65*%
X128775000Y-131800000D03*
X130425000Y-131800000D03*
%TD*%
D43*
%TO.C,C3*%
X153170000Y-133690000D03*
X154720000Y-133690000D03*
%TD*%
D29*
%TO.C,R77*%
X257590000Y-128180000D03*
X257590000Y-126530000D03*
%TD*%
D39*
%TO.C,Q9*%
X115350000Y-24340000D03*
X115350000Y-22440000D03*
X113475000Y-23390000D03*
%TD*%
D44*
%TO.C,JP13*%
X69800000Y-55710000D03*
D18*
X68499999Y-55709999D03*
D45*
X67200000Y-55710000D03*
%TD*%
D30*
%TO.C,R60*%
X159420000Y-150200000D03*
X161070000Y-150200000D03*
%TD*%
D39*
%TO.C,Q2*%
X173135000Y-155915000D03*
X173135000Y-154015000D03*
X171260000Y-154965000D03*
%TD*%
D13*
%TO.C,R71*%
X37880000Y-78570000D03*
X36230000Y-78570000D03*
%TD*%
D43*
%TO.C,C18*%
X88400000Y-83650000D03*
X89950000Y-83650000D03*
%TD*%
D30*
%TO.C,R67*%
X93380000Y-131910000D03*
X95030000Y-131910000D03*
%TD*%
D25*
%TO.C,C29*%
X190500000Y-45125000D03*
X190500000Y-46675000D03*
%TD*%
D39*
%TO.C,Q16*%
X107730000Y-128100000D03*
X107730000Y-126200000D03*
X105855000Y-127150000D03*
%TD*%
D29*
%TO.C,R3*%
X175000000Y-150960000D03*
X175000000Y-149310000D03*
%TD*%
D33*
%TO.C,D38*%
X91220000Y-73490000D03*
X87220000Y-73490000D03*
%TD*%
D21*
%TO.C,JP8*%
X183930000Y-130320000D03*
D15*
X183929999Y-129019999D03*
D22*
X183930000Y-127720000D03*
%TD*%
D20*
%TO.C,R2*%
X171865000Y-129245000D03*
X171865000Y-130895000D03*
%TD*%
D14*
%TO.C,JP1*%
X153450000Y-126070000D03*
D15*
X153449999Y-127369999D03*
D16*
X153450000Y-128670000D03*
%TD*%
D31*
%TO.C,D8*%
X210400000Y-44587500D03*
X210400000Y-43012500D03*
%TD*%
D21*
%TO.C,JP7*%
X96300000Y-24370000D03*
D15*
X96299999Y-23069999D03*
D22*
X96300000Y-21770000D03*
%TD*%
D29*
%TO.C,R22*%
X145830000Y-149690000D03*
X145830000Y-148040000D03*
%TD*%
D24*
%TO.C,D12*%
X136818000Y-148166000D03*
X135243000Y-148166000D03*
%TD*%
D39*
%TO.C,Q6*%
X164900000Y-26500000D03*
X164900000Y-24600000D03*
X163025000Y-25550000D03*
%TD*%
D36*
%TO.C,D36*%
X65630000Y-98890000D03*
X69630000Y-98890000D03*
%TD*%
D29*
%TO.C,R29*%
X224700000Y-136350000D03*
X224700000Y-134700000D03*
%TD*%
D38*
%TO.C,C6*%
X97570000Y-30970000D03*
X97570000Y-29420000D03*
%TD*%
D39*
%TO.C,Q11*%
X230400000Y-137300000D03*
X230400000Y-135400000D03*
X228525000Y-136350000D03*
%TD*%
D13*
%TO.C,R69*%
X58900000Y-54440000D03*
X57250000Y-54440000D03*
%TD*%
D46*
%TO.C,RV1*%
X99580000Y-88600000D03*
D47*
X102830000Y-90000000D03*
D46*
X99580000Y-91400000D03*
%TD*%
D30*
%TO.C,R81*%
X37500000Y-74760000D03*
X39150000Y-74760000D03*
%TD*%
D24*
%TO.C,D2*%
X168055000Y-148295000D03*
X166480000Y-148295000D03*
%TD*%
D31*
%TO.C,D6*%
X159800000Y-21587500D03*
X159800000Y-20012500D03*
%TD*%
D38*
%TO.C,C23*%
X257590000Y-132765000D03*
X257590000Y-131215000D03*
%TD*%
D48*
%TO.C,J1*%
X142699999Y-20899999D03*
D49*
X143969999Y-20899999D03*
X145239999Y-20899999D03*
X146509999Y-20899999D03*
X147779999Y-20899999D03*
X149049999Y-20899999D03*
X150319999Y-20899999D03*
X151589999Y-20899999D03*
X152859999Y-20899999D03*
X154129999Y-20899999D03*
%TD*%
D30*
%TO.C,R59*%
X159420000Y-131150000D03*
X161070000Y-131150000D03*
%TD*%
D33*
%TO.C,D27*%
X201700000Y-64100000D03*
X197700000Y-64100000D03*
%TD*%
D43*
%TO.C,C22*%
X38845000Y-119210000D03*
X40395000Y-119210000D03*
%TD*%
D38*
%TO.C,C20*%
X51850000Y-100440000D03*
X51850000Y-98890000D03*
%TD*%
D37*
%TO.C,D20*%
X219612500Y-56300000D03*
X221187500Y-56300000D03*
%TD*%
D29*
%TO.C,R96*%
X119160000Y-85300000D03*
X119160000Y-83650000D03*
%TD*%
%TO.C,R75*%
X55635000Y-129830000D03*
X55635000Y-128180000D03*
%TD*%
D50*
%TO.C,Q23*%
X234125000Y-84150000D03*
X234125000Y-86050000D03*
X236000000Y-85100000D03*
%TD*%
D36*
%TO.C,D37*%
X36420000Y-69680000D03*
X40420000Y-69680000D03*
%TD*%
D38*
%TO.C,C14*%
X181390000Y-46820000D03*
X181390000Y-45270000D03*
%TD*%
D25*
%TO.C,C12*%
X89950000Y-145880000D03*
X89950000Y-147430000D03*
%TD*%
D20*
%TO.C,R58*%
X99600000Y-151575000D03*
X99600000Y-153225000D03*
%TD*%
D51*
%TO.C,U10*%
X131249999Y-33089999D03*
X131249999Y-35389999D03*
X131249999Y-37689999D03*
D52*
X137549999Y-35389999D03*
%TD*%
D36*
%TO.C,D30*%
X188820000Y-125180000D03*
X192820000Y-125180000D03*
%TD*%
D30*
%TO.C,R63*%
X102270000Y-47200000D03*
X103920000Y-47200000D03*
%TD*%
D33*
%TO.C,D35*%
X65100000Y-51100000D03*
X61100000Y-51100000D03*
%TD*%
D30*
%TO.C,R64*%
X189900000Y-131530000D03*
X191550000Y-131530000D03*
%TD*%
D32*
%TO.C,REV_BRAKE1*%
X130590000Y-135720000D03*
X130590000Y-140420000D03*
X130590000Y-145120000D03*
%TD*%
D25*
%TO.C,C10*%
X122848000Y-145626000D03*
X122848000Y-147176000D03*
%TD*%
D13*
%TO.C,R82*%
X89950000Y-78560000D03*
X88300000Y-78560000D03*
%TD*%
D24*
%TO.C,D17*%
X110270000Y-44660000D03*
X108695000Y-44660000D03*
%TD*%
D32*
%TO.C,KILL_SWITCH1*%
X190000000Y-54500000D03*
X190000000Y-59200000D03*
X190000000Y-63900000D03*
%TD*%
D30*
%TO.C,R70*%
X71175000Y-93700000D03*
X72825000Y-93700000D03*
%TD*%
%TO.C,R20*%
X216675000Y-131500000D03*
X218325000Y-131500000D03*
%TD*%
D29*
%TO.C,R52*%
X109445000Y-23895000D03*
X109445000Y-22245000D03*
%TD*%
D21*
%TO.C,JP6*%
X89500000Y-154800000D03*
D15*
X89499999Y-153499999D03*
D22*
X89500000Y-152200000D03*
%TD*%
D43*
%TO.C,C31*%
X126005000Y-34120000D03*
X127555000Y-34120000D03*
%TD*%
D29*
%TO.C,R42*%
X111540000Y-152610000D03*
X111540000Y-150960000D03*
%TD*%
D23*
%TO.C,D_BACK1*%
X38819999Y-87459999D03*
X46769999Y-87459999D03*
X38819999Y-91959999D03*
X46769999Y-91959999D03*
%TD*%
D31*
%TO.C,D7*%
X230400000Y-44575000D03*
X230400000Y-43000000D03*
%TD*%
D20*
%TO.C,R90*%
X219800000Y-79162500D03*
X219800000Y-80812500D03*
%TD*%
%TO.C,R54*%
X197000000Y-126800000D03*
X197000000Y-128450000D03*
%TD*%
D14*
%TO.C,JP2*%
X153450000Y-152740000D03*
D15*
X153449999Y-154039999D03*
D16*
X153450000Y-155340000D03*
%TD*%
D44*
%TO.C,JP18*%
X44230000Y-109050000D03*
D18*
X42929999Y-109049999D03*
D45*
X41630000Y-109050000D03*
%TD*%
D14*
%TO.C,JP4*%
X87410000Y-125560000D03*
D15*
X87409999Y-126859999D03*
D16*
X87410000Y-128160000D03*
%TD*%
D36*
%TO.C,D32*%
X127738000Y-155786000D03*
X131738000Y-155786000D03*
%TD*%
D29*
%TO.C,R17*%
X74710000Y-129750000D03*
X74710000Y-128100000D03*
%TD*%
D21*
%TO.C,JP10*%
X211500000Y-127400000D03*
D15*
X211499999Y-126099999D03*
D22*
X211500000Y-124800000D03*
%TD*%
D34*
%TO.C,C16*%
X68300000Y-106300000D03*
X66750000Y-106300000D03*
%TD*%
D23*
%TO.C,D_DOWN1*%
X59139999Y-89049999D03*
X67089999Y-89049999D03*
X59139999Y-93549999D03*
X67089999Y-93549999D03*
%TD*%
D43*
%TO.C,C4*%
X153170000Y-147660000D03*
X154720000Y-147660000D03*
%TD*%
D20*
%TO.C,R5*%
X205100000Y-58050000D03*
X205100000Y-59700000D03*
%TD*%
D32*
%TO.C,AS_DEC_SW1*%
X103920000Y-32340000D03*
X103920000Y-37040000D03*
X103920000Y-41740000D03*
%TD*%
D38*
%TO.C,C8*%
X185200000Y-135340000D03*
X185200000Y-133790000D03*
%TD*%
D29*
%TO.C,R37*%
X114080000Y-47200000D03*
X114080000Y-45550000D03*
%TD*%
D14*
%TO.C,JP9*%
X62010000Y-126800000D03*
D15*
X62009999Y-128099999D03*
D16*
X62010000Y-129400000D03*
%TD*%
D34*
%TO.C,C19*%
X88680000Y-44280000D03*
X87130000Y-44280000D03*
%TD*%
%TO.C,C5*%
X206450000Y-66700000D03*
X204900000Y-66700000D03*
%TD*%
D20*
%TO.C,R50*%
X166595000Y-154645000D03*
X166595000Y-156295000D03*
%TD*%
D38*
%TO.C,C21*%
X55635000Y-135800000D03*
X55635000Y-134250000D03*
%TD*%
D12*
%TO.C,U6*%
X36635000Y-126910000D03*
X36635000Y-136910000D03*
X49285000Y-126910000D03*
X49285000Y-136910000D03*
X39710000Y-137660000D03*
X46210000Y-137660000D03*
X39710000Y-142160000D03*
X46210000Y-142160000D03*
X40460000Y-123180000D03*
X42960000Y-123180000D03*
X45460000Y-123180000D03*
X51690000Y-129410000D03*
X51690000Y-131910000D03*
X51690000Y-134410000D03*
%TD*%
D32*
%TO.C,SW1*%
X69630000Y-136100000D03*
X69630000Y-140800000D03*
X69630000Y-145500000D03*
%TD*%
D43*
%TO.C,C30*%
X170950000Y-35390000D03*
X172500000Y-35390000D03*
%TD*%
D39*
%TO.C,Q15*%
X116287500Y-51627500D03*
X116287500Y-49727500D03*
X114412500Y-50677500D03*
%TD*%
D30*
%TO.C,R98*%
X239250000Y-85100000D03*
X240900000Y-85100000D03*
%TD*%
D38*
%TO.C,C2*%
X213800000Y-132650000D03*
X213800000Y-131100000D03*
%TD*%
D32*
%TO.C,MOTOR_ENGAGE1*%
X96300000Y-136100000D03*
X96300000Y-140800000D03*
X96300000Y-145500000D03*
%TD*%
D13*
%TO.C,R84*%
X44230000Y-103970000D03*
X42580000Y-103970000D03*
%TD*%
D30*
%TO.C,R76*%
X45095000Y-119290000D03*
X46745000Y-119290000D03*
%TD*%
%TO.C,R18*%
X222450000Y-126100000D03*
X224100000Y-126100000D03*
%TD*%
D29*
%TO.C,R21*%
X119500000Y-20850000D03*
X119500000Y-19200000D03*
%TD*%
D39*
%TO.C,Q3*%
X205100000Y-54800000D03*
X205100000Y-52900000D03*
X203225000Y-53850000D03*
%TD*%
D29*
%TO.C,R4*%
X171545000Y-149945000D03*
X171545000Y-148295000D03*
%TD*%
D34*
%TO.C,C24*%
X247430000Y-116750000D03*
X245880000Y-116750000D03*
%TD*%
D30*
%TO.C,R62*%
X102270000Y-28150000D03*
X103920000Y-28150000D03*
%TD*%
D25*
%TO.C,C17*%
X32800000Y-63330000D03*
X32800000Y-64880000D03*
%TD*%
D53*
%TO.C,Q25*%
X144260000Y-36900000D03*
D54*
X150910000Y-39200000D03*
D53*
X144260000Y-41500000D03*
%TD*%
D20*
%TO.C,R56*%
X136818000Y-152421000D03*
X136818000Y-154071000D03*
%TD*%
D44*
%TO.C,JP15*%
X39150000Y-62060000D03*
D18*
X37849999Y-62059999D03*
D45*
X36550000Y-62060000D03*
%TD*%
D29*
%TO.C,R46*%
X106905000Y-149690000D03*
X106905000Y-148040000D03*
%TD*%
D36*
%TO.C,D25*%
X158340000Y-124800000D03*
X162340000Y-124800000D03*
%TD*%
D39*
%TO.C,Q10*%
X143168000Y-155146000D03*
X143168000Y-153246000D03*
X141293000Y-154196000D03*
%TD*%
D36*
%TO.C,D33*%
X92300000Y-125560000D03*
X96300000Y-125560000D03*
%TD*%
D13*
%TO.C,R85*%
X169960000Y-40470000D03*
X168310000Y-40470000D03*
%TD*%
D36*
%TO.C,D9*%
X66900000Y-125560000D03*
X70900000Y-125560000D03*
%TD*%
D14*
%TO.C,JP12*%
X121578000Y-153246000D03*
D15*
X121577999Y-154545999D03*
D16*
X121578000Y-155846000D03*
%TD*%
D38*
%TO.C,C13*%
X186470000Y-46820000D03*
X186470000Y-45270000D03*
%TD*%
D30*
%TO.C,R7*%
X78350000Y-143600000D03*
X80000000Y-143600000D03*
%TD*%
D29*
%TO.C,R33*%
X119160000Y-46310000D03*
X119160000Y-44660000D03*
%TD*%
D23*
%TO.C,D_SELECT1*%
X59139999Y-74069999D03*
X67089999Y-74069999D03*
X59139999Y-78569999D03*
X67089999Y-78569999D03*
%TD*%
D30*
%TO.C,R73*%
X80680000Y-35390000D03*
X82330000Y-35390000D03*
%TD*%
D33*
%TO.C,D39*%
X83600000Y-40470000D03*
X79600000Y-40470000D03*
%TD*%
D38*
%TO.C,C25*%
X176310000Y-46820000D03*
X176310000Y-45270000D03*
%TD*%
D13*
%TO.C,R78*%
X241080000Y-116750000D03*
X239430000Y-116750000D03*
%TD*%
D20*
%TO.C,R95*%
X210800000Y-81100000D03*
X210800000Y-82750000D03*
%TD*%
D24*
%TO.C,D5*%
X75980000Y-133180000D03*
X74405000Y-133180000D03*
%TD*%
D29*
%TO.C,R91*%
X174700000Y-20450000D03*
X174700000Y-18800000D03*
%TD*%
%TO.C,R13*%
X79300000Y-134750000D03*
X79300000Y-133100000D03*
%TD*%
D36*
%TO.C,D26*%
X158340000Y-156550000D03*
X162340000Y-156550000D03*
%TD*%
D21*
%TO.C,JP14*%
X60000000Y-102000000D03*
D15*
X59999999Y-100699999D03*
D22*
X60000000Y-99400000D03*
%TD*%
D13*
%TO.C,R87*%
X215000000Y-84900000D03*
X213350000Y-84900000D03*
%TD*%
D51*
%TO.C,U9*%
X176969999Y-34359999D03*
X176969999Y-36659999D03*
X176969999Y-38959999D03*
D52*
X183269999Y-36659999D03*
%TD*%
D30*
%TO.C,R6*%
X143250000Y-129100000D03*
X144900000Y-129100000D03*
%TD*%
D29*
%TO.C,R30*%
X137200000Y-25650000D03*
X137200000Y-24000000D03*
%TD*%
D38*
%TO.C,C1*%
X63280000Y-134730000D03*
X63280000Y-133180000D03*
%TD*%
D23*
%TO.C,D_UP1*%
X67089999Y-63549999D03*
X59139999Y-63549999D03*
X67089999Y-59049999D03*
X59139999Y-59049999D03*
%TD*%
D39*
%TO.C,Q1*%
X173135000Y-125435000D03*
X173135000Y-123535000D03*
X171260000Y-124485000D03*
%TD*%
D28*
%TO.C,Q12*%
X131750000Y-27575000D03*
X133650000Y-27575000D03*
X132700000Y-25700000D03*
%TD*%
D30*
%TO.C,R66*%
X128818000Y-149436000D03*
X130468000Y-149436000D03*
%TD*%
D32*
%TO.C,MOTOR_MODE1*%
X162340000Y-135720000D03*
X162340000Y-140420000D03*
X162340000Y-145120000D03*
%TD*%
D20*
%TO.C,R27*%
X114080000Y-28150000D03*
X114080000Y-29800000D03*
%TD*%
D13*
%TO.C,R92*%
X235800000Y-76230000D03*
X234150000Y-76230000D03*
%TD*%
D39*
%TO.C,Q4*%
X141400000Y-126500000D03*
X141400000Y-124600000D03*
X139525000Y-125550000D03*
%TD*%
D30*
%TO.C,R97*%
X157360000Y-41740000D03*
X159010000Y-41740000D03*
%TD*%
D24*
%TO.C,D4*%
X136818000Y-132926000D03*
X135243000Y-132926000D03*
%TD*%
D36*
%TO.C,D28*%
X101190000Y-21800000D03*
X105190000Y-21800000D03*
%TD*%
D55*
%TO.C,D44*%
X219800000Y-83600000D03*
X219800000Y-85175000D03*
%TD*%
D20*
%TO.C,R53*%
X109445000Y-50185000D03*
X109445000Y-51835000D03*
%TD*%
D13*
%TO.C,R93*%
X213400000Y-78800000D03*
X211750000Y-78800000D03*
%TD*%
D21*
%TO.C,JP16*%
X97180000Y-79360000D03*
D15*
X97179999Y-78059999D03*
D22*
X97180000Y-76760000D03*
%TD*%
D38*
%TO.C,C11*%
X90200000Y-132250000D03*
X90200000Y-130700000D03*
%TD*%
D42*
%TO.C,U3*%
X195425000Y-116605000D03*
X196695000Y-116605000D03*
X197965000Y-116605000D03*
X199235000Y-116605000D03*
X200505000Y-116605000D03*
X201775000Y-116605000D03*
X203045000Y-116605000D03*
X203045000Y-111655000D03*
X201775000Y-111655000D03*
X200505000Y-111655000D03*
X199235000Y-111655000D03*
X197965000Y-111655000D03*
X196695000Y-111655000D03*
X195425000Y-111655000D03*
%TD*%
D23*
%TO.C,D_RIGHT1*%
X74224999Y-74069999D03*
X82174999Y-74069999D03*
X74224999Y-78569999D03*
X82174999Y-78569999D03*
%TD*%
D20*
%TO.C,R8*%
X167900000Y-26500000D03*
X167900000Y-28150000D03*
%TD*%
D56*
%TO.C,U8*%
X109600000Y-79580000D03*
X109600000Y-110580000D03*
X184600000Y-79580000D03*
X184600000Y-110580000D03*
D57*
X117600000Y-79080000D03*
X120140000Y-79080000D03*
X122680000Y-79080000D03*
X125220000Y-79080000D03*
X127760000Y-79080000D03*
X130300000Y-79080000D03*
X132740000Y-79080000D03*
X135380000Y-79080000D03*
X137920000Y-79080000D03*
X140460000Y-79080000D03*
X143000000Y-79080000D03*
X145540000Y-79080000D03*
X148080000Y-79080000D03*
X150620000Y-79080000D03*
X153160000Y-79080000D03*
X155700000Y-79080000D03*
%TD*%
D30*
%TO.C,R19*%
X67980000Y-131910000D03*
X69630000Y-131910000D03*
%TD*%
D58*
%TO.C,JP19*%
X157030000Y-24300000D03*
X159570000Y-24300000D03*
%TD*%
D20*
%TO.C,R34*%
X111540000Y-130260000D03*
X111540000Y-131910000D03*
%TD*%
D23*
%TO.C,D_LEFT1*%
X44124999Y-74049999D03*
X52074999Y-74049999D03*
X44124999Y-78549999D03*
X52074999Y-78549999D03*
%TD*%
D20*
%TO.C,R38*%
X106460000Y-131910000D03*
X106460000Y-133560000D03*
%TD*%
D59*
%TO.C,U2*%
X187750000Y-117940000D03*
X111550000Y-116670000D03*
X111550000Y-70950000D03*
X186480000Y-69680000D03*
D60*
X168700000Y-115400000D03*
X166160000Y-115400000D03*
X163620000Y-115400000D03*
X161080000Y-115400000D03*
X122980000Y-117940000D03*
X120440000Y-115400000D03*
X171240000Y-117940000D03*
X168700000Y-117940000D03*
X166160000Y-117940000D03*
X172764000Y-72220000D03*
X163620000Y-117940000D03*
X161080000Y-117940000D03*
X158540000Y-117940000D03*
X156000000Y-117940000D03*
X120440000Y-72220000D03*
X125520000Y-117940000D03*
X128060000Y-117940000D03*
X162604000Y-72220000D03*
X117900000Y-72220000D03*
X145840000Y-72220000D03*
X145840000Y-117940000D03*
X148380000Y-117940000D03*
X143300000Y-115400000D03*
X140760000Y-115400000D03*
X145840000Y-115400000D03*
X158540000Y-115400000D03*
X148380000Y-115400000D03*
X156000000Y-115400000D03*
X150920000Y-115400000D03*
X135680000Y-115400000D03*
X125520000Y-72220000D03*
X125520000Y-115400000D03*
X133140000Y-115400000D03*
X138220000Y-115400000D03*
X130600000Y-115400000D03*
X130600000Y-117940000D03*
X122980000Y-115400000D03*
X117900000Y-117940000D03*
X117900000Y-115400000D03*
X120440000Y-117940000D03*
X115360000Y-115400000D03*
X115360000Y-117940000D03*
X175304000Y-69680000D03*
X128060000Y-115400000D03*
X138220000Y-69680000D03*
X171240000Y-115400000D03*
X173780000Y-115400000D03*
X182924000Y-69680000D03*
D61*
X182923999Y-72219999D03*
D60*
X180384000Y-69680000D03*
D61*
X155999999Y-72219999D03*
D60*
X177844000Y-69680000D03*
X122980000Y-72220000D03*
X172764000Y-69680000D03*
X170224000Y-69680000D03*
X133140000Y-117940000D03*
X167684000Y-69680000D03*
X175304000Y-72220000D03*
X140760000Y-72220000D03*
X115360000Y-69680000D03*
X170224000Y-72220000D03*
X130600000Y-69680000D03*
X138220000Y-72220000D03*
X148380000Y-72220000D03*
X117900000Y-69680000D03*
X180384000Y-72220000D03*
X160064000Y-72220000D03*
X167684000Y-72220000D03*
X177844000Y-72220000D03*
X165144000Y-72220000D03*
X153460000Y-72220000D03*
X140760000Y-117940000D03*
D61*
X150919999Y-117939999D03*
D60*
X143300000Y-72220000D03*
X150920000Y-72220000D03*
X135680000Y-69680000D03*
X133140000Y-72220000D03*
X138220000Y-117940000D03*
X130600000Y-72220000D03*
X133140000Y-69680000D03*
X128060000Y-72220000D03*
X165144000Y-69680000D03*
X128060000Y-69680000D03*
X162604000Y-69680000D03*
X125520000Y-69680000D03*
X148380000Y-69680000D03*
X122980000Y-69680000D03*
X153460000Y-69680000D03*
X120440000Y-69680000D03*
X145840000Y-69680000D03*
X150920000Y-69680000D03*
X156000000Y-69680000D03*
X143300000Y-117940000D03*
X160064000Y-69680000D03*
X143300000Y-69680000D03*
X140760000Y-69680000D03*
X115360000Y-72220000D03*
X135680000Y-72220000D03*
X135680000Y-117940000D03*
D61*
X173779999Y-117939999D03*
%TD*%
D62*
%TO.C,U1*%
X128049999Y-50629999D03*
D63*
X130589999Y-50629999D03*
X133129999Y-50629999D03*
X135669999Y-50629999D03*
X138209999Y-50629999D03*
X140749999Y-50629999D03*
X143289999Y-50629999D03*
X145829999Y-50629999D03*
X148369999Y-50629999D03*
X150909999Y-50629999D03*
X153449999Y-50629999D03*
X155989999Y-50629999D03*
X158529999Y-50629999D03*
X161069999Y-50629999D03*
X163609999Y-50629999D03*
X163609999Y-65869999D03*
X161069999Y-65869999D03*
X158529999Y-65869999D03*
X155989999Y-65869999D03*
X153449999Y-65869999D03*
X150909999Y-65869999D03*
X148369999Y-65869999D03*
X145829999Y-65869999D03*
X143289999Y-65869999D03*
X140749999Y-65869999D03*
X138209999Y-65869999D03*
X135669999Y-65869999D03*
X133129999Y-65869999D03*
X130589999Y-65869999D03*
X128049999Y-65869999D03*
%TD*%
M02*
