M48
; DRILL file {KiCad 7.0.1-0} date 2023 April 25, Tuesday 11:16:16
; FORMAT={-:-/ absolute / inch / decimal}
; #@! TF.CreationDate,2023-04-25T11:16:16+01:00
; #@! TF.GenerationSoftware,Kicad,Pcbnew,7.0.1-0
; #@! TF.FileFunction,Plated,1,2,PTH
FMAT,2
INCH
; #@! TA.AperFunction,Plated,PTH,ViaDrill
T1C0.0157
; #@! TA.AperFunction,Plated,PTH,ComponentDrill
T2C0.0300
; #@! TA.AperFunction,Plated,PTH,ComponentDrill
T3C0.0394
; #@! TA.AperFunction,Plated,PTH,ComponentDrill
T4C0.0402
; #@! TA.AperFunction,Plated,PTH,ComponentDrill
T5C0.0433
; #@! TA.AperFunction,Plated,PTH,ComponentDrill
T6C0.0472
%
G90
G05
T1
X2.635Y-5.09
X2.72Y-4.12
X2.73Y-5.525
X2.745Y-2.355
X2.745Y-5.36
X2.775Y-5.66
X2.775Y-5.8
X2.8Y-5.92
X2.9Y-4.97
X2.93Y-4.105
X3.0Y-5.28
X3.14Y-4.32
X3.15Y-4.785
X3.19Y-3.835
X3.225Y-3.145
X3.23Y-5.925
X3.295Y-3.455
X3.33Y-4.24
X3.345Y-4.855
X3.405Y-5.34
X3.47Y-3.455
X3.475Y-3.62
X3.475Y-5.885
X3.53Y-2.61
X3.605Y-5.405
X3.64Y-2.21
X3.705Y-4.85
X3.72Y-5.4
X3.755Y-5.475
X3.815Y-4.385
X3.84Y-5.9
X3.865Y-4.215
X3.915Y-4.85
X3.925Y-3.615
X3.93Y-4.95
X3.965Y-3.245
X3.98Y-3.665
X4.025Y-3.815
X4.025Y-5.115
X4.04Y-3.12
X4.06Y-3.245
X4.08Y-3.05
X4.14Y-2.905
X4.145Y-3.115
X4.18Y-3.0456
X4.23Y-4.245
X4.235Y-5.875
X4.255Y-2.945
X4.295Y-3.81
X4.315Y-2.695
X4.35Y-2.525
X4.415Y-2.585
X4.475Y-5.435
X4.58Y-2.785
X4.62Y-3.905
X4.635Y-5.065
X4.64Y-2.455
X4.665Y-5.77
X4.9765Y-3.175
X4.995Y-2.855
X5.01Y-2.315
X5.06Y-3.23
X5.075Y-2.875
X5.075Y-3.015
X5.075Y-4.405
X5.09Y-5.05
X5.1Y-2.77
X5.1302Y-3.9598
X5.165Y-4.285
X5.1727Y-3.9627
X5.2144Y-3.963
X5.24Y-5.56
X5.2539Y-3.9639
X5.27Y-2.89
X5.275Y-2.565
X5.295Y-3.98
X5.33Y-3.3
X5.345Y-4.245
X5.355Y-3.05
X5.355Y-3.175
X5.37Y-4.47
X5.409Y-2.8724
X5.43Y-3.2
X5.4423Y-2.9285
X5.455Y-3.12
X5.515Y-3.21
X5.52Y-3.435
X5.58Y-2.215
X5.595Y-2.99
X5.635Y-3.89
X5.675Y-3.9185
X5.695Y-1.93
X5.725Y-3.947
X5.725Y-4.39
X5.725Y-4.49
X5.755Y-2.885
X5.755Y-2.97
X5.76Y-3.475
X5.77Y-3.145
X5.77Y-3.4
X5.775Y-3.9756
X5.82Y-4.185
X5.86Y-3.71
X5.875Y-2.09
X5.88Y-2.875
X5.9Y-3.415
X5.905Y-4.42
X5.915Y-3.195
X5.925Y-4.7877
X5.935Y-2.81
X5.94Y-3.56
X5.94Y-3.73
X5.955Y-2.215
X5.96Y-3.005
X5.96Y-4.965
X5.965Y-3.07
X5.97Y-2.905
X5.975Y-4.765
X6.005Y-2.475
X6.005Y-2.74
X6.01Y-3.41
X6.02Y-4.16
X6.02Y-5.435
X6.03Y-2.075
X6.045Y-4.74
X6.055Y-4.68
X6.06Y-3.83
X6.08Y-3.415
X6.09Y-3.61
X6.1Y-3.79
X6.1Y-4.555
X6.12Y-2.74
X6.125Y-2.625
X6.13Y-4.265
X6.13Y-4.405
X6.2848Y-3.042
X6.34Y-4.09
X6.365Y-3.21
X6.39Y-2.54
X6.39Y-4.39
X6.39Y-5.975
X6.3948Y-2.4948
X6.4Y-2.995
X6.405Y-0.835
X6.405Y-4.57
X6.405Y-4.745
X6.415Y-2.825
X6.43Y-2.335
X6.43Y-4.47
X6.435Y-2.69
X6.44Y-2.155
X6.4475Y-4.2425
X6.45Y-1.34
X6.455Y-4.145
X6.46Y-2.955
X6.47Y-2.745
X6.475Y-5.475
X6.5127Y-4.2674
X6.535Y-5.78
X6.545Y-2.32
X6.545Y-4.535
X6.545Y-5.95
X6.585Y-2.06
X6.585Y-2.39
X6.585Y-2.6
X6.615Y-2.275
X6.64Y-2.475
X6.65Y-2.57
X6.65Y-2.755
X6.655Y-2.69
X6.655Y-2.98
X6.7Y-6.055
X6.715Y-4.44
X6.72Y-2.68
X6.725Y-2.335
X6.735Y-3.555
X6.735Y-5.94
X6.745Y-1.01
X6.765Y-1.685
X6.765Y-3.1
X6.7731Y-2.865
X6.785Y-3.515
X6.795Y-1.86
X6.8Y-6.03
X6.805Y-4.295
X6.805Y-5.02
X6.805Y-5.675
X6.83Y-1.46
X6.83Y-3.44
X6.855Y-0.8
X6.862Y-2.6611
X6.885Y-4.155
X6.885Y-5.67
X6.8871Y-2.4613
X6.89Y-4.7
X6.895Y-1.955
X6.895Y-4.535
X6.92Y-2.835
X6.9296Y-2.5405
X6.93Y-2.115
X6.93Y-3.785
X6.945Y-4.2104
X6.945Y-4.39
X6.947Y-2.3077
X6.955Y-5.87
X6.97Y-4.54
X6.9737Y-3.9117
X6.985Y-4.855
X6.99Y-5.91
X7.0235Y-2.18
X7.025Y-3.5
X7.03Y-2.835
X7.03Y-3.69
X7.035Y-3.305
X7.0698Y-4.5498
X7.095Y-4.18
X7.1Y-4.24
X7.12Y-1.695
X7.125Y-1.48
X7.125Y-1.995
X7.125Y-2.325
X7.14Y-2.825
X7.155Y-3.885
X7.155Y-5.905
X7.16Y-2.6982
X7.16Y-4.295
X7.19Y-2.03
X7.195Y-2.285
X7.195Y-2.415
X7.195Y-2.625
X7.195Y-3.505
X7.2Y-2.945
X7.205Y-4.21
X7.21Y-2.73
X7.24Y-3.325
X7.26Y-4.385
X7.26Y-4.855
X7.265Y-3.145
X7.265Y-3.665
X7.285Y-2.335
X7.285Y-3.74
X7.2899Y-3.5441
X7.295Y-1.825
X7.295Y-2.515
X7.295Y-3.48
X7.3Y-3.87
X7.33Y-5.48
X7.335Y-3.315
X7.36Y-4.29
X7.365Y-3.97
X7.375Y-4.605
X7.38Y-1.595
X7.39Y-2.355
X7.39Y-5.09
X7.41Y-3.97
X7.415Y-4.105
X7.435Y-2.01
X7.445Y-1.23
X7.455Y-4.225
X7.46Y-4.55
X7.475Y-4.06
X7.475Y-4.39
X7.475Y-4.71
X7.475Y-4.85
X7.48Y-2.685
X7.495Y-1.655
X7.535Y-1.89
X7.545Y-2.005
X7.565Y-1.025
X7.575Y-5.92
X7.605Y-2.49
X7.605Y-3.29
X7.605Y-3.89
X7.61Y-1.98
X7.61Y-3.48
X7.615Y-3.67
X7.655Y-2.345
X7.665Y-1.865
X7.665Y-5.405
X7.67Y-3.17
X7.68Y-3.815
X7.74Y-4.64
X7.745Y-4.88
X7.755Y-3.805
X7.775Y-5.16
X7.78Y-5.585
X7.785Y-2.085
X7.81Y-1.505
X7.84Y-2.4
X7.87Y-1.035
X7.88Y-5.91
X7.955Y-1.69
X7.96Y-1.505
X7.96Y-1.87
X7.985Y-6.205
T2
X2.815Y-6.12
X2.915Y-6.12
X3.015Y-6.12
X3.15Y-6.12
X3.25Y-6.12
X3.35Y-6.12
X3.485Y-6.12
X3.585Y-6.12
X3.685Y-6.12
X3.815Y-6.12
X3.915Y-6.12
X4.015Y-6.12
X4.145Y-6.12
X4.245Y-6.12
X4.345Y-6.12
X4.475Y-6.12
X4.575Y-6.12
X4.675Y-6.12
X4.805Y-6.12
X4.905Y-6.12
X5.005Y-6.12
X5.135Y-6.12
X5.235Y-6.12
X5.335Y-6.12
X6.445Y-6.12
X6.545Y-6.12
X6.655Y-6.12
X6.745Y-6.12
X6.86Y-6.12
X6.96Y-6.12
X7.07Y-6.12
X7.16Y-6.12
X7.27Y-6.12
X7.37Y-6.12
X7.48Y-6.12
X7.57Y-6.12
X7.68Y-6.12
X7.78Y-6.12
X7.89Y-6.12
X7.895Y-3.22
X7.895Y-3.31
X7.895Y-3.42
X7.895Y-3.52
X7.895Y-3.64
X7.895Y-3.74
X7.895Y-3.84
X7.895Y-3.97
X7.895Y-4.07
X7.895Y-4.17
X7.895Y-4.295
X7.895Y-4.395
X7.895Y-4.495
X7.895Y-4.625
X7.895Y-4.725
X7.895Y-4.825
X7.9Y-4.96
X7.9Y-5.06
X7.9Y-5.18
X7.9Y-5.28
X7.905Y-5.42
X7.905Y-5.52
X7.905Y-5.65
X7.905Y-5.75
X7.98Y-6.12
T3
X7.8598Y-1.415
X7.8598Y-1.5981
X7.8598Y-1.7811
X7.8598Y-1.9642
X7.955Y-2.12
X7.955Y-2.22
X7.955Y-2.32
X7.955Y-2.42
X7.955Y-2.52
X7.955Y-2.62
X7.955Y-2.72
X7.955Y-2.82
X7.955Y-2.92
X7.955Y-3.02
X7.9598Y-1.415
X7.9598Y-1.5981
X7.9598Y-1.7811
X7.9598Y-1.9642
T4
X2.99Y-2.0
X2.99Y-2.1
X2.99Y-2.2
X2.99Y-2.3
X2.99Y-2.4
X2.99Y-2.5
X2.99Y-2.6
X2.99Y-2.7
X2.99Y-2.8
X2.99Y-2.9
X2.99Y-3.06
X2.99Y-3.16
X2.99Y-3.26
X2.99Y-3.36
X2.99Y-3.46
X2.99Y-3.56
X2.99Y-3.66
X2.99Y-3.76
X2.99Y-3.86
X2.99Y-3.96
X2.99Y-4.06
X2.99Y-4.16
X2.99Y-4.26
X2.99Y-4.36
X2.99Y-4.46
X2.99Y-4.56
X2.99Y-4.66
X3.09Y-2.0
X3.09Y-2.1
X3.09Y-2.2
X3.09Y-2.3
X3.09Y-2.4
X3.09Y-2.5
X3.09Y-2.6
X3.09Y-2.7
X3.09Y-2.8
X3.09Y-2.9
X3.09Y-3.06
X3.09Y-3.16
X3.09Y-3.26
X3.09Y-3.36
X3.09Y-3.46
X3.09Y-3.56
X3.09Y-3.66
X3.09Y-3.76
X3.09Y-3.86
X3.09Y-3.96
X3.09Y-4.06
X3.09Y-4.16
X3.09Y-4.26
X3.09Y-4.36
X3.09Y-4.46
X3.09Y-4.56
X3.09Y-4.66
X4.79Y-2.36
X4.79Y-2.46
X4.79Y-2.56
X4.79Y-2.66
X4.79Y-2.76
X4.79Y-2.86
X4.79Y-2.96
X4.79Y-3.06
X4.79Y-3.26
X4.79Y-3.36
X4.79Y-3.46
X4.79Y-3.56
X4.79Y-3.66
X4.79Y-3.76
X4.79Y-3.86
X4.79Y-3.96
X4.79Y-4.06
X4.79Y-4.16
X4.79Y-4.26
X4.79Y-4.36
X4.79Y-4.46
X4.79Y-4.56
X4.79Y-4.66
X4.89Y-2.36
X4.89Y-2.46
X4.89Y-2.56
X4.89Y-2.66
X4.89Y-2.76
X4.89Y-2.86
X4.89Y-2.96
X4.89Y-3.06
X4.89Y-3.26
X4.89Y-3.36
X4.89Y-3.46
X4.89Y-3.56
X4.89Y-3.66
X4.89Y-3.76
X4.89Y-3.86
X4.89Y-3.96
X4.89Y-4.06
X4.89Y-4.16
X4.89Y-4.26
X4.89Y-4.36
X4.89Y-4.46
X4.89Y-4.56
X4.89Y-4.66
X5.41Y-1.01
X5.41Y-1.11
X5.41Y-1.21
X5.41Y-1.31
X5.41Y-1.41
X5.41Y-1.51
X5.41Y-1.61
X5.41Y-1.71
X5.41Y-1.81
X5.41Y-1.91
X5.41Y-2.01
X5.41Y-2.11
X5.41Y-2.21
X5.41Y-2.31
X5.41Y-2.41
X5.555Y-4.27
X5.555Y-4.37
X5.555Y-4.47
X5.555Y-4.57
X5.555Y-4.67
X5.555Y-4.77
X5.555Y-4.87
X5.555Y-4.97
X5.555Y-5.07
X5.555Y-5.17
X5.555Y-5.27
X5.555Y-5.37
X5.555Y-5.47
X5.555Y-5.57
X5.555Y-5.67
X5.555Y-5.77
X5.555Y-5.87
X5.555Y-5.97
X5.555Y-6.07
X5.555Y-6.17
X6.255Y-4.27
X6.255Y-4.37
X6.255Y-4.47
X6.255Y-4.57
X6.255Y-4.67
X6.255Y-4.77
X6.255Y-4.87
X6.255Y-4.97
X6.255Y-5.07
X6.255Y-5.17
X6.255Y-5.27
X6.255Y-5.37
X6.255Y-5.47
X6.255Y-5.57
X6.255Y-5.67
X6.255Y-5.77
X6.255Y-5.87
X6.255Y-5.97
X6.255Y-6.07
X6.255Y-6.17
X6.31Y-1.01
X6.31Y-1.11
X6.31Y-1.21
X6.31Y-1.31
X6.31Y-1.41
X6.31Y-1.51
X6.31Y-1.61
X6.31Y-1.71
X6.31Y-1.81
X6.31Y-1.91
X6.31Y-2.01
X6.31Y-2.11
X6.31Y-2.21
X6.31Y-2.31
X6.31Y-2.41
T5
X7.225Y-5.0175
X7.225Y-5.1175
X7.225Y-5.2175
X7.23Y-5.4925
X7.23Y-5.5925
X7.23Y-5.6925
X7.625Y-5.0175
X7.625Y-5.1175
X7.625Y-5.2175
X7.63Y-5.4825
X7.63Y-5.5825
X7.63Y-5.6825
T6
G00X7.0097Y-0.87
M15
G01X6.9703Y-0.87
M16
G05
G00X7.0097Y-1.0472
M15
G01X6.9703Y-1.0472
M16
G05
G00X7.0097Y-1.2243
M15
G01X6.9703Y-1.2243
M16
G05
T0
M30
