%TF.GenerationSoftware,KiCad,Pcbnew,7.0.1*%
%TF.CreationDate,2023-04-25T19:52:38+01:00*%
%TF.ProjectId,Main-Craft-PCB,4d61696e-2d43-4726-9166-742d5043422e,rev?*%
%TF.SameCoordinates,Original*%
%TF.FileFunction,Paste,Top*%
%TF.FilePolarity,Positive*%
%FSLAX46Y46*%
G04 Gerber Fmt 4.6, Leading zero omitted, Abs format (unit mm)*
G04 Created by KiCad (PCBNEW 7.0.1) date 2023-04-25 19:52:38*
%MOMM*%
%LPD*%
G01*
G04 APERTURE LIST*
G04 Aperture macros list*
%AMRoundRect*
0 Rectangle with rounded corners*
0 $1 Rounding radius*
0 $2 $3 $4 $5 $6 $7 $8 $9 X,Y pos of 4 corners*
0 Add a 4 corners polygon primitive as box body*
4,1,4,$2,$3,$4,$5,$6,$7,$8,$9,$2,$3,0*
0 Add four circle primitives for the rounded corners*
1,1,$1+$1,$2,$3*
1,1,$1+$1,$4,$5*
1,1,$1+$1,$6,$7*
1,1,$1+$1,$8,$9*
0 Add four rect primitives between the rounded corners*
20,1,$1+$1,$2,$3,$4,$5,0*
20,1,$1+$1,$4,$5,$6,$7,0*
20,1,$1+$1,$6,$7,$8,$9,0*
20,1,$1+$1,$8,$9,$2,$3,0*%
G04 Aperture macros list end*
%ADD10RoundRect,0.300000X-0.300000X0.300000X-0.300000X-0.300000X0.300000X-0.300000X0.300000X0.300000X0*%
%ADD11RoundRect,0.375000X-0.375000X0.425000X-0.375000X-0.425000X0.375000X-0.425000X0.375000X0.425000X0*%
%ADD12RoundRect,0.218750X0.218750X0.256250X-0.218750X0.256250X-0.218750X-0.256250X0.218750X-0.256250X0*%
%ADD13RoundRect,0.200000X0.275000X-0.200000X0.275000X0.200000X-0.275000X0.200000X-0.275000X-0.200000X0*%
%ADD14RoundRect,0.250000X0.650000X-1.000000X0.650000X1.000000X-0.650000X1.000000X-0.650000X-1.000000X0*%
%ADD15RoundRect,0.225000X-0.250000X0.225000X-0.250000X-0.225000X0.250000X-0.225000X0.250000X0.225000X0*%
%ADD16RoundRect,0.218750X0.256250X-0.218750X0.256250X0.218750X-0.256250X0.218750X-0.256250X-0.218750X0*%
%ADD17RoundRect,0.225000X-0.225000X-0.250000X0.225000X-0.250000X0.225000X0.250000X-0.225000X0.250000X0*%
%ADD18RoundRect,0.200000X-0.275000X0.200000X-0.275000X-0.200000X0.275000X-0.200000X0.275000X0.200000X0*%
%ADD19RoundRect,0.218750X-0.218750X-0.256250X0.218750X-0.256250X0.218750X0.256250X-0.218750X0.256250X0*%
%ADD20R,1.550000X1.300000*%
%ADD21RoundRect,0.162500X0.825000X0.162500X-0.825000X0.162500X-0.825000X-0.162500X0.825000X-0.162500X0*%
%ADD22RoundRect,0.137500X-0.137500X0.662500X-0.137500X-0.662500X0.137500X-0.662500X0.137500X0.662500X0*%
%ADD23RoundRect,0.300000X0.300000X-0.950000X0.300000X0.950000X-0.300000X0.950000X-0.300000X-0.950000X0*%
%ADD24RoundRect,0.100000X0.700000X-1.400000X0.700000X1.400000X-0.700000X1.400000X-0.700000X-1.400000X0*%
%ADD25RoundRect,0.100000X3.250000X-3.250000X3.250000X3.250000X-3.250000X3.250000X-3.250000X-3.250000X0*%
%ADD26RoundRect,0.225000X0.250000X-0.225000X0.250000X0.225000X-0.250000X0.225000X-0.250000X-0.225000X0*%
%ADD27RoundRect,0.300000X0.300000X-0.300000X0.300000X0.300000X-0.300000X0.300000X-0.300000X-0.300000X0*%
%ADD28RoundRect,0.375000X0.375000X-0.425000X0.375000X0.425000X-0.375000X0.425000X-0.375000X-0.425000X0*%
%ADD29RoundRect,0.250000X-1.000000X-0.650000X1.000000X-0.650000X1.000000X0.650000X-1.000000X0.650000X0*%
%ADD30RoundRect,0.300000X-0.300000X-0.300000X0.300000X-0.300000X0.300000X0.300000X-0.300000X0.300000X0*%
%ADD31RoundRect,0.375000X-0.425000X-0.375000X0.425000X-0.375000X0.425000X0.375000X-0.425000X0.375000X0*%
%ADD32RoundRect,0.200000X-0.200000X-0.275000X0.200000X-0.275000X0.200000X0.275000X-0.200000X0.275000X0*%
%ADD33RoundRect,0.218750X-0.256250X0.218750X-0.256250X-0.218750X0.256250X-0.218750X0.256250X0.218750X0*%
%ADD34RoundRect,0.200000X0.200000X0.275000X-0.200000X0.275000X-0.200000X-0.275000X0.200000X-0.275000X0*%
%ADD35R,1.500000X2.000000*%
%ADD36R,3.800000X2.000000*%
%ADD37RoundRect,1.000000X-1.000000X1.000000X-1.000000X-1.000000X1.000000X-1.000000X1.000000X1.000000X0*%
%ADD38RoundRect,0.250000X-1.000000X1.950000X-1.000000X-1.950000X1.000000X-1.950000X1.000000X1.950000X0*%
G04 APERTURE END LIST*
D10*
%TO.C,RV8*%
X180467000Y-94990000D03*
D11*
X183717000Y-96390000D03*
D10*
X180467000Y-97790000D03*
%TD*%
D12*
%TO.C,D20*%
X149250500Y-91948000D03*
X147675500Y-91948000D03*
%TD*%
D13*
%TO.C,R30*%
X191897000Y-110517000D03*
X191897000Y-108867000D03*
%TD*%
D14*
%TO.C,D9*%
X180086000Y-133635000D03*
X180086000Y-129635000D03*
%TD*%
D15*
%TO.C,C6*%
X178764000Y-85963000D03*
X178764000Y-87513000D03*
%TD*%
D16*
%TO.C,D22*%
X154432000Y-84988500D03*
X154432000Y-83413500D03*
%TD*%
D17*
%TO.C,C33*%
X182359000Y-45974000D03*
X183909000Y-45974000D03*
%TD*%
D15*
%TO.C,C5*%
X178764000Y-81137000D03*
X178764000Y-82687000D03*
%TD*%
D18*
%TO.C,R54*%
X192786000Y-34379500D03*
X192786000Y-36029500D03*
%TD*%
D19*
%TO.C,D29*%
X65633500Y-155144000D03*
X67208500Y-155144000D03*
%TD*%
D18*
%TO.C,R17*%
X179832000Y-64326000D03*
X179832000Y-65976000D03*
%TD*%
%TO.C,R22*%
X179324000Y-137541000D03*
X179324000Y-139191000D03*
%TD*%
D15*
%TO.C,C32*%
X161036000Y-91554000D03*
X161036000Y-93104000D03*
%TD*%
D18*
%TO.C,R6*%
X170307000Y-60770000D03*
X170307000Y-62420000D03*
%TD*%
D19*
%TO.C,D31*%
X66878000Y-157734000D03*
X68453000Y-157734000D03*
%TD*%
D13*
%TO.C,R28*%
X178397000Y-118391000D03*
X178397000Y-116741000D03*
%TD*%
%TO.C,R27*%
X178397000Y-110390000D03*
X178397000Y-108740000D03*
%TD*%
D20*
%TO.C,BTN_3*%
X168415000Y-117058000D03*
X176365000Y-117058000D03*
X168415000Y-121558000D03*
X176365000Y-121558000D03*
%TD*%
D13*
%TO.C,R37*%
X191770000Y-105818000D03*
X191770000Y-104168000D03*
%TD*%
D21*
%TO.C,U5*%
X194942500Y-56769000D03*
X194942500Y-55499000D03*
X194942500Y-54229000D03*
X194942500Y-52959000D03*
X189867500Y-52959000D03*
X189867500Y-54229000D03*
X189867500Y-55499000D03*
X189867500Y-56769000D03*
%TD*%
D13*
%TO.C,R36*%
X178397000Y-121820000D03*
X178397000Y-120170000D03*
%TD*%
D22*
%TO.C,U4*%
X174879000Y-142344000D03*
X173609000Y-142344000D03*
X172339000Y-142344000D03*
X171069000Y-142344000D03*
X169799000Y-142344000D03*
X168529000Y-142344000D03*
X167259000Y-142344000D03*
X165989000Y-142344000D03*
X165989000Y-148844000D03*
X167259000Y-148844000D03*
X168529000Y-148844000D03*
X169799000Y-148844000D03*
X171069000Y-148844000D03*
X172339000Y-148844000D03*
X173609000Y-148844000D03*
X174879000Y-148844000D03*
%TD*%
D23*
%TO.C,SW_3*%
X172760000Y-69386000D03*
X172760000Y-74886000D03*
X175260000Y-69386000D03*
X175260000Y-74886000D03*
X177760000Y-69386000D03*
X177760000Y-74886000D03*
%TD*%
D15*
%TO.C,C12*%
X182753000Y-62839000D03*
X182753000Y-64389000D03*
%TD*%
D24*
%TO.C,Q15*%
X186704000Y-25100000D03*
D25*
X184404000Y-31750000D03*
D24*
X182104000Y-25100000D03*
%TD*%
D26*
%TO.C,C26*%
X140843000Y-73419000D03*
X140843000Y-71869000D03*
%TD*%
D10*
%TO.C,RV7*%
X180467000Y-90164000D03*
D11*
X183717000Y-91564000D03*
D10*
X180467000Y-92964000D03*
%TD*%
D13*
%TO.C,R4*%
X170434000Y-57213000D03*
X170434000Y-55563000D03*
%TD*%
D15*
%TO.C,C8*%
X178764000Y-95615000D03*
X178764000Y-97165000D03*
%TD*%
D10*
%TO.C,RV6*%
X180467000Y-85338000D03*
D11*
X183717000Y-86738000D03*
D10*
X180467000Y-88138000D03*
%TD*%
D18*
%TO.C,R9*%
X179959000Y-69660000D03*
X179959000Y-71310000D03*
%TD*%
D27*
%TO.C,RV4*%
X189939000Y-97793000D03*
D28*
X186689000Y-96393000D03*
D27*
X189939000Y-94993000D03*
%TD*%
D18*
%TO.C,R13*%
X191389000Y-137287000D03*
X191389000Y-138937000D03*
%TD*%
D29*
%TO.C,D30*%
X182150000Y-20828000D03*
X186150000Y-20828000D03*
%TD*%
D18*
%TO.C,R18*%
X170434000Y-72962000D03*
X170434000Y-74612000D03*
%TD*%
D30*
%TO.C,RV12*%
X157096000Y-94764000D03*
D31*
X158496000Y-91514000D03*
D30*
X159896000Y-94764000D03*
%TD*%
D20*
%TO.C,BTN_5*%
X181826000Y-109129000D03*
X189776000Y-109129000D03*
X181826000Y-113629000D03*
X189776000Y-113629000D03*
%TD*%
D19*
%TO.C,D28*%
X66878000Y-152554000D03*
X68453000Y-152554000D03*
%TD*%
D13*
%TO.C,R14*%
X170434000Y-53784000D03*
X170434000Y-52134000D03*
%TD*%
D32*
%TO.C,R1*%
X195136000Y-51054000D03*
X196786000Y-51054000D03*
%TD*%
D16*
%TO.C,D12*%
X142494000Y-84988500D03*
X142494000Y-83413500D03*
%TD*%
%TO.C,D11*%
X144272000Y-84988500D03*
X144272000Y-83413500D03*
%TD*%
D33*
%TO.C,D25*%
X195707000Y-37592000D03*
X195707000Y-39167000D03*
%TD*%
%TO.C,D26*%
X192786000Y-37592000D03*
X192786000Y-39167000D03*
%TD*%
D27*
%TO.C,RV1*%
X189864000Y-83312000D03*
D28*
X186614000Y-81912000D03*
D27*
X189864000Y-80512000D03*
%TD*%
D26*
%TO.C,C2*%
X191620000Y-87513000D03*
X191620000Y-85963000D03*
%TD*%
D13*
%TO.C,R35*%
X178397000Y-113946000D03*
X178397000Y-112296000D03*
%TD*%
D18*
%TO.C,R11*%
X191262000Y-125476000D03*
X191262000Y-127126000D03*
%TD*%
%TO.C,R19*%
X179959000Y-72962000D03*
X179959000Y-74612000D03*
%TD*%
D10*
%TO.C,RV5*%
X180467000Y-80512000D03*
D11*
X183717000Y-81912000D03*
D10*
X180467000Y-83312000D03*
%TD*%
D30*
%TO.C,RV9*%
X137030000Y-75079000D03*
D31*
X138430000Y-71829000D03*
D30*
X139830000Y-75079000D03*
%TD*%
D18*
%TO.C,R55*%
X189865000Y-34341000D03*
X189865000Y-35991000D03*
%TD*%
D14*
%TO.C,D10*%
X180340000Y-145732000D03*
X180340000Y-141732000D03*
%TD*%
D26*
%TO.C,C13*%
X167513000Y-73038000D03*
X167513000Y-71488000D03*
%TD*%
D23*
%TO.C,SW_1*%
X172673000Y-51816000D03*
X172673000Y-57316000D03*
X175173000Y-51816000D03*
X175173000Y-57316000D03*
X177673000Y-51816000D03*
X177673000Y-57316000D03*
%TD*%
D26*
%TO.C,C9*%
X167386000Y-55512000D03*
X167386000Y-53962000D03*
%TD*%
%TO.C,C11*%
X167259000Y-64021000D03*
X167259000Y-62471000D03*
%TD*%
D18*
%TO.C,R15*%
X179832000Y-55690000D03*
X179832000Y-57340000D03*
%TD*%
D12*
%TO.C,D19*%
X149250500Y-90297000D03*
X147675500Y-90297000D03*
%TD*%
D13*
%TO.C,R34*%
X178397000Y-105818000D03*
X178397000Y-104168000D03*
%TD*%
D18*
%TO.C,R2*%
X197485000Y-56960000D03*
X197485000Y-58610000D03*
%TD*%
D15*
%TO.C,C31*%
X161036000Y-71869000D03*
X161036000Y-73419000D03*
%TD*%
D18*
%TO.C,R21*%
X181102000Y-125476000D03*
X181102000Y-127126000D03*
%TD*%
D15*
%TO.C,C27*%
X140843000Y-91554000D03*
X140843000Y-93104000D03*
%TD*%
D12*
%TO.C,D23*%
X149377500Y-78105000D03*
X147802500Y-78105000D03*
%TD*%
D15*
%TO.C,C10*%
X182753000Y-53962000D03*
X182753000Y-55512000D03*
%TD*%
D13*
%TO.C,R31*%
X192024000Y-118518000D03*
X192024000Y-116868000D03*
%TD*%
D34*
%TO.C,R60*%
X179578000Y-34798000D03*
X177928000Y-34798000D03*
%TD*%
D30*
%TO.C,RV11*%
X157096000Y-75079000D03*
D31*
X158496000Y-71829000D03*
D30*
X159896000Y-75079000D03*
%TD*%
D26*
%TO.C,C4*%
X191620000Y-97165000D03*
X191620000Y-95615000D03*
%TD*%
D12*
%TO.C,D24*%
X149377500Y-76327000D03*
X147802500Y-76327000D03*
%TD*%
D27*
%TO.C,RV3*%
X189864000Y-92964000D03*
D28*
X186614000Y-91564000D03*
D27*
X189864000Y-90164000D03*
%TD*%
D15*
%TO.C,C28*%
X188101000Y-45809000D03*
X188101000Y-47359000D03*
%TD*%
%TO.C,C16*%
X188849000Y-20053000D03*
X188849000Y-21603000D03*
%TD*%
%TO.C,C7*%
X178764000Y-90789000D03*
X178764000Y-92339000D03*
%TD*%
D20*
%TO.C,BTN_6*%
X181915000Y-117257000D03*
X189865000Y-117257000D03*
X181915000Y-121757000D03*
X189865000Y-121757000D03*
%TD*%
D18*
%TO.C,R53*%
X195707000Y-34379500D03*
X195707000Y-36029500D03*
%TD*%
D16*
%TO.C,D21*%
X152654000Y-84988500D03*
X152654000Y-83413500D03*
%TD*%
D18*
%TO.C,R10*%
X189484000Y-125476000D03*
X189484000Y-127126000D03*
%TD*%
D13*
%TO.C,R26*%
X178397000Y-102262000D03*
X178397000Y-100612000D03*
%TD*%
D15*
%TO.C,C29*%
X179070000Y-45707000D03*
X179070000Y-47257000D03*
%TD*%
D14*
%TO.C,D7*%
X190246000Y-133635000D03*
X190246000Y-129635000D03*
%TD*%
D20*
%TO.C,BTN_2*%
X168453000Y-109093000D03*
X176403000Y-109093000D03*
X168453000Y-113593000D03*
X176403000Y-113593000D03*
%TD*%
D17*
%TO.C,C35*%
X164438000Y-45999000D03*
X165988000Y-45999000D03*
%TD*%
D26*
%TO.C,C1*%
X191620000Y-82687000D03*
X191620000Y-81137000D03*
%TD*%
D15*
%TO.C,C14*%
X182880000Y-71361000D03*
X182880000Y-72911000D03*
%TD*%
D32*
%TO.C,R3*%
X166815000Y-140335000D03*
X168465000Y-140335000D03*
%TD*%
D20*
%TO.C,BTN_4*%
X181826000Y-101001000D03*
X189776000Y-101001000D03*
X181826000Y-105501000D03*
X189776000Y-105501000D03*
%TD*%
D23*
%TO.C,SW_2*%
X172633000Y-60667000D03*
X172633000Y-66167000D03*
X175133000Y-60667000D03*
X175133000Y-66167000D03*
X177633000Y-60667000D03*
X177633000Y-66167000D03*
%TD*%
D18*
%TO.C,R23*%
X181229000Y-137541000D03*
X181229000Y-139191000D03*
%TD*%
D30*
%TO.C,RV10*%
X137030000Y-94637000D03*
D31*
X138430000Y-91387000D03*
D30*
X139830000Y-94637000D03*
%TD*%
D18*
%TO.C,R7*%
X179832000Y-60897000D03*
X179832000Y-62547000D03*
%TD*%
D35*
%TO.C,U11*%
X173962000Y-43561000D03*
X176262000Y-43561000D03*
X178562000Y-43561000D03*
D36*
X176262000Y-37261000D03*
%TD*%
D20*
%TO.C,BTN_1*%
X168453000Y-100965000D03*
X176403000Y-100965000D03*
X168453000Y-105465000D03*
X176403000Y-105465000D03*
%TD*%
D35*
%TO.C,U10*%
X182993000Y-43663000D03*
X185293000Y-43663000D03*
X187593000Y-43663000D03*
D36*
X185293000Y-37363000D03*
%TD*%
D18*
%TO.C,R12*%
X189484000Y-137287000D03*
X189484000Y-138937000D03*
%TD*%
D26*
%TO.C,C3*%
X191620000Y-92212000D03*
X191620000Y-90662000D03*
%TD*%
D18*
%TO.C,R5*%
X179832000Y-52134000D03*
X179832000Y-53784000D03*
%TD*%
D33*
%TO.C,D27*%
X189865000Y-37553500D03*
X189865000Y-39128500D03*
%TD*%
D18*
%TO.C,R8*%
X170434000Y-69787000D03*
X170434000Y-71437000D03*
%TD*%
D13*
%TO.C,R29*%
X191897000Y-102389000D03*
X191897000Y-100739000D03*
%TD*%
%TO.C,R39*%
X192024000Y-122074000D03*
X192024000Y-120424000D03*
%TD*%
D27*
%TO.C,RV2*%
X189864000Y-88138000D03*
D28*
X186614000Y-86738000D03*
D27*
X189864000Y-85338000D03*
%TD*%
D13*
%TO.C,R40*%
X199390000Y-56896000D03*
X199390000Y-55246000D03*
%TD*%
D18*
%TO.C,R20*%
X179324000Y-125476000D03*
X179324000Y-127126000D03*
%TD*%
D37*
%TO.C,J21*%
X192850000Y-22480000D03*
X192850000Y-30480000D03*
%TD*%
D17*
%TO.C,C34*%
X173328000Y-45872000D03*
X174878000Y-45872000D03*
%TD*%
D38*
%TO.C,C36*%
X168148000Y-22343000D03*
X168148000Y-30743000D03*
%TD*%
D35*
%TO.C,U12*%
X165072000Y-43561000D03*
X167372000Y-43561000D03*
X169672000Y-43561000D03*
D36*
X167372000Y-37261000D03*
%TD*%
D15*
%TO.C,C30*%
X170180000Y-45707000D03*
X170180000Y-47257000D03*
%TD*%
D14*
%TO.C,D8*%
X190373000Y-145446000D03*
X190373000Y-141446000D03*
%TD*%
D18*
%TO.C,R16*%
X170307000Y-64199000D03*
X170307000Y-65849000D03*
%TD*%
D13*
%TO.C,R38*%
X191897000Y-113946000D03*
X191897000Y-112296000D03*
%TD*%
M02*
