%TF.GenerationSoftware,KiCad,Pcbnew,7.0.1-0*%
%TF.CreationDate,2023-04-25T11:16:22+01:00*%
%TF.ProjectId,Main-Craft-PCB,4d61696e-2d43-4726-9166-742d5043422e,rev?*%
%TF.SameCoordinates,Original*%
%TF.FileFunction,Paste,Bot*%
%TF.FilePolarity,Positive*%
%FSLAX46Y46*%
G04 Gerber Fmt 4.6, Leading zero omitted, Abs format (unit mm)*
G04 Created by KiCad (PCBNEW 7.0.1-0) date 2023-04-25 11:16:22*
%MOMM*%
%LPD*%
G01*
G04 APERTURE LIST*
G04 Aperture macros list*
%AMRoundRect*
0 Rectangle with rounded corners*
0 $1 Rounding radius*
0 $2 $3 $4 $5 $6 $7 $8 $9 X,Y pos of 4 corners*
0 Add a 4 corners polygon primitive as box body*
4,1,4,$2,$3,$4,$5,$6,$7,$8,$9,$2,$3,0*
0 Add four circle primitives for the rounded corners*
1,1,$1+$1,$2,$3*
1,1,$1+$1,$4,$5*
1,1,$1+$1,$6,$7*
1,1,$1+$1,$8,$9*
0 Add four rect primitives between the rounded corners*
20,1,$1+$1,$2,$3,$4,$5,0*
20,1,$1+$1,$4,$5,$6,$7,0*
20,1,$1+$1,$6,$7,$8,$9,0*
20,1,$1+$1,$8,$9,$2,$3,0*%
G04 Aperture macros list end*
%ADD10RoundRect,0.250000X-0.650000X1.000000X-0.650000X-1.000000X0.650000X-1.000000X0.650000X1.000000X0*%
%ADD11RoundRect,0.250000X-1.000000X-0.650000X1.000000X-0.650000X1.000000X0.650000X-1.000000X0.650000X0*%
%ADD12RoundRect,0.200000X0.275000X-0.200000X0.275000X0.200000X-0.275000X0.200000X-0.275000X-0.200000X0*%
%ADD13RoundRect,0.150000X0.587500X0.150000X-0.587500X0.150000X-0.587500X-0.150000X0.587500X-0.150000X0*%
%ADD14RoundRect,0.200000X-0.200000X-0.275000X0.200000X-0.275000X0.200000X0.275000X-0.200000X0.275000X0*%
%ADD15RoundRect,0.225000X-0.225000X-0.250000X0.225000X-0.250000X0.225000X0.250000X-0.225000X0.250000X0*%
%ADD16RoundRect,0.200000X-0.275000X0.200000X-0.275000X-0.200000X0.275000X-0.200000X0.275000X0.200000X0*%
%ADD17RoundRect,0.150000X-0.587500X-0.150000X0.587500X-0.150000X0.587500X0.150000X-0.587500X0.150000X0*%
%ADD18RoundRect,0.225000X0.225000X0.250000X-0.225000X0.250000X-0.225000X-0.250000X0.225000X-0.250000X0*%
%ADD19RoundRect,0.200000X0.200000X0.275000X-0.200000X0.275000X-0.200000X-0.275000X0.200000X-0.275000X0*%
%ADD20RoundRect,0.162500X0.162500X-0.825000X0.162500X0.825000X-0.162500X0.825000X-0.162500X-0.825000X0*%
%ADD21RoundRect,0.150000X0.150000X-0.587500X0.150000X0.587500X-0.150000X0.587500X-0.150000X-0.587500X0*%
%ADD22RoundRect,0.150000X0.825000X0.150000X-0.825000X0.150000X-0.825000X-0.150000X0.825000X-0.150000X0*%
%ADD23RoundRect,0.150000X-0.150000X0.587500X-0.150000X-0.587500X0.150000X-0.587500X0.150000X0.587500X0*%
G04 APERTURE END LIST*
D10*
%TO.C,D1*%
X164846000Y-52737000D03*
X164846000Y-56737000D03*
%TD*%
D11*
%TO.C,D16*%
X182277000Y-103342000D03*
X186277000Y-103342000D03*
%TD*%
D12*
%TO.C,R47*%
X152649000Y-90106000D03*
X152649000Y-88456000D03*
%TD*%
D13*
%TO.C,Q14*%
X75359500Y-136845000D03*
X75359500Y-138745000D03*
X73484500Y-137795000D03*
%TD*%
%TO.C,Q13*%
X75154000Y-144719000D03*
X75154000Y-146619000D03*
X73279000Y-145669000D03*
%TD*%
D11*
%TO.C,D13*%
X169126000Y-103088000D03*
X173126000Y-103088000D03*
%TD*%
D14*
%TO.C,R59*%
X73264500Y-140523000D03*
X74914500Y-140523000D03*
%TD*%
D11*
%TO.C,D18*%
X182404000Y-119598000D03*
X186404000Y-119598000D03*
%TD*%
D12*
%TO.C,R50*%
X157782500Y-74676000D03*
X157782500Y-73026000D03*
%TD*%
%TO.C,R61*%
X77763464Y-130355000D03*
X77763464Y-128705000D03*
%TD*%
D15*
%TO.C,C18*%
X171526000Y-114010000D03*
X173076000Y-114010000D03*
%TD*%
%TO.C,C19*%
X171653000Y-122011000D03*
X173203000Y-122011000D03*
%TD*%
%TO.C,C21*%
X185153000Y-114137000D03*
X186703000Y-114137000D03*
%TD*%
D14*
%TO.C,R43*%
X141732000Y-90488000D03*
X143382000Y-90488000D03*
%TD*%
%TO.C,R46*%
X156015000Y-92583000D03*
X157665000Y-92583000D03*
%TD*%
D16*
%TO.C,R42*%
X139382000Y-93727000D03*
X139382000Y-95377000D03*
%TD*%
D10*
%TO.C,D5*%
X166624000Y-70136000D03*
X166624000Y-74136000D03*
%TD*%
D14*
%TO.C,R57*%
X72936928Y-148270000D03*
X74586928Y-148270000D03*
%TD*%
D17*
%TO.C,Q8*%
X141287000Y-95626000D03*
X141287000Y-93726000D03*
X143162000Y-94676000D03*
%TD*%
D11*
%TO.C,D14*%
X168872000Y-111343000D03*
X172872000Y-111343000D03*
%TD*%
D16*
%TO.C,R32*%
X144018000Y-77407000D03*
X144018000Y-79057000D03*
%TD*%
D18*
%TO.C,C15*%
X175908000Y-57023000D03*
X174358000Y-57023000D03*
%TD*%
D16*
%TO.C,R41*%
X137731000Y-93727000D03*
X137731000Y-95377000D03*
%TD*%
D14*
%TO.C,R45*%
X156015000Y-94107000D03*
X157665000Y-94107000D03*
%TD*%
D12*
%TO.C,R48*%
X154427000Y-90233000D03*
X154427000Y-88583000D03*
%TD*%
D11*
%TO.C,D17*%
X182404000Y-111470000D03*
X186404000Y-111470000D03*
%TD*%
D14*
%TO.C,R62*%
X73509464Y-132451000D03*
X75159464Y-132451000D03*
%TD*%
D17*
%TO.C,Q7*%
X137985000Y-92070000D03*
X137985000Y-90170000D03*
X139860000Y-91120000D03*
%TD*%
D19*
%TO.C,R24*%
X140779000Y-73406000D03*
X139129000Y-73406000D03*
%TD*%
D20*
%TO.C,U6*%
X187071000Y-86868000D03*
X185801000Y-86868000D03*
X184531000Y-86868000D03*
X183261000Y-86868000D03*
X183261000Y-81793000D03*
X184531000Y-81793000D03*
X185801000Y-81793000D03*
X187071000Y-81793000D03*
%TD*%
D15*
%TO.C,C17*%
X171666000Y-105755000D03*
X173216000Y-105755000D03*
%TD*%
D20*
%TO.C,U7*%
X187071000Y-96520000D03*
X185801000Y-96520000D03*
X184531000Y-96520000D03*
X183261000Y-96520000D03*
X183261000Y-91445000D03*
X184531000Y-91445000D03*
X185801000Y-91445000D03*
X187071000Y-91445000D03*
%TD*%
D10*
%TO.C,D2*%
X185293000Y-52737000D03*
X185293000Y-56737000D03*
%TD*%
%TO.C,D6*%
X185547000Y-70136000D03*
X185547000Y-74136000D03*
%TD*%
D19*
%TO.C,R51*%
X155432500Y-77978000D03*
X153782500Y-77978000D03*
%TD*%
D21*
%TO.C,Q9*%
X154427000Y-93853000D03*
X152527000Y-93853000D03*
X153477000Y-91978000D03*
%TD*%
D19*
%TO.C,R44*%
X143382000Y-92075000D03*
X141732000Y-92075000D03*
%TD*%
%TO.C,R52*%
X155432500Y-76327000D03*
X153782500Y-76327000D03*
%TD*%
D22*
%TO.C,U8*%
X177670000Y-60071000D03*
X177670000Y-61341000D03*
X177670000Y-62611000D03*
X177670000Y-63881000D03*
X177670000Y-65151000D03*
X177670000Y-66421000D03*
X177670000Y-67691000D03*
X172720000Y-67691000D03*
X172720000Y-66421000D03*
X172720000Y-65151000D03*
X172720000Y-63881000D03*
X172720000Y-62611000D03*
X172720000Y-61341000D03*
X172720000Y-60071000D03*
%TD*%
D15*
%TO.C,C22*%
X186207000Y-122464000D03*
X187757000Y-122464000D03*
%TD*%
D12*
%TO.C,R58*%
X77264500Y-138681000D03*
X77264500Y-137031000D03*
%TD*%
D15*
%TO.C,C20*%
X185153000Y-105882000D03*
X186703000Y-105882000D03*
%TD*%
D13*
%TO.C,Q11*%
X159101000Y-76266000D03*
X159101000Y-78166000D03*
X157226000Y-77216000D03*
%TD*%
D10*
%TO.C,D3*%
X164719000Y-61849000D03*
X164719000Y-65849000D03*
%TD*%
D12*
%TO.C,R49*%
X159433500Y-74676000D03*
X159433500Y-73026000D03*
%TD*%
D11*
%TO.C,D15*%
X168904000Y-119344000D03*
X172904000Y-119344000D03*
%TD*%
D16*
%TO.C,R33*%
X142367000Y-77407000D03*
X142367000Y-79057000D03*
%TD*%
D21*
%TO.C,Q10*%
X157983000Y-90805000D03*
X156083000Y-90805000D03*
X157033000Y-88930000D03*
%TD*%
D22*
%TO.C,U9*%
X152400000Y-107696000D03*
X152400000Y-108966000D03*
X152400000Y-110236000D03*
X152400000Y-111506000D03*
X152400000Y-112776000D03*
X152400000Y-114046000D03*
X152400000Y-115316000D03*
X147450000Y-115316000D03*
X147450000Y-114046000D03*
X147450000Y-112776000D03*
X147450000Y-111506000D03*
X147450000Y-110236000D03*
X147450000Y-108966000D03*
X147450000Y-107696000D03*
%TD*%
D13*
%TO.C,Q12*%
X155926000Y-72715000D03*
X155926000Y-74615000D03*
X154051000Y-73665000D03*
%TD*%
D12*
%TO.C,R56*%
X77063928Y-146301000D03*
X77063928Y-144651000D03*
%TD*%
D15*
%TO.C,C23*%
X148958000Y-117221000D03*
X150508000Y-117221000D03*
%TD*%
D19*
%TO.C,R25*%
X140779000Y-75057000D03*
X139129000Y-75057000D03*
%TD*%
D23*
%TO.C,Q5*%
X142306000Y-73660000D03*
X144206000Y-73660000D03*
X143256000Y-75535000D03*
%TD*%
D10*
%TO.C,D4*%
X185293000Y-61881000D03*
X185293000Y-65881000D03*
%TD*%
D13*
%TO.C,Q16*%
X75726536Y-128783000D03*
X75726536Y-130683000D03*
X73851536Y-129733000D03*
%TD*%
D23*
%TO.C,Q6*%
X138816000Y-76962000D03*
X140716000Y-76962000D03*
X139766000Y-78837000D03*
%TD*%
M02*
