%TF.GenerationSoftware,KiCad,Pcbnew,(7.0.0)*%
%TF.CreationDate,2023-04-25T13:06:37+01:00*%
%TF.ProjectId,BreakawayConnector,42726561-6b61-4776-9179-436f6e6e6563,rev?*%
%TF.SameCoordinates,Original*%
%TF.FileFunction,Legend,Top*%
%TF.FilePolarity,Positive*%
%FSLAX46Y46*%
G04 Gerber Fmt 4.6, Leading zero omitted, Abs format (unit mm)*
G04 Created by KiCad (PCBNEW (7.0.0)) date 2023-04-25 13:06:37*
%MOMM*%
%LPD*%
G01*
G04 APERTURE LIST*
%ADD10C,0.100000*%
G04 APERTURE END LIST*
D10*
X94938095Y-118982380D02*
X94938095Y-117982380D01*
X94938095Y-117982380D02*
X95176190Y-117982380D01*
X95176190Y-117982380D02*
X95319047Y-118030000D01*
X95319047Y-118030000D02*
X95414285Y-118125238D01*
X95414285Y-118125238D02*
X95461904Y-118220476D01*
X95461904Y-118220476D02*
X95509523Y-118410952D01*
X95509523Y-118410952D02*
X95509523Y-118553809D01*
X95509523Y-118553809D02*
X95461904Y-118744285D01*
X95461904Y-118744285D02*
X95414285Y-118839523D01*
X95414285Y-118839523D02*
X95319047Y-118934761D01*
X95319047Y-118934761D02*
X95176190Y-118982380D01*
X95176190Y-118982380D02*
X94938095Y-118982380D01*
X96509523Y-118887142D02*
X96461904Y-118934761D01*
X96461904Y-118934761D02*
X96319047Y-118982380D01*
X96319047Y-118982380D02*
X96223809Y-118982380D01*
X96223809Y-118982380D02*
X96080952Y-118934761D01*
X96080952Y-118934761D02*
X95985714Y-118839523D01*
X95985714Y-118839523D02*
X95938095Y-118744285D01*
X95938095Y-118744285D02*
X95890476Y-118553809D01*
X95890476Y-118553809D02*
X95890476Y-118410952D01*
X95890476Y-118410952D02*
X95938095Y-118220476D01*
X95938095Y-118220476D02*
X95985714Y-118125238D01*
X95985714Y-118125238D02*
X96080952Y-118030000D01*
X96080952Y-118030000D02*
X96223809Y-117982380D01*
X96223809Y-117982380D02*
X96319047Y-117982380D01*
X96319047Y-117982380D02*
X96461904Y-118030000D01*
X96461904Y-118030000D02*
X96509523Y-118077619D01*
X96985714Y-118934761D02*
X96985714Y-118982380D01*
X96985714Y-118982380D02*
X96938095Y-119077619D01*
X96938095Y-119077619D02*
X96890476Y-119125238D01*
X98299999Y-117982380D02*
X98299999Y-118696666D01*
X98299999Y-118696666D02*
X98252380Y-118839523D01*
X98252380Y-118839523D02*
X98157142Y-118934761D01*
X98157142Y-118934761D02*
X98014285Y-118982380D01*
X98014285Y-118982380D02*
X97919047Y-118982380D01*
X98776190Y-118982380D02*
X98776190Y-117982380D01*
X98776190Y-117982380D02*
X99157142Y-117982380D01*
X99157142Y-117982380D02*
X99252380Y-118030000D01*
X99252380Y-118030000D02*
X99299999Y-118077619D01*
X99299999Y-118077619D02*
X99347618Y-118172857D01*
X99347618Y-118172857D02*
X99347618Y-118315714D01*
X99347618Y-118315714D02*
X99299999Y-118410952D01*
X99299999Y-118410952D02*
X99252380Y-118458571D01*
X99252380Y-118458571D02*
X99157142Y-118506190D01*
X99157142Y-118506190D02*
X98776190Y-118506190D01*
X99823809Y-118934761D02*
X99823809Y-118982380D01*
X99823809Y-118982380D02*
X99776190Y-119077619D01*
X99776190Y-119077619D02*
X99728571Y-119125238D01*
X101328570Y-118982380D02*
X100852380Y-118982380D01*
X100852380Y-118982380D02*
X100852380Y-117982380D01*
X101566666Y-117982380D02*
X101804761Y-118982380D01*
X101804761Y-118982380D02*
X101995237Y-118268095D01*
X101995237Y-118268095D02*
X102185713Y-118982380D01*
X102185713Y-118982380D02*
X102423809Y-117982380D01*
X102852380Y-118934761D02*
X102852380Y-118982380D01*
X102852380Y-118982380D02*
X102804761Y-119077619D01*
X102804761Y-119077619D02*
X102757142Y-119125238D01*
X103880951Y-118982380D02*
X103880951Y-117982380D01*
X103880951Y-117982380D02*
X104452379Y-118982380D01*
X104452379Y-118982380D02*
X104452379Y-117982380D01*
X104928570Y-118982380D02*
X104928570Y-117982380D01*
X104928570Y-118458571D02*
X105499998Y-118458571D01*
X105499998Y-118982380D02*
X105499998Y-117982380D01*
X98038095Y-117682380D02*
X98038095Y-116682380D01*
X98038095Y-117158571D02*
X98609523Y-117158571D01*
X98609523Y-117682380D02*
X98609523Y-116682380D01*
X99085714Y-117158571D02*
X99419047Y-117158571D01*
X99561904Y-117682380D02*
X99085714Y-117682380D01*
X99085714Y-117682380D02*
X99085714Y-116682380D01*
X99085714Y-116682380D02*
X99561904Y-116682380D01*
X99847619Y-116682380D02*
X100180952Y-117682380D01*
X100180952Y-117682380D02*
X100514285Y-116682380D01*
X101419047Y-117587142D02*
X101371428Y-117634761D01*
X101371428Y-117634761D02*
X101228571Y-117682380D01*
X101228571Y-117682380D02*
X101133333Y-117682380D01*
X101133333Y-117682380D02*
X100990476Y-117634761D01*
X100990476Y-117634761D02*
X100895238Y-117539523D01*
X100895238Y-117539523D02*
X100847619Y-117444285D01*
X100847619Y-117444285D02*
X100800000Y-117253809D01*
X100800000Y-117253809D02*
X100800000Y-117110952D01*
X100800000Y-117110952D02*
X100847619Y-116920476D01*
X100847619Y-116920476D02*
X100895238Y-116825238D01*
X100895238Y-116825238D02*
X100990476Y-116730000D01*
X100990476Y-116730000D02*
X101133333Y-116682380D01*
X101133333Y-116682380D02*
X101228571Y-116682380D01*
X101228571Y-116682380D02*
X101371428Y-116730000D01*
X101371428Y-116730000D02*
X101419047Y-116777619D01*
X101800000Y-117634761D02*
X101942857Y-117682380D01*
X101942857Y-117682380D02*
X102180952Y-117682380D01*
X102180952Y-117682380D02*
X102276190Y-117634761D01*
X102276190Y-117634761D02*
X102323809Y-117587142D01*
X102323809Y-117587142D02*
X102371428Y-117491904D01*
X102371428Y-117491904D02*
X102371428Y-117396666D01*
X102371428Y-117396666D02*
X102323809Y-117301428D01*
X102323809Y-117301428D02*
X102276190Y-117253809D01*
X102276190Y-117253809D02*
X102180952Y-117206190D01*
X102180952Y-117206190D02*
X101990476Y-117158571D01*
X101990476Y-117158571D02*
X101895238Y-117110952D01*
X101895238Y-117110952D02*
X101847619Y-117063333D01*
X101847619Y-117063333D02*
X101800000Y-116968095D01*
X101800000Y-116968095D02*
X101800000Y-116872857D01*
X101800000Y-116872857D02*
X101847619Y-116777619D01*
X101847619Y-116777619D02*
X101895238Y-116730000D01*
X101895238Y-116730000D02*
X101990476Y-116682380D01*
X101990476Y-116682380D02*
X102228571Y-116682380D01*
X102228571Y-116682380D02*
X102371428Y-116730000D01*
M02*
