M48
; DRILL file {KiCad (7.0.0)} date Tue Apr 25 13:06:34 2023
; FORMAT={-:-/ absolute / inch / decimal}
; #@! TF.CreationDate,2023-04-25T13:06:34+01:00
; #@! TF.GenerationSoftware,Kicad,Pcbnew,(7.0.0)
; #@! TF.FileFunction,Plated,1,2,PTH
FMAT,2
INCH
; #@! TA.AperFunction,Plated,PTH,ComponentDrill
T1C0.0394
%
G90
G05
T1
X3.3754Y-3.7545
X3.3754Y-4.1195
X3.469Y-3.7849
X3.469Y-4.0891
X3.5899Y-3.4592
X3.5899Y-4.4148
X3.6477Y-3.5389
X3.6477Y-4.3351
X3.937Y-3.3465
X3.937Y-3.4449
X3.937Y-4.4291
X3.937Y-4.5276
X4.2263Y-3.5389
X4.2263Y-4.3351
X4.2841Y-3.4592
X4.2841Y-4.4148
X4.405Y-3.7849
X4.405Y-4.0891
X4.4987Y-3.7545
X4.4987Y-4.1195
T0
M30
