M48
; DRILL file {KiCad (7.0.0)} date Tue Apr 25 12:57:29 2023
; FORMAT={-:-/ absolute / inch / decimal}
; #@! TF.CreationDate,2023-04-25T12:57:29+01:00
; #@! TF.GenerationSoftware,Kicad,Pcbnew,(7.0.0)
; #@! TF.FileFunction,Plated,1,2,PTH
FMAT,2
INCH
; #@! TA.AperFunction,Plated,PTH,ViaDrill
T1C0.0157
; #@! TA.AperFunction,Plated,PTH,ComponentDrill
T2C0.0300
; #@! TA.AperFunction,Plated,PTH,ComponentDrill
T3C0.0402
%
G90
G05
T1
X5.3876Y-4.5374
X5.3876Y-4.6474
X5.3926Y-4.4274
X5.3976Y-4.7824
X5.7276Y-4.9124
X5.7876Y-4.6824
X5.9626Y-5.0924
X6.0076Y-5.1724
T2
X5.3126Y-3.8424
X5.3126Y-3.9424
X5.3126Y-4.0424
X5.3126Y-4.1424
X5.3126Y-4.2424
X5.3126Y-4.3624
X5.3126Y-4.4624
X5.3126Y-4.5624
X5.3126Y-4.6624
X5.3126Y-4.7624
X5.3126Y-4.8774
X5.3126Y-4.9774
X5.3126Y-5.0774
X5.3126Y-5.1774
X5.3126Y-5.2774
X5.3176Y-3.4274
X5.3176Y-3.5274
X5.3176Y-3.6374
X5.3176Y-3.7274
T3
X5.5565Y-3.4524
X5.5565Y-3.5524
X5.5565Y-3.6524
X5.5565Y-3.7524
X5.5565Y-3.8524
X5.5565Y-3.9524
X5.5565Y-4.0524
X5.5565Y-4.1524
X5.5565Y-4.2524
X5.5565Y-4.3524
X5.5565Y-4.4524
X5.5565Y-4.5524
X5.5565Y-4.6524
X5.5565Y-4.7524
X5.5565Y-4.8524
X5.5565Y-4.9524
X5.5565Y-5.0524
X5.5565Y-5.1524
X5.5565Y-5.2524
X5.5565Y-5.3524
X6.2565Y-3.4524
X6.2565Y-3.5524
X6.2565Y-3.6524
X6.2565Y-3.7524
X6.2565Y-3.8524
X6.2565Y-3.9524
X6.2565Y-4.0524
X6.2565Y-4.1524
X6.2565Y-4.2524
X6.2565Y-4.3524
X6.2565Y-4.4524
X6.2565Y-4.5524
X6.2565Y-4.6524
X6.2565Y-4.7524
X6.2565Y-4.8524
X6.2565Y-4.9524
X6.2565Y-5.0524
X6.2565Y-5.1524
X6.2565Y-5.2524
X6.2565Y-5.3524
T0
M30
