%TF.GenerationSoftware,KiCad,Pcbnew,(7.0.0)*%
%TF.CreationDate,2023-04-25T16:04:59+01:00*%
%TF.ProjectId,LiDAR-Board,4c694441-522d-4426-9f61-72642e6b6963,rev?*%
%TF.SameCoordinates,Original*%
%TF.FileFunction,Legend,Bot*%
%TF.FilePolarity,Positive*%
%FSLAX46Y46*%
G04 Gerber Fmt 4.6, Leading zero omitted, Abs format (unit mm)*
G04 Created by KiCad (PCBNEW (7.0.0)) date 2023-04-25 16:04:59*
%MOMM*%
%LPD*%
G01*
G04 APERTURE LIST*
%ADD10C,0.300000*%
%ADD11C,0.150000*%
%ADD12C,0.120000*%
G04 APERTURE END LIST*
D10*
X153682171Y-93629028D02*
X153682171Y-92914742D01*
X153682171Y-92914742D02*
X152182171Y-92914742D01*
X153682171Y-94129028D02*
X152682171Y-94129028D01*
X152182171Y-94129028D02*
X152253600Y-94057600D01*
X152253600Y-94057600D02*
X152325028Y-94129028D01*
X152325028Y-94129028D02*
X152253600Y-94200457D01*
X152253600Y-94200457D02*
X152182171Y-94129028D01*
X152182171Y-94129028D02*
X152325028Y-94129028D01*
X153682171Y-94843314D02*
X152182171Y-94843314D01*
X152182171Y-94843314D02*
X152182171Y-95200457D01*
X152182171Y-95200457D02*
X152253600Y-95414743D01*
X152253600Y-95414743D02*
X152396457Y-95557600D01*
X152396457Y-95557600D02*
X152539314Y-95629029D01*
X152539314Y-95629029D02*
X152825028Y-95700457D01*
X152825028Y-95700457D02*
X153039314Y-95700457D01*
X153039314Y-95700457D02*
X153325028Y-95629029D01*
X153325028Y-95629029D02*
X153467885Y-95557600D01*
X153467885Y-95557600D02*
X153610742Y-95414743D01*
X153610742Y-95414743D02*
X153682171Y-95200457D01*
X153682171Y-95200457D02*
X153682171Y-94843314D01*
X153253600Y-96271886D02*
X153253600Y-96986172D01*
X153682171Y-96129029D02*
X152182171Y-96629029D01*
X152182171Y-96629029D02*
X153682171Y-97129029D01*
X153682171Y-98486171D02*
X152967885Y-97986171D01*
X153682171Y-97629028D02*
X152182171Y-97629028D01*
X152182171Y-97629028D02*
X152182171Y-98200457D01*
X152182171Y-98200457D02*
X152253600Y-98343314D01*
X152253600Y-98343314D02*
X152325028Y-98414743D01*
X152325028Y-98414743D02*
X152467885Y-98486171D01*
X152467885Y-98486171D02*
X152682171Y-98486171D01*
X152682171Y-98486171D02*
X152825028Y-98414743D01*
X152825028Y-98414743D02*
X152896457Y-98343314D01*
X152896457Y-98343314D02*
X152967885Y-98200457D01*
X152967885Y-98200457D02*
X152967885Y-97629028D01*
X152896457Y-100529028D02*
X152967885Y-100743314D01*
X152967885Y-100743314D02*
X153039314Y-100814743D01*
X153039314Y-100814743D02*
X153182171Y-100886171D01*
X153182171Y-100886171D02*
X153396457Y-100886171D01*
X153396457Y-100886171D02*
X153539314Y-100814743D01*
X153539314Y-100814743D02*
X153610742Y-100743314D01*
X153610742Y-100743314D02*
X153682171Y-100600457D01*
X153682171Y-100600457D02*
X153682171Y-100029028D01*
X153682171Y-100029028D02*
X152182171Y-100029028D01*
X152182171Y-100029028D02*
X152182171Y-100529028D01*
X152182171Y-100529028D02*
X152253600Y-100671886D01*
X152253600Y-100671886D02*
X152325028Y-100743314D01*
X152325028Y-100743314D02*
X152467885Y-100814743D01*
X152467885Y-100814743D02*
X152610742Y-100814743D01*
X152610742Y-100814743D02*
X152753600Y-100743314D01*
X152753600Y-100743314D02*
X152825028Y-100671886D01*
X152825028Y-100671886D02*
X152896457Y-100529028D01*
X152896457Y-100529028D02*
X152896457Y-100029028D01*
X153682171Y-101529028D02*
X152682171Y-101529028D01*
X152967885Y-101529028D02*
X152825028Y-101600457D01*
X152825028Y-101600457D02*
X152753600Y-101671886D01*
X152753600Y-101671886D02*
X152682171Y-101814743D01*
X152682171Y-101814743D02*
X152682171Y-101957600D01*
X153610742Y-103029028D02*
X153682171Y-102886171D01*
X153682171Y-102886171D02*
X153682171Y-102600457D01*
X153682171Y-102600457D02*
X153610742Y-102457599D01*
X153610742Y-102457599D02*
X153467885Y-102386171D01*
X153467885Y-102386171D02*
X152896457Y-102386171D01*
X152896457Y-102386171D02*
X152753600Y-102457599D01*
X152753600Y-102457599D02*
X152682171Y-102600457D01*
X152682171Y-102600457D02*
X152682171Y-102886171D01*
X152682171Y-102886171D02*
X152753600Y-103029028D01*
X152753600Y-103029028D02*
X152896457Y-103100457D01*
X152896457Y-103100457D02*
X153039314Y-103100457D01*
X153039314Y-103100457D02*
X153182171Y-102386171D01*
X153682171Y-104386171D02*
X152896457Y-104386171D01*
X152896457Y-104386171D02*
X152753600Y-104314742D01*
X152753600Y-104314742D02*
X152682171Y-104171885D01*
X152682171Y-104171885D02*
X152682171Y-103886171D01*
X152682171Y-103886171D02*
X152753600Y-103743313D01*
X153610742Y-104386171D02*
X153682171Y-104243313D01*
X153682171Y-104243313D02*
X153682171Y-103886171D01*
X153682171Y-103886171D02*
X153610742Y-103743313D01*
X153610742Y-103743313D02*
X153467885Y-103671885D01*
X153467885Y-103671885D02*
X153325028Y-103671885D01*
X153325028Y-103671885D02*
X153182171Y-103743313D01*
X153182171Y-103743313D02*
X153110742Y-103886171D01*
X153110742Y-103886171D02*
X153110742Y-104243313D01*
X153110742Y-104243313D02*
X153039314Y-104386171D01*
X153682171Y-105100456D02*
X152182171Y-105100456D01*
X153110742Y-105243314D02*
X153682171Y-105671885D01*
X152682171Y-105671885D02*
X153253600Y-105100456D01*
X153682171Y-106957600D02*
X152896457Y-106957600D01*
X152896457Y-106957600D02*
X152753600Y-106886171D01*
X152753600Y-106886171D02*
X152682171Y-106743314D01*
X152682171Y-106743314D02*
X152682171Y-106457600D01*
X152682171Y-106457600D02*
X152753600Y-106314742D01*
X153610742Y-106957600D02*
X153682171Y-106814742D01*
X153682171Y-106814742D02*
X153682171Y-106457600D01*
X153682171Y-106457600D02*
X153610742Y-106314742D01*
X153610742Y-106314742D02*
X153467885Y-106243314D01*
X153467885Y-106243314D02*
X153325028Y-106243314D01*
X153325028Y-106243314D02*
X153182171Y-106314742D01*
X153182171Y-106314742D02*
X153110742Y-106457600D01*
X153110742Y-106457600D02*
X153110742Y-106814742D01*
X153110742Y-106814742D02*
X153039314Y-106957600D01*
X152682171Y-107529028D02*
X153682171Y-107814743D01*
X153682171Y-107814743D02*
X152967885Y-108100457D01*
X152967885Y-108100457D02*
X153682171Y-108386171D01*
X153682171Y-108386171D02*
X152682171Y-108671885D01*
X153682171Y-109886172D02*
X152896457Y-109886172D01*
X152896457Y-109886172D02*
X152753600Y-109814743D01*
X152753600Y-109814743D02*
X152682171Y-109671886D01*
X152682171Y-109671886D02*
X152682171Y-109386172D01*
X152682171Y-109386172D02*
X152753600Y-109243314D01*
X153610742Y-109886172D02*
X153682171Y-109743314D01*
X153682171Y-109743314D02*
X153682171Y-109386172D01*
X153682171Y-109386172D02*
X153610742Y-109243314D01*
X153610742Y-109243314D02*
X153467885Y-109171886D01*
X153467885Y-109171886D02*
X153325028Y-109171886D01*
X153325028Y-109171886D02*
X153182171Y-109243314D01*
X153182171Y-109243314D02*
X153110742Y-109386172D01*
X153110742Y-109386172D02*
X153110742Y-109743314D01*
X153110742Y-109743314D02*
X153039314Y-109886172D01*
X152682171Y-110457600D02*
X153682171Y-110814743D01*
X152682171Y-111171886D02*
X153682171Y-110814743D01*
X153682171Y-110814743D02*
X154039314Y-110671886D01*
X154039314Y-110671886D02*
X154110742Y-110600457D01*
X154110742Y-110600457D02*
X154182171Y-110457600D01*
X152896457Y-113143314D02*
X152967885Y-113357600D01*
X152967885Y-113357600D02*
X153039314Y-113429029D01*
X153039314Y-113429029D02*
X153182171Y-113500457D01*
X153182171Y-113500457D02*
X153396457Y-113500457D01*
X153396457Y-113500457D02*
X153539314Y-113429029D01*
X153539314Y-113429029D02*
X153610742Y-113357600D01*
X153610742Y-113357600D02*
X153682171Y-113214743D01*
X153682171Y-113214743D02*
X153682171Y-112643314D01*
X153682171Y-112643314D02*
X152182171Y-112643314D01*
X152182171Y-112643314D02*
X152182171Y-113143314D01*
X152182171Y-113143314D02*
X152253600Y-113286172D01*
X152253600Y-113286172D02*
X152325028Y-113357600D01*
X152325028Y-113357600D02*
X152467885Y-113429029D01*
X152467885Y-113429029D02*
X152610742Y-113429029D01*
X152610742Y-113429029D02*
X152753600Y-113357600D01*
X152753600Y-113357600D02*
X152825028Y-113286172D01*
X152825028Y-113286172D02*
X152896457Y-113143314D01*
X152896457Y-113143314D02*
X152896457Y-112643314D01*
X153682171Y-114357600D02*
X153610742Y-114214743D01*
X153610742Y-114214743D02*
X153539314Y-114143314D01*
X153539314Y-114143314D02*
X153396457Y-114071886D01*
X153396457Y-114071886D02*
X152967885Y-114071886D01*
X152967885Y-114071886D02*
X152825028Y-114143314D01*
X152825028Y-114143314D02*
X152753600Y-114214743D01*
X152753600Y-114214743D02*
X152682171Y-114357600D01*
X152682171Y-114357600D02*
X152682171Y-114571886D01*
X152682171Y-114571886D02*
X152753600Y-114714743D01*
X152753600Y-114714743D02*
X152825028Y-114786172D01*
X152825028Y-114786172D02*
X152967885Y-114857600D01*
X152967885Y-114857600D02*
X153396457Y-114857600D01*
X153396457Y-114857600D02*
X153539314Y-114786172D01*
X153539314Y-114786172D02*
X153610742Y-114714743D01*
X153610742Y-114714743D02*
X153682171Y-114571886D01*
X153682171Y-114571886D02*
X153682171Y-114357600D01*
X153682171Y-116143315D02*
X152896457Y-116143315D01*
X152896457Y-116143315D02*
X152753600Y-116071886D01*
X152753600Y-116071886D02*
X152682171Y-115929029D01*
X152682171Y-115929029D02*
X152682171Y-115643315D01*
X152682171Y-115643315D02*
X152753600Y-115500457D01*
X153610742Y-116143315D02*
X153682171Y-116000457D01*
X153682171Y-116000457D02*
X153682171Y-115643315D01*
X153682171Y-115643315D02*
X153610742Y-115500457D01*
X153610742Y-115500457D02*
X153467885Y-115429029D01*
X153467885Y-115429029D02*
X153325028Y-115429029D01*
X153325028Y-115429029D02*
X153182171Y-115500457D01*
X153182171Y-115500457D02*
X153110742Y-115643315D01*
X153110742Y-115643315D02*
X153110742Y-116000457D01*
X153110742Y-116000457D02*
X153039314Y-116143315D01*
X153682171Y-116857600D02*
X152682171Y-116857600D01*
X152967885Y-116857600D02*
X152825028Y-116929029D01*
X152825028Y-116929029D02*
X152753600Y-117000458D01*
X152753600Y-117000458D02*
X152682171Y-117143315D01*
X152682171Y-117143315D02*
X152682171Y-117286172D01*
X153682171Y-118429029D02*
X152182171Y-118429029D01*
X153610742Y-118429029D02*
X153682171Y-118286171D01*
X153682171Y-118286171D02*
X153682171Y-118000457D01*
X153682171Y-118000457D02*
X153610742Y-117857600D01*
X153610742Y-117857600D02*
X153539314Y-117786171D01*
X153539314Y-117786171D02*
X153396457Y-117714743D01*
X153396457Y-117714743D02*
X152967885Y-117714743D01*
X152967885Y-117714743D02*
X152825028Y-117786171D01*
X152825028Y-117786171D02*
X152753600Y-117857600D01*
X152753600Y-117857600D02*
X152682171Y-118000457D01*
X152682171Y-118000457D02*
X152682171Y-118286171D01*
X152682171Y-118286171D02*
X152753600Y-118429029D01*
X156112171Y-92914742D02*
X154612171Y-92914742D01*
X154612171Y-92914742D02*
X154612171Y-93271885D01*
X154612171Y-93271885D02*
X154683600Y-93486171D01*
X154683600Y-93486171D02*
X154826457Y-93629028D01*
X154826457Y-93629028D02*
X154969314Y-93700457D01*
X154969314Y-93700457D02*
X155255028Y-93771885D01*
X155255028Y-93771885D02*
X155469314Y-93771885D01*
X155469314Y-93771885D02*
X155755028Y-93700457D01*
X155755028Y-93700457D02*
X155897885Y-93629028D01*
X155897885Y-93629028D02*
X156040742Y-93486171D01*
X156040742Y-93486171D02*
X156112171Y-93271885D01*
X156112171Y-93271885D02*
X156112171Y-92914742D01*
X155969314Y-96171885D02*
X156040742Y-96100457D01*
X156040742Y-96100457D02*
X156112171Y-95886171D01*
X156112171Y-95886171D02*
X156112171Y-95743314D01*
X156112171Y-95743314D02*
X156040742Y-95529028D01*
X156040742Y-95529028D02*
X155897885Y-95386171D01*
X155897885Y-95386171D02*
X155755028Y-95314742D01*
X155755028Y-95314742D02*
X155469314Y-95243314D01*
X155469314Y-95243314D02*
X155255028Y-95243314D01*
X155255028Y-95243314D02*
X154969314Y-95314742D01*
X154969314Y-95314742D02*
X154826457Y-95386171D01*
X154826457Y-95386171D02*
X154683600Y-95529028D01*
X154683600Y-95529028D02*
X154612171Y-95743314D01*
X154612171Y-95743314D02*
X154612171Y-95886171D01*
X154612171Y-95886171D02*
X154683600Y-96100457D01*
X154683600Y-96100457D02*
X154755028Y-96171885D01*
X156112171Y-97029028D02*
X156040742Y-96886171D01*
X156040742Y-96886171D02*
X155969314Y-96814742D01*
X155969314Y-96814742D02*
X155826457Y-96743314D01*
X155826457Y-96743314D02*
X155397885Y-96743314D01*
X155397885Y-96743314D02*
X155255028Y-96814742D01*
X155255028Y-96814742D02*
X155183600Y-96886171D01*
X155183600Y-96886171D02*
X155112171Y-97029028D01*
X155112171Y-97029028D02*
X155112171Y-97243314D01*
X155112171Y-97243314D02*
X155183600Y-97386171D01*
X155183600Y-97386171D02*
X155255028Y-97457600D01*
X155255028Y-97457600D02*
X155397885Y-97529028D01*
X155397885Y-97529028D02*
X155826457Y-97529028D01*
X155826457Y-97529028D02*
X155969314Y-97457600D01*
X155969314Y-97457600D02*
X156040742Y-97386171D01*
X156040742Y-97386171D02*
X156112171Y-97243314D01*
X156112171Y-97243314D02*
X156112171Y-97029028D01*
X156112171Y-98386171D02*
X156040742Y-98243314D01*
X156040742Y-98243314D02*
X155897885Y-98171885D01*
X155897885Y-98171885D02*
X154612171Y-98171885D01*
X156040742Y-99529028D02*
X156112171Y-99386171D01*
X156112171Y-99386171D02*
X156112171Y-99100457D01*
X156112171Y-99100457D02*
X156040742Y-98957599D01*
X156040742Y-98957599D02*
X155897885Y-98886171D01*
X155897885Y-98886171D02*
X155326457Y-98886171D01*
X155326457Y-98886171D02*
X155183600Y-98957599D01*
X155183600Y-98957599D02*
X155112171Y-99100457D01*
X155112171Y-99100457D02*
X155112171Y-99386171D01*
X155112171Y-99386171D02*
X155183600Y-99529028D01*
X155183600Y-99529028D02*
X155326457Y-99600457D01*
X155326457Y-99600457D02*
X155469314Y-99600457D01*
X155469314Y-99600457D02*
X155612171Y-98886171D01*
X156040742Y-100314742D02*
X156112171Y-100314742D01*
X156112171Y-100314742D02*
X156255028Y-100243313D01*
X156255028Y-100243313D02*
X156326457Y-100171885D01*
X154612171Y-102286171D02*
X155683600Y-102286171D01*
X155683600Y-102286171D02*
X155897885Y-102214742D01*
X155897885Y-102214742D02*
X156040742Y-102071885D01*
X156040742Y-102071885D02*
X156112171Y-101857599D01*
X156112171Y-101857599D02*
X156112171Y-101714742D01*
X156112171Y-103900456D02*
X154612171Y-103900456D01*
X154612171Y-103900456D02*
X154612171Y-104471885D01*
X154612171Y-104471885D02*
X154683600Y-104614742D01*
X154683600Y-104614742D02*
X154755028Y-104686171D01*
X154755028Y-104686171D02*
X154897885Y-104757599D01*
X154897885Y-104757599D02*
X155112171Y-104757599D01*
X155112171Y-104757599D02*
X155255028Y-104686171D01*
X155255028Y-104686171D02*
X155326457Y-104614742D01*
X155326457Y-104614742D02*
X155397885Y-104471885D01*
X155397885Y-104471885D02*
X155397885Y-103900456D01*
X156040742Y-105971885D02*
X156112171Y-105829028D01*
X156112171Y-105829028D02*
X156112171Y-105543314D01*
X156112171Y-105543314D02*
X156040742Y-105400456D01*
X156040742Y-105400456D02*
X155897885Y-105329028D01*
X155897885Y-105329028D02*
X155326457Y-105329028D01*
X155326457Y-105329028D02*
X155183600Y-105400456D01*
X155183600Y-105400456D02*
X155112171Y-105543314D01*
X155112171Y-105543314D02*
X155112171Y-105829028D01*
X155112171Y-105829028D02*
X155183600Y-105971885D01*
X155183600Y-105971885D02*
X155326457Y-106043314D01*
X155326457Y-106043314D02*
X155469314Y-106043314D01*
X155469314Y-106043314D02*
X155612171Y-105329028D01*
X155112171Y-106686170D02*
X156112171Y-106686170D01*
X155255028Y-106686170D02*
X155183600Y-106757599D01*
X155183600Y-106757599D02*
X155112171Y-106900456D01*
X155112171Y-106900456D02*
X155112171Y-107114742D01*
X155112171Y-107114742D02*
X155183600Y-107257599D01*
X155183600Y-107257599D02*
X155326457Y-107329028D01*
X155326457Y-107329028D02*
X156112171Y-107329028D01*
X156112171Y-108686171D02*
X154612171Y-108686171D01*
X156040742Y-108686171D02*
X156112171Y-108543313D01*
X156112171Y-108543313D02*
X156112171Y-108257599D01*
X156112171Y-108257599D02*
X156040742Y-108114742D01*
X156040742Y-108114742D02*
X155969314Y-108043313D01*
X155969314Y-108043313D02*
X155826457Y-107971885D01*
X155826457Y-107971885D02*
X155397885Y-107971885D01*
X155397885Y-107971885D02*
X155255028Y-108043313D01*
X155255028Y-108043313D02*
X155183600Y-108114742D01*
X155183600Y-108114742D02*
X155112171Y-108257599D01*
X155112171Y-108257599D02*
X155112171Y-108543313D01*
X155112171Y-108543313D02*
X155183600Y-108686171D01*
X156112171Y-109614742D02*
X156040742Y-109471885D01*
X156040742Y-109471885D02*
X155897885Y-109400456D01*
X155897885Y-109400456D02*
X154612171Y-109400456D01*
X156040742Y-110757599D02*
X156112171Y-110614742D01*
X156112171Y-110614742D02*
X156112171Y-110329028D01*
X156112171Y-110329028D02*
X156040742Y-110186170D01*
X156040742Y-110186170D02*
X155897885Y-110114742D01*
X155897885Y-110114742D02*
X155326457Y-110114742D01*
X155326457Y-110114742D02*
X155183600Y-110186170D01*
X155183600Y-110186170D02*
X155112171Y-110329028D01*
X155112171Y-110329028D02*
X155112171Y-110614742D01*
X155112171Y-110614742D02*
X155183600Y-110757599D01*
X155183600Y-110757599D02*
X155326457Y-110829028D01*
X155326457Y-110829028D02*
X155469314Y-110829028D01*
X155469314Y-110829028D02*
X155612171Y-110114742D01*
X156112171Y-111471884D02*
X154612171Y-111471884D01*
X155183600Y-111471884D02*
X155112171Y-111614742D01*
X155112171Y-111614742D02*
X155112171Y-111900456D01*
X155112171Y-111900456D02*
X155183600Y-112043313D01*
X155183600Y-112043313D02*
X155255028Y-112114742D01*
X155255028Y-112114742D02*
X155397885Y-112186170D01*
X155397885Y-112186170D02*
X155826457Y-112186170D01*
X155826457Y-112186170D02*
X155969314Y-112114742D01*
X155969314Y-112114742D02*
X156040742Y-112043313D01*
X156040742Y-112043313D02*
X156112171Y-111900456D01*
X156112171Y-111900456D02*
X156112171Y-111614742D01*
X156112171Y-111614742D02*
X156040742Y-111471884D01*
X155112171Y-113471885D02*
X156112171Y-113471885D01*
X155112171Y-112829027D02*
X155897885Y-112829027D01*
X155897885Y-112829027D02*
X156040742Y-112900456D01*
X156040742Y-112900456D02*
X156112171Y-113043313D01*
X156112171Y-113043313D02*
X156112171Y-113257599D01*
X156112171Y-113257599D02*
X156040742Y-113400456D01*
X156040742Y-113400456D02*
X155969314Y-113471885D01*
X156112171Y-114186170D02*
X155112171Y-114186170D01*
X155397885Y-114186170D02*
X155255028Y-114257599D01*
X155255028Y-114257599D02*
X155183600Y-114329028D01*
X155183600Y-114329028D02*
X155112171Y-114471885D01*
X155112171Y-114471885D02*
X155112171Y-114614742D01*
X155112171Y-114971884D02*
X156112171Y-115329027D01*
X155112171Y-115686170D02*
X156112171Y-115329027D01*
X156112171Y-115329027D02*
X156469314Y-115186170D01*
X156469314Y-115186170D02*
X156540742Y-115114741D01*
X156540742Y-115114741D02*
X156612171Y-114971884D01*
X156040742Y-116329027D02*
X156112171Y-116329027D01*
X156112171Y-116329027D02*
X156255028Y-116257598D01*
X156255028Y-116257598D02*
X156326457Y-116186170D01*
X156112171Y-118586170D02*
X156112171Y-117871884D01*
X156112171Y-117871884D02*
X154612171Y-117871884D01*
X154612171Y-119843313D02*
X156112171Y-120200456D01*
X156112171Y-120200456D02*
X155040742Y-120486170D01*
X155040742Y-120486170D02*
X156112171Y-120771885D01*
X156112171Y-120771885D02*
X154612171Y-121129028D01*
X156112171Y-122343314D02*
X155326457Y-122343314D01*
X155326457Y-122343314D02*
X155183600Y-122271885D01*
X155183600Y-122271885D02*
X155112171Y-122129028D01*
X155112171Y-122129028D02*
X155112171Y-121843314D01*
X155112171Y-121843314D02*
X155183600Y-121700456D01*
X156040742Y-122343314D02*
X156112171Y-122200456D01*
X156112171Y-122200456D02*
X156112171Y-121843314D01*
X156112171Y-121843314D02*
X156040742Y-121700456D01*
X156040742Y-121700456D02*
X155897885Y-121629028D01*
X155897885Y-121629028D02*
X155755028Y-121629028D01*
X155755028Y-121629028D02*
X155612171Y-121700456D01*
X155612171Y-121700456D02*
X155540742Y-121843314D01*
X155540742Y-121843314D02*
X155540742Y-122200456D01*
X155540742Y-122200456D02*
X155469314Y-122343314D01*
X156112171Y-123271885D02*
X156040742Y-123129028D01*
X156040742Y-123129028D02*
X155897885Y-123057599D01*
X155897885Y-123057599D02*
X154612171Y-123057599D01*
X156112171Y-124057599D02*
X156040742Y-123914742D01*
X156040742Y-123914742D02*
X155897885Y-123843313D01*
X155897885Y-123843313D02*
X154612171Y-123843313D01*
X156040742Y-125200456D02*
X156112171Y-125057599D01*
X156112171Y-125057599D02*
X156112171Y-124771885D01*
X156112171Y-124771885D02*
X156040742Y-124629027D01*
X156040742Y-124629027D02*
X155897885Y-124557599D01*
X155897885Y-124557599D02*
X155326457Y-124557599D01*
X155326457Y-124557599D02*
X155183600Y-124629027D01*
X155183600Y-124629027D02*
X155112171Y-124771885D01*
X155112171Y-124771885D02*
X155112171Y-125057599D01*
X155112171Y-125057599D02*
X155183600Y-125200456D01*
X155183600Y-125200456D02*
X155326457Y-125271885D01*
X155326457Y-125271885D02*
X155469314Y-125271885D01*
X155469314Y-125271885D02*
X155612171Y-124557599D01*
X156112171Y-125914741D02*
X155112171Y-125914741D01*
X155397885Y-125914741D02*
X155255028Y-125986170D01*
X155255028Y-125986170D02*
X155183600Y-126057599D01*
X155183600Y-126057599D02*
X155112171Y-126200456D01*
X155112171Y-126200456D02*
X155112171Y-126343313D01*
X156040742Y-126914741D02*
X156112171Y-126914741D01*
X156112171Y-126914741D02*
X156255028Y-126843312D01*
X156255028Y-126843312D02*
X156326457Y-126771884D01*
X156112171Y-128457598D02*
X154612171Y-128457598D01*
X154612171Y-128457598D02*
X156112171Y-129314741D01*
X156112171Y-129314741D02*
X154612171Y-129314741D01*
X156112171Y-130929027D02*
X154612171Y-130929027D01*
X155326457Y-130929027D02*
X155326457Y-131786170D01*
X156112171Y-131786170D02*
X154612171Y-131786170D01*
X156112171Y-133143314D02*
X155326457Y-133143314D01*
X155326457Y-133143314D02*
X155183600Y-133071885D01*
X155183600Y-133071885D02*
X155112171Y-132929028D01*
X155112171Y-132929028D02*
X155112171Y-132643314D01*
X155112171Y-132643314D02*
X155183600Y-132500456D01*
X156040742Y-133143314D02*
X156112171Y-133000456D01*
X156112171Y-133000456D02*
X156112171Y-132643314D01*
X156112171Y-132643314D02*
X156040742Y-132500456D01*
X156040742Y-132500456D02*
X155897885Y-132429028D01*
X155897885Y-132429028D02*
X155755028Y-132429028D01*
X155755028Y-132429028D02*
X155612171Y-132500456D01*
X155612171Y-132500456D02*
X155540742Y-132643314D01*
X155540742Y-132643314D02*
X155540742Y-133000456D01*
X155540742Y-133000456D02*
X155469314Y-133143314D01*
X156112171Y-133857599D02*
X155112171Y-133857599D01*
X155397885Y-133857599D02*
X155255028Y-133929028D01*
X155255028Y-133929028D02*
X155183600Y-134000457D01*
X155183600Y-134000457D02*
X155112171Y-134143314D01*
X155112171Y-134143314D02*
X155112171Y-134286171D01*
X155112171Y-134643313D02*
X156112171Y-135000456D01*
X156112171Y-135000456D02*
X155112171Y-135357599D01*
X156040742Y-136500456D02*
X156112171Y-136357599D01*
X156112171Y-136357599D02*
X156112171Y-136071885D01*
X156112171Y-136071885D02*
X156040742Y-135929027D01*
X156040742Y-135929027D02*
X155897885Y-135857599D01*
X155897885Y-135857599D02*
X155326457Y-135857599D01*
X155326457Y-135857599D02*
X155183600Y-135929027D01*
X155183600Y-135929027D02*
X155112171Y-136071885D01*
X155112171Y-136071885D02*
X155112171Y-136357599D01*
X155112171Y-136357599D02*
X155183600Y-136500456D01*
X155183600Y-136500456D02*
X155326457Y-136571885D01*
X155326457Y-136571885D02*
X155469314Y-136571885D01*
X155469314Y-136571885D02*
X155612171Y-135857599D01*
X155112171Y-137071884D02*
X156112171Y-137429027D01*
X155112171Y-137786170D02*
X156112171Y-137429027D01*
X156112171Y-137429027D02*
X156469314Y-137286170D01*
X156469314Y-137286170D02*
X156540742Y-137214741D01*
X156540742Y-137214741D02*
X156612171Y-137071884D01*
D11*
%TO.C,Q2*%
X144113238Y-130383619D02*
X144208476Y-130336000D01*
X144208476Y-130336000D02*
X144303714Y-130240761D01*
X144303714Y-130240761D02*
X144446571Y-130097904D01*
X144446571Y-130097904D02*
X144541809Y-130050285D01*
X144541809Y-130050285D02*
X144637047Y-130050285D01*
X144589428Y-130288380D02*
X144684666Y-130240761D01*
X144684666Y-130240761D02*
X144779904Y-130145523D01*
X144779904Y-130145523D02*
X144827523Y-129955047D01*
X144827523Y-129955047D02*
X144827523Y-129621714D01*
X144827523Y-129621714D02*
X144779904Y-129431238D01*
X144779904Y-129431238D02*
X144684666Y-129336000D01*
X144684666Y-129336000D02*
X144589428Y-129288380D01*
X144589428Y-129288380D02*
X144398952Y-129288380D01*
X144398952Y-129288380D02*
X144303714Y-129336000D01*
X144303714Y-129336000D02*
X144208476Y-129431238D01*
X144208476Y-129431238D02*
X144160857Y-129621714D01*
X144160857Y-129621714D02*
X144160857Y-129955047D01*
X144160857Y-129955047D02*
X144208476Y-130145523D01*
X144208476Y-130145523D02*
X144303714Y-130240761D01*
X144303714Y-130240761D02*
X144398952Y-130288380D01*
X144398952Y-130288380D02*
X144589428Y-130288380D01*
X143779904Y-129383619D02*
X143732285Y-129336000D01*
X143732285Y-129336000D02*
X143637047Y-129288380D01*
X143637047Y-129288380D02*
X143398952Y-129288380D01*
X143398952Y-129288380D02*
X143303714Y-129336000D01*
X143303714Y-129336000D02*
X143256095Y-129383619D01*
X143256095Y-129383619D02*
X143208476Y-129478857D01*
X143208476Y-129478857D02*
X143208476Y-129574095D01*
X143208476Y-129574095D02*
X143256095Y-129716952D01*
X143256095Y-129716952D02*
X143827523Y-130288380D01*
X143827523Y-130288380D02*
X143208476Y-130288380D01*
%TO.C,Q1*%
X144598138Y-120978419D02*
X144693376Y-120930800D01*
X144693376Y-120930800D02*
X144788614Y-120835561D01*
X144788614Y-120835561D02*
X144931471Y-120692704D01*
X144931471Y-120692704D02*
X145026709Y-120645085D01*
X145026709Y-120645085D02*
X145121947Y-120645085D01*
X145074328Y-120883180D02*
X145169566Y-120835561D01*
X145169566Y-120835561D02*
X145264804Y-120740323D01*
X145264804Y-120740323D02*
X145312423Y-120549847D01*
X145312423Y-120549847D02*
X145312423Y-120216514D01*
X145312423Y-120216514D02*
X145264804Y-120026038D01*
X145264804Y-120026038D02*
X145169566Y-119930800D01*
X145169566Y-119930800D02*
X145074328Y-119883180D01*
X145074328Y-119883180D02*
X144883852Y-119883180D01*
X144883852Y-119883180D02*
X144788614Y-119930800D01*
X144788614Y-119930800D02*
X144693376Y-120026038D01*
X144693376Y-120026038D02*
X144645757Y-120216514D01*
X144645757Y-120216514D02*
X144645757Y-120549847D01*
X144645757Y-120549847D02*
X144693376Y-120740323D01*
X144693376Y-120740323D02*
X144788614Y-120835561D01*
X144788614Y-120835561D02*
X144883852Y-120883180D01*
X144883852Y-120883180D02*
X145074328Y-120883180D01*
X143693376Y-120883180D02*
X144264804Y-120883180D01*
X143979090Y-120883180D02*
X143979090Y-119883180D01*
X143979090Y-119883180D02*
X144074328Y-120026038D01*
X144074328Y-120026038D02*
X144169566Y-120121276D01*
X144169566Y-120121276D02*
X144264804Y-120168895D01*
%TO.C,R1*%
X148725666Y-125429380D02*
X149058999Y-124953190D01*
X149297094Y-125429380D02*
X149297094Y-124429380D01*
X149297094Y-124429380D02*
X148916142Y-124429380D01*
X148916142Y-124429380D02*
X148820904Y-124477000D01*
X148820904Y-124477000D02*
X148773285Y-124524619D01*
X148773285Y-124524619D02*
X148725666Y-124619857D01*
X148725666Y-124619857D02*
X148725666Y-124762714D01*
X148725666Y-124762714D02*
X148773285Y-124857952D01*
X148773285Y-124857952D02*
X148820904Y-124905571D01*
X148820904Y-124905571D02*
X148916142Y-124953190D01*
X148916142Y-124953190D02*
X149297094Y-124953190D01*
X147773285Y-125429380D02*
X148344713Y-125429380D01*
X148058999Y-125429380D02*
X148058999Y-124429380D01*
X148058999Y-124429380D02*
X148154237Y-124572238D01*
X148154237Y-124572238D02*
X148249475Y-124667476D01*
X148249475Y-124667476D02*
X148344713Y-124715095D01*
%TO.C,R2*%
X148695666Y-130857380D02*
X149028999Y-130381190D01*
X149267094Y-130857380D02*
X149267094Y-129857380D01*
X149267094Y-129857380D02*
X148886142Y-129857380D01*
X148886142Y-129857380D02*
X148790904Y-129905000D01*
X148790904Y-129905000D02*
X148743285Y-129952619D01*
X148743285Y-129952619D02*
X148695666Y-130047857D01*
X148695666Y-130047857D02*
X148695666Y-130190714D01*
X148695666Y-130190714D02*
X148743285Y-130285952D01*
X148743285Y-130285952D02*
X148790904Y-130333571D01*
X148790904Y-130333571D02*
X148886142Y-130381190D01*
X148886142Y-130381190D02*
X149267094Y-130381190D01*
X148314713Y-129952619D02*
X148267094Y-129905000D01*
X148267094Y-129905000D02*
X148171856Y-129857380D01*
X148171856Y-129857380D02*
X147933761Y-129857380D01*
X147933761Y-129857380D02*
X147838523Y-129905000D01*
X147838523Y-129905000D02*
X147790904Y-129952619D01*
X147790904Y-129952619D02*
X147743285Y-130047857D01*
X147743285Y-130047857D02*
X147743285Y-130143095D01*
X147743285Y-130143095D02*
X147790904Y-130285952D01*
X147790904Y-130285952D02*
X148362332Y-130857380D01*
X148362332Y-130857380D02*
X147743285Y-130857380D01*
D12*
%TO.C,Q2*%
X144502900Y-125805800D02*
X143852900Y-125805800D01*
X144502900Y-128925800D02*
X143852900Y-128925800D01*
X144502900Y-125805800D02*
X146177900Y-125805800D01*
X144502900Y-128925800D02*
X145152900Y-128925800D01*
%TO.C,Q1*%
X144502900Y-121355800D02*
X143852900Y-121355800D01*
X144502900Y-124475800D02*
X143852900Y-124475800D01*
X144502900Y-121355800D02*
X146177900Y-121355800D01*
X144502900Y-124475800D02*
X145152900Y-124475800D01*
%TO.C,R1*%
X148796258Y-127014500D02*
X148321742Y-127014500D01*
X148796258Y-125969500D02*
X148321742Y-125969500D01*
%TO.C,R2*%
X148796258Y-129554500D02*
X148321742Y-129554500D01*
X148796258Y-128509500D02*
X148321742Y-128509500D01*
%TD*%
M02*
