%TF.GenerationSoftware,KiCad,Pcbnew,(6.0.2)*%
%TF.CreationDate,2022-03-26T13:32:26+00:00*%
%TF.ProjectId,Main-Craft-PCB,4d61696e-2d43-4726-9166-742d5043422e,rev?*%
%TF.SameCoordinates,Original*%
%TF.FileFunction,Soldermask,Bot*%
%TF.FilePolarity,Negative*%
%FSLAX46Y46*%
G04 Gerber Fmt 4.6, Leading zero omitted, Abs format (unit mm)*
G04 Created by KiCad (PCBNEW (6.0.2)) date 2022-03-26 13:32:26*
%MOMM*%
%LPD*%
G01*
G04 APERTURE LIST*
G04 Aperture macros list*
%AMRoundRect*
0 Rectangle with rounded corners*
0 $1 Rounding radius*
0 $2 $3 $4 $5 $6 $7 $8 $9 X,Y pos of 4 corners*
0 Add a 4 corners polygon primitive as box body*
4,1,4,$2,$3,$4,$5,$6,$7,$8,$9,$2,$3,0*
0 Add four circle primitives for the rounded corners*
1,1,$1+$1,$2,$3*
1,1,$1+$1,$4,$5*
1,1,$1+$1,$6,$7*
1,1,$1+$1,$8,$9*
0 Add four rect primitives between the rounded corners*
20,1,$1+$1,$2,$3,$4,$5,0*
20,1,$1+$1,$4,$5,$6,$7,0*
20,1,$1+$1,$6,$7,$8,$9,0*
20,1,$1+$1,$8,$9,$2,$3,0*%
G04 Aperture macros list end*
%ADD10C,3.200000*%
%ADD11C,1.530000*%
%ADD12R,1.530000X1.530000*%
%ADD13RoundRect,0.500000X1.000000X-0.500000X1.000000X0.500000X-1.000000X0.500000X-1.000000X-0.500000X0*%
%ADD14O,1.700000X1.700000*%
%ADD15R,1.700000X1.700000*%
%ADD16C,1.524000*%
G04 APERTURE END LIST*
D10*
%TO.C,U1*%
X179070000Y-61590000D03*
X132080000Y-136520000D03*
X130810000Y-60320000D03*
X177800000Y-136520000D03*
D11*
X133350000Y-79370000D03*
X133350000Y-81910000D03*
X133350000Y-84450000D03*
X133350000Y-86990000D03*
X130810000Y-125090000D03*
X133350000Y-127630000D03*
X130810000Y-76830000D03*
X130810000Y-79370000D03*
X130810000Y-81910000D03*
X176530000Y-75306000D03*
X130810000Y-84450000D03*
X130810000Y-86990000D03*
X130810000Y-89530000D03*
X130810000Y-92070000D03*
X176530000Y-127630000D03*
X176530000Y-85466000D03*
X176530000Y-130170000D03*
X176530000Y-102230000D03*
X130810000Y-102230000D03*
X130810000Y-99690000D03*
X133350000Y-104770000D03*
X133350000Y-107310000D03*
X133350000Y-102230000D03*
X133350000Y-89530000D03*
X133350000Y-99690000D03*
X133350000Y-92070000D03*
X133350000Y-97150000D03*
X133350000Y-112390000D03*
X176530000Y-122550000D03*
X133350000Y-122550000D03*
X133350000Y-114930000D03*
X133350000Y-109850000D03*
X133350000Y-117470000D03*
X130810000Y-120010000D03*
X130810000Y-117470000D03*
X130810000Y-122550000D03*
X133350000Y-125090000D03*
X130810000Y-130170000D03*
X133350000Y-130170000D03*
X130810000Y-127630000D03*
X133350000Y-132710000D03*
X130810000Y-132710000D03*
X179070000Y-72766000D03*
X133350000Y-120010000D03*
X179070000Y-109850000D03*
X133350000Y-76830000D03*
X133350000Y-74290000D03*
X179070000Y-65146000D03*
D12*
X176530000Y-65146000D03*
D11*
X179070000Y-67686000D03*
X179070000Y-70226000D03*
D12*
X176530000Y-92070000D03*
D11*
X176530000Y-125090000D03*
X179070000Y-75306000D03*
X179070000Y-77846000D03*
X179070000Y-80386000D03*
X130810000Y-114930000D03*
X176530000Y-72766000D03*
X176530000Y-107310000D03*
X179070000Y-132710000D03*
X176530000Y-77846000D03*
X179070000Y-117470000D03*
X176530000Y-109850000D03*
X176530000Y-99690000D03*
X179070000Y-130170000D03*
X176530000Y-67686000D03*
X176530000Y-88006000D03*
X176530000Y-80386000D03*
X176530000Y-70226000D03*
X176530000Y-82926000D03*
X176530000Y-94610000D03*
X130810000Y-107310000D03*
D12*
X130810000Y-97150000D03*
D11*
X176530000Y-104770000D03*
X176530000Y-97150000D03*
X179070000Y-112390000D03*
X176530000Y-114930000D03*
X130810000Y-109850000D03*
X176530000Y-117470000D03*
X179070000Y-114930000D03*
X176530000Y-120010000D03*
X179070000Y-82926000D03*
X179070000Y-120010000D03*
X179070000Y-85466000D03*
X179070000Y-122550000D03*
X179070000Y-99690000D03*
X179070000Y-125090000D03*
X179070000Y-94610000D03*
X179070000Y-127630000D03*
X179070000Y-102230000D03*
X179070000Y-97150000D03*
X179070000Y-92070000D03*
X130810000Y-104770000D03*
X179070000Y-88006000D03*
X179070000Y-104770000D03*
X179070000Y-107310000D03*
X176530000Y-132710000D03*
X176530000Y-112390000D03*
X130810000Y-112390000D03*
D12*
X130810000Y-74290000D03*
%TD*%
D13*
%TO.C,SW7*%
X124460000Y-71175000D03*
X124460000Y-66675000D03*
X124460000Y-62175000D03*
%TD*%
D14*
%TO.C,BT1*%
X124460000Y-58420000D03*
D15*
X124460000Y-55880000D03*
%TD*%
%TO.C,J10*%
X141605000Y-127635000D03*
D14*
X144145000Y-127635000D03*
X146685000Y-127635000D03*
X149225000Y-127635000D03*
X151765000Y-127635000D03*
X154305000Y-127635000D03*
%TD*%
D15*
%TO.C,J4*%
X151373990Y-140970000D03*
D14*
X153913990Y-140970000D03*
X156453990Y-140970000D03*
%TD*%
D15*
%TO.C,J8*%
X137556000Y-140970000D03*
D14*
X140096000Y-140970000D03*
X142636000Y-140970000D03*
%TD*%
D15*
%TO.C,J2*%
X151373990Y-133350000D03*
D14*
X153913990Y-133350000D03*
X156453990Y-133350000D03*
%TD*%
D15*
%TO.C,J9*%
X137556000Y-144780000D03*
D14*
X140096000Y-144780000D03*
X142636000Y-144780000D03*
%TD*%
D15*
%TO.C,J5*%
X151373990Y-144780000D03*
D14*
X153913990Y-144780000D03*
X156453990Y-144780000D03*
%TD*%
D15*
%TO.C,J7*%
X137556000Y-137160000D03*
D14*
X140096000Y-137160000D03*
X142636000Y-137160000D03*
%TD*%
D15*
%TO.C,J3*%
X151388990Y-137160000D03*
D14*
X153928990Y-137160000D03*
X156468990Y-137160000D03*
%TD*%
D15*
%TO.C,J6*%
X137571000Y-133350000D03*
D14*
X140111000Y-133350000D03*
X142651000Y-133350000D03*
%TD*%
D16*
%TO.C,BZ1*%
X162390000Y-140716000D03*
X172890000Y-140716000D03*
%TD*%
M02*
