%TF.GenerationSoftware,KiCad,Pcbnew,(6.0.2-0)*%
%TF.CreationDate,2022-03-29T11:50:41+01:00*%
%TF.ProjectId,Main-Craft-PCB,4d61696e-2d43-4726-9166-742d5043422e,rev?*%
%TF.SameCoordinates,Original*%
%TF.FileFunction,Soldermask,Top*%
%TF.FilePolarity,Negative*%
%FSLAX46Y46*%
G04 Gerber Fmt 4.6, Leading zero omitted, Abs format (unit mm)*
G04 Created by KiCad (PCBNEW (6.0.2-0)) date 2022-03-29 11:50:41*
%MOMM*%
%LPD*%
G01*
G04 APERTURE LIST*
G04 Aperture macros list*
%AMRoundRect*
0 Rectangle with rounded corners*
0 $1 Rounding radius*
0 $2 $3 $4 $5 $6 $7 $8 $9 X,Y pos of 4 corners*
0 Add a 4 corners polygon primitive as box body*
4,1,4,$2,$3,$4,$5,$6,$7,$8,$9,$2,$3,0*
0 Add four circle primitives for the rounded corners*
1,1,$1+$1,$2,$3*
1,1,$1+$1,$4,$5*
1,1,$1+$1,$6,$7*
1,1,$1+$1,$8,$9*
0 Add four rect primitives between the rounded corners*
20,1,$1+$1,$2,$3,$4,$5,0*
20,1,$1+$1,$4,$5,$6,$7,0*
20,1,$1+$1,$6,$7,$8,$9,0*
20,1,$1+$1,$8,$9,$2,$3,0*%
G04 Aperture macros list end*
%ADD10RoundRect,0.200000X-0.200000X-0.275000X0.200000X-0.275000X0.200000X0.275000X-0.200000X0.275000X0*%
%ADD11RoundRect,0.200000X0.275000X-0.200000X0.275000X0.200000X-0.275000X0.200000X-0.275000X-0.200000X0*%
%ADD12RoundRect,0.218750X0.256250X-0.218750X0.256250X0.218750X-0.256250X0.218750X-0.256250X-0.218750X0*%
%ADD13RoundRect,0.300000X0.300000X-0.300000X0.300000X0.300000X-0.300000X0.300000X-0.300000X-0.300000X0*%
%ADD14RoundRect,0.375000X0.375000X-0.425000X0.375000X0.425000X-0.375000X0.425000X-0.375000X-0.425000X0*%
%ADD15RoundRect,0.218750X-0.256250X0.218750X-0.256250X-0.218750X0.256250X-0.218750X0.256250X0.218750X0*%
%ADD16R,1.700000X1.700000*%
%ADD17O,1.700000X1.700000*%
%ADD18RoundRect,0.150000X-0.150000X0.587500X-0.150000X-0.587500X0.150000X-0.587500X0.150000X0.587500X0*%
%ADD19R,1.550000X1.300000*%
%ADD20RoundRect,0.200000X0.200000X0.275000X-0.200000X0.275000X-0.200000X-0.275000X0.200000X-0.275000X0*%
%ADD21RoundRect,0.200000X-0.275000X0.200000X-0.275000X-0.200000X0.275000X-0.200000X0.275000X0.200000X0*%
%ADD22RoundRect,0.225000X-0.225000X-0.250000X0.225000X-0.250000X0.225000X0.250000X-0.225000X0.250000X0*%
%ADD23RoundRect,0.225000X-0.250000X0.225000X-0.250000X-0.225000X0.250000X-0.225000X0.250000X0.225000X0*%
%ADD24R,1.000000X3.150000*%
%ADD25RoundRect,0.162500X0.825000X0.162500X-0.825000X0.162500X-0.825000X-0.162500X0.825000X-0.162500X0*%
%ADD26RoundRect,0.300000X0.300000X-0.950000X0.300000X0.950000X-0.300000X0.950000X-0.300000X-0.950000X0*%
%ADD27R,1.500000X2.000000*%
%ADD28R,3.800000X2.000000*%
%ADD29RoundRect,0.225000X0.250000X-0.225000X0.250000X0.225000X-0.250000X0.225000X-0.250000X-0.225000X0*%
%ADD30RoundRect,0.200000X0.200000X0.300000X-0.200000X0.300000X-0.200000X-0.300000X0.200000X-0.300000X0*%
%ADD31RoundRect,0.225000X0.225000X0.250000X-0.225000X0.250000X-0.225000X-0.250000X0.225000X-0.250000X0*%
%ADD32RoundRect,0.500000X1.000000X-0.500000X1.000000X0.500000X-1.000000X0.500000X-1.000000X-0.500000X0*%
%ADD33C,3.200000*%
%ADD34C,1.530000*%
%ADD35R,1.530000X1.530000*%
%ADD36RoundRect,0.150000X0.587500X0.150000X-0.587500X0.150000X-0.587500X-0.150000X0.587500X-0.150000X0*%
%ADD37RoundRect,0.300000X-0.300000X0.300000X-0.300000X-0.300000X0.300000X-0.300000X0.300000X0.300000X0*%
%ADD38RoundRect,0.375000X-0.375000X0.425000X-0.375000X-0.425000X0.375000X-0.425000X0.375000X0.425000X0*%
%ADD39RoundRect,0.150000X0.150000X-0.587500X0.150000X0.587500X-0.150000X0.587500X-0.150000X-0.587500X0*%
%ADD40C,1.524000*%
G04 APERTURE END LIST*
D10*
%TO.C,R49*%
X152845000Y-80645000D03*
X154495000Y-80645000D03*
%TD*%
D11*
%TO.C,R21*%
X143510000Y-114490000D03*
X143510000Y-112840000D03*
%TD*%
D12*
%TO.C,D17*%
X122938505Y-78892500D03*
X122938505Y-77317500D03*
%TD*%
D13*
%TO.C,RV1*%
X156105000Y-75060000D03*
D14*
X152855000Y-73660000D03*
D13*
X156105000Y-72260000D03*
%TD*%
D15*
%TO.C,D7*%
X145415000Y-116052500D03*
X145415000Y-117627500D03*
%TD*%
D16*
%TO.C,J10*%
X141605000Y-127635000D03*
D17*
X144145000Y-127635000D03*
X146685000Y-127635000D03*
X149225000Y-127635000D03*
X151765000Y-127635000D03*
X154305000Y-127635000D03*
%TD*%
D18*
%TO.C,Q5*%
X143825000Y-96217500D03*
X141925000Y-96217500D03*
X142875000Y-98092500D03*
%TD*%
D15*
%TO.C,D2*%
X153035000Y-116052500D03*
X153035000Y-117627500D03*
%TD*%
D19*
%TO.C,SW1*%
X163665000Y-66330000D03*
X171615000Y-66330000D03*
X171615000Y-70830000D03*
X163665000Y-70830000D03*
%TD*%
D18*
%TO.C,Q7*%
X159065000Y-105742500D03*
X157165000Y-105742500D03*
X158115000Y-107617500D03*
%TD*%
D15*
%TO.C,D4*%
X151130000Y-116052500D03*
X151130000Y-117627500D03*
%TD*%
D20*
%TO.C,R9*%
X143700000Y-93980000D03*
X142050000Y-93980000D03*
%TD*%
D21*
%TO.C,R14*%
X161290000Y-69025000D03*
X161290000Y-70675000D03*
%TD*%
%TO.C,R33*%
X172720000Y-107887000D03*
X172720000Y-109537000D03*
%TD*%
D15*
%TO.C,D3*%
X154940000Y-116052500D03*
X154940000Y-117627500D03*
%TD*%
D20*
%TO.C,R29*%
X143700000Y-103505000D03*
X142050000Y-103505000D03*
%TD*%
D11*
%TO.C,R23*%
X162560000Y-85661000D03*
X162560000Y-84011000D03*
%TD*%
D18*
%TO.C,Q3*%
X153985000Y-96217500D03*
X152085000Y-96217500D03*
X153035000Y-98092500D03*
%TD*%
D11*
%TO.C,R35*%
X160020000Y-74485000D03*
X160020000Y-72835000D03*
%TD*%
D22*
%TO.C,C8*%
X135705022Y-68100428D03*
X137255022Y-68100428D03*
%TD*%
D11*
%TO.C,R40*%
X162935495Y-106378514D03*
X162935495Y-104728514D03*
%TD*%
D23*
%TO.C,C2*%
X137085000Y-73005000D03*
X137085000Y-74555000D03*
%TD*%
D20*
%TO.C,R46*%
X141795000Y-80645000D03*
X140145000Y-80645000D03*
%TD*%
D22*
%TO.C,C7*%
X145844526Y-68100428D03*
X147394526Y-68100428D03*
%TD*%
D18*
%TO.C,Q14*%
X142555000Y-82882500D03*
X140655000Y-82882500D03*
X141605000Y-84757500D03*
%TD*%
D11*
%TO.C,R2*%
X137795000Y-114490000D03*
X137795000Y-112840000D03*
%TD*%
%TO.C,R6*%
X154940000Y-114490000D03*
X154940000Y-112840000D03*
%TD*%
D24*
%TO.C,J1*%
X166370000Y-60310000D03*
X166370000Y-55260000D03*
X168910000Y-60310000D03*
X168910000Y-55260000D03*
X171450000Y-60310000D03*
X171450000Y-55260000D03*
X173990000Y-60310000D03*
X173990000Y-55260000D03*
%TD*%
D15*
%TO.C,D6*%
X147320000Y-116052500D03*
X147320000Y-117627500D03*
%TD*%
D16*
%TO.C,J4*%
X151373990Y-140970000D03*
D17*
X153913990Y-140970000D03*
X156453990Y-140970000D03*
%TD*%
D11*
%TO.C,R4*%
X153035000Y-114490000D03*
X153035000Y-112840000D03*
%TD*%
D15*
%TO.C,D5*%
X149225000Y-116052500D03*
X149225000Y-117627500D03*
%TD*%
D11*
%TO.C,R30*%
X172720000Y-105981000D03*
X172720000Y-104331000D03*
%TD*%
%TO.C,R10*%
X149225000Y-114490000D03*
X149225000Y-112840000D03*
%TD*%
D21*
%TO.C,R51*%
X122961832Y-80455000D03*
X122961832Y-82105000D03*
%TD*%
D10*
%TO.C,R44*%
X152845000Y-78740000D03*
X154495000Y-78740000D03*
%TD*%
D16*
%TO.C,J8*%
X137556000Y-140970000D03*
D17*
X140096000Y-140970000D03*
X142636000Y-140970000D03*
%TD*%
D25*
%TO.C,U2*%
X149857500Y-79375000D03*
X149857500Y-78105000D03*
X149857500Y-76835000D03*
X149857500Y-75565000D03*
X144782500Y-75565000D03*
X144782500Y-76835000D03*
X144782500Y-78105000D03*
X144782500Y-79375000D03*
%TD*%
D15*
%TO.C,D1*%
X137795000Y-116052500D03*
X137795000Y-117627500D03*
%TD*%
D18*
%TO.C,Q2*%
X159065000Y-96217500D03*
X157165000Y-96217500D03*
X158115000Y-98092500D03*
%TD*%
D21*
%TO.C,R12*%
X173990000Y-67755000D03*
X173990000Y-69405000D03*
%TD*%
D26*
%TO.C,SW5*%
X165140000Y-109938000D03*
X165140000Y-104438000D03*
X167640000Y-109938000D03*
X167640000Y-104438000D03*
X170140000Y-109938000D03*
X170140000Y-104438000D03*
%TD*%
D21*
%TO.C,R16*%
X173990000Y-74740000D03*
X173990000Y-76390000D03*
%TD*%
D27*
%TO.C,U5*%
X134352000Y-61570000D03*
X136652000Y-61570000D03*
X138952000Y-61570000D03*
D28*
X136652000Y-55270000D03*
%TD*%
D21*
%TO.C,R53*%
X128016000Y-80455000D03*
X128016000Y-82105000D03*
%TD*%
D16*
%TO.C,J2*%
X151373990Y-133350000D03*
D17*
X153913990Y-133350000D03*
X156453990Y-133350000D03*
%TD*%
D29*
%TO.C,C11*%
X131445000Y-65545000D03*
X131445000Y-63995000D03*
%TD*%
D10*
%TO.C,R39*%
X140780000Y-76835000D03*
X142430000Y-76835000D03*
%TD*%
D15*
%TO.C,D9*%
X141605000Y-116052500D03*
X141605000Y-117627500D03*
%TD*%
D19*
%TO.C,SW2*%
X163665000Y-73950000D03*
X171615000Y-73950000D03*
X171615000Y-78450000D03*
X163665000Y-78450000D03*
%TD*%
D29*
%TO.C,C1*%
X158115000Y-74435000D03*
X158115000Y-72885000D03*
%TD*%
D20*
%TO.C,R19*%
X153860000Y-103505000D03*
X152210000Y-103505000D03*
%TD*%
D11*
%TO.C,R22*%
X172720000Y-85153000D03*
X172720000Y-83503000D03*
%TD*%
D16*
%TO.C,J9*%
X137556000Y-144780000D03*
D17*
X140096000Y-144780000D03*
X142636000Y-144780000D03*
%TD*%
D30*
%TO.C,D15*%
X148305000Y-65405000D03*
X145065000Y-65405000D03*
%TD*%
D20*
%TO.C,R7*%
X148780000Y-93980000D03*
X147130000Y-93980000D03*
%TD*%
D27*
%TO.C,U3*%
X154545000Y-61570000D03*
X156845000Y-61570000D03*
X159145000Y-61570000D03*
D28*
X156845000Y-55270000D03*
%TD*%
D26*
%TO.C,SW4*%
X165140000Y-98762000D03*
X165140000Y-93262000D03*
X167640000Y-98762000D03*
X167640000Y-93262000D03*
X170140000Y-93262000D03*
X170140000Y-98762000D03*
%TD*%
%TO.C,SW6*%
X165140000Y-120098000D03*
X165140000Y-114598000D03*
X167640000Y-120098000D03*
X167640000Y-114598000D03*
X170140000Y-120098000D03*
X170140000Y-114598000D03*
%TD*%
D31*
%TO.C,C4*%
X145796907Y-73710643D03*
X144246907Y-73710643D03*
%TD*%
D32*
%TO.C,SW7*%
X124460000Y-71175000D03*
X124460000Y-66675000D03*
X124460000Y-62175000D03*
%TD*%
D20*
%TO.C,R3*%
X158940000Y-93980000D03*
X157290000Y-93980000D03*
%TD*%
D11*
%TO.C,R17*%
X145415000Y-114490000D03*
X145415000Y-112840000D03*
%TD*%
D18*
%TO.C,Q6*%
X138745000Y-96217500D03*
X136845000Y-96217500D03*
X137795000Y-98092500D03*
%TD*%
D33*
%TO.C,U1*%
X179070000Y-61590000D03*
X132080000Y-136520000D03*
X130810000Y-60320000D03*
X177800000Y-136520000D03*
D34*
X133350000Y-79370000D03*
X133350000Y-81910000D03*
X133350000Y-84450000D03*
X133350000Y-86990000D03*
X130810000Y-125090000D03*
X133350000Y-127630000D03*
X130810000Y-76830000D03*
X130810000Y-79370000D03*
X130810000Y-81910000D03*
X176530000Y-75306000D03*
X130810000Y-84450000D03*
X130810000Y-86990000D03*
X130810000Y-89530000D03*
X130810000Y-92070000D03*
X176530000Y-127630000D03*
X176530000Y-85466000D03*
X176530000Y-130170000D03*
X176530000Y-102230000D03*
X130810000Y-102230000D03*
X130810000Y-99690000D03*
X133350000Y-104770000D03*
X133350000Y-107310000D03*
X133350000Y-102230000D03*
X133350000Y-89530000D03*
X133350000Y-99690000D03*
X133350000Y-92070000D03*
X133350000Y-97150000D03*
X133350000Y-112390000D03*
X176530000Y-122550000D03*
X133350000Y-122550000D03*
X133350000Y-114930000D03*
X133350000Y-109850000D03*
X133350000Y-117470000D03*
X130810000Y-120010000D03*
X130810000Y-117470000D03*
X130810000Y-122550000D03*
X133350000Y-125090000D03*
X130810000Y-130170000D03*
X133350000Y-130170000D03*
X130810000Y-127630000D03*
X133350000Y-132710000D03*
X130810000Y-132710000D03*
X179070000Y-72766000D03*
X133350000Y-120010000D03*
X179070000Y-109850000D03*
X133350000Y-76830000D03*
X133350000Y-74290000D03*
X179070000Y-65146000D03*
D35*
X176530000Y-65146000D03*
D34*
X179070000Y-67686000D03*
X179070000Y-70226000D03*
D35*
X176530000Y-92070000D03*
D34*
X176530000Y-125090000D03*
X179070000Y-75306000D03*
X179070000Y-77846000D03*
X179070000Y-80386000D03*
X130810000Y-114930000D03*
X176530000Y-72766000D03*
X176530000Y-107310000D03*
X179070000Y-132710000D03*
X176530000Y-77846000D03*
X179070000Y-117470000D03*
X176530000Y-109850000D03*
X176530000Y-99690000D03*
X179070000Y-130170000D03*
X176530000Y-67686000D03*
X176530000Y-88006000D03*
X176530000Y-80386000D03*
X176530000Y-70226000D03*
X176530000Y-82926000D03*
X176530000Y-94610000D03*
X130810000Y-107310000D03*
D35*
X130810000Y-97150000D03*
D34*
X176530000Y-104770000D03*
X176530000Y-97150000D03*
X179070000Y-112390000D03*
X176530000Y-114930000D03*
X130810000Y-109850000D03*
X176530000Y-117470000D03*
X179070000Y-114930000D03*
X176530000Y-120010000D03*
X179070000Y-82926000D03*
X179070000Y-120010000D03*
X179070000Y-85466000D03*
X179070000Y-122550000D03*
X179070000Y-99690000D03*
X179070000Y-125090000D03*
X179070000Y-94610000D03*
X179070000Y-127630000D03*
X179070000Y-102230000D03*
X179070000Y-97150000D03*
X179070000Y-92070000D03*
X130810000Y-104770000D03*
X179070000Y-88006000D03*
X179070000Y-104770000D03*
X179070000Y-107310000D03*
X176530000Y-132710000D03*
X176530000Y-112390000D03*
X130810000Y-112390000D03*
D35*
X130810000Y-74290000D03*
%TD*%
D26*
%TO.C,SW3*%
X165140000Y-83102000D03*
X165140000Y-88602000D03*
X167640000Y-88602000D03*
X167640000Y-83102000D03*
X170140000Y-83102000D03*
X170140000Y-88602000D03*
%TD*%
D20*
%TO.C,R38*%
X154495000Y-76835000D03*
X152845000Y-76835000D03*
%TD*%
D11*
%TO.C,R13*%
X147320000Y-114490000D03*
X147320000Y-112840000D03*
%TD*%
%TO.C,R48*%
X178816000Y-146621000D03*
X178816000Y-144971000D03*
%TD*%
D20*
%TO.C,R1*%
X138620000Y-103505000D03*
X136970000Y-103505000D03*
%TD*%
D11*
%TO.C,R8*%
X151130000Y-114490000D03*
X151130000Y-112840000D03*
%TD*%
D36*
%TO.C,Q11*%
X185849500Y-141666000D03*
X185849500Y-139766000D03*
X183974500Y-140716000D03*
%TD*%
D18*
%TO.C,Q1*%
X138745000Y-105742500D03*
X136845000Y-105742500D03*
X137795000Y-107617500D03*
%TD*%
D21*
%TO.C,R37*%
X162940733Y-108395000D03*
X162940733Y-110045000D03*
%TD*%
D29*
%TO.C,C9*%
X152340347Y-66219768D03*
X152340347Y-64669768D03*
%TD*%
D20*
%TO.C,R5*%
X153860000Y-93980000D03*
X152210000Y-93980000D03*
%TD*%
D29*
%TO.C,C5*%
X163195000Y-58560000D03*
X163195000Y-57010000D03*
%TD*%
D11*
%TO.C,R41*%
X183896000Y-146113000D03*
X183896000Y-144463000D03*
%TD*%
D21*
%TO.C,R20*%
X172720000Y-87059000D03*
X172720000Y-88709000D03*
%TD*%
D15*
%TO.C,D8*%
X143510000Y-116052500D03*
X143510000Y-117627500D03*
%TD*%
D22*
%TO.C,C6*%
X156246652Y-68111847D03*
X157796652Y-68111847D03*
%TD*%
D12*
%TO.C,D11*%
X186944000Y-146075500D03*
X186944000Y-144500500D03*
%TD*%
D21*
%TO.C,R47*%
X182372000Y-135827000D03*
X182372000Y-137477000D03*
%TD*%
D20*
%TO.C,R11*%
X138620000Y-93980000D03*
X136970000Y-93980000D03*
%TD*%
D16*
%TO.C,BT1*%
X124460000Y-55880000D03*
D17*
X124460000Y-58420000D03*
%TD*%
D21*
%TO.C,R43*%
X149860000Y-84900000D03*
X149860000Y-86550000D03*
%TD*%
D16*
%TO.C,J5*%
X151373990Y-144780000D03*
D17*
X153913990Y-144780000D03*
X156453990Y-144780000D03*
%TD*%
D11*
%TO.C,R28*%
X172720000Y-95313000D03*
X172720000Y-93663000D03*
%TD*%
D12*
%TO.C,D18*%
X125476000Y-78893812D03*
X125476000Y-77318812D03*
%TD*%
D21*
%TO.C,R52*%
X125476000Y-80455000D03*
X125476000Y-82105000D03*
%TD*%
D11*
%TO.C,R27*%
X141605000Y-114490000D03*
X141605000Y-112840000D03*
%TD*%
D20*
%TO.C,R45*%
X141795000Y-78740000D03*
X140145000Y-78740000D03*
%TD*%
D21*
%TO.C,R42*%
X185420000Y-135827000D03*
X185420000Y-137477000D03*
%TD*%
D22*
%TO.C,C3*%
X148791199Y-73634053D03*
X150341199Y-73634053D03*
%TD*%
D36*
%TO.C,Q12*%
X180261500Y-142174000D03*
X180261500Y-140274000D03*
X178386500Y-141224000D03*
%TD*%
D16*
%TO.C,J7*%
X137556000Y-137160000D03*
D17*
X140096000Y-137160000D03*
X142636000Y-137160000D03*
%TD*%
D11*
%TO.C,R34*%
X172720000Y-116649000D03*
X172720000Y-114999000D03*
%TD*%
D18*
%TO.C,Q8*%
X153985000Y-105742500D03*
X152085000Y-105742500D03*
X153035000Y-107617500D03*
%TD*%
D12*
%TO.C,D13*%
X144780000Y-82702500D03*
X144780000Y-81127500D03*
%TD*%
D11*
%TO.C,R32*%
X139700000Y-114490000D03*
X139700000Y-112840000D03*
%TD*%
D37*
%TO.C,RV2*%
X138790000Y-72250000D03*
D38*
X142040000Y-73650000D03*
D37*
X138790000Y-75050000D03*
%TD*%
D21*
%TO.C,R50*%
X144780000Y-84900000D03*
X144780000Y-86550000D03*
%TD*%
D20*
%TO.C,R15*%
X158940000Y-103505000D03*
X157290000Y-103505000D03*
%TD*%
D12*
%TO.C,D12*%
X149860000Y-82702500D03*
X149860000Y-81127500D03*
%TD*%
%TO.C,D19*%
X128016000Y-78892500D03*
X128016000Y-77317500D03*
%TD*%
D20*
%TO.C,R25*%
X148780000Y-103505000D03*
X147130000Y-103505000D03*
%TD*%
D16*
%TO.C,J3*%
X151388990Y-137160000D03*
D17*
X153928990Y-137160000D03*
X156468990Y-137160000D03*
%TD*%
D18*
%TO.C,Q10*%
X143825000Y-105742500D03*
X141925000Y-105742500D03*
X142875000Y-107617500D03*
%TD*%
D30*
%TO.C,D14*%
X158659140Y-65405000D03*
X155419140Y-65405000D03*
%TD*%
D18*
%TO.C,Q4*%
X148905000Y-96217500D03*
X147005000Y-96217500D03*
X147955000Y-98092500D03*
%TD*%
D29*
%TO.C,C10*%
X142000661Y-66100463D03*
X142000661Y-64550463D03*
%TD*%
D20*
%TO.C,R36*%
X137350000Y-71120000D03*
X135700000Y-71120000D03*
%TD*%
D39*
%TO.C,Q13*%
X152085000Y-84757500D03*
X153985000Y-84757500D03*
X153035000Y-82882500D03*
%TD*%
D27*
%TO.C,U4*%
X144512000Y-61570000D03*
X146812000Y-61570000D03*
X149112000Y-61570000D03*
D28*
X146812000Y-55270000D03*
%TD*%
D30*
%TO.C,D16*%
X138145000Y-65405000D03*
X134905000Y-65405000D03*
%TD*%
D18*
%TO.C,Q9*%
X148905000Y-105742500D03*
X147005000Y-105742500D03*
X147955000Y-107617500D03*
%TD*%
D21*
%TO.C,R31*%
X172720000Y-118555000D03*
X172720000Y-120205000D03*
%TD*%
%TO.C,R18*%
X161290000Y-76010000D03*
X161290000Y-77660000D03*
%TD*%
D16*
%TO.C,J6*%
X137571000Y-133350000D03*
D17*
X140111000Y-133350000D03*
X142651000Y-133350000D03*
%TD*%
D21*
%TO.C,R24*%
X162560000Y-87567000D03*
X162560000Y-89217000D03*
%TD*%
D40*
%TO.C,BZ1*%
X162390000Y-140716000D03*
X172890000Y-140716000D03*
%TD*%
D15*
%TO.C,D10*%
X139700000Y-116052500D03*
X139700000Y-117627500D03*
%TD*%
D21*
%TO.C,R26*%
X172720000Y-97219000D03*
X172720000Y-98869000D03*
%TD*%
M02*
