M48
; DRILL file {KiCad (6.0.2)} date Sat Mar 26 13:32:28 2022
; FORMAT={-:-/ absolute / inch / decimal}
; #@! TF.CreationDate,2022-03-26T13:32:28+00:00
; #@! TF.GenerationSoftware,Kicad,Pcbnew,(6.0.2)
; #@! TF.FileFunction,Plated,1,2,PTH
FMAT,2
INCH
; #@! TA.AperFunction,Plated,PTH,ViaDrill
T1C0.0157
; #@! TA.AperFunction,Plated,PTH,ComponentDrill
T2C0.0300
; #@! TA.AperFunction,Plated,PTH,ComponentDrill
T3C0.0394
; #@! TA.AperFunction,Plated,PTH,ComponentDrill
T4C0.0402
; #@! TA.AperFunction,Plated,PTH,ComponentDrill
T5C0.0472
%
G90
G05
T1
X5.1Y-2.8
X5.1Y-3.275
X5.225Y-2.775
X5.375Y-2.575
X5.4Y-2.725
X5.4Y-3.25
X5.475Y-3.425
X5.5267Y-4.1096
X5.5285Y-3.6982
X5.575Y-2.25
X5.575Y-2.8
X5.6032Y-2.0935
X5.6319Y-3.1423
X5.65Y-2.775
X5.6875Y-2.6685
X5.7263Y-4.0987
X5.75Y-3.625
X5.8Y-3.1
X5.8Y-3.475
X5.8Y-5.775
X5.9Y-2.725
X5.9265Y-4.1041
X5.9282Y-3.6991
X5.95Y-3.525
X5.975Y-2.25
X5.975Y-2.975
X6.0Y-3.45
X6.0Y-4.775
X6.025Y-2.775
X6.1275Y-4.1095
X6.15Y-3.575
X6.25Y-3.1
X6.275Y-2.3
X6.32Y-4.58
X6.377Y-2.1401
X6.4205Y-2.4451
X6.5Y-3.58
X6.5Y-4.22
X6.54Y-4.0
X6.6Y-2.525
X6.6Y-3.0
X6.65Y-2.85
X6.68Y-4.0
X6.6906Y-3.0007
X6.75Y-2.525
X6.84Y-4.04
X6.85Y-2.475
X7.05Y-2.25
X7.1326Y-5.7032
X7.175Y-2.7
X7.225Y-2.875
X7.325Y-5.275
T2
X6.3933Y-5.54
X6.8067Y-5.54
T3
X4.9Y-2.2
X4.9Y-2.3
X5.4156Y-5.4
X5.4156Y-5.55
X5.4156Y-5.7
X5.4162Y-5.25
X5.5156Y-5.4
X5.5156Y-5.55
X5.5156Y-5.7
X5.5162Y-5.25
X5.575Y-5.025
X5.6156Y-5.4
X5.6156Y-5.55
X5.6156Y-5.7
X5.6162Y-5.25
X5.675Y-5.025
X5.775Y-5.025
X5.875Y-5.025
X5.9596Y-5.25
X5.9596Y-5.55
X5.9596Y-5.7
X5.9602Y-5.4
X5.975Y-5.025
X6.0596Y-5.25
X6.0596Y-5.55
X6.0596Y-5.7
X6.0602Y-5.4
X6.075Y-5.025
X6.1596Y-5.25
X6.1596Y-5.55
X6.1596Y-5.7
X6.1602Y-5.4
T4
X5.15Y-2.9248
X5.15Y-3.0248
X5.15Y-3.1248
X5.15Y-3.2248
X5.15Y-3.3248
X5.15Y-3.4248
X5.15Y-3.5248
X5.15Y-3.6248
X5.15Y-3.8248
X5.15Y-3.9248
X5.15Y-4.0248
X5.15Y-4.1248
X5.15Y-4.2248
X5.15Y-4.3248
X5.15Y-4.4248
X5.15Y-4.5248
X5.15Y-4.6248
X5.15Y-4.7248
X5.15Y-4.8248
X5.15Y-4.9248
X5.15Y-5.0248
X5.15Y-5.1248
X5.15Y-5.2248
X5.25Y-2.9248
X5.25Y-3.0248
X5.25Y-3.1248
X5.25Y-3.2248
X5.25Y-3.3248
X5.25Y-3.4248
X5.25Y-3.5248
X5.25Y-3.6248
X5.25Y-3.8248
X5.25Y-3.9248
X5.25Y-4.0248
X5.25Y-4.1248
X5.25Y-4.2248
X5.25Y-4.3248
X5.25Y-4.4248
X5.25Y-4.5248
X5.25Y-4.6248
X5.25Y-4.7248
X5.25Y-4.8248
X5.25Y-4.9248
X5.25Y-5.0248
X5.25Y-5.1248
X5.25Y-5.2248
X6.95Y-2.5648
X6.95Y-2.6648
X6.95Y-2.7648
X6.95Y-2.8648
X6.95Y-2.9648
X6.95Y-3.0648
X6.95Y-3.1648
X6.95Y-3.2648
X6.95Y-3.3648
X6.95Y-3.4648
X6.95Y-3.6248
X6.95Y-3.7248
X6.95Y-3.8248
X6.95Y-3.9248
X6.95Y-4.0248
X6.95Y-4.1248
X6.95Y-4.2248
X6.95Y-4.3248
X6.95Y-4.4248
X6.95Y-4.5248
X6.95Y-4.6248
X6.95Y-4.7248
X6.95Y-4.8248
X6.95Y-4.9248
X6.95Y-5.0248
X6.95Y-5.1248
X6.95Y-5.2248
X7.05Y-2.5648
X7.05Y-2.6648
X7.05Y-2.7648
X7.05Y-2.8648
X7.05Y-2.9648
X7.05Y-3.0648
X7.05Y-3.1648
X7.05Y-3.2648
X7.05Y-3.3648
X7.05Y-3.4648
X7.05Y-3.6248
X7.05Y-3.7248
X7.05Y-3.8248
X7.05Y-3.9248
X7.05Y-4.0248
X7.05Y-4.1248
X7.05Y-4.2248
X7.05Y-4.3248
X7.05Y-4.4248
X7.05Y-4.5248
X7.05Y-4.6248
X7.05Y-4.7248
X7.05Y-4.8248
X7.05Y-4.9248
X7.05Y-5.0248
X7.05Y-5.1248
X7.05Y-5.2248
T5
G00X4.8803Y-2.4478
M15
G01X4.9197Y-2.4478
M16
G05
G00X4.8803Y-2.625
M15
G01X4.9197Y-2.625
M16
G05
G00X4.8803Y-2.8022
M15
G01X4.9197Y-2.8022
M16
G05
T0
M30
