%TF.GenerationSoftware,KiCad,Pcbnew,7.0.1*%
%TF.CreationDate,2023-04-25T20:04:54+01:00*%
%TF.ProjectId,BreakawayConnector_2,42726561-6b61-4776-9179-436f6e6e6563,rev?*%
%TF.SameCoordinates,Original*%
%TF.FileFunction,Legend,Top*%
%TF.FilePolarity,Positive*%
%FSLAX46Y46*%
G04 Gerber Fmt 4.6, Leading zero omitted, Abs format (unit mm)*
G04 Created by KiCad (PCBNEW 7.0.1) date 2023-04-25 20:04:54*
%MOMM*%
%LPD*%
G01*
G04 APERTURE LIST*
%ADD10C,0.100000*%
G04 APERTURE END LIST*
D10*
X97738095Y-117877619D02*
X97738095Y-116877619D01*
X97738095Y-117353809D02*
X98309523Y-117353809D01*
X98309523Y-117877619D02*
X98309523Y-116877619D01*
X98785714Y-117353809D02*
X99119047Y-117353809D01*
X99261904Y-117877619D02*
X98785714Y-117877619D01*
X98785714Y-117877619D02*
X98785714Y-116877619D01*
X98785714Y-116877619D02*
X99261904Y-116877619D01*
X99547619Y-116877619D02*
X99880952Y-117877619D01*
X99880952Y-117877619D02*
X100214285Y-116877619D01*
X101119047Y-117782380D02*
X101071428Y-117830000D01*
X101071428Y-117830000D02*
X100928571Y-117877619D01*
X100928571Y-117877619D02*
X100833333Y-117877619D01*
X100833333Y-117877619D02*
X100690476Y-117830000D01*
X100690476Y-117830000D02*
X100595238Y-117734761D01*
X100595238Y-117734761D02*
X100547619Y-117639523D01*
X100547619Y-117639523D02*
X100500000Y-117449047D01*
X100500000Y-117449047D02*
X100500000Y-117306190D01*
X100500000Y-117306190D02*
X100547619Y-117115714D01*
X100547619Y-117115714D02*
X100595238Y-117020476D01*
X100595238Y-117020476D02*
X100690476Y-116925238D01*
X100690476Y-116925238D02*
X100833333Y-116877619D01*
X100833333Y-116877619D02*
X100928571Y-116877619D01*
X100928571Y-116877619D02*
X101071428Y-116925238D01*
X101071428Y-116925238D02*
X101119047Y-116972857D01*
X101500000Y-117830000D02*
X101642857Y-117877619D01*
X101642857Y-117877619D02*
X101880952Y-117877619D01*
X101880952Y-117877619D02*
X101976190Y-117830000D01*
X101976190Y-117830000D02*
X102023809Y-117782380D01*
X102023809Y-117782380D02*
X102071428Y-117687142D01*
X102071428Y-117687142D02*
X102071428Y-117591904D01*
X102071428Y-117591904D02*
X102023809Y-117496666D01*
X102023809Y-117496666D02*
X101976190Y-117449047D01*
X101976190Y-117449047D02*
X101880952Y-117401428D01*
X101880952Y-117401428D02*
X101690476Y-117353809D01*
X101690476Y-117353809D02*
X101595238Y-117306190D01*
X101595238Y-117306190D02*
X101547619Y-117258571D01*
X101547619Y-117258571D02*
X101500000Y-117163333D01*
X101500000Y-117163333D02*
X101500000Y-117068095D01*
X101500000Y-117068095D02*
X101547619Y-116972857D01*
X101547619Y-116972857D02*
X101595238Y-116925238D01*
X101595238Y-116925238D02*
X101690476Y-116877619D01*
X101690476Y-116877619D02*
X101928571Y-116877619D01*
X101928571Y-116877619D02*
X102071428Y-116925238D01*
X94638095Y-119177619D02*
X94638095Y-118177619D01*
X94638095Y-118177619D02*
X94876190Y-118177619D01*
X94876190Y-118177619D02*
X95019047Y-118225238D01*
X95019047Y-118225238D02*
X95114285Y-118320476D01*
X95114285Y-118320476D02*
X95161904Y-118415714D01*
X95161904Y-118415714D02*
X95209523Y-118606190D01*
X95209523Y-118606190D02*
X95209523Y-118749047D01*
X95209523Y-118749047D02*
X95161904Y-118939523D01*
X95161904Y-118939523D02*
X95114285Y-119034761D01*
X95114285Y-119034761D02*
X95019047Y-119130000D01*
X95019047Y-119130000D02*
X94876190Y-119177619D01*
X94876190Y-119177619D02*
X94638095Y-119177619D01*
X96209523Y-119082380D02*
X96161904Y-119130000D01*
X96161904Y-119130000D02*
X96019047Y-119177619D01*
X96019047Y-119177619D02*
X95923809Y-119177619D01*
X95923809Y-119177619D02*
X95780952Y-119130000D01*
X95780952Y-119130000D02*
X95685714Y-119034761D01*
X95685714Y-119034761D02*
X95638095Y-118939523D01*
X95638095Y-118939523D02*
X95590476Y-118749047D01*
X95590476Y-118749047D02*
X95590476Y-118606190D01*
X95590476Y-118606190D02*
X95638095Y-118415714D01*
X95638095Y-118415714D02*
X95685714Y-118320476D01*
X95685714Y-118320476D02*
X95780952Y-118225238D01*
X95780952Y-118225238D02*
X95923809Y-118177619D01*
X95923809Y-118177619D02*
X96019047Y-118177619D01*
X96019047Y-118177619D02*
X96161904Y-118225238D01*
X96161904Y-118225238D02*
X96209523Y-118272857D01*
X96685714Y-119130000D02*
X96685714Y-119177619D01*
X96685714Y-119177619D02*
X96638095Y-119272857D01*
X96638095Y-119272857D02*
X96590476Y-119320476D01*
X98161904Y-118177619D02*
X98161904Y-118891904D01*
X98161904Y-118891904D02*
X98114285Y-119034761D01*
X98114285Y-119034761D02*
X98019047Y-119130000D01*
X98019047Y-119130000D02*
X97876190Y-119177619D01*
X97876190Y-119177619D02*
X97780952Y-119177619D01*
X98638095Y-119177619D02*
X98638095Y-118177619D01*
X98638095Y-118177619D02*
X99019047Y-118177619D01*
X99019047Y-118177619D02*
X99114285Y-118225238D01*
X99114285Y-118225238D02*
X99161904Y-118272857D01*
X99161904Y-118272857D02*
X99209523Y-118368095D01*
X99209523Y-118368095D02*
X99209523Y-118510952D01*
X99209523Y-118510952D02*
X99161904Y-118606190D01*
X99161904Y-118606190D02*
X99114285Y-118653809D01*
X99114285Y-118653809D02*
X99019047Y-118701428D01*
X99019047Y-118701428D02*
X98638095Y-118701428D01*
X99685714Y-119130000D02*
X99685714Y-119177619D01*
X99685714Y-119177619D02*
X99638095Y-119272857D01*
X99638095Y-119272857D02*
X99590476Y-119320476D01*
X101352380Y-119177619D02*
X100876190Y-119177619D01*
X100876190Y-119177619D02*
X100876190Y-118177619D01*
X101590476Y-118177619D02*
X101828571Y-119177619D01*
X101828571Y-119177619D02*
X102019047Y-118463333D01*
X102019047Y-118463333D02*
X102209523Y-119177619D01*
X102209523Y-119177619D02*
X102447619Y-118177619D01*
X102876190Y-119130000D02*
X102876190Y-119177619D01*
X102876190Y-119177619D02*
X102828571Y-119272857D01*
X102828571Y-119272857D02*
X102780952Y-119320476D01*
X104066666Y-119177619D02*
X104066666Y-118177619D01*
X104066666Y-118177619D02*
X104638094Y-119177619D01*
X104638094Y-119177619D02*
X104638094Y-118177619D01*
X105114285Y-119177619D02*
X105114285Y-118177619D01*
X105114285Y-118653809D02*
X105685713Y-118653809D01*
X105685713Y-119177619D02*
X105685713Y-118177619D01*
%TO.C,J1*%
X99666666Y-82162619D02*
X99666666Y-82876904D01*
X99666666Y-82876904D02*
X99619047Y-83019761D01*
X99619047Y-83019761D02*
X99523809Y-83115000D01*
X99523809Y-83115000D02*
X99380952Y-83162619D01*
X99380952Y-83162619D02*
X99285714Y-83162619D01*
X100666666Y-83162619D02*
X100095238Y-83162619D01*
X100380952Y-83162619D02*
X100380952Y-82162619D01*
X100380952Y-82162619D02*
X100285714Y-82305476D01*
X100285714Y-82305476D02*
X100190476Y-82400714D01*
X100190476Y-82400714D02*
X100095238Y-82448333D01*
%TO.C,J2*%
X99666666Y-110162619D02*
X99666666Y-110876904D01*
X99666666Y-110876904D02*
X99619047Y-111019761D01*
X99619047Y-111019761D02*
X99523809Y-111115000D01*
X99523809Y-111115000D02*
X99380952Y-111162619D01*
X99380952Y-111162619D02*
X99285714Y-111162619D01*
X100095238Y-110257857D02*
X100142857Y-110210238D01*
X100142857Y-110210238D02*
X100238095Y-110162619D01*
X100238095Y-110162619D02*
X100476190Y-110162619D01*
X100476190Y-110162619D02*
X100571428Y-110210238D01*
X100571428Y-110210238D02*
X100619047Y-110257857D01*
X100619047Y-110257857D02*
X100666666Y-110353095D01*
X100666666Y-110353095D02*
X100666666Y-110448333D01*
X100666666Y-110448333D02*
X100619047Y-110591190D01*
X100619047Y-110591190D02*
X100047619Y-111162619D01*
X100047619Y-111162619D02*
X100666666Y-111162619D01*
%TO.C,J1*%
X113500000Y-100000000D02*
G75*
G03*
X113500000Y-100000000I-13500000J0D01*
G01*
X116500000Y-100000000D02*
G75*
G03*
X116500000Y-100000000I-16500000J0D01*
G01*
%TO.C,J2*%
X111500000Y-100000000D02*
G75*
G03*
X111500000Y-100000000I-11500000J0D01*
G01*
X113500000Y-100000000D02*
G75*
G03*
X113500000Y-100000000I-13500000J0D01*
G01*
%TD*%
M02*
