%TF.GenerationSoftware,KiCad,Pcbnew,(7.0.0)*%
%TF.CreationDate,2023-04-25T13:05:00+01:00*%
%TF.ProjectId,BreakawayConnector_2,42726561-6b61-4776-9179-436f6e6e6563,rev?*%
%TF.SameCoordinates,Original*%
%TF.FileFunction,Legend,Top*%
%TF.FilePolarity,Positive*%
%FSLAX46Y46*%
G04 Gerber Fmt 4.6, Leading zero omitted, Abs format (unit mm)*
G04 Created by KiCad (PCBNEW (7.0.0)) date 2023-04-25 13:05:00*
%MOMM*%
%LPD*%
G01*
G04 APERTURE LIST*
%ADD10C,0.100000*%
G04 APERTURE END LIST*
D10*
X97738095Y-117782380D02*
X97738095Y-116782380D01*
X97738095Y-117258571D02*
X98309523Y-117258571D01*
X98309523Y-117782380D02*
X98309523Y-116782380D01*
X98785714Y-117258571D02*
X99119047Y-117258571D01*
X99261904Y-117782380D02*
X98785714Y-117782380D01*
X98785714Y-117782380D02*
X98785714Y-116782380D01*
X98785714Y-116782380D02*
X99261904Y-116782380D01*
X99547619Y-116782380D02*
X99880952Y-117782380D01*
X99880952Y-117782380D02*
X100214285Y-116782380D01*
X101119047Y-117687142D02*
X101071428Y-117734761D01*
X101071428Y-117734761D02*
X100928571Y-117782380D01*
X100928571Y-117782380D02*
X100833333Y-117782380D01*
X100833333Y-117782380D02*
X100690476Y-117734761D01*
X100690476Y-117734761D02*
X100595238Y-117639523D01*
X100595238Y-117639523D02*
X100547619Y-117544285D01*
X100547619Y-117544285D02*
X100500000Y-117353809D01*
X100500000Y-117353809D02*
X100500000Y-117210952D01*
X100500000Y-117210952D02*
X100547619Y-117020476D01*
X100547619Y-117020476D02*
X100595238Y-116925238D01*
X100595238Y-116925238D02*
X100690476Y-116830000D01*
X100690476Y-116830000D02*
X100833333Y-116782380D01*
X100833333Y-116782380D02*
X100928571Y-116782380D01*
X100928571Y-116782380D02*
X101071428Y-116830000D01*
X101071428Y-116830000D02*
X101119047Y-116877619D01*
X101500000Y-117734761D02*
X101642857Y-117782380D01*
X101642857Y-117782380D02*
X101880952Y-117782380D01*
X101880952Y-117782380D02*
X101976190Y-117734761D01*
X101976190Y-117734761D02*
X102023809Y-117687142D01*
X102023809Y-117687142D02*
X102071428Y-117591904D01*
X102071428Y-117591904D02*
X102071428Y-117496666D01*
X102071428Y-117496666D02*
X102023809Y-117401428D01*
X102023809Y-117401428D02*
X101976190Y-117353809D01*
X101976190Y-117353809D02*
X101880952Y-117306190D01*
X101880952Y-117306190D02*
X101690476Y-117258571D01*
X101690476Y-117258571D02*
X101595238Y-117210952D01*
X101595238Y-117210952D02*
X101547619Y-117163333D01*
X101547619Y-117163333D02*
X101500000Y-117068095D01*
X101500000Y-117068095D02*
X101500000Y-116972857D01*
X101500000Y-116972857D02*
X101547619Y-116877619D01*
X101547619Y-116877619D02*
X101595238Y-116830000D01*
X101595238Y-116830000D02*
X101690476Y-116782380D01*
X101690476Y-116782380D02*
X101928571Y-116782380D01*
X101928571Y-116782380D02*
X102071428Y-116830000D01*
X94638095Y-119082380D02*
X94638095Y-118082380D01*
X94638095Y-118082380D02*
X94876190Y-118082380D01*
X94876190Y-118082380D02*
X95019047Y-118130000D01*
X95019047Y-118130000D02*
X95114285Y-118225238D01*
X95114285Y-118225238D02*
X95161904Y-118320476D01*
X95161904Y-118320476D02*
X95209523Y-118510952D01*
X95209523Y-118510952D02*
X95209523Y-118653809D01*
X95209523Y-118653809D02*
X95161904Y-118844285D01*
X95161904Y-118844285D02*
X95114285Y-118939523D01*
X95114285Y-118939523D02*
X95019047Y-119034761D01*
X95019047Y-119034761D02*
X94876190Y-119082380D01*
X94876190Y-119082380D02*
X94638095Y-119082380D01*
X96209523Y-118987142D02*
X96161904Y-119034761D01*
X96161904Y-119034761D02*
X96019047Y-119082380D01*
X96019047Y-119082380D02*
X95923809Y-119082380D01*
X95923809Y-119082380D02*
X95780952Y-119034761D01*
X95780952Y-119034761D02*
X95685714Y-118939523D01*
X95685714Y-118939523D02*
X95638095Y-118844285D01*
X95638095Y-118844285D02*
X95590476Y-118653809D01*
X95590476Y-118653809D02*
X95590476Y-118510952D01*
X95590476Y-118510952D02*
X95638095Y-118320476D01*
X95638095Y-118320476D02*
X95685714Y-118225238D01*
X95685714Y-118225238D02*
X95780952Y-118130000D01*
X95780952Y-118130000D02*
X95923809Y-118082380D01*
X95923809Y-118082380D02*
X96019047Y-118082380D01*
X96019047Y-118082380D02*
X96161904Y-118130000D01*
X96161904Y-118130000D02*
X96209523Y-118177619D01*
X96685714Y-119034761D02*
X96685714Y-119082380D01*
X96685714Y-119082380D02*
X96638095Y-119177619D01*
X96638095Y-119177619D02*
X96590476Y-119225238D01*
X97999999Y-118082380D02*
X97999999Y-118796666D01*
X97999999Y-118796666D02*
X97952380Y-118939523D01*
X97952380Y-118939523D02*
X97857142Y-119034761D01*
X97857142Y-119034761D02*
X97714285Y-119082380D01*
X97714285Y-119082380D02*
X97619047Y-119082380D01*
X98476190Y-119082380D02*
X98476190Y-118082380D01*
X98476190Y-118082380D02*
X98857142Y-118082380D01*
X98857142Y-118082380D02*
X98952380Y-118130000D01*
X98952380Y-118130000D02*
X98999999Y-118177619D01*
X98999999Y-118177619D02*
X99047618Y-118272857D01*
X99047618Y-118272857D02*
X99047618Y-118415714D01*
X99047618Y-118415714D02*
X98999999Y-118510952D01*
X98999999Y-118510952D02*
X98952380Y-118558571D01*
X98952380Y-118558571D02*
X98857142Y-118606190D01*
X98857142Y-118606190D02*
X98476190Y-118606190D01*
X99523809Y-119034761D02*
X99523809Y-119082380D01*
X99523809Y-119082380D02*
X99476190Y-119177619D01*
X99476190Y-119177619D02*
X99428571Y-119225238D01*
X101028570Y-119082380D02*
X100552380Y-119082380D01*
X100552380Y-119082380D02*
X100552380Y-118082380D01*
X101266666Y-118082380D02*
X101504761Y-119082380D01*
X101504761Y-119082380D02*
X101695237Y-118368095D01*
X101695237Y-118368095D02*
X101885713Y-119082380D01*
X101885713Y-119082380D02*
X102123809Y-118082380D01*
X102552380Y-119034761D02*
X102552380Y-119082380D01*
X102552380Y-119082380D02*
X102504761Y-119177619D01*
X102504761Y-119177619D02*
X102457142Y-119225238D01*
X103580951Y-119082380D02*
X103580951Y-118082380D01*
X103580951Y-118082380D02*
X104152379Y-119082380D01*
X104152379Y-119082380D02*
X104152379Y-118082380D01*
X104628570Y-119082380D02*
X104628570Y-118082380D01*
X104628570Y-118558571D02*
X105199998Y-118558571D01*
X105199998Y-119082380D02*
X105199998Y-118082380D01*
%TO.C,J1*%
X99666666Y-82067380D02*
X99666666Y-82781666D01*
X99666666Y-82781666D02*
X99619047Y-82924523D01*
X99619047Y-82924523D02*
X99523809Y-83019761D01*
X99523809Y-83019761D02*
X99380952Y-83067380D01*
X99380952Y-83067380D02*
X99285714Y-83067380D01*
X100666666Y-83067380D02*
X100095238Y-83067380D01*
X100380952Y-83067380D02*
X100380952Y-82067380D01*
X100380952Y-82067380D02*
X100285714Y-82210238D01*
X100285714Y-82210238D02*
X100190476Y-82305476D01*
X100190476Y-82305476D02*
X100095238Y-82353095D01*
%TO.C,J2*%
X99666666Y-110067380D02*
X99666666Y-110781666D01*
X99666666Y-110781666D02*
X99619047Y-110924523D01*
X99619047Y-110924523D02*
X99523809Y-111019761D01*
X99523809Y-111019761D02*
X99380952Y-111067380D01*
X99380952Y-111067380D02*
X99285714Y-111067380D01*
X100095238Y-110162619D02*
X100142857Y-110115000D01*
X100142857Y-110115000D02*
X100238095Y-110067380D01*
X100238095Y-110067380D02*
X100476190Y-110067380D01*
X100476190Y-110067380D02*
X100571428Y-110115000D01*
X100571428Y-110115000D02*
X100619047Y-110162619D01*
X100619047Y-110162619D02*
X100666666Y-110257857D01*
X100666666Y-110257857D02*
X100666666Y-110353095D01*
X100666666Y-110353095D02*
X100619047Y-110495952D01*
X100619047Y-110495952D02*
X100047619Y-111067380D01*
X100047619Y-111067380D02*
X100666666Y-111067380D01*
%TO.C,J1*%
X113500000Y-100000000D02*
G75*
G03*
X113500000Y-100000000I-13500000J0D01*
G01*
X116500000Y-100000000D02*
G75*
G03*
X116500000Y-100000000I-16500000J0D01*
G01*
%TO.C,J2*%
X111500000Y-100000000D02*
G75*
G03*
X111500000Y-100000000I-11500000J0D01*
G01*
X113500000Y-100000000D02*
G75*
G03*
X113500000Y-100000000I-13500000J0D01*
G01*
%TD*%
M02*
